P3 60 60 255
254 255 253 255 255 253 255 255 255 255 254 255 255 254 255 255 254 255 255 254 255 255 255 255 255 255 255 254 255 255 254 255 255 253 255 254 253 255 254 253 255 254 253 255 254 254 255 255 255 251 255 255 253 255 252 255 255 249 255 255 251 255 248 252 255 244 252 255 248 252 255 251 251 255 252 252 255 251 254 253 248 255 254 251 255 252 255 255 253 255 255 255 253 251 255 248 255 254 255 254 255 255 251 255 255 249 255 255 250 255 249 251 255 247 255 255 253 255 252 255 255 252 255 255 254 253 255 255 248 249 255 250 247 255 255 249 255 255 255 254 255 255 252 253 252 255 255 254 255 255 254 255 255 254 255 255 255 255 255 255 255 253 255 255 253 254 255 251 254 255 253 254 255 255 254 255 255 254 255 255 254 255 253 254 255 253 255 255 255 255 255 255 255 254 255 255 254 255 255 254 255 255 255 255 255 255 255 254 255 255 254 255 255 253 255 254 253 255 254 254 254 254 255 255 255 255 255 255 255 253 255 255 254 255 252 255 255 249 255 255 248 255 249 251 255 250 252 255 253 252 255 255 252 255 255 252 255 255 255 255 253 255 254 255 254 248 255 255 252 255 251 252 255 251 255 253 255 255 251 255 255 255 254 255 255 252 255 255 251 255 250 254 255 250 255 255 253 255 253 255 255 252 255 255 252 253 255 255 248 254 255 250 251 255 255 252 255 255 255 253 255 255 252 251 253 255 254 253 255 254 253 255 254 254 254 254 255 255 255 255 255 253 255 255 253 254 255 253 254 255 253 254 255 255 254 255 255 254 255 255 254 255 253 254 255 253 255 255 255 255 255 255 255 254 255 255 254 255 255 254 255 255 255 255 255 255 255 255 255 255 255 255 255 255 255 255 255 255 255 255 255 255 255 254 255 255 254 255 255 255 244 255 255 250 251 255 254 246 255 254 245 255 254 247 255 255 252 255 255 254 255 255 254 255 255 254 255 255 248 252 253 245 249 255 232 235 252 236 239 255 232 236 247 239 247 249 255 255 244 255 255 251 255 254 255 255 254 255 255 255 255 254 255 253 254 255 255 255 254 255 255 253 255 255 252 253 255 253 250 255 254 253 255 254 255 255 254 255 255 253 255 255 253 251 252 254 253 252 254 253 253 255 254 254 254 254 255 255 255 255 255 253 255 255 253 255 255 253 254 255 253 254 255 253 254 255 255 254 255 255 254 255 253 254 255 253 255 255 255 255 255 255 255 255 255 255 255 255 255 254 255 255 254 255 255 255 255 255 255 255 255 255 253 255 255 253 255 254 255 255 254 255 255 254 255 255 253 255 255 255 244 254 255 249 248 254 254 242 253 255 239 253 255 242 253 255 249 255 255 254 255 255 255 254 255 255 255 251 247 255 255 232 245 254 209 224 247 213 227 253 214 225 243 236 245 254 252 255 242 255 255 250 255 254 255 255 253 255 255 254 255 252 255 255 249 255 255 241 247 255 244 246 255 251 248 255 255 252 255 255 253 255 255 253 255 255 254 255 255 254 255 255 255 255 253 255 252 253 255 252 255 255 255 255 255 255 255 255 255 255 255 253 255 255 253 255 255 253 255 255 253 254 255 253 254 255 255 254 255 255 254 255 253 254 255 255 255 255 255 255 255 255 255 255 255 255 255 255 255 255 255 255 255 255 255 255 255 255 255 253 255 255 253 255 255 253 255 254 255 255 254 255 255 253 255 255 253 255 254 254 252 249 253 255 243 252 255 238 253 255 232 251 255 233 251 255 244 255 255 254 255 255 255 253 246 255 255 246 249 255 255 221 239 253 186 209 240 189 212 246 194 211 239 233 246 255 248 255 250 252 255 253 255 254 255 255 253 255 254 255 255 248 255 255 233 247 255 220 235 254 227 238 255 234 240 255 242 244 255 250 248 255 253 251 255 254 254 255 252 255 255 252 255 255 254 255 253 255 255 253 255 255 255 255 254 255 255 254 255 255 254 255 255 253 254 254 254 254 255 255 253 255 255 253 254 255 253 254 255 255 255 255 255 255 255 255 255 255 255 255 255 255 255 255 255 255 255 255 255 255 255 255 255 255 255 255 253 255 255 253 255 255 253 255 255 253 255 254 255 255 253 254 254 252 255 254 252 255 247 254 255 243 252 255 239 252 255 232 252 255 223 251 252 221 250 248 233 252 250 250 255 250 255 255 246 255 254 245 249 255 255 212 232 255 170 197 244 168 194 245 172 193 236 227 241 255 245 255 255 249 255 255 255 254 255 255 254 255 252 255 255 239 252 255 214 232 252 207 226 255 216 232 255 221 235 255 230 238 255 237 241 253 240 242 254 245 245 253 246 249 254 247 253 253 254 254 254 255 255 255 255 255 255 255 254 255 255 254 255 255 254 255 255 253 254 254 252 253 255 255 255 255 255 253 254 255 253 254 255 253 255 255 255 255 255 255 255 255 255 255 255 255 255 255 255 255 255 255 255 255 255 255 255 253 255 255 253 255 255 253 255 255 253 255 255 253 253 255 254 252 253 255 251 252 255 250 251 255 238 255 255 235 252 255 231 252 255 225 254 252 215 252 245 208 248 240 219 250 245 238 253 250 255 255 255 255 252 255 252 253 255 208 222 255 158 181 248 150 177 248 152 174 234 214 230 255 227 239 253 241 244 255 252 250 255 255 254 255 248 255 255 214 232 242 188 212 236 189 213 251 199 220 255 205 223 255 213 229 255 220 232 248 229 233 244 236 236 244 241 242 247 246 247 251 251 251 253 252 252 254 253 253 255 255 254 255 255 254 255 255 254 255 255 254 255 255 253 254 255 255 255 255 255 255 255 255 253 254 255 253 255 254 255 255 254 255 255 255 255 255 255 255 255 255 255 255 255 255 254 255 253 254 255 253 254 255 253 254 255 253 254 255 253 252 255 255 250 255 255 246 254 255 245 253 255 243 253 255 231 255 255 228 253 255 225 253 254 218 255 248 205 252 244 196 249 243 205 248 254 226 249 255 246 251 255 240 234 255 237 232 255 193 199 255 141 158 236 129 150 231 125 144 213 190 207 255 205 214 243 224 228 255 243 244 255 248 255 255 230 250 255 189 218 236 162 195 228 172 200 247 181 206 255 187 211 255 195 217 255 206 223 249 218 226 245 229 231 244 240 240 252 245 245 255 246 246 254 249 248 254 251 250 255 254 252 255 255 254 255 255 254 255 255 254 255 255 254 255 255 254 255 255 255 255 255 255 253 255 255 253 255 254 255 255 254 255 255 254 255 255 255 255 255 255 255 255 255 255 254 255 253 254 255 253 254 255 253 252 255 253 251 255 255 245 254 251 242 252 253 241 255 255 241 255 255 236 254 255 224 255 255 216 250 251 209 245 245 212 255 254 198 254 253 183 246 253 185 240 255 201 235 255 213 225 255 228 222 255 203 194 247 167 167 231 102 112 184 108 125 195 99 115 174 141 155 200 161 170 209 187 195 232 206 216 251 230 254 255 195 234 255 146 195 227 143 190 232 166 203 255 165 195 255 169 200 255 172 202 254 184 208 252 199 215 249 212 219 248 223 227 252 232 234 255 242 241 255 244 244 255 251 250 255 255 254 255 255 254 255 255 254 255 255 254 255 253 251 252 255 254 255 255 255 255 255 255 253 255 255 253 255 254 255 255 254 255 255 254 255 255 255 255 255 255 255 254 255 253 254 255 253 254 255 253 249 254 250 250 255 252 246 255 252 241 253 251 237 253 253 236 255 255 231 255 255 226 251 255 213 253 255 214 253 255 214 255 255 189 239 248 177 239 252 175 246 255 168 232 255 170 214 255 182 202 253 180 181 229 162 154 201 123 119 169 23 26 77 0 0 44 13 24 56 8 19 41 5 19 58 133 148 189 179 202 246 155 198 243 144 207 251 113 184 230 118 182 230 184 234 255 138 177 234 152 190 252 160 198 255 163 197 255 176 201 255 197 211 255 210 222 255 214 226 255 233 234 255 237 238 255 245 245 255 253 252 255 255 254 255 255 254 255 255 254 255 255 254 255 255 254 255 255 255 255 255 255 253 255 255 253 255 254 255 255 254 255 255 254 255 255 255 255 255 255 255 254 255 253 254 255 253 254 255 253 249 254 250 247 253 251 242 252 251 238 254 253 235 255 255 231 255 255 224 253 255 215 249 251 210 253 255 205 249 255 208 255 255 185 240 255 176 242 255 147 220 252 127 196 237 145 196 243 149 176 221 93 99 135 17 13 40 14 10 35 238 238 255 249 254 255 231 238 248 246 254 255 230 244 255 0 14 48 119 148 192 149 200 253 109 184 239 90 173 223 126 199 242 191 246 255 135 178 223 140 181 237 143 186 254 144 184 255 155 185 255 175 195 255 188 205 255 192 210 255 223 224 254 230 230 255 239 241 255 247 247 255 252 252 254 255 255 253 255 255 253 255 254 255 255 254 255 255 255 255 255 255 255 255 255 253 255 254 255 255 254 255 255 254 255 255 255 255 255 255 253 255 255 253 254 255 253 254 255 253 252 255 253 247 253 251 239 251 249 234 252 252 230 254 255 222 253 255 214 249 253 207 246 251 191 242 246 202 252 255 184 239 255 148 208 232 141 211 236 134 206 231 128 193 223 128 177 210 32 62 90 30 41 59 235 235 243 255 254 255 249 247 252 250 249 254 242 244 243 218 220 215 218 229 235 208 219 237 0 15 49 95 142 188 92 162 213 93 172 213 125 192 221 217 255 255 161 198 225 138 176 221 126 170 233 129 170 249 143 174 254 161 181 252 171 189 251 184 204 255 212 214 253 222 222 255 234 236 255 243 246 255 249 250 252 253 253 251 255 255 253 255 254 255 255 255 255 255 255 255 255 255 255 255 255 253 255 254 255 255 254 255 255 255 255 255 255 255 255 255 253 255 255 253 255 255 253 254 255 253 252 255 255 246 252 252 238 250 250 231 249 251 224 249 253 213 246 251 207 246 253 205 248 254 197 255 255 175 235 245 157 219 240 165 231 255 135 203 222 109 175 191 73 129 144 10 49 66 237 255 255 233 244 248 254 255 253 255 255 250 247 246 244 230 228 231 228 228 230 212 212 212 221 224 217 218 222 225 203 214 232 0 23 53 84 134 169 126 186 214 183 235 249 222 255 255 199 228 244 156 192 228 128 174 234 121 167 244 131 164 245 148 170 246 164 179 248 181 197 255 203 205 253 213 215 254 226 230 255 241 243 255 249 250 252 253 254 249 254 255 250 255 255 253 255 255 255 255 255 255 255 255 255 255 255 255 255 254 255 255 255 255 255 255 255 255 255 253 255 255 253 255 255 253 255 255 253 255 255 253 254 255 255 250 255 255 242 253 255 235 253 255 221 249 253 209 244 250 207 247 255 211 255 255 175 245 245 160 230 242 172 244 255 174 246 255 42 109 126 72 127 134 186 226 228 238 255 255 241 252 255 251 255 255 231 233 228 242 243 238 249 249 249 226 225 230 215 216 221 221 222 226 204 207 198 211 210 206 232 231 237 209 221 237 123 151 172 209 246 255 223 255 255 237 255 255 235 255 255 193 235 255 154 209 255 124 181 255 118 160 246 135 161 245 146 163 243 159 175 252 193 196 251 205 207 255 221 224 255 237 240 255 247 251 252 254 255 251 255 255 251 255 255 253 255 255 255 255 255 255 255 255 255 255 255 255 255 255 255 255 255 255 255 255 255 254 255 253 255 255 253 255 255 253 255 255 253 255 255 253 255 255 255 252 255 255 248 255 255 239 255 255 218 245 252 201 235 244 199 242 251 208 255 255 189 255 255 149 227 247 128 207 240 133 208 240 66 128 149 205 248 255 238 255 255 235 243 245 253 252 255 242 240 245 248 248 250 239 241 240 220 224 225 218 222 225 204 208 211 211 216 219 218 226 228 218 216 217 232 223 228 227 226 234 116 130 139 87 110 118 201 220 227 225 243 255 180 207 234 120 172 220 88 160 232 72 146 233 81 137 230 109 145 241 125 149 245 143 163 255 179 183 244 198 201 252 221 226 255 239 245 255 250 254 255 254 255 251 254 255 250 255 255 253 255 255 255 255 254 255 255 255 255 255 255 255 255 255 255 254 255 255 254 255 255 254 255 253 254 255 253 255 255 253 255 255 253 255 255 253 255 255 255 252 255 255 248 255 255 238 255 255 212 239 246 190 224 233 187 230 239 198 245 255 133 212 227 134 215 244 126 208 248 115 190 230 50 110 136 217 254 255 235 249 250 244 242 245 246 236 244 244 237 245 242 241 247 211 215 218 217 222 225 218 223 226 211 220 219 216 225 222 201 215 226 211 211 219 134 125 130 137 132 138 84 91 97 2 16 25 145 159 170 241 255 255 147 179 217 75 135 195 45 130 210 48 135 228 69 137 236 97 141 246 110 141 249 131 157 255 170 174 237 195 198 251 225 229 255 246 252 255 251 255 255 252 255 251 254 255 250 255 255 253 255 255 255 255 254 255 255 255 255 255 255 255 255 255 250 254 253 255 255 252 255 255 253 255 255 255 250 255 255 248 255 255 251 255 255 251 254 255 247 255 255 253 243 235 255 238 229 255 222 222 255 169 185 234 165 197 238 129 171 211 106 198 235 101 206 238 91 207 232 100 205 227 61 132 154 154 180 203 245 241 255 246 235 243 248 253 249 232 252 243 204 225 218 208 218 220 218 215 224 220 212 225 216 216 224 131 140 145 129 139 141 83 91 94 78 79 84 108 107 113 98 96 101 0 0 4 1 5 8 251 255 255 0 4 8 10 15 21 4 8 19 1 8 27 4 16 54 88 110 168 94 125 207 121 156 250 177 185 222 243 248 255 252 251 255 255 255 253 255 255 244 255 255 246 254 255 255 254 254 255 254 255 255 255 255 255 255 255 251 255 255 253 255 255 250 255 254 255 255 252 255 255 253 255 255 255 248 255 255 248 255 255 255 254 255 255 255 255 255 248 245 254 253 244 255 208 198 248 179 176 229 139 151 193 0 4 37 77 114 143 66 151 182 57 157 183 69 184 205 88 199 218 49 131 152 75 117 139 151 159 178 231 228 239 227 227 229 186 197 193 231 246 243 210 218 221 140 140 148 122 121 129 94 97 104 78 88 90 84 93 98 87 92 98 114 114 122 83 82 90 0 0 5 99 100 104 246 250 253 245 250 253 251 255 255 244 248 251 252 255 255 251 254 255 228 238 255 9 26 72 77 100 167 124 153 231 207 214 255 207 210 245 254 252 255 255 253 255 255 255 248 255 255 248 254 255 253 254 255 255 255 254 255 255 255 253 255 255 250 255 255 253 254 255 250 255 254 255 255 252 255 255 253 255 255 255 246 255 255 250 255 254 255 252 251 255 251 253 255 244 242 255 204 196 235 186 176 228 115 109 157 27 33 65 232 251 255 215 243 254 140 208 231 96 183 203 78 185 201 80 196 211 68 170 185 48 116 135 66 101 120 161 170 185 131 131 141 148 149 153 69 73 76 75 80 84 18 23 27 15 20 24 3 11 13 7 17 18 15 22 28 101 105 114 45 45 55 51 49 60 84 83 91 100 101 106 251 255 255 252 255 255 252 255 255 254 255 255 238 238 238 254 255 255 251 254 255 227 236 255 15 29 74 119 136 190 172 176 224 235 236 255 212 208 241 255 252 255 234 232 235 255 255 250 251 253 248 254 255 255 255 255 255 255 255 253 255 255 251 255 255 253 252 255 250 255 254 255 255 253 255 255 254 251 255 255 244 255 254 251 254 253 255 244 245 255 222 226 255 206 207 238 184 178 222 131 121 173 33 26 68 216 217 237 247 255 255 244 255 255 191 237 252 143 207 219 89 181 192 60 172 184 70 186 199 59 157 170 37 103 119 56 88 103 74 82 95 61 58 69 73 70 77 26 30 33 239 247 249 245 255 255 243 252 251 252 255 255 238 243 247 4 7 14 31 31 41 62 60 71 108 107 115 88 89 94 252 255 255 252 255 255 212 214 213 221 221 219 243 242 238 196 195 191 240 240 242 216 218 230 240 245 255 3 8 38 128 130 179 160 158 207 242 235 255 213 204 235 255 252 255 242 241 239 254 255 251 243 245 242 255 255 255 255 255 253 255 255 251 255 255 253 251 255 250 254 255 255 255 253 255 255 254 250 255 255 244 255 254 255 248 248 255 230 234 255 216 221 255 178 182 219 121 118 161 27 20 64 231 224 255 255 254 255 240 243 236 252 255 244 206 225 232 190 227 235 143 210 219 97 193 205 70 187 197 74 188 199 60 152 165 19 77 91 59 81 95 56 55 69 22 16 26 249 250 254 239 248 247 249 255 255 254 255 255 239 235 234 252 255 255 208 212 215 0 0 5 32 32 40 78 79 84 99 103 106 248 252 253 252 255 255 244 246 245 210 210 210 208 208 206 235 234 230 196 195 191 241 239 242 215 214 222 253 251 255 10 13 54 133 130 177 173 163 215 228 215 255 235 225 249 255 254 255 242 243 238 255 255 251 255 255 253 255 254 255 255 255 253 255 255 255 251 255 248 254 255 255 255 254 255 255 254 250 255 255 248 254 254 255 233 238 255 207 216 255 174 183 222 109 118 149 23 26 59 236 232 255 255 251 255 251 246 250 255 254 242 255 255 241 221 221 221 215 229 232 183 220 229 150 220 232 72 173 185 79 193 203 89 193 202 52 129 137 41 79 90 37 47 57 227 224 233 255 254 255 252 255 255 238 242 241 255 254 253 249 239 240 205 210 204 223 228 224 226 230 231 0 1 4 96 100 103 82 86 87 252 255 255 243 247 246 241 245 246 238 239 243 228 229 231 221 223 222 226 226 224 208 206 207 222 217 221 233 228 234 238 243 255 14 12 49 150 140 190 205 191 240 240 229 255 253 247 255 250 251 246 255 255 251 255 255 255 255 254 255 255 254 255 255 255 255 249 255 248 252 255 255 255 254 255 255 254 251 255 255 251 248 252 255 216 226 255 181 194 238 135 150 183 17 30 49 223 228 247 254 253 255 244 241 252 255 254 253 255 254 248 255 252 246 231 223 220 219 217 220 201 214 223 186 225 240 76 145 160 82 176 186 98 195 202 107 184 190 27 72 78 224 238 247 255 254 255 240 238 241 255 255 255 255 255 253 250 244 244 253 243 244 206 211 204 223 228 224 210 216 216 202 207 210 31 37 37 75 79 78 252 255 255 235 237 236 235 239 242 247 250 255 226 231 235 206 211 214 227 231 232 225 227 226 219 219 219 212 210 213 226 231 234 241 239 255 10 0 44 180 163 215 218 204 240 236 230 244 255 255 253 248 248 246 255 254 255 255 254 255 255 254 255 255 255 255 249 255 250 252 255 255 255 254 255 255 255 251 254 255 253 241 250 255 203 217 254 162 179 222 0 12 38 237 250 255 249 255 255 244 245 250 255 254 255 254 253 249 255 251 250 255 254 255 224 219 213 222 216 216 221 220 228 201 214 230 52 89 105 49 109 120 52 123 129 100 161 164 215 255 255 244 255 255 245 244 249 255 254 255 255 254 255 250 250 248 238 238 236 253 252 250 219 225 221 204 210 208 217 222 225 230 235 239 161 165 168 15 17 16 249 251 248 252 252 252 241 242 246 236 239 246 245 250 255 238 246 249 205 213 215 208 214 214 216 220 219 221 223 222 173 182 165 255 253 255 18 7 47 163 146 200 225 210 251 239 232 250 249 247 250 255 255 253 255 254 255 255 253 255 255 254 255 255 255 253 251 255 251 254 255 255 255 253 255 255 255 251 251 255 253 230 243 255 191 209 247 142 161 201 0 15 35 247 255 255 252 255 250 255 255 251 255 255 253 255 255 253 255 255 255 255 254 255 214 217 210 226 226 224 215 212 219 225 225 237 80 92 106 69 97 108 0 32 38 223 255 255 236 255 255 249 255 255 251 249 252 255 253 255 255 254 255 249 251 250 239 245 243 215 224 221 219 225 225 201 206 210 211 216 222 218 223 229 212 213 217 13 13 13 245 244 240 241 240 238 247 247 249 246 247 252 244 249 255 245 253 255 235 244 243 182 191 188 172 178 174 177 182 178 185 195 170 246 245 250 19 7 45 161 144 198 206 191 234 243 235 255 255 254 255 255 255 255 255 254 255 255 253 255 255 255 255 254 255 251 254 255 253 255 254 255 255 253 255 255 255 251 249 255 253 226 242 255 187 207 244 138 157 197 0 15 34 249 255 255 255 255 248 255 255 250 255 255 251 254 255 253 254 255 255 254 254 255 218 224 220 213 217 216 214 215 219 218 217 225 76 76 86 88 92 101 11 18 24 248 255 255 246 252 252 255 255 255 255 253 254 255 254 255 255 254 255 249 255 253 228 240 238 200 216 213 211 216 220 215 220 226 218 222 231 214 217 224 229 230 234 168 167 165 23 19 16 255 254 251 240 236 237 243 241 244 243 244 248 242 246 247 236 242 238 211 217 213 181 187 183 180 185 181 174 183 162 255 254 255 4 0 32 160 143 198 222 206 251 237 229 252 252 250 255 254 254 254 255 255 255 255 254 255 255 255 255 254 255 250 252 252 252 255 252 255 255 253 255 255 255 250 249 255 251 230 248 255 190 212 251 145 164 206 5 17 39 252 255 255 255 255 248 255 254 251 255 255 253 254 255 253 252 255 255 251 255 255 218 222 223 217 221 222 218 223 226 214 218 221 90 89 94 103 98 104 5 0 3 255 253 255 255 254 253 255 254 253 255 255 253 255 254 255 254 255 255 244 250 250 224 234 233 215 230 227 221 226 230 199 204 208 218 221 228 207 208 213 172 172 174 184 183 179 3 0 0 255 255 250 245 241 240 252 248 249 243 241 242 240 240 238 244 246 241 246 248 245 181 183 182 177 181 182 193 200 192 209 208 224 48 36 82 173 156 211 230 214 255 245 237 255 255 254 255 255 255 255 255 255 255 255 254 255 255 255 253 254 255 250 254 252 255 255 252 255 255 252 255 255 255 250 249 255 253 226 245 255 184 207 248 141 159 205 1 13 39 249 252 255 255 254 251 255 253 253 255 254 255 254 255 253 252 255 255 251 255 255 216 214 219 223 224 228 200 205 208 185 193 195 84 90 90 94 94 96 8 2 4 255 248 251 255 253 253 255 255 253 254 255 255 254 255 255 246 248 247 234 238 239 217 223 223 217 222 225 213 219 219 212 216 217 219 223 226 180 181 183 189 191 190 99 101 98 4 6 1 208 208 206 246 246 246 241 239 240 245 244 242 254 250 247 231 230 226 246 245 243 182 181 186 181 181 189 179 183 194 31 28 57 107 95 145 191 174 229 231 219 255 255 248 255 255 255 255 255 255 253 255 255 255 255 255 255 255 255 251 254 255 250 255 254 255 255 253 255 255 252 255 255 255 251 248 255 255 226 247 255 186 210 255 146 166 217 0 7 36 247 250 255 255 254 255 255 253 255 255 255 255 254 255 253 252 255 255 246 250 253 179 174 181 184 183 188 172 177 180 172 182 183 76 84 86 91 96 99 41 42 46 170 169 174 223 223 225 254 255 255 252 255 255 244 248 247 234 238 237 239 240 242 224 225 227 208 209 211 213 218 214 224 228 227 164 165 167 183 187 188 75 81 81 90 99 98 0 3 2 96 106 107 249 255 255 235 240 243 240 240 240 255 255 251 238 237 233 254 252 255 198 197 205 183 182 196 157 161 188 20 18 57 167 157 209 221 207 255 243 232 255 249 246 255 250 250 248 253 255 250 255 255 255 255 255 255 255 255 251 254 255 251 254 255 255 255 253 255 255 252 255 255 255 253 247 255 255 217 239 255 177 203 254 141 164 218 0 10 43 249 255 255 255 255 255 255 254 255 254 255 255 245 249 248 236 240 239 226 227 231 180 181 185 175 176 180 187 188 192 192 195 200 80 87 93 85 94 99 60 69 76 22 31 38 192 199 205 230 235 239 246 251 254 244 250 250 241 245 244 234 238 237 227 228 230 216 216 218 223 225 222 165 167 166 183 187 190 78 83 87 105 114 119 0 4 7 118 139 144 48 72 76 188 207 213 239 254 255 230 239 238 236 238 235 249 249 247 236 237 239 175 178 187 175 178 195 21 23 62 113 110 157 182 172 224 228 215 255 246 237 255 246 244 245 255 255 250 254 255 251 255 255 255 255 255 255 255 255 253 254 255 253 251 255 255 254 255 255 255 253 255 247 248 250 227 240 248 192 215 246 150 180 234 115 141 198 0 15 47 248 255 255 254 255 255 252 254 253 238 242 243 222 226 225 217 221 222 212 213 218 180 192 188 179 185 185 183 182 187 174 171 180 99 99 111 91 97 109 87 99 111 0 6 17 128 138 148 188 195 203 219 222 227 239 243 244 236 242 240 216 222 220 214 220 218 202 208 206 176 177 179 192 193 198 78 81 88 109 116 126 64 78 87 0 21 32 81 111 121 74 108 118 81 111 121 215 240 245 237 253 253 233 242 237 252 255 251 235 241 241 193 200 210 166 173 189 0 0 43 171 167 217 211 203 250 246 236 255 255 252 255 255 255 250 254 255 246 251 253 248 254 255 255 255 254 255 255 255 255 254 255 255 249 255 255 252 255 255 253 250 255 242 243 248 224 237 246 191 215 249 152 183 240 120 149 205 0 11 42 240 253 255 246 251 247 231 235 234 218 222 223 207 213 213 215 216 220 216 215 223 163 184 177 187 199 197 173 172 177 150 142 153 127 123 138 90 96 112 79 92 108 6 22 37 10 22 34 129 133 144 190 190 198 214 215 219 215 221 219 207 218 214 212 223 219 176 188 184 187 188 193 88 88 96 87 89 101 78 86 99 0 15 30 93 121 135 191 227 243 131 170 185 101 139 152 195 225 233 227 248 249 230 243 236 231 241 233 216 225 224 165 175 184 1 13 27 133 135 184 171 169 219 234 227 255 244 235 255 255 252 255 255 255 245 254 255 244 254 255 251 254 255 255 255 254 255 255 254 255 254 255 255 254 249 253 255 255 255 252 255 255 237 249 249 217 235 247 198 223 254 165 197 248 127 165 227 82 122 184 0 31 81 183 209 242 218 231 247 200 206 206 216 217 211 217 218 210 221 222 216 175 162 179 193 192 197 126 136 128 133 140 133 164 163 168 60 62 83 14 40 73 63 117 151 0 60 91 100 141 169 152 164 188 123 116 134 93 85 96 87 86 92 83 88 94 78 85 91 74 87 93 104 107 116 237 233 247 82 88 102 0 29 42 148 210 223 170 255 255 151 251 255 89 192 207 98 202 213 130 229 235 164 247 253 187 250 255 189 231 245 162 189 208 0 6 28 141 168 213 182 202 239 223 235 255 247 249 255 255 253 255 255 253 253 255 254 251 255 255 253 254 255 253 254 255 253 255 255 255 255 254 255 255 253 255 255 255 255 252 255 253 241 251 252 223 239 252 205 228 255 175 205 255 142 177 243 106 145 214 81 117 177 0 23 66 199 215 240 216 223 233 219 220 222 217 218 213 218 220 215 198 190 201 116 120 123 142 154 150 149 161 161 95 101 117 33 48 79 129 171 211 74 142 181 89 162 195 32 83 110 96 114 136 144 142 156 102 99 106 82 85 90 88 95 101 94 103 110 76 107 110 78 101 107 73 85 97 7 23 38 89 122 141 114 174 198 143 231 255 85 191 215 86 206 223 66 188 199 120 238 240 133 237 238 132 217 222 141 207 221 53 105 129 108 155 183 159 194 234 194 223 255 228 249 255 247 255 255 254 255 255 255 254 255 255 255 253 254 255 253 252 255 253 254 255 253 255 255 253 255 254 255 255 255 255 254 255 255 252 255 253 245 253 255 231 243 255 218 234 255 191 217 255 160 193 255 126 164 239 101 138 209 83 112 172 5 22 66 207 214 242 212 216 228 217 221 224 176 180 179 129 127 132 141 149 151 112 128 128 128 144 157 29 46 76 129 161 208 198 255 255 119 207 253 89 179 214 71 135 160 29 56 73 0 4 12 16 17 21 18 26 28 4 15 19 26 36 45 55 115 116 32 81 85 0 33 39 0 29 43 0 19 44 74 129 160 84 168 204 72 185 217 67 199 222 70 212 222 90 228 228 111 237 234 132 244 248 120 217 234 45 132 160 123 205 243 160 211 240 189 234 255 217 251 255 233 254 255 245 255 255 251 255 255 252 255 255 251 255 255 251 255 255 252 255 253 255 255 253 255 255 253 254 255 255 252 255 255 252 255 253 249 255 255 237 246 255 225 239 255 204 225 255 177 207 255 148 186 255 130 167 247 89 119 192 79 99 162 0 2 48 12 17 46 0 0 14 9 14 20 19 20 24 0 9 11 9 23 32 0 16 40 60 87 130 76 127 184 119 203 255 59 169 218 57 162 194 98 171 190 54 88 97 112 122 123 244 250 248 248 255 255 236 247 253 246 254 255 158 236 236 165 235 233 205 255 255 214 255 255 198 229 249 3 42 75 57 122 162 73 176 211 49 181 206 70 216 229 73 218 223 106 241 244 112 236 244 42 157 178 89 198 231 108 214 255 153 220 237 176 235 249 197 244 250 211 245 246 226 248 246 238 252 253 245 255 255 249 255 255 250 255 254 251 255 252 254 255 250 255 255 253 252 255 255 252 255 255 252 255 253 254 255 253 244 248 251 233 243 255 214 231 255 189 217 255 166 204 255 133 170 248 223 255 255 98 120 196 94 105 167 60 65 107 32 37 59 4 8 20 142 145 150 141 148 156 124 132 151 146 161 194 0 16 67 55 119 180 24 128 183 23 149 190 99 213 239 62 139 149 93 127 128 220 231 225 252 255 250 249 255 255 248 255 255 236 242 255 172 253 255 143 223 222 154 226 222 181 231 230 134 161 172 123 143 167 0 36 67 56 131 163 82 191 220 49 177 202 56 189 208 99 226 243 94 215 234 35 151 176 96 204 240 120 223 255 158 234 247 178 247 254 194 250 251 204 246 244 217 246 244 231 249 251 237 251 254 243 253 255 248 255 255 251 255 252 254 255 250 255 254 250 251 255 255 252 255 255 254 255 253 255 255 251 249 251 246 239 244 247 220 236 249 199 226 255 170 203 255 173 210 255 107 138 220 119 140 221 78 88 157 23 30 76 113 119 143 142 149 159 137 142 148 133 135 147 155 157 178 64 72 108 0 25 72 51 121 173 61 172 218 41 171 203 75 188 206 107 178 182 205 234 230 252 255 250 255 255 248 251 255 255 251 255 255 247 249 255 177 247 255 150 231 235 142 227 224 96 160 159 146 177 180 146 153 163 144 155 173 0 19 44 86 162 196 92 191 232 54 163 204 52 162 199 45 154 185 86 191 221 116 210 246 132 217 255 164 240 253 183 252 255 197 255 255 208 250 249 219 249 249 232 251 255 238 251 255 243 252 255 249 255 255 250 255 251 253 254 249 255 254 250 252 255 255 252 255 255 254 255 255 255 255 251 255 255 250 245 250 244 231 242 246 210 233 251 185 214 254 161 193 254 152 180 254 99 118 195 5 14 79 178 186 225 220 228 241 186 195 194 134 143 142 136 137 141 82 80 94 94 98 125 0 19 57 58 132 171 0 114 148 82 212 234 92 200 212 178 241 246 237 255 255 234 235 229 250 249 244 250 252 249 221 224 229 253 251 255 201 254 255 143 219 232 119 213 221 121 204 208 97 142 145 167 175 178 147 144 151 142 159 177 0 15 51 101 172 224 103 189 246 84 180 230 64 164 200 104 199 229 154 237 255 157 226 255 164 231 248 186 245 255 202 253 255 213 251 252 226 252 253 235 253 255 242 253 255 245 252 255 248 253 255 250 255 251 252 254 249 254 255 250 254 255 255 254 255 255 255 255 255 255 255 253 255 255 251 251 253 250 237 245 248 220 238 252 203 227 255 173 198 254 139 159 228 108 121 191 4 11 66 194 199 228 188 196 198 199 210 193 197 211 198 134 136 131 101 94 101 95 94 112 0 13 39 59 134 163 58 174 197 67 194 211 131 233 245 182 239 246 229 247 251 244 244 242 238 239 234 241 246 242 247 251 252 240 239 244 194 230 242 116 183 199 102 204 219 110 212 227 115 182 191 129 150 153 159 157 158 149 152 167 0 24 61 64 113 169 68 138 198 53 139 186 46 144 171 20 113 131 104 180 204 133 193 227 170 224 252 193 241 255 211 251 255 220 251 255 230 251 254 239 253 255 242 251 255 246 251 255 249 253 254 251 253 252 252 254 251 253 253 251 255 255 253 255 255 255 255 255 255 255 255 255 255 253 255 251 251 253 242 247 253 232 244 255 211 227 255 184 200 251 148 159 223 123 128 194 0 2 51 205 207 230 184 191 184 194 204 180 184 201 183 211 217 207 122 116 118 105 104 120 0 22 46 66 142 166 67 182 203 113 236 252 134 232 245 198 252 255 227 244 252 244 245 249 237 242 238 251 255 253 233 237 236 222 222 222 139 157 159 112 166 176 112 209 228 106 217 237 118 201 215 125 165 167 152 162 163 142 146 158 0 9 45 74 109 165 8 63 117 119 195 227 97 187 198 100 188 192 48 120 135 104 161 190 162 200 237 193 228 255 220 249 255 228 251 255 236 251 254 243 253 255 247 252 255 248 252 255 252 255 255 254 255 255 254 255 255 255 255 255 255 254 251 255 255 253 255 255 255 255 254 255 255 254 255 252 251 255 245 248 255 239 245 255 217 226 255 211 219 255 177 181 242 116 116 180 0 0 44 205 202 231 211 214 219 189 195 183 176 191 184 204 205 207 228 220 233 107 105 129 15 46 75 28 105 133 102 217 238 120 242 255 135 229 241 196 249 255 228 247 253 245 250 253 234 243 240 229 240 236 224 230 228 145 147 146 150 153 142 124 164 166 109 195 210 95 202 222 109 203 215 138 198 199 120 146 147 158 166 185 0 7 50 84 104 163 0 26 75 124 182 206 124 196 195 146 221 217 139 203 213 24 78 104 162 186 232 193 217 253 222 243 255 232 249 255 239 250 252 244 253 252 247 253 253 249 253 254 252 255 255 252 255 255 254 255 255 254 255 255 255 254 251 255 254 253 255 255 255 254 255 255 254 255 255 254 254 255 250 251 255 245 247 255 229 234 255 214 217 255 184 183 240 138 132 196 42 32 92 174 166 213 197 194 223 196 195 213 196 203 221 190 186 211 188 174 209 30 29 71 69 102 145 51 129 165 125 237 255 110 226 241 145 234 242 176 225 229 210 231 232 210 221 217 209 220 216 210 221 217 210 216 216 158 157 162 160 157 142 134 160 157 117 185 194 116 212 226 106 203 209 120 196 196 142 189 195 120 141 170 0 5 60 100 109 176 8 29 86 97 132 160 122 169 175 159 210 213 167 216 231 19 64 95 160 177 223 194 210 246 224 239 255 236 249 255 241 251 250 245 254 251 250 255 254 252 255 255 252 255 255 252 255 255 254 255 255 254 255 255 255 252 253 255 254 255 255 255 255 254 255 255 254 255 255 255 255 253 253 254 249 250 251 253 248 250 255 226 227 255 204 201 248 184 174 235 90 78 144 54 42 104 6 0 52 8 2 50 20 14 60 3 0 41 48 31 86 84 85 142 120 155 209 47 126 169 108 216 244 112 218 232 142 221 226 154 198 197 181 200 196 200 210 202 183 192 187 193 202 201 197 200 205 141 140 148 158 158 150 130 150 149 116 166 173 126 209 217 153 251 254 117 208 209 102 169 185 0 33 75 117 130 198 154 157 236 72 79 147 49 63 108 114 135 162 193 221 242 139 170 199 22 56 94 169 180 225 200 213 247 230 241 255 241 252 255 245 254 251 250 255 252 252 255 253 252 255 255 252 255 255 252 255 255 254 255 255 254 255 255 255 252 255 255 254 255 255 255 255 254 255 255 254 255 251 255 255 250 254 255 247 253 254 249 247 250 255 232 233 253 217 213 250 211 202 255 175 163 225 140 128 194 130 118 184 146 135 201 138 125 181 165 147 207 163 147 210 163 167 230 117 158 214 82 160 206 117 218 248 116 211 229 135 204 211 194 229 231 181 196 193 201 207 203 191 197 195 200 205 208 194 197 202 150 149 157 146 155 154 150 165 170 132 169 178 104 171 180 123 218 224 92 196 205 73 157 181 111 159 207 142 161 229 180 184 255 201 204 255 99 104 160 13 17 62 18 27 66 60 75 116 136 159 201 189 197 233 214 224 251 236 246 255 243 253 254 246 255 250 252 255 251 252 255 253 254 255 255 254 255 253 254 255 253 254 255 253 254 255 255 255 253 255 255 254 255 253 255 254 252 255 255 254 255 253 255 255 250 255 255 250 254 255 250 254 255 255 248 250 255 238 238 255 226 222 255 207 198 245 192 182 235 199 188 246 192 183 240 214 198 245 214 198 247 203 193 246 189 202 255 164 212 255 104 185 228 54 148 182 62 146 172 170 225 245 159 182 196 197 204 214 203 204 209 177 180 185 207 212 215 186 191 194 147 151 152 144 158 161 144 154 163 129 148 162 131 183 197 88 177 191 67 176 196 78 173 203 147 204 247 204 227 255 194 204 255 199 205 253 202 206 254 189 187 236 157 154 201 163 166 207 186 199 234 212 218 244 229 236 254 242 249 255 247 253 251 251 255 250 254 255 251 255 255 253 255 255 255 255 255 253 255 255 253 254 255 253 254 255 253 255 254 255 255 254 255 253 255 254 252 255 255 254 255 255 255 254 255 255 254 255 255 255 255 252 255 255 243 248 254 237 241 253 234 235 255 233 229 255 228 221 254 237 231 255 235 229 255 252 240 255 241 228 254 250 249 255 205 228 255 150 206 241 131 215 251 118 208 245 103 177 214 24 67 102 11 26 59 180 177 204 216 211 231 191 191 203 187 195 198 196 205 200 149 159 150 142 156 156 149 152 157 156 160 172 121 156 176 82 162 187 62 170 199 136 233 255 160 219 249 197 224 245 244 255 255 230 244 255 215 222 248 220 215 255 218 207 250 232 226 255 223 225 248 234 237 255 243 247 255 248 253 255 250 255 251 254 255 251 255 255 251 255 254 255 255 254 255 255 255 253 255 255 251 254 255 251 254 255 251 255 254 253 255 255 255 254 255 255 252 255 255 254 255 255 255 254 255 255 253 255 255 254 255 252 255 255 249 255 255 243 250 255 239 242 251 251 251 255 245 243 255 243 241 255 255 253 255 255 251 254 255 252 255 238 242 254 219 247 255 175 237 255 141 226 255 124 212 250 140 208 253 138 174 222 117 125 171 14 7 48 1 0 23 210 209 225 193 201 204 189 202 193 144 158 143 148 159 153 151 147 148 149 143 155 0 17 39 112 185 217 119 222 255 158 252 255 167 225 245 216 245 243 238 255 239 243 255 247 236 247 253 238 233 255 252 238 255 250 240 255 242 240 251 246 248 255 252 255 255 252 255 255 254 255 251 255 255 250 255 255 253 255 254 255 255 254 255 255 254 253 255 255 251 255 255 250 254 255 251 255 255 255 255 255 255 255 255 255 255 255 255 255 255 255 255 255 255 255 255 255 255 255 255 255 255 255 255 255 255 255 255 255 253 253 253 252 252 252 252 252 252 254 254 254 255 255 255 253 255 254 245 255 255 227 255 255 206 249 255 186 242 255 175 237 252 171 230 248 175 221 245 182 212 246 166 179 223 160 160 212 133 128 182 0 0 44 15 18 61 175 185 220 140 157 185 149 159 195 127 141 178 0 19 56 135 168 203 146 191 222 159 215 238 174 237 252 176 239 246 196 247 248 216 252 250 239 255 255 252 255 255 255 254 255 255 253 255 255 254 255 255 254 255 253 253 253 253 253 253 253 253 253 254 254 254 255 255 255 255 255 255 255 255 255 255 255 255 255 255 255 255 255 255 255 255 255 255 255 255 255 255 255 255 255 255 255 255 255 255 255 255 255 255 255 255 255 255 255 255 255 255 255 255 255 255 255 255 255 255 255 255 255 254 254 254 253 253 253 253 253 253 254 254 254 255 255 255 254 255 253 246 255 255 229 254 255 209 250 255 193 245 255 185 243 255 185 241 254 191 236 255 210 237 255 208 220 255 200 198 245 188 181 232 161 157 207 105 108 151 31 41 77 0 1 32 0 3 38 13 26 60 120 139 172 175 204 234 191 231 255 184 235 255 174 232 244 199 255 255 199 247 249 218 252 251 240 255 255 251 255 255 255 254 255 255 253 255 255 254 255 255 254 255 253 253 253 253 253 253 254 254 254 254 254 254 255 255 255 255 255 255 255 255 255 255 255 255 255 255 255 255 255 255 255 255 255 255 255 255 255 255 255 255 255 255 255 255 255 255 255 255 255 255 255 255 255 255 255 255 255 255 255 255 255 255 255 255 255 255 255 255 255 254 254 254 254 254 254 255 255 255 255 255 255 255 255 255 252 255 251 244 254 253 226 250 252 209 246 252 197 244 250 190 243 249 191 240 247 197 235 246 219 242 255 225 235 255 224 223 255 197 190 232 197 191 235 172 174 215 126 136 172 157 171 206 154 163 194 135 146 176 209 224 253 178 199 226 198 229 250 183 222 237 185 232 242 186 234 238 189 230 232 203 233 233 221 239 241 240 245 248 253 253 255 255 254 255 255 254 255 255 255 255 253 253 253 254 254 254 254 254 254 254 254 254 255 255 255 255 255 255 255 255 255 255 255 255 255 255 255 255 255 255 255 255 255 255 255 255 255 255 255 255 255 255 255 255 255 255 255 255 255 255 255 255 255 255 255 255 255 255 255 255 255 255 255 255 255 255 254 254 254 255 255 255 255 255 255 255 255 255 255 255 255 255 255 255 252 255 251 240 250 249 222 242 243 206 237 242 193 232 237 182 226 229 177 217 219 179 210 212 192 211 217 184 190 202 179 177 198 179 173 201 175 171 204 172 175 210 163 172 205 147 160 192 151 158 184 158 165 191 152 163 185 158 171 190 176 195 210 165 192 201 170 203 208 160 195 197 171 202 205 177 202 206 190 205 210 209 214 218 230 229 234 248 246 249 255 255 255 255 255 255 254 254 254 254 254 254 254 254 254 255 255 255 255 255 255 255 255 255 255 255 255 255 255 255 255 255 255 255 255 255 255 255 255 255 255 255 255 255 255 255 255 255 255 255 255 255 255 255 255 255 255 255 255 255 255 255 255 255 255 255 255 255 255 255 255 255 254 254 254 255 255 255 255 255 255 255 255 255 255 255 255 254 254 254 240 245 241 222 231 230 198 213 218 177 202 207 161 192 197 146 180 182 138 168 168 137 159 156 119 134 131 130 134 135 120 117 124 122 118 132 121 118 137 116 118 139 122 130 153 104 116 138 113 120 139 124 131 149 115 121 137 118 124 136 108 117 126 113 126 132 111 131 132 123 147 149 123 147 149 129 148 154 142 155 161 168 173 179 200 201 206 231 231 233 253 253 253 255 255 253 255 255 255 255 255 255 255 255 255 255 255 255 255 255 255 255 255 255 255 255 255 255 255 255 255 255 255 255 255 255 255 255 255 255 255 255 255 255 255 255 255 255 255 255 255 255 255 255 255 255 255 255 255 255 255 255 255 255 255 255 255 255 255 255 255 255 254 254 254 255 255 255 255 255 255 255 255 255 254 254 254 252 252 252 230 232 231 204 209 212 173 184 190 149 166 174 131 154 162 118 142 146 109 131 129 108 125 119 106 116 108 105 108 101 100 99 97 100 95 99 104 103 109 101 104 113 89 96 106 85 95 104 96 102 116 91 95 107 101 101 111 105 104 110 116 115 120 115 119 120 131 141 140 110 124 124 127 142 145 132 145 151 146 155 162 171 175 184 203 204 209 232 232 234 252 252 250 255 255 251 255 255 255 255 255 255 255 255 255 255 255 255 255 255 255 255 255 255 255 255 255 255 255 255 255 255 255 255 255 255 255 255 255 255 255 255 255 255 255 255 255 255 255 255 255 255 255 255 255 255 255 255 255 255 255 255 255 255 255 255 255 255 255 255 255 255 254 254 254 254 254 254 255 255 255 255 255 255 253 253 253 250 250 250 233 235 234 206 210 211 173 180 186 153 163 172 139 154 161 128 143 148 120 134 135 120 131 127 95 100 94 96 97 91 111 108 103 111 107 104 100 99 97 97 99 98 94 100 98 97 106 103 107 110 119 102 102 110 103 101 106 111 106 110 121 117 116 105 104 102 137 139 136 113 119 119 126 136 137 133 142 147 149 156 162 177 180 187 209 210 215 237 237 239 255 255 253 255 255 251 255 255 255 255 255 255 255 255 255 255 255 255 255 255 255 255 255 255 255 255 255 255 255 255 255 255 255 255 255 255 255 255 255 255 255 255 255 255 255 255 255 255 255 255 255 255 255 255 255 255 255 255 255 255 255 255 255 255 255 255 255 255 255 255 255 255 254 254 254 254 254 254 255 255 255 255 255 255 252 252 252 249 249 249 232 233 228 206 208 205 178 182 183 161 169 172 152 161 166 143 153 155 135 143 145 133 139 139 144 146 143 140 140 138 120 119 117 126 125 123 141 140 138 140 141 136 136 138 133 115 120 113 133 134 139 130 129 134 144 139 143 155 149 149 154 149 146 161 157 154 150 150 148 178 182 181 174 180 180 178 183 186 188 191 196 205 206 211 225 224 229 242 242 242 253 253 251 255 255 251 255 255 255 255 255 255 255 255 255 255 255 255 255 255 255 255 255 255 255 255 255 255 255 255 255 255 255 255 255 255 255 255 255 255 255 255 255 255 255 255 255 255 255 255 255 255 255 255 255 255 255 255 255 255 255 255 255 255 255 255 255 255 255 255 255 255 255 255 255 255 255 255 255 255 255 255 255 255 255 255 255 255 255 255 233 232 227 228 229 224 219 221 218 210 214 213 204 210 210 202 208 208 201 207 207 203 207 208 185 186 188 188 189 191 194 194 196 198 196 199 199 197 198 197 197 195 196 197 192 195 196 190 205 203 206 207 205 206 206 202 203 204 200 199 212 208 207 223 222 220 223 225 222 216 220 219 221 225 224 228 232 233 238 239 241 245 245 247 251 251 253 255 254 255 255 255 253 255 255 253 255 255 255 255 255 255 255 255 255 255 255 255 255 255 255 255 255 255 255 255 255 255 255 255 255 255 255 255 255 255 255 255 255 255 255 255 255 255 255 255 255 255 255 255 255 255 255 255 255 255 255 255 255 255 255 255 255 255 255 255 255 255 255 255 255 255 255 255 255 255 255 255 255 255 255 255 255 255 255 255 255 255 255 255 255 255 251 255 255 251 255 255 251 254 255 251 254 255 251 252 255 253 252 255 253 252 255 255 252 255 255 254 255 255 254 255 255 255 254 255 255 254 255 255 254 255 255 255 253 255 255 251 255 254 255 255 254 255 255 254 255 255 253 254 255 255 255 254 255 255 252 255 255 252 255 255 247 251 250 252 254 253 255 255 253 255 255 253 255 254 255 255 254 255 255 255 255 253 253 253 255 255 255 255 255 255 255 255 255 255 255 255 255 255 255 255 255 255 255 255 255 255 255 255 255 255 255 255 255 255 255 255 255 255 255 255 255 255 255 255 255 255 255 255 255 255 255 255 255 255 255 255 255 255 255 255 255 255 255 255 255 255 255 255 255 255 255 255 255 255 255 255 255 255 255 255 255 255 255 255 255 255 255 255 255 254 255 255 254 255 255 255 253 255 255 251 255 255 251 254 255 251 254 255 253 252 255 255 252 255 255 252 255 255 254 254 255 254 254 255 255 254 255 255 254 255 255 254 255 255 254 253 255 254 253 255 255 253 255 255 255 254 255 255 252 255 255 251 255 255 251 255 255 252 255 255 252 255 253 254 255 253 255 255 251 255 255 251 255 255 253 255 254 255 255 254 255 255 255 255 255 255 255 255 255 255 255 255 255 255 255 255 255 255 255 255 255 255 255 255 255 255 255 255 255 255 255 255 255 255 255 255 255 255 255 255 255 255 255 255 255 255 255 255 255 255 255 255 255 255 255 255 255 255 255 255 255 255 255 255 255 255 255 255 255 255 255 255 255 255 255 255 255 255 255 255 255 255 255 255 255 255 255 255 255 253 255 255 253 255 255 254 255 255 254 255 255 255 253 255 255 251 251 253 248 249 251 248 252 255 255 252 255 255 254 255 255 254 255 255 255 255 255 255 254 255 255 254 253 255 254 253 255 255 253 255 255 253 255 255 255 252 255 255 251 255 255 251 255 255 248 254 254 247 251 250 253 255 252 254 254 252 255 254 250 254 253 249 255 254 252 255 254 255 255 254 255 255 254 255 255 255 255 255 255 255 255 255 255 255 255 255 255 255 255 255 255 255 255 255 255 255 255 255 255 255 255 255 255 255 255 255 255 255 255 255 