P3 60 60 255
255 253 253 255 253 254 255 255 255 254 254 255 254 254 255 254 254 255 254 254 255 255 255 255 255 255 255 254 255 254 254 255 254 255 255 253 255 255 253 255 255 253 255 255 253 254 255 254 251 253 255 253 254 255 253 255 252 252 255 249 255 248 248 255 244 246 255 248 248 255 252 251 255 254 251 255 252 251 254 248 252 255 251 254 252 253 255 253 254 255 255 253 254 255 248 248 254 254 255 254 255 254 253 255 251 252 255 249 255 251 249 255 247 247 255 253 254 252 253 255 252 253 255 255 253 255 255 248 251 255 253 249 251 255 247 252 255 249 254 254 255 252 252 255 253 255 252 254 255 254 254 255 254 254 255 254 255 255 255 255 253 254 255 253 254 255 251 252 255 253 253 254 255 254 254 255 254 254 255 254 255 253 253 255 253 253 255 255 255 255 255 255 254 254 255 254 254 255 254 254 255 255 255 255 255 255 255 254 255 254 254 255 254 255 255 253 255 255 253 254 254 254 255 255 255 255 255 255 253 254 255 254 254 255 253 255 252 252 255 249 255 252 248 255 251 250 255 254 252 253 255 252 253 255 252 253 255 252 255 253 254 254 254 255 248 252 255 252 253 255 251 255 252 255 255 251 255 251 253 255 255 255 254 255 254 253 255 252 255 251 250 255 250 251 255 253 254 253 254 255 252 253 255 252 252 255 255 248 251 255 250 251 253 255 251 253 255 252 253 254 255 254 251 255 255 255 253 255 255 253 255 255 253 254 254 254 255 255 255 255 253 254 255 253 254 255 253 253 255 253 253 254 255 254 254 255 254 254 255 254 255 253 253 255 253 253 255 255 255 255 255 255 254 254 255 254 254 255 254 254 255 255 255 255 255 255 255 255 255 255 255 255 255 255 255 255 255 255 255 255 255 255 254 254 255 254 254 255 255 244 249 255 250 252 254 255 251 251 255 246 251 255 245 251 255 247 253 255 252 254 255 254 254 255 254 254 255 254 249 253 248 245 255 246 232 252 239 236 255 242 232 247 235 242 249 239 255 244 249 255 251 253 254 254 255 254 254 255 255 255 255 255 253 253 254 255 254 254 254 255 253 254 255 252 252 255 255 250 254 255 253 255 254 254 255 254 254 255 253 254 255 255 251 255 254 254 252 254 254 252 255 255 253 254 254 254 255 255 255 255 253 254 255 253 254 255 253 254 255 253 253 255 253 253 254 255 254 254 255 254 255 253 253 255 253 253 255 255 255 255 255 255 255 255 255 255 255 255 254 254 255 254 254 255 255 255 255 255 255 255 255 253 254 255 253 254 254 254 255 254 254 255 254 254 255 253 254 255 255 244 249 255 249 251 251 254 248 246 255 242 245 255 239 246 255 242 252 255 249 254 255 254 254 254 255 255 251 253 251 255 247 234 254 232 209 247 213 213 253 219 214 243 217 236 254 236 255 242 245 255 250 252 254 254 255 253 254 255 254 254 255 253 255 252 252 255 249 241 255 242 244 255 247 248 255 254 252 253 255 253 254 255 253 254 255 254 254 255 254 254 255 255 255 255 255 252 252 255 252 252 255 255 255 255 255 255 255 255 255 255 253 254 255 253 254 255 253 254 255 253 254 255 253 253 254 255 254 254 255 254 255 253 253 254 255 254 255 255 255 255 255 255 255 255 255 255 255 255 255 255 255 255 255 255 255 255 255 255 253 254 255 253 254 255 253 254 254 254 255 254 254 255 253 254 255 253 254 255 254 252 253 250 255 249 246 255 243 244 255 238 239 255 232 240 255 233 249 255 244 254 255 254 255 246 252 255 246 250 252 255 249 223 253 221 186 240 190 189 246 194 194 239 199 235 255 233 255 253 248 255 254 252 254 254 255 253 254 255 254 255 254 251 255 248 236 255 233 220 254 222 227 255 230 234 255 238 242 255 246 248 255 253 251 255 255 254 255 254 253 255 252 253 255 252 255 253 253 255 253 254 255 255 255 254 254 255 254 254 255 254 254 255 253 253 255 254 254 254 255 253 254 255 253 254 255 253 253 254 255 254 255 255 255 255 255 255 255 255 255 255 255 255 255 255 255 255 255 255 255 255 255 255 255 255 255 253 254 255 253 254 255 253 254 255 253 254 254 254 255 253 253 255 252 254 255 252 254 255 250 255 247 246 255 243 244 255 239 240 255 232 236 252 223 237 250 221 244 252 233 255 252 250 255 246 250 255 245 251 252 255 249 212 255 213 170 244 180 168 245 180 172 236 183 227 255 227 250 255 245 252 255 249 254 254 255 254 254 255 253 255 252 244 255 239 214 252 215 207 255 212 216 255 219 221 255 224 230 255 234 237 253 241 240 254 245 245 253 249 246 254 247 250 253 247 254 254 254 255 255 255 255 255 255 254 254 255 254 254 255 254 254 255 253 253 255 252 252 254 255 255 255 255 253 254 255 253 253 255 253 253 255 255 255 255 255 255 255 255 255 255 255 255 255 255 255 255 255 255 255 255 255 255 253 254 255 253 254 255 253 254 255 253 254 255 253 254 255 255 253 252 255 252 251 255 252 250 255 251 246 255 238 242 255 235 240 255 231 241 254 225 240 252 215 236 248 208 239 250 219 248 253 238 255 255 255 252 253 255 252 255 252 208 255 217 158 248 180 150 248 172 152 234 171 214 255 218 227 253 228 241 255 245 250 255 254 254 254 255 251 255 248 218 242 214 188 236 188 189 251 196 199 255 206 205 255 212 213 255 218 220 248 222 229 244 232 236 244 240 241 247 243 246 251 247 251 253 252 252 254 253 253 255 254 254 254 255 254 254 255 254 254 255 254 254 255 253 253 255 255 255 255 255 255 255 255 253 254 255 253 253 254 254 255 254 254 255 255 255 255 255 255 255 255 255 255 255 255 255 255 253 253 255 253 253 255 253 253 255 253 253 255 253 253 253 255 252 252 255 250 249 255 246 248 255 245 247 255 243 243 255 231 239 255 228 238 254 225 243 255 218 236 252 205 228 249 196 223 254 205 234 255 226 246 255 246 234 255 250 232 255 248 193 255 217 141 236 171 129 231 159 125 213 150 190 255 205 205 243 215 224 255 235 243 255 248 251 255 248 237 255 230 194 236 189 162 228 162 172 247 181 181 255 193 187 255 197 195 255 203 206 249 210 218 245 223 229 244 234 240 252 246 245 255 250 246 254 250 248 254 252 250 255 253 252 254 255 254 254 255 254 254 255 254 254 255 254 254 255 254 254 255 255 255 255 255 253 254 255 253 254 254 254 255 254 254 255 254 254 255 255 255 255 255 255 255 255 255 255 255 253 253 255 253 253 255 253 253 255 254 252 253 255 251 252 254 245 246 253 242 248 255 241 248 255 241 244 255 236 239 255 224 232 251 216 227 245 209 234 255 212 227 254 198 211 253 183 205 255 185 207 255 201 213 255 222 222 255 244 194 247 229 167 231 199 102 184 132 108 195 134 99 174 120 141 200 156 161 209 176 187 232 201 206 251 218 241 255 230 204 255 195 154 227 146 145 232 143 166 255 173 165 255 180 169 255 181 172 254 183 184 252 194 199 249 208 212 248 223 223 252 233 232 255 241 241 255 249 244 255 249 250 255 253 254 254 255 254 254 255 254 254 255 254 254 255 251 251 253 254 254 255 255 255 255 255 253 254 255 253 254 254 254 255 254 254 255 254 254 255 255 255 255 255 255 255 255 253 253 255 253 253 255 253 253 254 252 249 255 254 250 253 255 246 249 253 241 245 253 237 245 255 236 243 255 231 236 255 226 232 255 213 232 255 214 234 255 214 209 248 189 201 252 177 206 255 175 188 255 168 171 255 170 182 253 197 180 229 203 154 201 185 119 169 148 22 77 46 0 44 22 12 56 23 7 41 13 4 58 17 133 189 146 179 246 189 155 243 156 153 251 144 125 230 113 126 230 118 198 255 184 138 234 147 152 252 163 160 255 169 163 255 175 176 255 190 197 255 212 210 255 220 214 255 222 233 255 243 237 255 245 245 255 250 252 255 254 254 254 255 254 254 255 254 254 255 254 254 255 254 254 255 255 255 255 255 253 254 255 253 254 254 254 255 254 254 255 254 254 255 255 255 255 255 255 255 255 253 253 255 253 253 255 253 253 254 252 249 252 253 247 248 252 242 247 254 238 245 255 235 243 255 231 237 255 224 231 251 215 230 255 210 224 255 205 231 255 208 205 255 185 202 255 176 167 252 147 141 237 127 147 243 145 149 221 158 93 135 108 12 40 30 9 35 26 238 255 246 251 255 249 231 248 232 249 255 246 231 255 230 0 48 9 119 192 126 149 253 150 119 239 109 106 223 89 141 242 126 214 255 191 135 223 136 140 237 147 143 254 155 144 255 159 155 255 175 175 255 195 188 255 204 192 255 205 223 254 237 230 255 242 239 255 245 247 255 251 252 254 253 255 253 254 255 253 254 254 254 255 254 254 255 255 255 255 255 255 255 255 253 254 254 254 255 254 254 255 254 254 255 255 255 255 255 253 254 255 253 254 255 253 253 255 253 253 255 254 252 252 253 247 247 251 239 243 252 234 241 255 230 236 255 222 229 253 214 224 251 207 214 246 191 225 255 202 203 255 184 166 232 148 163 236 141 157 231 134 145 223 128 136 210 128 33 90 32 30 59 33 235 243 239 254 254 255 247 252 251 249 254 252 244 244 242 220 215 215 220 235 218 208 237 211 0 49 9 95 188 95 101 213 92 111 213 92 143 221 125 236 255 217 166 225 161 138 221 141 126 233 135 129 249 148 143 254 167 161 252 186 171 251 193 184 255 199 212 253 230 222 255 238 234 255 242 243 255 246 249 252 249 253 251 252 255 253 254 254 254 255 255 255 255 255 255 255 255 255 255 255 253 254 254 254 255 254 254 255 255 255 255 255 255 255 255 253 254 255 253 254 255 253 254 255 253 253 253 255 252 249 252 246 244 250 238 239 251 231 234 253 224 227 251 213 223 253 207 223 254 205 226 255 197 200 245 175 177 240 157 186 255 165 159 222 135 133 191 109 93 144 73 20 66 9 246 255 237 236 248 233 255 253 253 255 250 252 247 244 246 228 230 231 228 230 229 212 212 212 224 217 217 218 225 218 203 232 206 0 53 3 91 169 84 141 214 126 202 249 183 238 255 222 205 244 199 156 228 156 128 234 134 121 244 136 131 245 154 148 246 174 164 248 191 181 255 201 203 253 226 213 254 231 226 255 236 241 255 246 249 252 249 254 249 250 255 250 251 255 253 254 255 255 255 255 255 255 255 255 255 255 255 255 254 254 255 255 255 255 255 255 255 255 253 254 255 253 254 255 253 254 255 253 254 255 253 254 254 255 254 252 255 250 246 255 242 243 255 235 233 253 221 223 250 209 223 255 207 233 255 211 210 245 175 189 242 160 202 255 172 205 255 174 67 126 42 95 134 72 205 228 186 246 255 238 245 255 241 253 255 251 233 228 228 243 238 239 249 249 249 225 230 228 215 221 217 221 226 222 207 198 199 211 206 209 231 237 235 209 237 211 126 172 123 223 255 209 239 255 223 246 255 237 245 255 235 204 255 193 158 255 154 123 255 132 118 246 140 135 245 164 146 243 177 159 252 189 193 251 219 205 255 228 221 255 235 237 255 243 248 252 247 255 251 252 255 251 253 255 253 254 255 255 255 255 255 255 255 255 255 255 255 255 255 255 255 255 255 255 255 255 255 255 253 253 255 253 254 255 253 254 255 253 254 255 253 254 255 255 255 253 255 252 251 255 248 247 255 239 228 252 218 213 244 201 216 251 199 231 255 208 222 255 189 177 247 149 151 240 128 154 240 133 86 149 66 223 255 205 246 255 238 238 245 235 252 255 254 240 245 244 248 250 249 241 241 239 221 225 220 218 225 218 204 211 204 212 219 211 221 228 218 216 216 218 223 223 232 226 234 231 118 139 116 94 118 87 207 227 201 228 255 225 180 234 180 122 220 120 88 232 88 71 233 78 80 230 99 109 241 138 125 245 160 143 255 179 179 244 207 198 252 222 221 255 233 239 255 241 251 255 250 255 251 252 255 250 251 255 253 254 255 255 255 254 254 255 255 255 255 255 255 255 255 255 255 254 255 254 254 255 254 255 253 253 255 253 253 255 253 254 255 253 254 255 253 254 255 255 255 253 255 252 251 255 248 246 255 238 222 246 212 202 233 190 204 239 187 216 255 198 165 227 133 160 244 134 146 248 126 132 230 115 66 136 49 235 255 217 241 250 235 242 244 245 236 239 246 237 242 245 241 247 245 211 218 211 218 225 217 219 226 218 216 220 211 223 225 216 202 226 201 211 219 215 125 125 134 132 136 138 84 97 84 4 25 1 146 170 145 248 255 241 147 217 150 75 195 75 47 210 44 47 228 50 68 236 84 96 246 127 109 249 148 131 255 167 170 237 199 195 251 220 225 255 236 247 255 246 253 255 251 255 252 251 255 250 251 255 253 254 255 255 255 254 254 255 255 255 255 255 255 255 255 250 252 253 255 255 252 253 255 253 254 255 255 250 252 255 248 251 255 251 253 255 251 253 255 247 250 255 253 254 235 255 253 229 255 251 222 255 238 169 234 185 165 238 169 130 211 129 133 235 105 137 238 100 136 232 90 141 227 100 85 154 60 155 203 154 241 255 252 235 237 246 253 251 248 251 252 232 221 225 204 212 220 208 215 224 222 212 223 225 216 224 220 133 145 131 133 141 129 85 94 83 78 84 80 107 113 111 96 101 100 0 4 2 1 8 0 253 255 251 0 8 0 10 21 10 3 19 7 0 27 7 3 54 16 88 168 105 94 207 119 120 250 150 177 222 191 243 255 244 251 255 254 255 253 254 255 244 249 255 246 250 254 255 254 254 255 254 254 255 254 255 255 255 255 251 253 255 253 254 255 250 252 254 254 255 252 253 255 253 254 255 255 248 251 255 248 251 255 255 255 254 255 254 255 255 255 245 254 252 244 251 255 198 248 233 176 229 205 139 193 154 0 37 14 80 143 77 93 182 66 94 183 56 116 205 69 134 218 88 79 152 48 85 139 75 151 178 156 228 239 236 227 229 228 195 197 186 241 246 231 212 221 210 140 148 144 121 129 126 94 104 96 82 90 78 86 98 84 87 98 87 114 122 118 82 90 87 0 5 2 99 104 100 246 253 246 246 253 245 253 255 251 244 251 244 253 255 252 252 255 251 228 255 231 8 72 23 77 167 99 124 231 148 207 255 224 207 245 223 252 254 255 253 254 255 255 248 251 255 248 251 255 253 253 254 255 254 254 254 255 255 253 254 255 250 252 255 253 254 255 250 251 254 254 255 252 253 255 253 254 255 255 246 250 255 250 252 254 254 255 251 255 254 251 255 251 242 255 250 196 235 223 176 228 212 109 157 139 26 65 40 239 255 232 223 254 215 162 231 140 129 203 96 123 201 78 130 211 79 111 185 68 72 135 47 73 120 66 161 185 164 131 141 136 148 153 149 69 76 69 75 84 75 18 27 18 15 24 15 5 13 2 11 18 6 15 28 15 101 114 103 45 55 50 49 60 56 83 91 88 100 106 102 253 255 251 253 255 252 253 255 252 254 255 254 238 238 238 254 255 254 252 255 251 227 255 232 14 74 30 119 190 137 172 224 194 235 255 244 208 241 228 252 253 255 232 234 235 255 250 252 253 248 248 254 255 254 255 255 255 255 253 254 255 251 253 255 253 254 255 250 250 254 254 255 253 254 255 255 251 254 255 244 249 255 251 254 253 255 255 244 255 248 222 255 234 206 238 221 178 222 206 121 173 157 25 68 54 216 237 225 251 255 247 249 255 244 206 252 191 169 219 143 129 192 89 109 184 59 121 199 69 101 170 58 62 119 37 64 103 56 74 95 76 58 69 66 70 77 76 26 33 26 242 249 239 250 255 245 248 252 243 253 255 252 238 247 238 4 14 6 31 41 36 60 71 67 107 115 112 88 94 90 253 255 252 253 255 252 214 214 212 221 219 220 243 238 241 196 191 194 240 242 241 216 230 221 240 255 242 2 38 15 128 179 151 158 207 184 235 255 252 204 235 228 252 253 255 242 239 241 255 251 252 245 242 242 255 255 255 255 253 254 255 251 253 255 253 254 255 251 250 254 255 254 253 254 255 255 250 253 255 244 249 254 254 255 248 255 251 230 255 238 216 255 230 178 219 194 118 161 142 19 64 49 224 255 246 254 254 255 243 236 236 255 244 246 212 232 206 204 235 190 172 219 143 139 205 97 123 197 69 125 199 74 99 165 59 41 91 18 63 95 59 55 69 63 16 25 26 249 254 250 244 248 239 252 255 249 254 255 254 237 234 239 253 255 252 208 215 208 0 5 2 32 40 36 78 84 80 99 106 99 249 253 248 253 255 252 246 246 244 210 210 210 208 206 207 235 230 233 196 191 194 239 241 242 214 222 219 251 255 255 9 54 29 130 177 156 163 215 199 215 255 248 225 249 247 254 254 255 243 238 239 255 251 253 255 253 254 254 254 255 255 253 254 255 255 255 255 248 248 254 255 254 254 254 255 255 250 253 255 248 251 254 255 254 233 255 239 207 255 222 174 222 189 109 149 120 23 59 38 232 255 247 251 253 255 246 247 251 255 242 249 255 241 248 221 221 221 220 232 215 197 229 183 179 232 150 116 185 72 130 203 78 136 202 89 86 137 51 54 90 41 37 57 37 224 233 231 254 254 255 253 255 252 241 242 238 255 253 255 243 239 249 210 206 204 228 226 223 227 231 226 0 4 1 96 103 96 83 87 82 253 255 252 246 247 243 242 246 241 238 243 239 228 231 228 223 223 221 226 224 225 206 206 208 217 218 222 228 232 234 238 255 241 11 49 32 140 190 175 191 240 229 229 255 253 247 253 255 251 246 247 255 251 253 255 255 255 254 254 255 254 254 255 255 255 255 255 250 248 253 255 252 254 254 255 255 251 254 255 251 253 248 255 248 216 255 225 181 238 196 135 183 144 17 49 20 223 247 230 253 255 255 241 252 249 255 253 255 255 248 252 255 246 253 228 220 231 217 219 220 203 223 201 197 240 186 103 160 76 124 186 82 142 202 97 142 190 107 46 78 26 226 247 224 254 254 255 238 240 241 255 255 255 255 253 254 247 244 250 247 243 253 211 205 204 228 226 223 213 216 210 203 210 202 34 37 31 78 79 75 253 255 252 237 237 235 235 242 235 247 255 248 226 235 226 207 214 206 228 232 227 227 227 225 219 219 219 210 212 213 227 234 226 239 255 249 0 44 32 163 215 206 204 240 236 230 244 243 255 253 254 248 246 247 254 254 255 254 254 255 254 254 255 255 255 255 255 253 249 253 255 252 254 254 255 255 251 253 255 253 253 243 255 241 203 254 214 162 222 175 0 38 7 241 255 237 252 255 249 244 250 246 254 254 255 254 249 252 253 250 255 254 254 255 224 213 223 219 216 222 220 228 225 201 230 202 62 105 52 73 120 49 84 129 51 129 164 100 235 255 215 249 255 244 244 249 247 254 254 255 254 254 255 250 248 249 238 236 237 253 250 252 225 224 219 209 210 204 218 225 217 230 239 230 161 168 161 17 17 15 251 248 248 252 252 252 241 246 242 236 246 238 245 255 245 240 249 238 208 215 205 211 214 208 219 220 216 223 223 221 182 165 165 253 254 255 6 47 38 146 200 190 210 251 245 232 250 248 247 249 250 255 253 254 254 254 255 253 254 255 254 254 255 255 253 254 255 253 251 254 255 254 253 254 255 255 251 253 255 255 251 230 255 230 191 247 201 142 201 152 0 35 2 251 255 247 255 250 250 255 251 253 255 253 254 255 253 254 255 255 255 254 254 255 217 210 210 226 224 225 212 219 218 225 237 231 80 106 81 77 108 69 13 38 0 239 255 223 245 255 236 252 255 249 249 251 252 253 254 255 254 254 255 251 251 249 244 245 239 222 224 215 222 225 219 201 210 201 211 222 211 218 229 218 212 217 213 13 13 13 245 240 243 241 238 240 247 249 248 246 252 248 244 255 244 248 255 245 240 244 235 189 191 182 178 177 172 182 180 177 195 170 172 245 250 248 6 45 37 144 198 188 191 234 227 235 255 253 254 254 255 255 255 255 254 254 255 253 254 255 255 255 255 255 251 252 255 253 253 254 254 255 253 254 255 255 251 253 254 255 249 227 255 226 187 244 195 138 197 148 0 34 2 252 255 249 255 248 251 255 250 252 255 251 253 255 253 253 254 255 254 254 255 254 224 223 218 216 217 213 214 219 215 217 225 222 76 86 81 88 101 90 11 24 10 251 255 248 249 252 246 255 255 255 253 253 255 254 254 255 254 254 255 254 255 249 236 240 228 211 216 200 211 220 211 215 226 215 218 231 220 214 224 216 229 234 230 168 165 167 22 16 23 255 251 254 237 236 240 241 243 244 243 248 244 243 247 242 242 241 236 217 216 211 187 186 181 185 183 180 183 162 163 254 254 255 0 32 20 143 198 187 206 251 244 229 252 248 250 255 254 254 254 254 255 255 255 254 254 255 255 255 255 255 250 251 252 252 252 252 253 255 253 254 255 255 250 252 255 254 249 235 255 230 190 251 198 145 206 156 4 39 10 253 255 252 255 248 251 255 251 254 255 253 254 255 253 253 253 255 252 253 255 251 219 223 218 218 222 217 219 226 218 214 221 214 89 94 92 98 102 104 0 0 5 253 254 255 255 253 255 255 253 255 255 253 254 254 254 255 254 255 254 247 250 244 230 234 224 225 230 215 221 230 221 199 208 199 218 228 220 207 213 209 172 174 173 184 179 182 1 0 3 255 250 252 243 240 245 249 248 252 241 241 243 240 238 239 246 241 241 248 245 245 183 183 181 178 182 177 200 195 192 208 224 217 36 82 70 156 211 200 214 255 250 237 255 254 254 254 255 255 255 255 255 255 255 254 254 255 255 253 254 255 250 251 252 254 255 252 253 255 252 253 255 255 250 252 254 255 249 230 255 226 184 248 193 141 205 155 0 39 8 249 255 249 255 251 254 254 253 255 254 254 255 255 253 253 253 255 252 253 255 251 214 219 218 223 228 224 201 208 200 188 195 185 87 90 84 94 96 95 2 1 8 248 248 255 254 253 255 255 253 254 254 255 254 254 255 254 248 248 246 235 239 234 220 223 217 218 225 217 216 219 213 213 217 212 219 226 219 180 183 180 191 191 189 101 98 98 6 0 1 208 206 207 246 246 246 239 239 241 245 242 244 253 247 254 231 226 229 246 243 245 181 186 184 181 189 185 179 194 182 27 57 45 95 145 132 174 229 218 219 255 249 248 251 255 255 255 255 255 253 254 255 255 255 255 255 255 255 251 253 255 250 251 254 254 255 253 254 255 252 253 255 255 251 253 251 255 248 232 255 226 186 255 196 146 217 161 0 36 11 247 255 248 254 254 255 253 254 255 255 255 255 255 253 253 253 255 252 246 253 246 174 179 181 183 188 186 173 180 172 176 183 172 79 86 76 92 99 91 41 46 42 169 174 172 223 225 224 254 255 254 253 255 252 247 248 244 237 238 234 239 242 239 224 227 224 208 211 208 218 216 213 227 228 224 164 167 164 184 188 183 78 81 75 95 99 90 2 3 0 100 107 96 252 255 249 236 243 235 240 240 240 255 251 253 238 233 236 252 254 255 197 205 202 182 196 190 157 188 168 18 57 39 157 209 193 207 255 245 232 255 254 246 255 253 250 248 249 255 250 250 255 255 255 255 255 255 255 251 253 255 251 252 254 255 254 253 254 255 252 253 255 255 253 254 251 255 247 220 255 217 177 254 189 141 218 156 0 43 11 252 255 249 255 255 255 254 254 255 254 255 254 248 249 245 239 240 236 226 231 227 180 185 181 175 180 176 187 192 188 192 200 193 80 93 80 87 99 85 61 76 60 23 38 22 192 205 192 230 239 230 247 254 246 247 250 244 244 245 241 237 238 234 227 230 227 216 218 217 225 222 222 167 167 165 183 190 183 78 87 78 107 119 105 0 7 0 126 144 118 58 76 48 194 213 188 246 255 239 235 239 230 238 235 235 249 247 248 236 239 236 175 187 178 175 195 182 21 62 39 110 157 136 172 224 208 215 255 248 237 255 255 244 244 246 255 250 252 255 251 252 255 255 255 255 255 255 255 253 254 255 253 253 253 255 251 254 255 254 253 254 255 247 250 247 229 248 227 192 246 196 150 234 162 115 198 130 0 47 8 251 255 248 254 255 254 254 254 252 239 243 238 225 226 222 218 222 217 212 218 214 190 192 180 182 185 179 182 187 185 171 180 178 99 111 105 91 109 94 87 111 87 0 17 2 128 148 128 188 203 188 219 227 220 240 244 239 241 242 236 221 222 216 219 220 214 207 208 202 176 179 176 192 198 194 78 88 80 109 126 110 66 87 64 5 32 0 91 121 81 86 118 74 91 121 81 225 245 215 245 253 237 242 241 233 255 252 251 238 241 235 193 210 194 166 189 170 0 43 21 167 217 196 203 250 234 236 254 255 252 253 255 255 250 252 255 246 249 253 248 248 254 255 254 254 254 255 255 255 255 254 255 254 252 255 249 253 255 252 250 254 255 242 248 244 226 246 224 191 249 196 152 240 165 120 205 133 0 42 10 245 255 240 251 249 246 234 235 231 219 223 218 210 213 207 215 220 216 215 223 220 180 184 163 195 199 187 172 177 175 142 150 153 123 138 134 90 112 95 79 108 80 6 37 5 9 34 9 129 144 132 190 198 194 214 219 215 220 221 215 216 218 207 221 223 212 186 188 176 187 193 189 88 96 92 87 101 92 78 99 80 0 30 0 100 135 93 201 243 191 143 185 131 113 152 101 206 233 195 237 249 227 243 242 230 241 238 231 221 225 216 165 184 165 0 27 1 133 184 156 169 219 196 227 255 248 235 255 254 252 253 255 255 245 250 255 244 248 255 251 252 254 255 254 254 254 255 254 254 255 254 255 254 249 250 254 255 255 255 253 255 252 243 249 237 220 247 217 198 254 201 165 248 174 127 227 138 82 184 92 0 81 9 183 242 186 218 247 219 203 206 200 217 211 213 218 210 213 222 216 218 162 174 179 192 197 195 136 133 126 140 136 133 163 168 166 60 83 69 13 73 17 72 151 62 14 91 0 106 169 100 152 188 158 116 134 132 85 93 96 86 92 90 83 94 83 78 91 78 77 93 74 104 116 107 233 247 244 82 102 86 7 42 0 172 223 148 212 255 170 199 255 151 132 207 88 144 213 98 176 235 130 202 253 164 215 255 187 203 245 189 166 208 162 0 28 7 141 213 150 182 239 190 223 255 227 247 255 249 253 254 255 254 253 255 255 251 254 255 253 254 255 253 253 255 253 253 255 255 255 254 254 255 253 254 255 255 255 255 255 254 252 245 252 241 224 252 223 205 255 207 175 255 185 142 243 157 106 214 120 81 177 93 0 66 10 199 240 203 216 233 217 219 222 219 218 213 214 220 215 215 190 198 201 116 123 116 152 154 142 155 161 149 95 117 100 33 79 41 130 211 129 88 181 73 109 195 89 44 110 32 96 136 98 142 156 151 99 106 105 82 90 83 88 101 88 95 110 94 89 110 76 86 107 78 73 97 73 7 38 6 96 141 89 132 198 114 175 255 143 126 215 85 137 223 85 121 199 65 178 240 120 184 238 133 171 222 132 167 221 141 66 129 52 117 183 108 159 234 161 194 255 195 235 255 228 251 255 247 254 255 254 254 254 255 255 253 254 255 253 253 255 254 252 255 253 253 255 253 254 254 254 255 255 255 255 254 255 254 255 254 252 248 255 245 231 255 231 218 255 220 191 255 197 160 255 174 126 239 144 101 209 117 83 172 98 4 66 18 207 242 217 212 228 216 217 224 217 179 180 176 127 132 131 144 151 141 120 128 112 129 157 128 28 76 35 129 208 136 226 255 198 140 253 119 116 214 88 90 160 71 33 73 28 0 12 2 16 21 17 21 28 18 7 19 3 26 45 26 84 116 55 54 85 32 13 39 0 7 43 0 0 44 2 86 160 73 108 204 84 112 217 71 121 222 66 135 222 70 159 228 90 177 237 110 185 248 132 160 234 120 74 160 45 144 243 123 171 240 160 201 255 189 232 255 217 243 255 233 250 255 245 253 255 251 253 255 252 253 255 251 253 255 251 255 254 252 255 253 254 255 253 254 254 255 254 253 255 252 255 254 252 252 255 249 237 255 237 225 255 226 204 255 208 177 255 186 148 255 163 130 247 151 89 192 110 79 162 100 0 48 21 11 46 23 0 14 7 9 20 9 19 24 20 3 11 0 11 32 8 0 40 3 59 130 67 76 184 79 135 255 119 89 218 58 93 194 56 125 190 98 66 97 54 116 123 112 249 250 244 251 255 248 238 253 236 249 255 246 197 236 158 202 235 165 230 255 205 234 255 214 203 249 198 5 75 2 69 162 56 107 211 73 102 206 48 136 229 69 143 223 73 172 244 106 170 244 112 88 178 41 126 231 89 140 255 107 178 237 153 198 249 176 217 250 197 227 246 211 239 248 226 244 253 238 250 255 245 252 255 249 253 255 250 255 254 251 255 250 251 255 253 254 253 255 252 253 255 252 255 254 252 255 253 253 244 251 244 233 255 234 214 255 217 189 255 194 166 255 172 133 248 153 239 255 223 98 196 124 94 167 119 60 107 78 32 59 40 3 20 7 142 150 143 141 156 141 124 151 129 146 194 155 0 67 17 56 180 54 48 183 23 65 190 22 143 239 99 95 149 61 109 128 93 231 230 220 255 250 250 252 255 249 251 255 248 236 255 239 211 255 172 184 223 143 194 226 154 207 231 181 142 172 134 123 167 125 2 67 0 77 163 55 122 220 82 100 202 48 113 208 55 154 243 99 145 234 94 80 176 34 132 240 96 155 255 119 189 247 158 208 254 178 221 251 194 227 246 204 233 246 217 239 251 231 242 254 237 247 255 243 251 255 248 255 254 251 255 250 251 255 250 253 253 255 251 253 255 252 255 253 253 255 251 253 251 246 246 240 247 239 221 249 220 199 255 200 170 255 179 173 255 177 107 220 132 119 221 148 78 157 107 22 76 42 113 143 122 142 159 143 137 148 137 133 147 138 155 178 164 64 108 78 0 72 11 59 173 50 93 218 60 89 203 40 122 206 74 140 182 107 223 234 205 255 250 250 255 248 251 253 255 251 253 255 251 247 255 249 208 255 177 188 235 150 187 227 142 129 160 96 160 180 146 146 163 147 144 173 147 0 44 2 107 196 86 121 232 92 88 204 53 88 199 51 84 185 44 123 221 85 145 246 116 155 255 132 195 253 164 216 255 183 226 255 197 230 250 208 234 249 219 239 255 232 242 255 238 246 255 243 252 255 249 255 253 250 254 249 250 255 250 253 253 255 252 253 255 252 254 255 254 255 251 253 255 250 252 250 246 244 234 246 231 212 251 210 185 254 190 161 254 175 152 254 175 99 195 127 4 79 33 178 225 193 220 241 222 191 195 186 139 143 134 136 141 137 80 94 89 94 125 105 0 57 9 75 171 57 39 148 0 136 234 82 139 212 92 206 246 178 246 255 237 235 229 231 250 244 248 252 249 249 221 229 222 251 255 255 227 255 201 174 232 143 161 221 119 160 208 121 118 145 97 169 178 167 144 151 150 142 177 142 0 51 10 110 224 101 117 246 102 107 230 84 96 200 64 136 229 104 186 255 154 177 255 157 189 248 164 210 255 186 226 255 202 231 252 213 238 253 226 243 255 235 246 255 242 247 255 245 249 255 248 255 253 250 254 249 249 255 250 251 254 255 254 254 255 254 255 255 255 255 253 254 255 251 253 253 250 250 239 248 237 222 252 220 203 255 205 173 254 188 139 228 163 108 191 136 3 66 27 194 228 206 191 198 188 210 195 193 211 205 197 136 131 131 94 97 101 94 112 104 0 39 6 81 163 58 104 197 57 122 211 67 175 245 131 207 246 182 236 251 229 244 242 243 239 234 235 246 244 241 248 252 247 239 244 242 206 242 194 141 199 116 145 219 102 153 227 109 144 191 115 138 153 129 157 157 159 149 167 155 0 61 6 64 169 67 73 198 68 72 186 52 81 171 45 57 131 19 130 204 104 145 227 133 183 252 170 210 255 193 229 255 211 233 255 220 239 254 230 245 255 239 244 255 242 246 255 246 250 254 249 253 253 251 254 251 251 253 251 252 255 253 254 255 255 255 255 255 255 255 255 255 253 254 255 251 253 252 242 253 242 232 255 232 211 255 217 184 251 201 148 223 174 123 194 153 0 51 23 205 230 215 191 187 184 204 180 182 201 191 183 217 208 207 117 116 122 104 120 113 0 46 1 92 166 66 114 203 67 166 252 112 176 245 134 223 255 198 231 252 227 244 249 245 242 240 237 255 255 251 236 237 233 222 222 222 147 159 139 134 176 112 151 228 111 151 237 105 152 215 118 144 167 125 156 163 152 142 158 146 0 45 13 74 165 84 8 117 7 141 227 119 136 198 97 141 192 100 76 135 47 118 190 104 162 237 162 197 255 193 231 255 220 237 255 228 242 254 236 247 255 243 248 255 247 248 255 248 253 255 252 254 255 254 254 255 254 255 255 255 255 251 254 255 253 254 255 255 255 254 254 255 254 254 255 251 255 254 245 255 247 239 255 241 217 255 227 211 255 225 177 242 205 116 180 148 0 44 22 202 231 219 211 219 212 195 183 183 190 191 176 204 207 204 220 231 233 105 129 119 15 75 14 52 133 27 149 238 102 174 255 119 176 241 135 219 255 196 234 253 228 246 253 245 241 243 234 238 240 229 229 230 224 147 147 145 153 142 144 143 166 124 144 210 109 138 222 94 150 215 109 167 199 138 132 147 120 158 185 163 0 50 18 84 163 103 0 75 11 141 206 124 161 196 124 187 221 146 166 213 139 37 104 23 162 232 173 193 253 199 226 255 222 237 255 232 243 252 239 249 253 244 250 253 247 250 254 249 253 255 252 253 255 252 254 255 254 254 255 254 255 251 254 255 253 255 255 255 255 254 255 254 254 255 254 254 255 254 250 255 251 245 255 248 229 255 237 214 255 231 183 240 212 132 196 170 32 92 72 166 213 197 194 223 211 195 213 205 196 221 201 186 211 202 174 209 205 28 71 51 69 145 74 71 165 50 171 255 125 160 241 109 185 242 145 198 229 176 220 232 210 219 221 210 218 220 209 219 221 210 213 216 210 157 162 160 160 142 154 150 160 134 146 194 117 156 226 116 151 209 106 158 196 120 162 195 142 120 170 123 0 60 25 100 176 129 7 86 26 100 160 97 142 175 122 183 213 159 184 231 167 26 95 18 160 223 174 194 246 204 224 255 224 239 255 236 247 251 241 252 254 245 253 255 250 253 255 252 253 255 252 253 255 252 254 255 254 254 255 254 252 252 255 254 254 255 255 255 255 254 255 254 254 255 254 255 253 254 254 249 250 250 253 250 248 255 249 226 255 239 201 248 227 174 235 214 78 144 123 42 104 85 0 52 31 1 50 31 13 60 42 0 41 23 31 86 75 84 142 112 120 209 129 64 169 47 148 244 108 158 232 112 179 226 142 177 198 154 194 200 181 210 207 200 192 191 183 198 202 193 197 205 198 140 148 145 158 150 154 141 150 130 137 173 116 163 217 126 200 254 153 161 209 117 127 185 102 0 75 4 117 198 144 154 236 191 72 147 102 49 108 64 113 162 116 196 242 193 140 199 139 21 94 24 169 225 185 200 247 210 230 255 231 245 255 241 252 254 245 255 254 250 255 254 252 253 255 252 253 255 252 253 255 252 254 255 254 254 255 254 252 253 255 254 254 255 255 255 255 254 255 254 255 251 252 255 250 252 255 247 250 254 249 250 247 255 248 232 253 241 213 250 235 202 255 237 163 225 206 128 194 173 118 184 163 135 201 179 125 181 166 147 207 195 147 210 194 163 230 192 117 214 124 98 206 81 152 248 116 154 229 116 165 211 135 210 231 194 191 196 181 207 206 201 196 197 191 201 208 200 194 202 195 149 157 154 151 155 146 155 170 150 146 178 132 133 180 104 167 224 123 139 205 92 103 181 73 111 207 111 142 229 166 180 255 213 201 255 225 98 160 124 12 62 33 17 66 32 60 116 73 136 201 145 189 233 203 214 251 222 236 255 236 247 254 243 255 254 246 255 252 251 255 254 252 254 255 254 255 253 253 255 253 253 255 253 253 254 255 254 253 254 255 254 254 255 255 255 253 253 255 252 255 253 253 255 250 252 255 250 252 255 250 251 254 255 254 248 255 249 238 255 246 222 255 242 198 245 230 182 235 218 188 246 227 183 240 220 198 245 237 198 247 238 193 246 229 189 255 209 166 255 164 122 228 104 83 182 53 90 172 62 187 245 170 163 196 159 197 214 198 203 209 205 177 185 178 208 215 207 187 194 186 148 152 147 149 161 144 144 163 144 131 162 129 150 197 131 125 191 88 111 196 66 110 203 78 154 247 147 204 255 206 194 255 214 199 253 220 202 254 224 187 236 213 154 201 180 163 207 182 186 234 197 212 244 222 229 254 234 242 255 242 252 253 247 255 251 250 255 251 252 255 253 254 255 255 255 255 253 254 255 253 254 255 253 253 255 253 253 254 254 255 254 254 255 255 255 253 253 255 252 254 255 254 254 254 255 254 254 255 255 255 255 253 255 252 243 254 243 237 253 241 234 255 243 229 255 246 221 254 244 231 255 249 229 255 248 240 250 255 228 254 254 249 255 253 205 255 207 160 241 150 155 251 131 144 245 118 121 214 103 28 102 23 10 59 19 177 204 193 211 231 226 191 203 197 189 198 187 205 204 196 159 155 149 149 156 142 149 157 150 156 172 160 128 176 120 109 187 82 101 199 61 173 255 136 174 249 160 200 245 197 249 255 244 231 255 230 215 248 224 215 255 240 207 250 239 226 255 246 223 248 233 234 255 241 243 255 245 249 255 248 255 253 250 255 251 252 255 251 253 254 254 255 254 254 255 255 253 254 255 251 253 255 251 252 255 251 252 255 253 255 255 255 255 254 255 254 253 255 252 254 255 254 254 254 255 253 254 255 254 254 255 253 255 252 252 255 249 244 255 243 239 251 242 251 255 253 243 255 251 241 255 250 253 254 255 251 252 255 252 253 255 238 254 242 229 255 219 197 255 175 169 255 141 148 250 124 151 253 140 138 222 144 117 171 136 6 48 34 0 23 12 209 225 218 195 204 193 202 199 189 158 149 143 159 158 148 148 147 151 143 155 155 0 39 2 132 217 112 154 255 119 203 255 158 186 245 167 232 245 216 255 247 238 255 253 243 238 253 236 233 255 249 238 249 255 240 252 255 240 251 247 246 255 248 253 255 252 253 255 252 255 251 252 255 250 252 255 253 254 254 254 255 254 254 255 255 253 255 255 251 253 255 250 252 255 251 252 255 255 255 255 255 255 255 255 255 255 255 255 255 255 255 255 255 255 255 255 255 255 255 255 255 255 255 255 255 255 255 255 255 253 253 253 252 252 252 252 252 252 254 254 254 255 255 255 255 255 253 250 255 245 241 255 227 224 255 206 207 255 186 198 252 175 191 248 171 186 245 175 182 246 184 166 223 181 160 212 186 128 182 160 0 44 22 14 61 35 175 220 187 140 185 145 149 195 162 127 178 138 0 56 8 135 203 136 153 222 146 175 238 159 197 252 174 204 246 176 221 248 196 236 252 216 247 255 239 253 255 252 254 254 255 253 254 255 254 254 255 254 254 255 253 253 253 253 253 253 253 253 253 254 254 254 255 255 255 255 255 255 255 255 255 255 255 255 255 255 255 255 255 255 255 255 255 255 255 255 255 255 255 255 255 255 255 255 255 255 255 255 255 255 255 255 255 255 255 255 255 255 255 255 255 255 255 255 255 255 255 255 255 254 254 254 253 253 253 253 253 253 254 254 254 255 255 255 255 253 253 250 255 246 241 255 229 227 255 209 213 255 193 208 255 185 206 254 185 204 255 191 214 255 210 208 255 219 198 245 223 181 232 213 157 207 186 105 151 125 30 77 44 0 32 15 0 38 15 12 60 23 120 172 127 175 234 175 199 255 191 199 255 184 197 244 174 227 255 199 222 249 199 236 252 218 247 255 240 253 255 251 254 254 255 253 254 255 254 254 255 254 254 255 253 253 253 253 253 253 254 254 254 254 254 254 255 255 255 255 255 255 255 255 255 255 255 255 255 255 255 255 255 255 255 255 255 255 255 255 255 255 255 255 255 255 255 255 255 255 255 255 255 255 255 255 255 255 255 255 255 255 255 255 255 255 255 255 255 255 255 255 255 254 254 254 254 254 254 255 255 255 255 255 255 255 255 255 255 252 251 250 254 244 237 252 226 224 252 209 217 250 197 213 249 190 212 247 191 210 246 197 224 255 219 225 255 230 223 255 240 190 232 218 191 235 219 172 215 191 126 172 139 157 206 167 154 194 165 135 176 144 209 253 216 178 226 181 203 250 198 195 237 183 203 242 185 208 238 186 208 232 189 218 233 203 229 241 221 241 248 240 253 255 254 254 254 255 254 254 255 255 255 255 253 253 253 254 254 254 254 254 254 254 254 254 255 255 255 255 255 255 255 255 255 255 255 255 255 255 255 255 255 255 255 255 255 255 255 255 255 255 255 255 255 255 255 255 255 255 255 255 255 255 255 255 255 255 255 255 255 255 255 255 255 255 255 255 255 255 254 254 254 255 255 255 255 255 255 255 255 255 255 255 255 255 255 255 255 252 251 246 250 240 231 243 222 219 242 206 210 237 193 202 229 182 196 219 177 193 212 179 198 217 192 184 202 187 177 198 189 173 201 193 171 204 191 172 210 187 163 205 175 147 192 156 151 184 160 158 191 167 152 185 157 158 190 161 178 210 176 174 201 165 184 208 170 176 197 160 185 205 171 187 206 177 195 210 190 209 218 209 229 234 232 246 248 249 255 255 255 255 255 255 254 254 254 254 254 254 254 254 254 255 255 255 255 255 255 255 255 255 255 255 255 255 255 255 255 255 255 255 255 255 255 255 255 255 255 255 255 255 255 255 255 255 255 255 255 255 255 255 255 255 255 255 255 255 255 255 255 255 255 255 255 255 255 255 255 255 254 254 254 255 255 255 255 255 255 255 255 255 255 255 255 254 254 254 245 243 240 227 231 222 203 218 198 187 207 177 174 197 161 162 182 146 153 168 138 151 159 137 129 134 119 131 135 130 117 124 123 118 132 129 118 137 130 116 139 125 122 153 129 104 138 109 113 139 119 124 149 129 115 137 120 118 136 121 108 126 108 116 132 113 120 132 111 134 149 123 134 149 123 135 154 129 145 161 142 168 179 168 200 206 202 231 233 232 253 253 253 255 253 254 255 255 255 255 255 255 255 255 255 255 255 255 255 255 255 255 255 255 255 255 255 255 255 255 255 255 255 255 255 255 255 255 255 255 255 255 255 255 255 255 255 255 255 255 255 255 255 255 255 255 255 255 255 255 255 255 255 255 255 255 255 255 255 255 255 255 254 254 254 255 255 255 255 255 255 255 255 255 254 254 254 252 252 252 232 232 230 205 212 204 175 190 173 153 174 149 138 162 131 128 146 118 122 131 109 122 125 108 116 113 106 108 101 101 100 97 99 95 96 100 103 109 107 101 113 104 89 106 90 85 104 85 96 116 100 91 107 95 101 111 106 104 110 108 115 120 118 116 120 115 137 141 131 117 124 110 133 145 127 135 151 132 147 162 146 171 184 173 203 209 205 232 234 233 252 250 251 255 251 253 255 255 255 255 255 255 255 255 255 255 255 255 255 255 255 255 255 255 255 255 255 255 255 255 255 255 255 255 255 255 255 255 255 255 255 255 255 255 255 255 255 255 255 255 255 255 255 255 255 255 255 255 255 255 255 255 255 255 255 255 255 255 255 255 255 255 254 254 254 254 254 254 255 255 255 255 255 255 253 253 253 250 250 250 235 235 233 207 211 206 173 186 173 153 172 153 143 161 139 133 148 128 126 135 120 129 131 120 100 96 94 97 91 93 111 103 110 110 104 111 100 97 99 99 99 97 99 100 94 104 106 97 107 119 110 102 110 106 101 106 105 106 107 111 119 116 121 105 102 104 139 136 136 116 119 113 130 137 126 135 147 133 149 162 149 177 187 179 209 215 211 237 239 238 255 253 254 255 251 253 255 255 255 255 255 255 255 255 255 255 255 255 255 255 255 255 255 255 255 255 255 255 255 255 255 255 255 255 255 255 255 255 255 255 255 255 255 255 255 255 255 255 255 255 255 255 255 255 255 255 255 255 255 255 255 255 255 255 255 255 255 255 255 255 255 255 254 254 254 254 254 254 255 255 255 255 255 255 252 252 252 249 249 249 233 228 229 208 205 205 179 183 178 163 172 161 154 166 152 147 155 143 138 145 135 136 139 133 146 143 143 140 138 139 120 117 119 126 123 125 141 138 140 141 136 137 138 133 133 120 114 113 133 139 135 129 134 132 139 140 144 152 149 155 153 146 154 160 154 161 150 148 149 181 182 178 177 180 174 179 186 178 188 196 189 205 211 207 224 229 227 242 242 242 253 251 252 255 251 253 255 255 255 255 255 255 255 255 255 255 255 255 255 255 255 255 255 255 255 255 255 255 255 255 255 255 255 255 255 255 255 255 255 255 255 255 255 255 255 255 255 255 255 255 255 255 255 255 255 255 255 255 255 255 255 255 255 255 255 255 255 255 255 255 255 255 255 255 255 255 255 255 255 255 255 255 255 255 255 255 255 255 255 255 233 227 231 229 224 225 221 218 218 213 214 210 207 210 204 205 208 202 204 207 201 204 208 203 185 188 185 188 191 188 194 196 195 196 198 199 197 197 199 197 195 196 197 192 193 196 190 192 203 205 206 205 205 207 203 202 206 202 199 204 210 207 212 223 220 222 225 222 222 219 220 216 224 225 221 229 233 228 238 241 238 245 247 246 251 253 252 254 254 255 255 253 254 255 253 254 255 255 255 255 255 255 255 255 255 255 255 255 255 255 255 255 255 255 255 255 255 255 255 255 255 255 255 255 255 255 255 255 255 255 255 255 255 255 255 255 255 255 255 255 255 255 255 255 255 255 255 255 255 255 255 255 255 255 255 255 255 255 255 255 255 255 255 255 255 255 255 255 255 255 255 255 255 255 255 255 255 255 255 255 255 251 253 255 251 253 255 251 253 255 251 252 255 251 252 255 254 252 255 254 252 253 255 252 253 255 252 254 255 254 254 255 254 254 254 255 254 254 255 254 254 255 255 253 254 255 251 253 254 254 255 254 254 255 254 254 255 253 253 255 255 255 255 254 255 254 253 255 252 253 255 252 250 251 247 254 254 252 255 253 254 255 253 254 254 254 255 254 254 255 255 255 255 253 253 253 255 255 255 255 255 255 255 255 255 255 255 255 255 255 255 255 255 255 255 255 255 255 255 255 255 255 255 255 255 255 255 255 255 255 255 255 255 255 255 255 255 255 255 255 255 255 255 255 255 255 255 255 255 255 255 255 255 255 255 255 255 255 255 255 255 255 255 255 255 255 255 255 255 255 255 255 255 255 255 255 255 255 255 255 254 254 255 254 254 255 255 253 254 255 251 253 255 251 253 255 251 252 255 253 253 253 255 252 253 255 252 253 255 252 254 255 254 254 255 254 254 254 255 254 254 255 254 254 255 255 253 255 255 253 255 255 253 254 255 255 255 254 255 254 253 255 252 253 255 251 253 255 251 253 255 252 255 254 252 255 253 253 255 251 253 255 251 253 255 253 254 254 254 255 254 254 255 255 255 255 255 255 255 255 255 255 255 255 255 255 255 255 255 255 255 255 255 255 255 255 255 255 255 255 255 255 255 255 255 255 255 255 255 255 255 255 255 255 255 255 255 255 255 255 255 255 255 255 255 255 255 255 255 255 255 255 255 255 255 255 255 255 255 255 255 255 255 255 255 255 255 255 255 255 255 255 255 255 255 255 255 255 255 255 253 254 255 253 254 255 254 254 255 254 254 255 255 253 254 255 251 253 253 248 248 251 248 248 253 255 252 253 255 252 254 255 254 254 255 254 255 255 255 254 254 255 255 253 255 255 253 255 255 253 254 255 253 254 255 255 255 253 255 252 253 255 251 253 255 251 251 254 248 250 251 247 255 252 252 254 252 253 255 250 253 254 249 252 255 252 254 254 254 255 254 254 255 254 254 255 255 255 255 255 255 255 255 255 255 255 255 255 255 255 255 255 255 255 255 255 255 255 255 255 255 255 255 255 255 255 255 255 255 255 255 255 