P3 63 58 255
255 251 255 255 251 255 255 252 255 255 254 255 255 255 255 252 255 255 251 255 255 249 255 255 249 255 244 248 255 243 248 255 253 249 255 255 249 255 255 251 255 255 252 255 253 252 255 255 252 255 255 254 255 253 254 255 248 251 255 243 247 255 249 247 255 255 248 255 255 251 254 255 254 254 244 255 255 243 255 255 250 250 255 249 249 255 236 254 255 225 255 255 232 255 251 246 254 255 223 255 255 232 255 253 240 255 251 241 255 252 236 255 253 230 255 255 236 255 255 244 255 250 253 255 249 255 255 253 255 248 255 255 244 255 245 251 255 246 255 255 253 255 253 255 249 255 255 252 255 255 255 254 255 255 253 255 255 254 251 255 255 248 255 255 248 252 255 253 252 255 255 255 254 255 255 253 255 255 253 255 255 254 251 254 255 253 249 255 255 255 255 251 255 254 255 255 254 255 255 255 255 255 255 253 255 255 253 255 254 255 255 254 255 255 255 250 252 255 246 251 255 251 251 255 255 252 255 255 254 255 255 255 255 250 255 255 246 255 255 251 254 253 251 255 252 253 255 254 253 255 255 250 252 253 247 255 255 251 255 253 255 255 251 255 255 251 255 254 247 254 254 254 255 249 251 255 251 252 255 250 246 255 255 248 255 244 255 255 248 252 255 249 254 255 236 252 255 237 255 255 242 255 255 254 255 250 255 251 253 254 252 255 252 255 255 255 255 250 255 253 237 255 255 243 253 253 251 252 255 255 250 255 255 254 255 255 254 255 255 254 255 255 255 255 253 255 254 251 255 254 251 255 255 253 254 255 255 254 255 255 255 255 255 255 254 255 255 254 251 255 255 253 254 255 255 251 255 255 254 255 250 252 255 253 252 255 255 252 255 255 254 255 251 255 255 251 255 253 255 255 251 255 255 252 255 255 254 253 255 255 250 254 255 251 254 255 255 255 254 255 255 253 255 255 252 251 255 255 253 255 251 255 255 250 255 255 251 255 255 250 247 255 255 244 255 252 247 255 252 255 255 250 255 255 249 255 255 252 255 254 253 255 249 249 255 248 250 255 251 250 255 247 247 255 241 254 255 251 250 255 252 251 255 239 255 255 230 255 255 233 255 255 248 253 255 255 253 255 248 255 255 239 255 255 250 255 249 255 249 240 255 249 250 255 251 255 252 255 255 246 255 252 255 254 251 255 255 253 252 255 253 252 255 253 255 255 253 255 253 255 255 252 255 255 253 255 254 255 255 254 255 251 255 255 248 255 255 250 254 255 253 254 255 255 254 255 255 255 255 255 254 255 251 251 255 250 251 255 250 252 255 253 255 254 255 255 253 255 255 251 255 255 250 255 255 251 255 255 254 251 255 255 250 255 255 253 255 254 255 255 252 255 255 251 255 255 251 255 255 252 255 254 250 255 255 255 255 252 255 248 252 255 255 251 253 255 252 253 255 251 255 247 251 255 238 252 255 246 249 255 238 0 9 0 1 12 0 6 12 0 7 8 0 1 11 0 15 0 0 31 0 0 38 0 0 29 0 0 14 0 0 255 255 239 255 251 248 254 254 246 251 255 250 248 255 255 252 253 255 255 248 255 255 246 255 253 250 245 248 255 246 255 253 248 255 255 250 252 255 253 251 255 255 254 255 255 255 253 255 255 251 255 255 253 255 255 255 255 254 255 248 254 255 246 252 255 250 252 255 255 254 255 255 255 254 255 255 254 255 255 255 253 254 255 246 254 255 248 254 255 253 254 255 255 255 253 255 255 253 255 255 252 255 255 252 255 255 253 255 255 254 253 255 254 255 254 254 255 252 254 255 252 254 255 252 250 251 254 253 255 248 255 255 245 255 251 245 255 251 246 254 255 248 248 255 252 254 253 0 10 0 1 15 0 5 16 0 4 12 0 240 252 90 248 255 35 254 253 38 249 233 60 250 240 20 255 223 63 227 140 35 255 131 36 255 131 29 225 141 55 35 0 0 26 0 0 30 0 0 26 0 0 255 251 253 243 254 255 248 252 255 255 251 252 255 255 246 248 255 253 255 254 246 255 255 250 255 255 253 252 255 255 254 254 255 255 254 255 255 254 255 255 254 255 255 255 251 255 255 250 252 255 251 251 255 253 252 255 255 255 255 255 255 253 253 254 254 255 255 254 255 255 255 253 255 254 248 255 254 248 255 254 253 255 254 255 254 255 255 254 255 255 254 255 253 255 255 255 255 254 255 255 253 255 255 254 255 255 255 248 254 255 241 255 255 239 252 255 255 245 255 255 244 255 255 250 255 245 255 254 248 14 0 0 22 4 0 253 242 127 249 241 114 249 240 119 255 248 101 255 252 36 255 246 0 255 234 0 255 227 13 255 228 0 245 175 0 255 142 0 255 127 0 255 125 0 255 132 5 229 134 40 204 125 48 203 125 43 197 125 51 42 0 0 14 0 0 255 255 246 254 255 243 252 255 255 245 254 255 254 255 250 255 255 251 255 253 255 255 253 255 254 254 255 251 255 255 252 255 255 255 255 248 255 255 246 255 255 251 252 255 255 251 255 255 252 255 255 255 255 253 255 254 251 251 255 255 254 255 255 255 253 255 255 253 251 255 253 246 255 254 246 255 254 251 255 255 253 252 255 250 252 255 246 254 255 250 255 254 255 255 253 255 255 253 253 255 255 241 255 255 230 255 255 241 252 253 248 255 254 255 255 253 253 17 0 0 33 0 0 235 185 88 242 187 60 255 204 59 255 215 68 255 227 76 255 215 49 255 215 25 255 210 8 255 198 4 255 168 0 246 162 0 248 148 0 254 139 0 255 136 0 255 137 0 255 136 0 255 132 4 239 119 6 231 123 14 227 122 15 215 117 18 201 123 41 35 0 0 9 3 0 252 255 255 252 253 255 247 255 255 255 255 255 255 252 253 255 252 255 254 254 255 247 255 255 248 255 255 255 255 246 255 255 246 255 254 255 252 255 255 251 255 255 254 255 255 255 255 250 255 254 250 254 255 251 255 255 253 255 255 253 255 254 251 255 254 250 255 254 250 255 254 251 255 255 250 254 255 246 254 255 246 254 255 250 255 255 255 255 253 255 255 253 255 255 252 255 255 252 255 255 253 255 255 254 250 255 253 237 22 0 0 235 186 127 249 182 78 255 176 37 255 175 24 255 174 28 253 174 30 242 167 16 240 159 7 238 145 5 243 140 11 245 136 5 250 140 0 249 139 16 253 131 6 255 138 11 238 135 4 236 147 5 242 144 0 252 139 0 253 139 0 241 133 0 235 122 0 241 112 0 237 111 0 211 121 25 163 117 58 22 0 0 255 247 240 245 255 255 255 254 255 255 252 250 255 252 250 254 255 255 245 255 255 247 255 255 254 255 251 255 255 248 255 254 255 254 254 255 252 255 255 255 255 255 255 254 251 255 255 251 255 255 253 253 254 248 255 255 248 254 255 250 255 255 255 253 253 255 254 254 252 254 255 251 253 255 254 252 255 255 252 255 255 250 255 255 251 254 255 252 254 255 252 253 255 253 250 255 252 254 251 6 3 0 22 5 0 229 191 94 249 183 73 255 171 50 255 169 39 251 153 18 250 158 21 250 158 21 250 154 16 246 139 7 249 134 9 254 136 13 252 135 4 250 139 0 252 132 20 255 131 14 255 132 9 246 138 3 246 163 7 240 171 0 255 188 0 248 175 0 234 151 0 227 128 0 237 119 0 238 112 0 229 117 7 209 119 31 184 113 47 52 0 0 254 254 255 255 253 255 255 254 246 255 255 246 251 255 252 248 255 255 247 254 255 254 255 255 255 255 253 255 255 253 255 255 255 254 255 255 255 255 255 255 255 255 255 255 255 252 253 255 254 255 250 255 255 250 255 255 255 254 253 255 254 255 255 251 255 249 251 255 255 249 255 255 249 254 255 244 250 255 251 255 255 252 255 251 250 254 239 0 7 0 0 10 0 5 17 0 241 243 133 255 241 95 255 218 56 253 173 22 255 166 38 255 156 41 255 156 36 253 155 22 254 154 16 255 149 13 254 135 5 255 133 0 255 139 0 252 139 0 250 143 0 255 138 0 252 135 0 254 143 0 255 155 0 255 204 14 255 227 17 255 234 11 255 231 7 255 227 19 255 191 12 234 159 6 211 127 0 215 120 0 225 120 2 208 100 2 207 102 21 15 0 0 255 252 244 255 255 246 251 255 247 251 255 250 251 255 255 254 254 255 254 254 255 254 255 255 255 255 251 255 255 248 255 255 251 254 255 255 252 255 255 252 255 255 248 255 255 252 255 255 253 251 252 255 251 255 255 251 255 253 251 252 252 255 246 249 255 253 248 255 255 252 253 255 255 253 255 10 0 0 14 0 0 19 7 0 246 248 105 251 255 64 246 251 61 255 247 54 255 237 45 244 175 0 243 145 0 255 138 0 255 133 8 253 135 9 250 138 2 251 140 0 255 138 0 255 134 0 255 134 0 255 137 0 252 137 0 249 140 0 255 138 0 243 145 0 248 174 0 255 214 5 255 224 0 255 236 3 255 238 0 255 237 0 255 232 0 255 231 15 243 215 20 231 199 20 212 158 0 218 132 0 217 106 0 215 94 5 160 112 74 21 0 0 255 254 245 248 255 255 252 255 255 255 254 253 255 253 255 255 254 255 252 255 255 254 255 251 255 255 246 255 255 248 252 255 255 251 255 255 252 255 255 251 255 255 253 255 254 255 254 255 255 247 255 255 248 255 255 252 255 253 255 247 254 255 236 255 254 236 22 0 0 35 0 0 225 171 109 234 177 90 255 216 85 255 247 42 255 242 0 255 231 5 255 221 10 246 174 0 245 149 0 253 139 0 255 133 0 255 132 0 255 136 4 254 133 2 253 135 1 255 136 0 255 135 0 255 134 8 255 133 14 252 131 14 250 134 13 255 136 16 240 153 0 255 227 26 250 239 9 248 243 4 253 241 5 253 237 2 255 237 0 254 235 0 251 237 4 231 226 0 228 226 4 233 215 9 219 168 0 214 123 0 217 103 6 182 109 32 38 0 0 255 253 239 251 255 255 254 255 255 255 248 246 255 252 249 255 255 255 251 255 255 254 255 253 255 255 248 255 255 250 252 255 255 249 255 255 252 255 255 255 251 255 255 251 248 255 252 246 255 252 255 255 250 255 252 248 255 255 255 241 17 1 0 36 0 0 226 158 75 244 152 51 255 150 32 244 141 4 255 170 11 255 197 13 245 190 0 253 159 0 242 142 0 248 139 0 253 136 5 239 120 0 240 121 0 240 121 0 236 118 0 237 121 2 237 122 3 235 121 0 235 121 0 235 120 1 235 118 5 239 117 6 242 121 8 241 114 7 219 132 0 243 203 17 234 224 4 231 227 0 234 222 0 235 222 4 234 224 2 236 227 0 229 220 0 231 226 2 224 225 0 234 230 8 238 210 12 232 166 9 207 111 0 196 103 0 179 112 41 27 0 0 255 252 251 255 252 255 255 253 253 255 255 248 254 255 250 252 255 255 255 255 255 255 255 251 255 255 251 252 255 255 251 255 255 254 255 255 255 251 255 255 252 253 255 255 251 254 255 246 250 253 234 8 2 0 26 2 0 230 180 91 223 143 30 247 140 12 255 133 0 255 132 0 255 137 0 249 137 0 241 140 6 231 138 19 241 116 10 243 118 8 241 117 3 241 122 6 231 117 5 222 116 6 218 116 5 222 121 7 221 116 1 224 116 7 225 114 9 226 115 7 228 119 2 227 117 0 231 117 0 234 115 0 235 114 1 217 119 0 205 140 0 239 195 10 231 198 0 225 202 0 224 215 12 221 221 13 228 223 9 232 218 7 228 213 6 224 219 6 225 221 2 237 217 6 247 197 16 216 141 0 210 104 0 192 104 15 168 108 54 25 0 0 255 250 246 255 255 255 251 255 254 252 255 253 255 255 253 255 254 255 255 254 255 255 255 255 254 255 255 254 255 255 255 255 255 255 255 237 255 253 255 248 249 255 255 255 230 10 13 0 245 229 84 255 218 75 232 145 16 248 137 6 255 135 0 255 135 0 244 122 0 239 122 0 237 125 0 230 119 4 233 120 16 229 113 12 226 111 2 231 116 0 222 113 0 223 122 8 216 122 9 214 125 7 214 122 0 213 110 0 220 108 0 219 101 5 219 103 2 219 110 0 215 110 0 214 108 0 213 103 0 208 101 0 206 101 0 204 109 0 214 137 0 234 177 10 233 199 13 220 203 9 213 207 1 214 207 0 219 203 0 225 207 3 222 207 2 215 206 0 231 216 3 244 205 16 214 155 0 217 104 0 204 100 3 189 104 23 43 0 0 255 252 232 246 254 255 245 255 255 247 252 255 255 254 253 255 253 253 255 255 255 254 255 255 255 255 255 255 255 251 255 255 250 247 255 224 247 255 255 247 250 255 2 7 0 237 235 64 255 235 0 249 178 0 253 140 0 255 133 5 243 118 0 233 121 0 219 117 9 215 117 18 219 117 9 229 117 0 234 117 0 215 124 0 219 125 0 219 121 0 221 121 0 217 122 6 210 122 0 231 148 10 234 143 0 224 120 0 232 112 0 228 100 1 225 102 0 225 111 0 222 117 0 222 120 12 219 117 19 207 110 5 207 99 8 207 97 8 196 106 0 192 130 0 209 169 0 226 199 6 223 205 0 224 209 0 220 204 0 225 206 0 220 203 0 219 208 0 218 206 0 230 198 15 201 148 0 216 102 6 212 99 0 202 102 4 175 111 37 17 0 0 245 255 255 237 255 255 249 255 255 255 253 255 255 253 251 255 255 255 252 255 255 255 255 255 255 254 250 255 255 248 254 255 242 255 255 246 7 7 0 234 233 80 254 237 9 255 225 10 238 141 0 234 118 17 226 116 5 218 120 0 218 119 15 211 105 21 222 112 17 226 120 2 223 118 1 221 115 15 232 111 6 222 103 1 212 107 0 188 113 0 201 158 0 212 186 0 211 190 0 208 187 0 213 186 0 204 156 0 193 111 0 209 102 4 212 99 5 208 99 0 211 100 0 214 96 0 196 103 0 206 111 1 197 103 0 204 109 3 195 103 4 194 104 7 202 118 6 221 144 12 235 170 18 227 176 7 225 191 8 225 198 7 227 196 7 243 193 20 234 159 14 214 122 0 228 114 0 214 104 6 207 99 0 209 106 0 191 107 0 37 0 0 253 252 255 238 255 255 244 255 255 251 255 240 254 253 255 255 250 255 255 250 255 255 252 245 255 255 246 240 255 255 255 255 232 24 7 0 251 233 45 255 234 16 245 194 5 218 124 0 232 117 10 222 114 6 201 103 0 205 103 2 208 98 0 212 102 0 211 107 0 213 108 0 209 100 0 209 101 11 204 95 10 202 105 11 196 125 11 220 173 35 213 176 26 212 175 24 205 168 15 203 166 16 213 163 32 191 116 15 195 104 23 193 101 16 193 106 9 196 109 6 199 106 3 208 104 7 205 99 0 211 105 0 206 98 0 213 102 0 213 101 1 206 103 0 194 105 0 184 111 0 189 130 0 193 141 0 201 146 0 204 141 0 214 142 0 209 128 0 209 122 6 227 117 6 223 118 11 217 111 1 211 105 0 198 108 0 221 168 76 18 6 0 248 254 242 253 255 254 255 255 250 254 255 248 250 255 250 254 254 254 255 252 255 255 253 255 233 254 255 10 9 0 252 231 52 255 236 0 242 214 6 225 170 18 197 106 0 209 99 0 213 107 0 201 100 0 209 103 1 212 101 0 206 100 0 201 105 0 202 109 5 199 102 5 185 103 27 187 104 34 179 104 36 178 119 43 166 121 36 155 114 26 155 111 24 156 112 25 153 113 26 154 111 33 156 102 40 159 98 44 158 99 39 159 107 31 167 113 25 170 111 21 198 102 26 199 103 19 200 101 8 205 98 0 213 96 0 214 96 0 212 98 1 205 104 0 196 109 3 192 111 4 185 104 0 181 93 0 195 100 0 198 104 0 197 105 0 201 113 7 217 115 7 217 117 3 220 117 0 215 107 0 212 113 0 237 170 37 205 176 59 23 9 0 13 0 0 255 253 243 255 255 241 248 255 239 250 255 247 255 253 255 255 252 255 250 251 255 10 12 0 243 241 16 242 227 0 233 195 0 195 127 2 199 107 8 203 101 0 206 102 0 207 105 0 202 100 0 199 100 7 197 106 23 180 102 27 166 98 25 163 101 26 139 90 21 136 86 23 123 76 22 130 96 48 114 87 40 117 90 47 126 94 55 130 98 60 124 100 64 120 100 67 108 84 58 126 100 77 125 102 71 139 118 75 148 123 69 149 114 58 161 111 62 140 84 33 171 106 50 179 103 43 185 101 31 199 108 29 201 106 14 200 104 4 199 101 0 200 100 4 204 100 11 196 92 5 186 82 0 192 89 0 191 87 0 198 94 0 204 109 1 206 110 0 223 119 4 230 120 0 223 119 0 231 151 4 231 182 27 209 180 40 203 179 79 22 5 0 253 250 231 251 255 255 251 255 255 255 255 255 254 252 253 20 4 0 233 231 96 242 246 27 219 205 0 213 162 0 173 91 0 200 102 13 204 105 3 201 104 0 199 109 0 182 101 12 157 86 20 130 67 23 120 70 33 123 86 44 115 89 40 122 103 44 133 112 59 138 119 76 130 117 85 54 46 23 92 81 61 105 90 71 108 95 78 122 115 99 121 119 106 33 30 21 91 87 78 93 89 78 103 97 83 108 95 76 136 116 92 89 85 56 63 51 27 132 110 89 145 113 88 150 110 74 159 114 59 172 118 44 177 107 21 194 107 12 204 106 9 204 100 5 207 104 12 206 102 13 186 80 0 195 84 0 200 85 0 181 92 0 190 96 0 204 100 1 221 110 3 223 116 0 215 123 0 238 171 22 227 184 10 217 189 19 201 185 63 11 3 0 255 255 255 249 252 255 252 255 250 254 255 250 24 5 0 245 225 90 238 208 34 213 167 0 183 111 0 184 90 0 201 97 8 200 101 7 185 102 6 152 87 3 119 71 5 122 85 40 125 98 69 128 107 86 119 103 77 95 82 47 107 109 69 100 100 62 103 99 70 102 101 83 38 38 28 4 0 0 8 1 0 7 1 0 6 1 0 3 2 0 4 1 0 8 2 0 4 0 0 5 1 0 6 0 0 11 0 0 0 4 0 4 5 0 4 0 0 8 0 0 12 0 0 136 121 88 137 116 71 84 52 0 154 105 36 174 108 24 192 109 17 199 104 10 203 100 7 209 100 9 212 101 9 189 79 0 178 88 0 183 87 0 192 90 6 199 91 3 209 102 8 207 108 6 209 125 3 230 166 8 220 181 0 199 180 2 189 185 60 6 7 0 255 255 239 254 255 251 254 255 253 25 5 0 244 196 86 215 134 16 186 92 0 181 84 0 186 86 0 203 102 14 175 86 4 125 64 0 120 86 38 123 105 65 135 123 85 128 120 84 133 128 98 111 101 74 46 30 5 45 54 33 79 84 62 2 3 0 5 0 0 4 0 0 129 121 110 173 163 138 168 159 126 162 153 120 172 161 129 166 151 118 166 151 120 166 152 126 166 155 137 159 151 128 162 155 126 160 149 119 165 155 128 164 153 131 166 159 133 159 152 124 10 3 0 7 1 0 8 0 0 149 135 100 170 140 88 166 116 47 192 115 37 200 105 23 200 100 14 200 103 8 197 105 2 199 98 10 191 89 4 186 84 2 182 83 2 184 88 2 179 84 0 199 108 3 193 110 0 222 158 8 223 187 3 202 186 2 190 184 48 11 5 0 255 250 248 255 253 255 39 0 0 218 147 65 200 98 13 199 80 0 198 81 1 192 87 6 176 89 12 125 64 1 119 85 40 133 119 90 95 88 60 92 83 50 126 117 78 124 115 82 93 82 62 83 69 58 1 4 0 3 2 0 157 152 132 172 162 152 174 164 155 175 167 146 162 157 119 159 156 111 165 158 114 163 151 109 172 155 111 173 155 109 171 151 114 171 154 124 165 155 119 164 157 113 173 155 115 168 150 114 167 152 119 167 154 119 164 155 114 165 157 120 154 150 121 158 157 137 3 2 0 10 0 0 161 135 98 152 108 61 152 91 34 172 102 30 182 112 17 183 112 4 211 97 11 210 99 7 198 95 0 180 89 0 168 85 0 172 90 0 178 90 0 197 104 11 193 107 4 202 134 0 207 157 0 207 167 7 186 149 68 23 0 0 255 249 255 52 0 0 208 138 69 192 106 23 188 78 0 202 80 0 194 88 14 118 50 0 107 76 22 134 121 79 129 120 89 131 119 95 80 65 42 44 26 2 37 20 0 28 18 9 4 0 1 161 152 123 173 164 131 185 175 140 183 169 143 183 171 149 174 169 137 168 170 123 166 170 119 168 170 123 171 168 125 176 168 122 178 165 120 181 163 125 171 155 122 177 163 126 178 167 121 175 169 121 176 168 129 175 164 132 176 166 131 165 157 111 163 157 105 161 157 109 166 158 121 164 154 127 174 163 143 8 0 0 13 1 0 70 49 18 135 102 49 150 105 24 162 108 8 205 96 13 208 99 4 208 105 0 181 88 0 169 87 0 167 89 0 170 87 0 173 83 0 180 88 5 196 102 2 202 108 0 199 109 0 184 108 22 39 0 0 255 253 246 38 0 0 182 132 73 177 111 17 189 92 0 195 80 0 176 79 8 92 37 0 108 88 37 129 122 76 132 122 87 128 113 92 110 96 85 100 85 78 81 68 62 7 0 0 149 150 145 184 170 135 183 169 130 185 172 130 187 171 137 185 168 138 178 168 132 174 170 125 175 174 128 173 171 132 169 165 128 173 170 129 172 167 125 179 169 133 175 160 129 182 168 133 177 166 121 169 171 124 177 173 136 183 176 147 184 175 144 176 169 127 178 171 119 180 169 115 176 162 113 170 156 117 164 155 124 152 150 129 130 134 117 2 4 0 177 166 134 165 140 86 140 103 35 169 91 19 193 104 20 200 102 5 208 106 6 193 95 4 181 90 9 171 86 6 171 86 5 169 83 0 192 93 12 204 92 10 218 96 10 202 96 8 174 109 43 14 0 0 255 253 255 25 0 0 179 115 18 181 84 0 195 88 0 154 67 0 85 32 0 117 90 45 132 120 82 124 115 86 110 102 83 87 83 72 21 20 18 1 0 0 160 154 140 180 173 147 184 169 146 183 172 144 186 175 145 184 167 139 190 166 140 191 168 137 193 173 136 185 167 129 186 167 134 191 176 143 179 174 136 177 175 134 181 177 139 183 173 138 182 170 132 183 174 131 186 171 128 187 173 136 184 171 139 180 169 139 188 175 141 188 172 136 186 168 132 189 173 137 176 166 130 172 168 131 169 169 133 168 167 137 181 175 153 10 0 0 133 117 92 117 100 72 124 85 30 140 84 25 183 101 28 205 105 20 206 97 14 197 93 20 179 86 17 166 83 5 170 90 3 169 80 0 193 86 8 203 81 0 213 99 0 184 106 23 22 0 0 235 255 255 16 1 0 174 108 30 199 98 0 198 92 0 173 87 12 81 22 0 101 66 44 117 98 83 90 82 63 58 54 29 50 52 31 27 30 19 4 4 0 177 170 144 200 185 142 178 168 167 6 1 0 6 0 0 11 0 0 192 169 151 193 167 144 188 163 132 196 170 137 192 166 133 190 172 136 187 182 142 172 175 132 175 176 136 176 171 133 184 174 138 181 173 134 195 165 127 191 167 131 186 170 136 180 166 137 182 170 146 185 168 152 186 168 156 182 166 151 183 173 148 181 173 137 183 174 131 185 170 129 183 167 134 145 130 109 7 0 0 71 68 63 100 84 48 104 70 35 123 65 19 176 97 22 201 111 14 194 105 5 176 91 1 170 88 2 164 84 0 161 77 0 179 83 0 193 84 0 210 102 0 187 108 16 27 0 0 247 254 255 255 252 246 40 0 0 195 110 20 202 100 0 197 105 18 90 27 0 52 14 11 91 70 69 125 112 93 126 120 84 110 107 74 103 98 78 39 30 13 196 185 157 190 181 138 4 0 6 0 0 4 2 4 1 3 1 0 13 2 0 199 187 163 200 189 161 213 200 166 214 200 165 211 202 163 204 206 166 203 211 170 199 203 166 196 192 157 190 181 150 192 185 156 203 178 147 187 168 136 187 176 148 176 171 151 5 3 0 4 0 0 7 0 0 183 168 161 186 165 146 191 168 136 193 172 129 184 166 118 189 176 132 177 168 139 173 167 153 3 0 0 171 154 126 165 143 120 101 68 33 109 66 0 211 161 40 216 163 23 198 135 4 170 98 0 177 91 0 163 70 0 169 70 3 186 79 0 195 92 0 182 107 14 25 0 0 255 248 242 255 252 253 14 0 0 164 114 55 193 107 8 192 103 1 138 73 9 36 0 0 21 0 0 60 39 8 130 116 79 114 105 74 12 0 0 189 172 152 192 183 154 185 186 152 6 1 0 0 1 0 0 3 0 1 5 0 1 3 0 213 217 192 216 224 200 232 238 210 240 239 208 239 238 207 230 235 205 228 237 208 237 240 213 231 225 199 233 225 204 222 216 200 213 206 180 198 192 166 183 181 160 1 3 0 0 2 0 0 5 5 0 1 0 12 0 0 192 170 146 191 162 132 194 168 131 186 171 128 179 175 130 176 174 136 161 155 131 10 0 0 72 52 28 128 111 93 131 114 84 79 61 0 105 83 0 204 179 25 217 179 18 211 151 5 173 89 0 169 68 0 173 65 19 176 64 1 192 85 0 186 111 20 24 1 0 255 251 237 254 252 255 252 255 255 19 0 0 169 112 41 184 110 1 192 127 11 162 112 17 60 22 0 24 0 0 16 4 0 58 55 36 6 1 0 193 183 156 195 190 160 202 206 171 205 200 180 3 6 0 0 3 0 0 3 0 236 235 214 236 240 223 228 240 226 0 4 0 239 237 222 242 235 217 243 237 223 245 241 229 241 234 218 246 238 219 6 0 0 236 240 226 236 235 214 227 227 203 219 218 197 2 3 0 2 3 0 0 2 0 0 3 0 3 2 0 188 181 152 185 172 140 188 172 139 181 167 130 186 174 134 181 173 136 175 165 140 10 0 0 77 66 48 44 38 16 81 71 44 76 55 10 61 34 0 183 157 34 199 171 12 211 165 7 193 118 0 162 67 0 170 64 16 180 65 0 198 85 0 185 100 19 21 0 0 255 255 246 252 255 255 249 255 255 255 253 255 28 0 0 194 138 25 238 170 9 233 168 12 197 148 45 89 62 19 21 14 4 0 2 0 181 189 168 188 191 160 204 202 164 213 211 172 225 220 188 221 221 195 234 236 215 240 237 218 244 237 219 235 235 225 233 237 236 0 1 3 241 231 229 251 232 228 15 0 0 244 228 228 247 233 224 250 238 222 5 4 0 228 241 224 242 237 218 241 237 212 241 236 207 230 224 202 7 0 0 7 0 0 0 2 0 179 189 165 176 189 159 182 189 158 178 173 144 189 170 140 192 168 134 188 167 136 186 171 150 163 155 142 0 3 0 132 136 113 161 153 130 113 82 64 55 10 0 188 150 65 196 168 25 202 163 8 178 115 0 158 74 2 169 71 6 178 67 0 200 82 0 197 105 30 25 0 0 255 247 255 254 255 251 243 255 247 255 252 255 255 249 255 2 4 0 185 193 107 214 173 47 219 113 0 214 95 13 169 109 59 6 6 0 187 193 167 213 197 172 223 208 179 216 220 185 230 239 208 234 240 212 238 240 216 240 238 217 243 234 217 247 235 221 251 237 228 252 238 229 11 0 0 10 0 0 251 238 229 8 0 0 10 0 0 10 0 0 252 238 225 252 238 225 251 239 225 246 237 220 242 234 215 243 235 214 240 234 208 226 221 191 211 206 174 207 203 166 196 192 154 189 185 147 191 187 149 188 183 145 179 174 136 180 172 135 182 174 138 175 167 131 146 150 159 4 1 0 170 153 123 96 70 47 38 12 0 191 162 70 222 175 25 219 139 0 182 82 0 164 66 17 158 73 16 171 86 0 190 95 3 172 93 37 21 0 0 255 250 255 250 254 253 250 255 250 255 254 253 255 249 252 252 255 241 1 11 0 23 3 0 176 112 38 179 107 48 31 0 0 195 191 153 203 200 169 235 217 193 231 219 195 235 241 213 236 240 215 236 238 216 238 236 215 243 236 218 250 238 224 255 240 230 255 239 231 253 236 229 255 240 233 253 238 231 249 236 227 250 238 226 254 240 227 255 241 228 251 235 220 255 239 225 251 239 225 250 238 222 245 237 218 244 236 215 242 236 210 238 233 204 230 225 193 225 222 187 211 209 171 208 204 166 193 189 151 193 188 150 182 177 139 179 171 135 179 171 135 174 166 130 143 151 140 9 7 0 102 84 48 51 13 0 88 37 0 203 141 56 193 122 16 172 92 0 161 72 6 164 70 8 170 71 0 188 88 0 183 89 17 49 0 0 255 248 242 251 255 255 251 255 255 252 254 251 255 255 250 255 255 250 246 255 248 245 255 246 255 255 243 11 0 0 15 1 0 196 189 145 213 206 164 231 216 187 247 229 209 246 240 218 231 239 215 241 235 219 245 237 224 249 239 227 253 239 230 253 236 229 253 234 228 255 236 232 255 240 236 253 234 228 254 237 230 255 238 230 255 239 226 251 235 220 255 240 224 255 237 220 255 236 219 252 239 223 252 239 223 250 239 221 244 236 215 242 234 211 243 238 209 242 239 208 237 234 201 229 226 191 226 224 186 206 202 165 187 183 146 188 182 146 181 173 137 180 172 136 166 158 122 156 160 125 155 152 119 40 22 0 59 15 0 156 84 12 194 103 12 196 105 14 163 85 10 148 78 6 171 88 0 188 86 0 192 90 0 171 95 46 31 0 0 255 252 255 242 255 248 251 255 255 255 255 255 253 253 253 254 255 253 252 253 255 254 254 255 247 251 255 0 4 3 191 206 183 198 208 171 219 213 181 252 234 214 249 230 216 241 233 214 237 240 211 252 239 231 253 238 231 255 237 233 255 238 234 255 239 235 255 237 236 255 236 235 255 240 236 255 240 236 254 237 230 255 240 230 255 238 226 251 233 219 255 238 223 255 237 220 255 237 219 254 238 223 252 239 223 253 240 223 248 237 217 242 234 211 243 237 211 243 239 210 238 235 204 239 239 205 242 239 206 224 221 186 206 202 167 192 186 152 193 187 151 180 172 136 172 164 128 161 155 105 156 150 114 15 1 0 109 74 32 176 111 31 193 107 0 199 115 0 186 122 0 172 119 0 195 134 7 205 129 17 171 100 22 32 0 0 255 252 251 255 254 255 248 255 246 248 255 248 254 255 255 255 254 255 255 253 255 255 251 255 255 251 255 9 0 1 210 210 198 212 220 196 221 230 201 238 237 216 242 230 216 252 234 222 246 233 214 251 244 216 255 237 233 255 239 235 255 239 237 255 238 237 255 238 237 255 236 235 255 238 237 255 245 243 255 246 242 254 239 232 255 239 231 255 239 226 255 238 224 255 235 221 255 240 224 255 232 216 255 238 222 253 237 221 255 239 223 252 241 221 245 237 216 243 237 213 242 238 211 238 237 209 237 236 206 235 234 203 237 236 205 222 219 186 209 205 170 188 182 148 182 173 140 175 166 133 172 160 108 163 154 125 159 147 135 20 0 0 159 121 40 206 154 16 216 163 0 207 163 0 208 171 5 201 163 38 197 162 80 21 0 0 255 255 234 248 253 246 253 252 255 253 255 252 251 255 251 248 253 247 255 254 255 255 249 255 255 248 255 11 0 0 220 201 184 234 212 188 234 220 194 240 239 218 229 237 216 240 239 221 255 239 224 253 235 221 255 241 226 255 240 233 255 240 235 252 237 232 252 237 232 254 239 236 253 239 236 253 239 236 254 243 239 255 251 245 248 238 229 252 239 230 253 239 228 255 241 228 253 234 220 255 237 224 255 237 223 255 238 223 254 237 221 254 238 222 253 240 223 247 239 220 242 237 215 240 238 215 239 239 213 235 235 209 240 240 212 237 236 206 243 240 209 224 219 187 208 202 170 194 185 152 177 168 135 176 167 124 163 153 128 164 152 140 162 147 114 21 4 0 197 181 59 200 184 37 191 170 25 188 166 47 22 5 0 6 4 0 246 255 238 249 255 248 254 255 246 255 255 253 255 253 255 252 255 255 252 255 246 255 254 248 255 249 252 9 0 0 210 206 194 226 214 188 249 223 196 254 229 209 242 235 217 234 242 219 242 244 220 252 239 220 255 238 231 254 238 241 251 241 231 255 249 239 255 249 239 254 245 236 249 242 232 247 240 232 248 244 235 255 251 242 255 254 245 251 247 238 247 238 229 255 253 243 249 235 226 255 239 229 255 239 230 254 234 223 255 238 221 255 237 222 255 238 222 252 239 222 249 241 222 244 239 219 239 237 216 238 237 216 235 237 213 236 239 212 236 236 208 237 236 206 237 234 203 222 217 185 208 202 170 180 171 138 175 171 134 172 165 139 167 152 129 164 147 104 22 11 0 174 174 102 5 8 0 7 3 0 15 3 0 255 252 236 252 255 251 247 255 255 248 252 253 255 255 250 250 251 243 255 252 255 253 254 255 254 255 248 255 252 244 255 251 251 3 0 0 212 219 203 219 223 198 240 233 207 246 230 214 243 236 220 239 238 220 247 240 221 254 238 223 253 239 236 255 248 255 255 252 236 255 255 239 255 255 240 254 252 237 254 255 241 254 255 242 252 254 241 254 255 243 252 254 241 254 254 242 255 253 242 250 241 232 253 240 231 252 238 229 252 233 226 255 238 231 255 236 219 255 238 223 254 238 222 252 239 222 252 243 226 248 243 224 240 239 219 237 239 218 239 241 220 236 238 216 235 237 213 240 239 211 240 236 207 234 229 199 214 208 176 197 191 159 176 172 137 179 170 141 167 152 123 170 155 114 158 150 104 3 3 0 249 255 255 249 253 255 254 252 255 254 250 255 255 253 255 255 253 255 255 253 255 255 253 252 255 255 248 255 253 255 255 254 255 251 249 250 255 254 251 6 1 0 217 215 203 218 221 202 219 229 202 230 241 211 236 240 217 243 236 220 253 236 226 255 236 229 255 239 232 255 251 245 252 253 248 255 255 236 255 255 237 254 255 237 253 255 237 252 255 239 252 255 239 250 255 241 252 255 241 252 254 240 255 255 242 255 255 243 255 250 239 255 242 233 252 238 227 253 236 226 255 237 227 255 236 219 255 239 223 253 237 221 247 235 219 245 238 222 242 239 222 239 238 220 236 237 219 233 236 217 237 240 219 237 239 217 237 237 211 238 237 209 238 233 203 228 222 190 207 201 169 190 185 153 175 164 136 179 164 135 167 158 127 150 150 124 0 2 0 252 254 255 251 252 255 255 253 255 255 253 255 255 251 255 255 251 255 255 254 255 254 255 255 255 254 253 255 254 250 255 253 255 255 253 255 254 255 255 1 1 0 226 220 198 236 226 201 239 239 211 228 243 210 231 245 212 247 239 216 255 235 224 255 232 232 255 239 239 255 252 243 255 255 243 253 252 234 255 254 236 255 255 238 254 255 240 251 255 238 250 254 237 251 255 238 253 255 239 255 255 240 255 255 241 255 254 238 255 249 234 255 241 228 254 238 223 254 236 222 255 238 224 254 237 221 255 239 223 252 239 223 248 236 220 244 237 221 240 237 222 236 237 221 236 239 222 235 238 221 235 238 219 237 239 217 239 239 215 237 236 208 239 235 206 234 229 199 215 209 177 196 195 167 181 169 143 182 167 138 159 154 124 146 155 126 0 12 0 251 253 242 255 255 244 255 255 243 255 255 246 255 254 253 255 254 255 251 255 255 249 255 255 255 254 255 255 255 248 254 250 251 253 252 255 0 1 0 220 222 200 230 216 187 240 219 190 242 232 207 233 242 213 233 243 209 251 242 211 255 235 217 255 233 227 255 240 235 255 248 238 255 255 237 255 255 243 255 254 242 255 253 240 254 255 239 255 255 240 254 255 240 254 255 239 255 254 236 255 252 235 255 251 233 255 247 231 255 244 227 255 239 223 254 237 219 255 238 220 255 238 221 254 238 222 253 240 224 251 239 223 245 236 221 242 236 222 238 236 221 236 237 223 237 239 225 237 240 223 234 237 218 237 239 218 241 241 217 237 235 210 240 236 207 240 235 205 222 217 187 200 203 184 189 182 156 184 168 134 174 165 122 150 157 113 141 152 118 2 6 0 255 254 251 255 254 253 255 255 251 254 255 250 254 255 250 252 255 253 252 255 255 254 255 255 255 255 250 255 255 255 254 255 255 0 1 0 221 217 192 237 222 191 242 222 195 245 237 216 236 240 217 236 239 212 252 241 213 255 236 214 255 236 222 255 239 229 252 242 230 255 250 233 255 252 243 255 251 242 255 252 240 255 253 241 255 255 240 255 254 239 255 249 233 253 246 228 253 244 227 255 242 225 255 240 221 255 238 220 255 237 217 255 237 217 255 239 216 255 240 217 251 239 223 251 239 223 247 238 223 244 236 223 239 236 221 238 236 223 237 238 224 237 239 225 237 240 223 235 238 219 236 238 217 240 239 218 237 235 210 238 237 209 240 236 207 227 222 192 201 203 181 193 188 159 179 164 125 174 158 109 159 151 102 153 154 122 0 2 0 252 253 255 255 251 255 254 254 255 252 255 251 252 255 246 255 255 250 255 254 255 254 255 255 255 255 248 249 254 250 252 255 255 3 0 0 232 220 206 234 222 198 242 236 210 232 236 213 236 240 223 240 237 220 251 239 223 255 238 222 255 237 222 255 238 224 252 236 220 255 242 223 252 238 229 255 243 234 255 248 239 255 250 238 255 247 235 252 243 228 251 239 225 251 238 222 253 237 221 254 237 221 255 236 219 255 236 219 255 238 218 255 238 218 254 239 218 254 239 216 250 241 226 246 239 223 243 237 221 242 236 222 240 236 224 239 237 224 237 238 224 236 238 224 236 239 222 237 240 221 236 238 217 239 238 217 238 238 212 238 237 209 239 235 206 229 225 196 217 208 177 191 182 149 179 166 131 169 150 110 172 153 113 158 151 123 0 2 0 248 255 255 254 252 255 255 253 255 254 255 255 252 255 251 255 255 253 255 253 255 255 254 255 255 255 247 252 255 253 251 255 255 3 0 0 235 222 214 231 223 204 235 239 212 232 242 217 237 240 223 247 237 227 252 238 229 252 238 227 255 239 226 255 239 223 253 236 218 254 237 217 252 235 225 254 237 227 255 241 228 255 242 229 253 241 227 252 239 223 253 237 222 254 236 222 255 237 222 255 236 222 255 236 222 255 238 223 255 239 223 255 240 221 251 240 220 250 239 219 247 241 225 243 237 223 240 237 222 240 237 222 239 237 224 237 238 224 237 238 224 235 237 223 235 238 221 238 239 221 237 239 218 239 238 217 240 240 214 240 239 211 237 236 206 229 225 196 224 206 170 201 190 158 178 171 142 166 152 123 168 151 121 159 149 124 4 5 0 251 255 251 255 255 255 255 253 255 255 254 255 254 255 255 252 255 255 255 255 255 255 254 255 255 253 250 254 255 255 248 255 255 0 0 0 230 222 211 231 225 199 233 236 205 237 241 214 243 236 220 255 237 227 255 238 226 252 238 225 252 239 223 255 237 223 255 237 220 255 237 217 255 239 225 255 237 223 252 236 220 252 236 220 254 238 222 255 239 223 255 239 223 255 238 223 255 237 224 255 237 224 255 237 224 255 238 224 255 239 224 250 238 224 246 239 223 244 238 222 242 239 224 239 236 221 238 236 221 240 238 225 237 238 224 237 238 224 237 238 224 235 237 223 236 239 222 237 238 220 237 239 218 240 239 218 238 238 212 240 239 211 238 237 209 225 224 194 220 205 174 198 186 160 174 167 141 162 159 124 156 154 115 154 151 120 4 0 0 254 252 253 255 255 255 255 255 251 255 255 253 255 255 255 251 255 255 251 255 255 254 255 255 255 250 255 251 250 255 247 255 255 0 2 0 240 238 217 240 235 203 241 238 205 243 237 213 248 230 216 255 237 225 255 237 220 253 238 217 250 239 219 252 236 221 255 239 225 255 237 223 255 238 220 255 238 220 255 238 220 254 239 220 254 239 220 254 238 222 255 238 222 255 237 222 255 235 222 255 236 223 255 236 225 254 236 224 250 236 225 246 236 224 242 236 222 239 235 223 239 237 222 237 235 220 239 237 224 241 239 226 237 238 224 236 237 223 237 238 224 236 238 224 237 240 223 236 237 219 237 239 218 240 239 218 235 235 209 238 237 209 238 237 209 221 220 190 207 201 177 193 182 164 175 168 142 156 159 112 148 159 103 147 153 117 8 2 2 255 250 255 255 253 255 254 255 253 255 255 248 255 255 253 252 255 255 247 255 255 248 255 253 252 252 255 255 254 255 255 254 255 3 0 0 223 220 203 229 225 198 242 237 207 243 236 210 245 236 219 242 232 223 250 240 231 251 239 227 251 239 223 252 239 223 253 239 226 251 234 226 255 237 223 255 236 222 255 236 222 255 237 222 255 236 222 254 236 222 255 237 223 255 238 224 255 238 224 253 237 222 255 240 224 249 236 219 243 235 216 245 238 219 242 237 217 242 237 215 237 240 221 234 237 218 236 239 222 237 240 223 233 236 219 235 238 221 238 241 224 237 238 220 238 240 219 238 238 214 237 235 210 241 237 210 242 237 208 240 235 206 232 225 197 224 217 189 206 192 157 183 171 133 176 167 128 159 154 114 155 152 117 152 152 126 2 3 0 254 254 252 255 254 255 255 254 255 255 254 255 255 255 255 255 255 253 255 255 253 255 255 255 254 255 255 253 252 255 254 252 255 255 254 251 4 0 0 228 224 199 230 225 196 242 236 210 243 234 217 246 236 224 250 240 228 246 234 220 253 242 224 250 237 220 252 238 225 255 241 231 255 238 224 255 237 223 254 238 223 255 239 224 253 240 224 253 239 226 251 239 225 250 238 224 251 239 225 249 237 221 249 240 223 245 238 220 242 237 218 241 239 218 240 239 218 238 237 216 238 240 218 237 239 217 237 239 218 237 239 218 237 239 218 237 239 218 237 239 218 238 237 216 240 240 216 239 238 210 240 236 207 239 236 205 240 235 205 234 227 198 223 217 185 214 205 174 194 180 145 186 173 138 174 166 129 168 162 126 151 148 117 154 153 132 1 1 0 255 255 253 255 255 255 255 254 255 255 255 255 255 255 255 255 255 253 255 255 253 255 255 255 253 254 255 255 255 255 255 254 255 254 250 249 5 1 0 225 220 201 230 224 200 242 236 212 241 234 215 242 235 217 243 235 216 247 239 216 246 236 211 251 240 218 252 239 222 249 235 222 248 239 222 248 239 222 246 239 223 246 239 223 246 240 224 246 240 224 244 238 222 242 236 220 242 236 220 242 236 220 239 236 219 239 238 218 236 238 217 235 238 217 235 240 218 232 237 215 237 237 213 239 239 215 238 238 214 238 237 216 240 239 218 239 238 217 238 236 215 239 237 214 239 235 210 239 235 208 241 236 207 233 226 197 234 228 196 226 217 186 213 204 173 196 187 156 187 174 139 176 166 130 164 155 122 154 149 119 155 153 128 3 1 0 255 255 248 255 255 253 255 255 255 255 255 255 255 255 255 255 255 253 255 255 253 255 255 253 255 255 255 254 255 253 254 255 255 253 253 255 255 254 255 255 254 250 6 0 0 224 219 200 231 225 203 233 227 205 239 233 211 243 237 211 242 235 206 240 233 204 246 236 209 244 231 212 250 237 221 242 237 217 243 238 218 240 237 218 239 236 217 239 238 218 239 238 218 238 237 217 238 237 217 239 238 218 240 239 219 238 237 217 238 240 218 235 239 216 232 236 213 234 239 216 228 237 210 239 234 212 240 235 213 241 236 216 241 236 216 241 236 216 240 235 215 239 234 214 241 235 213 233 227 203 230 223 197 232 225 199 225 215 188 226 216 189 211 199 173 199 187 161 185 173 147 180 170 134 174 165 132 161 154 125 154 149 127 153 150 135 2 2 0 252 253 248 255 255 253 254 255 255 255 255 253 255 255 253 255 255 253 255 255 253 255 255 255 255 255 255 254 255 250 254 255 253 255 255 255 250 248 251 255 254 255 4 0 0 213 207 195 220 215 196 222 217 195 229 225 198 229 226 195 230 226 191 235 229 195 230 223 194 248 237 215 243 231 215 238 234 209 242 238 213 240 238 213 238 236 211 238 236 213 238 236 213 238 236 213 239 237 214 238 236 213 241 237 212 239 235 210 239 237 212 235 235 209 231 231 203 232 235 206 229 232 203 231 225 199 230 224 200 232 226 202 231 225 203 225 219 197 224 218 196 227 219 198 225 217 194 226 219 193 215 205 180 214 204 177 211 201 174 213 201 175 193 181 155 186 174 148 184 169 146 178 170 134 163 156 127 154 148 124 155 152 137 5 2 0 253 252 248 255 255 255 253 255 254 254 255 253 255 255 251 255 255 251 255 255 253 255 255 253 255 255 255 255 255 255 252 255 246 254 255 251 255 255 255 255 254 255 255 253 255 255 253 252 5 0 0 206 203 188 203 201 180 214 213 185 223 220 189 224 221 186 222 218 183 224 217 188 224 216 193 229 218 200 227 220 192 232 225 197 232 227 198 228 223 194 227 222 193 225 220 191 223 218 189 226 219 191 225 218 190 227 217 190 227 217 190 227 220 191 225 218 189 222 217 187 224 219 189 221 218 187 227 221 187 224 218 186 226 220 188 224 217 188 215 208 179 212 205 176 215 206 177 211 202 171 210 201 170 202 193 160 198 189 156 193 182 150 193 182 150 184 173 143 180 169 139 176 165 137 160 153 124 158 152 126 161 155 139 4 0 0 254 253 251 255 255 255 253 254 255 254 255 255 254 255 251 255 255 251 255 255 251 255 255 253 255 255 255 255 255 255 255 255 255 254 255 248 254 255 251 252 252 252 255 253 255 255 253 255 255 253 255 255 254 251 3 0 0 194 193 175 203 201 178 208 207 177 202 201 170 207 204 173 206 201 172 214 206 183 217 209 190 220 210 183 225 215 188 223 216 188 219 212 184 219 212 184 217 210 182 216 206 179 216 206 179 221 209 183 218 204 178 219 205 178 220 206 179 220 206 179 218 207 177 216 205 175 215 204 174 209 204 166 207 202 164 208 203 165 209 201 165 204 196 160 200 192 156 197 189 153 193 185 149 191 183 146 191 183 146 187 179 142 180 172 135 179 171 135 179 170 137 174 165 132 166 157 126 162 158 133 154 149 129 4 0 0 255 254 251 255 255 255 253 252 255 254 255 255 254 255 253 254 255 251 255 255 251 255 255 253 255 255 255 255 255 255 255 255 255 255 255 255 254 255 251 253 255 252 255 255 255 255 254 255 252 250 255 255 254 255 255 252 251 255 255 250 3 1 0 5 4 0 189 188 167 187 185 162 188 184 159 197 191 169 192 185 166 198 190 171 205 197 174 210 202 179 209 201 178 205 199 175 208 202 178 209 201 178 208 200 177 211 200 178 209 197 175 203 188 167 203 188 165 201 186 163 201 187 161 202 188 162 194 182 156 192 180 154 190 184 150 191 185 153 191 185 153 191 185 153 191 184 155 188 181 152 184 175 146 181 172 141 181 175 143 178 172 140 176 169 140 179 172 143 176 169 141 172 165 139 163 157 133 159 153 131 5 2 0 4 0 0 255 255 250 255 254 255 254 253 255 254 255 255 252 253 255 253 255 252 254 255 253 255 255 253 255 255 255 255 254 255 255 254 255 255 255 255 255 255 253 254 255 255 254 255 255 255 255 255 255 255 255 255 254 255 255 254 255 255 254 255 255 255 253 255 255 250 255 255 246 1 1 0 3 1 0 4 1 0 6 0 0 179 172 154 178 171 153 189 184 165 189 184 165 187 184 165 187 184 165 187 184 165 187 184 165 189 184 165 190 183 165 188 179 162 185 173 157 180 169 151 181 168 151 183 170 153 182 171 151 181 170 150 180 169 149 178 171 152 178 171 152 179 171 152 179 171 152 179 170 153 179 170 153 179 170 153 179 171 152 179 171 152 177 170 152 175 168 150 172 166 150 7 1 0 6 0 0 4 0 0 4 0 0 255 255 246 255 255 248 255 255 253 255 255 255 254 255 255 254 255 255 254 255 255 254 255 253 254 255 253 255 255 255 255 254 255 255 254 255 255 254 255 255 255 255 255 255 251 254 255 255 254 255 255 255 255 255 255 255 253 255 255 255 255 254 255 255 255 255 255 255 255 254 254 254 255 255 253 255 255 251 255 255 250 255 254 248 255 254 244 7 0 0 8 1 0 1 2 0 1 2 0 1 2 0 0 2 0 0 2 0 1 2 0 1 2 0 3 1 0 6 3 0 6 0 0 7 0 0 8 0 0 8 0 0 8 0 0 7 0 0 7 0 0 7 0 0 7 0 0 7 0 0 7 0 0 7 0 0 7 0 0 7 0 0 7 0 0 8 0 0 6 0 0 6 0 0 4 0 0 255 254 249 255 254 253 255 254 255 255 254 255 255 254 251 255 255 253 255 254 255 255 255 255 254 255 255 254 255 255 254 255 253 254 255 253 255 255 255 255 255 255 255 254 255 255 253 255 255 254 255 255 255 255 255 255 250 