P3 63 58 255
251 255 255 251 255 255 252 255 255 254 255 255 255 255 255 255 255 252 255 255 251 255 255 249 255 244 249 255 243 248 255 253 248 255 255 249 255 255 249 255 255 251 255 253 252 255 255 252 255 255 252 255 253 254 255 248 254 255 243 251 255 249 247 255 255 247 255 255 248 254 255 251 254 244 254 255 243 255 255 250 255 255 249 250 255 236 249 255 225 254 255 232 255 251 246 255 255 223 254 255 232 255 253 240 255 251 241 255 251 236 255 253 230 255 255 236 255 255 244 255 250 253 255 249 255 255 253 255 255 255 255 248 255 245 244 255 246 251 255 253 255 253 255 255 255 255 249 255 255 252 254 255 255 253 255 255 254 251 255 255 248 255 255 248 255 255 253 252 255 255 252 254 255 255 253 255 255 253 255 255 254 251 255 255 253 254 255 255 249 255 251 255 254 255 255 254 255 255 255 255 255 255 253 255 255 253 255 254 255 255 254 255 255 255 250 255 255 246 252 255 251 251 255 255 251 255 255 252 255 255 254 255 250 255 255 246 255 255 251 255 253 251 254 252 253 255 254 253 255 255 250 255 253 247 252 255 251 255 253 255 255 251 255 255 251 255 255 247 254 254 254 255 254 251 255 249 252 255 251 246 255 250 248 255 255 255 255 244 252 255 248 254 255 249 252 255 236 255 255 237 255 255 242 255 250 254 251 253 255 252 255 254 255 255 252 255 250 255 253 237 255 255 243 255 253 251 253 255 255 252 255 255 250 255 255 254 255 255 254 255 255 254 255 253 255 254 251 255 254 251 255 255 253 255 255 255 254 255 255 254 255 255 255 254 255 255 254 251 255 255 253 255 255 255 254 255 255 251 255 250 254 255 253 252 255 255 252 255 255 252 255 251 254 255 251 255 253 255 255 251 255 255 252 255 255 254 253 255 255 250 255 255 251 254 255 255 254 254 255 255 253 255 255 252 251 255 255 253 255 251 255 255 250 255 255 251 255 255 250 247 255 255 244 255 252 247 255 252 255 255 250 255 255 249 255 255 252 255 255 253 255 254 249 255 249 250 255 248 250 255 251 247 255 247 254 255 241 250 255 251 251 255 252 255 255 239 255 255 230 255 255 233 253 255 248 253 255 255 255 255 248 255 255 239 255 249 250 249 240 255 249 250 255 251 255 255 255 255 252 255 252 246 254 251 255 255 253 255 255 253 252 255 253 252 255 253 255 253 255 255 252 255 255 253 255 255 255 255 254 255 251 254 255 248 255 255 250 255 255 253 254 255 255 254 255 255 254 255 255 255 255 251 254 255 250 251 255 250 251 255 253 252 254 255 255 253 255 255 251 255 255 250 255 255 251 255 255 254 251 255 255 250 255 255 253 255 254 255 255 252 255 255 251 255 255 251 255 255 252 255 255 250 255 254 255 255 255 255 248 252 255 255 252 253 255 251 253 255 252 255 247 251 255 238 251 255 246 252 255 238 249 9 0 0 12 0 1 12 0 6 8 0 7 11 0 0 0 0 15 0 0 31 0 0 38 0 0 29 0 0 14 255 239 255 251 248 255 254 246 254 255 250 251 255 255 248 253 255 252 248 255 255 246 255 255 250 245 253 255 246 248 253 248 255 255 250 255 255 253 252 255 255 251 255 255 254 253 255 255 251 255 255 253 255 255 255 255 255 255 248 254 255 246 254 255 250 252 255 255 252 255 255 254 254 255 255 254 255 255 255 253 255 255 246 254 255 248 254 255 253 254 255 255 254 253 255 255 253 255 255 252 255 255 252 255 255 253 255 255 254 253 255 254 255 255 254 255 254 254 255 252 254 255 252 250 251 252 253 255 254 255 255 248 255 251 245 255 251 245 254 255 246 248 255 248 254 253 252 10 0 0 15 0 0 16 0 5 12 0 4 252 90 239 255 34 248 253 37 254 232 59 249 239 19 250 223 62 255 139 34 227 131 35 255 130 28 255 140 54 225 0 0 35 0 0 26 0 0 30 0 0 26 251 253 255 254 255 243 252 255 248 251 252 255 255 246 255 255 253 248 254 246 255 255 250 255 255 253 255 255 255 252 254 255 254 254 255 255 254 255 255 254 255 255 255 251 255 255 250 255 255 251 252 255 253 251 255 255 252 255 255 255 253 253 255 254 255 254 254 255 255 255 253 255 254 248 255 254 248 255 254 253 255 254 255 255 255 255 254 255 255 254 255 253 254 255 255 255 254 255 255 253 255 255 254 255 255 255 248 255 255 241 254 255 239 255 255 255 252 255 255 245 255 255 244 255 245 250 254 248 255 0 0 14 3 0 22 241 127 253 241 113 249 240 119 249 248 101 255 251 35 255 246 0 255 234 0 255 227 12 255 228 0 255 175 0 245 142 0 255 126 0 255 124 0 255 132 4 255 134 39 229 124 47 204 124 42 203 125 50 197 0 0 42 0 0 14 255 246 255 255 243 254 255 255 252 254 255 245 255 250 254 255 251 255 253 255 255 253 255 255 254 255 254 255 255 251 255 255 252 255 248 255 255 246 255 255 251 255 255 255 252 255 255 251 255 255 252 255 253 255 254 251 255 255 255 251 255 255 254 253 255 255 253 251 255 253 246 255 254 246 255 254 251 255 255 253 255 255 250 252 255 246 252 255 250 254 254 255 255 253 255 255 253 253 255 255 241 255 255 230 255 255 241 255 253 248 252 254 255 255 253 253 255 0 0 17 0 0 33 185 87 235 186 59 242 204 58 255 214 67 255 227 75 255 215 48 255 215 24 255 209 7 255 198 3 255 167 0 255 162 0 246 147 0 248 138 0 254 135 0 255 136 0 255 135 0 255 131 3 255 119 5 239 122 13 231 121 14 227 117 17 215 122 40 201 0 0 35 3 0 9 255 255 252 253 255 252 255 255 247 255 255 255 252 253 255 252 255 255 254 255 254 255 255 247 255 255 248 255 246 255 255 246 255 254 255 255 255 255 252 255 255 251 255 255 254 255 250 255 254 250 255 255 251 254 255 253 255 255 253 255 254 251 255 254 250 255 254 250 255 254 251 255 255 250 255 255 246 254 255 246 254 255 250 254 255 255 255 253 255 255 253 255 255 252 255 255 252 255 255 253 255 255 254 250 255 253 237 255 0 0 22 185 127 235 182 77 249 176 36 255 174 23 255 173 27 255 173 29 253 167 15 242 158 6 240 145 4 238 140 10 243 135 4 245 139 0 250 139 15 249 131 5 253 138 10 255 135 3 238 146 4 236 143 0 242 139 0 252 138 0 253 132 0 241 121 0 235 111 0 241 110 0 237 121 24 211 117 57 163 0 0 22 247 240 255 255 255 245 254 255 255 252 250 255 252 250 255 255 255 254 255 255 245 255 255 247 255 251 254 255 248 255 254 255 255 254 255 254 255 255 252 255 255 255 254 251 255 255 251 255 255 253 255 254 248 253 255 248 255 255 250 254 255 255 255 253 255 253 254 252 254 255 251 254 255 254 253 255 255 252 255 255 252 255 255 250 254 255 251 254 255 252 253 255 252 250 255 253 254 251 252 3 0 6 4 0 22 191 93 229 183 73 249 170 49 255 169 38 255 152 17 251 157 20 250 157 20 250 154 15 250 138 6 246 134 8 249 136 12 254 135 3 252 139 0 250 131 19 252 131 13 255 131 8 255 138 2 246 162 6 246 171 0 240 187 0 255 174 0 248 151 0 234 127 0 227 119 0 237 111 0 238 117 6 229 119 30 209 112 46 184 0 0 52 254 255 254 253 255 255 254 246 255 255 246 255 255 252 251 255 255 248 254 255 247 255 255 254 255 253 255 255 253 255 255 255 255 255 255 254 255 255 255 255 255 255 255 255 255 253 255 252 255 250 254 255 250 255 255 255 255 253 255 254 255 255 254 255 249 251 255 255 251 255 255 249 254 255 249 250 255 244 255 255 251 255 251 252 254 239 250 7 0 0 10 0 0 17 0 5 243 133 241 240 95 255 217 55 255 172 21 253 165 37 255 155 40 255 155 35 255 155 21 253 154 15 254 149 12 255 135 4 254 133 0 255 138 0 255 139 0 252 143 0 250 137 0 255 134 0 252 143 0 254 154 0 255 204 13 255 226 16 255 233 10 255 231 6 255 226 18 255 191 11 255 158 5 234 127 0 211 119 0 215 119 1 225 100 1 208 102 20 207 0 0 15 252 244 255 255 246 255 255 247 251 255 250 251 255 255 251 254 255 254 254 255 254 255 255 254 255 251 255 255 248 255 255 251 255 255 255 254 255 255 252 255 255 252 255 255 248 255 255 252 251 252 253 251 255 255 251 255 255 251 252 253 255 246 252 255 253 249 255 255 248 253 255 252 253 255 255 0 0 10 0 0 14 6 0 19 248 104 245 255 63 251 251 60 246 246 53 255 236 44 255 175 0 244 145 0 243 137 0 255 133 7 255 135 8 253 137 1 250 139 0 251 137 0 255 134 0 255 134 0 255 136 0 255 136 0 252 139 0 249 137 0 255 145 0 243 174 0 248 213 4 255 223 0 255 236 2 255 238 0 255 237 0 255 231 0 255 231 14 255 215 19 243 199 19 231 158 0 212 131 0 218 105 0 217 94 4 215 111 73 160 0 0 21 254 245 255 255 255 248 255 255 252 254 253 255 253 255 255 254 255 255 255 255 252 255 251 254 255 246 255 255 248 255 255 255 252 255 255 251 255 255 252 255 255 251 255 254 253 254 255 255 247 255 255 248 255 255 252 255 255 255 247 253 255 236 254 254 236 255 0 0 22 0 0 35 171 109 225 176 90 234 216 85 255 247 41 255 241 0 255 230 4 255 220 9 255 173 0 246 149 0 245 138 0 253 133 0 255 132 0 255 135 3 255 133 1 254 134 0 253 135 0 255 135 0 255 134 7 255 133 13 255 131 13 252 134 12 250 135 15 255 152 0 240 227 25 255 238 8 250 243 3 248 241 4 253 237 1 253 237 0 255 234 0 254 236 3 251 225 0 231 226 3 228 215 8 233 167 0 219 123 0 214 103 5 217 109 31 182 0 0 38 253 239 255 255 255 251 255 255 254 248 246 255 252 249 255 255 255 255 255 255 251 255 253 254 255 248 255 255 250 255 255 255 252 255 255 249 255 255 252 251 255 255 251 248 255 252 246 255 252 255 255 250 255 255 248 255 252 255 241 255 1 0 17 0 0 36 157 74 226 151 50 244 149 31 255 140 3 244 170 10 255 197 12 255 190 0 245 159 0 253 141 0 242 139 0 248 136 4 253 119 0 239 120 0 240 120 0 240 118 0 236 121 1 237 121 2 237 120 0 235 120 0 235 119 0 235 118 4 235 116 5 239 120 7 242 114 6 241 132 0 219 202 16 243 223 3 234 226 0 231 221 0 234 222 3 235 223 1 234 226 0 236 219 0 229 225 1 231 225 0 223 229 7 234 210 11 238 165 8 232 111 0 207 103 0 196 112 40 179 0 0 27 252 251 255 252 255 255 253 253 255 255 248 255 255 250 254 255 255 252 255 255 255 255 251 255 255 251 255 255 255 252 255 255 251 255 255 254 251 255 255 252 253 255 255 251 255 255 246 254 253 234 249 2 0 8 1 0 26 180 90 230 143 29 223 139 11 247 133 0 255 132 0 255 136 0 255 137 0 249 140 5 241 138 18 231 116 9 241 117 7 243 116 2 241 122 5 241 116 4 231 115 5 222 116 4 218 121 6 222 116 0 221 115 6 224 113 8 225 115 6 226 119 1 228 117 0 227 117 0 231 115 0 234 113 0 235 118 0 217 140 0 205 195 9 239 198 0 231 202 0 225 215 11 224 221 12 221 222 8 228 217 6 232 213 5 228 218 5 224 221 1 225 217 5 237 197 15 247 140 0 216 104 0 210 103 14 192 107 53 168 0 0 25 250 246 255 255 255 255 255 254 251 255 253 252 255 253 255 254 255 255 254 255 255 255 255 255 255 255 254 255 255 254 255 255 255 255 237 255 253 255 255 249 255 248 255 230 255 13 0 10 228 83 245 218 75 255 145 15 232 136 5 248 135 0 255 135 0 255 122 0 244 122 0 239 125 0 237 119 3 230 119 15 233 113 11 229 110 1 226 116 0 231 112 0 222 122 7 223 121 8 216 125 6 214 121 0 214 109 0 213 108 0 220 101 4 219 103 1 219 110 0 219 109 0 215 107 0 214 103 0 213 101 0 208 100 0 206 109 0 204 137 0 214 177 9 234 198 12 233 202 8 220 206 0 213 207 0 214 202 0 219 207 2 225 206 1 222 205 0 215 216 2 231 205 15 244 154 0 214 103 0 217 99 2 204 103 22 189 0 0 43 252 232 255 254 255 246 255 255 245 252 255 247 254 253 255 253 253 255 255 255 255 255 255 254 255 255 255 255 251 255 255 250 255 255 224 247 255 255 247 250 255 247 7 0 1 235 63 237 235 0 255 178 0 249 139 0 253 133 4 255 117 0 243 120 0 233 116 8 219 117 17 215 116 8 219 117 0 229 117 0 234 123 0 215 125 0 219 121 0 219 120 0 221 122 5 217 122 0 210 148 9 231 143 0 234 119 0 224 111 0 232 99 0 228 102 0 225 110 0 225 116 0 222 119 11 222 117 18 219 109 4 207 98 7 207 96 7 207 106 0 196 130 0 192 168 0 209 198 5 226 204 0 223 209 0 224 203 0 220 205 0 225 203 0 220 207 0 219 206 0 218 198 14 230 148 0 201 102 5 216 98 0 212 101 3 202 111 36 175 0 0 17 255 255 245 255 255 237 255 255 249 253 255 255 253 251 255 255 255 255 255 255 252 255 255 255 254 250 255 255 248 255 255 242 254 255 246 255 7 0 7 233 80 234 236 8 254 225 9 255 141 0 238 118 16 234 116 4 226 120 0 218 119 14 218 105 20 211 112 16 222 120 1 226 117 0 223 115 14 221 110 5 232 103 0 222 106 0 212 113 0 188 158 0 201 185 0 212 190 0 211 187 0 208 186 0 213 156 0 204 111 0 193 102 3 209 98 4 212 98 0 208 100 0 211 96 0 214 103 0 196 110 0 206 102 0 197 109 2 204 103 3 195 103 6 194 117 5 202 143 11 221 170 17 235 176 6 227 191 7 225 198 6 225 196 6 227 193 19 243 159 13 234 121 0 214 114 0 228 103 5 214 99 0 207 106 0 209 106 0 191 0 0 37 252 255 253 255 255 238 255 255 244 255 240 251 253 255 254 250 255 255 250 255 255 252 245 255 255 246 255 255 255 240 255 232 255 6 0 24 233 44 251 233 15 255 193 4 245 124 0 218 117 9 232 114 5 222 103 0 201 102 1 205 97 0 208 101 0 212 107 0 211 108 0 213 100 0 209 100 10 209 95 9 204 105 10 202 124 10 196 173 34 220 176 25 213 175 23 212 167 14 205 166 15 203 162 31 213 115 14 191 104 22 195 101 15 193 106 8 193 108 5 196 106 2 199 103 6 208 98 0 205 104 0 211 98 0 206 102 0 213 100 0 213 103 0 206 105 0 194 111 0 184 129 0 189 140 0 193 146 0 201 140 0 204 141 0 214 127 0 209 121 5 209 117 5 227 117 10 223 110 0 217 104 0 211 107 0 198 168 75 221 6 0 18 254 242 248 255 254 253 255 250 255 255 248 254 255 250 250 254 254 254 252 255 255 253 255 255 254 255 233 9 0 10 231 51 252 236 0 255 213 5 242 170 17 225 106 0 197 98 0 209 107 0 213 99 0 201 103 0 209 101 0 212 100 0 206 104 0 201 108 4 202 102 4 199 102 26 185 104 33 187 104 35 179 119 42 178 121 35 166 113 25 155 111 23 155 112 24 156 112 25 153 110 32 154 102 39 156 98 43 159 99 38 158 107 30 159 113 24 167 110 20 170 101 25 198 103 18 199 101 7 200 98 0 205 95 0 213 96 0 214 98 0 212 104 0 205 109 2 196 110 3 192 104 0 185 92 0 181 99 0 195 103 0 198 105 0 197 113 6 201 114 6 217 116 2 217 116 0 220 107 0 215 113 0 212 169 36 237 175 58 205 9 0 23 0 0 13 253 243 255 255 241 255 255 239 248 255 247 250 253 255 255 252 255 255 251 255 250 12 0 10 241 15 243 227 0 242 194 0 233 126 1 195 107 7 199 100 0 203 102 0 206 105 0 207 100 0 202 100 6 199 106 22 197 101 26 180 98 24 166 101 25 163 90 20 139 86 22 136 76 21 123 95 47 130 86 40 114 90 47 117 94 55 126 97 59 130 99 64 124 100 67 120 84 58 108 100 77 126 102 71 125 118 75 139 123 69 148 114 57 149 110 61 161 84 32 140 105 49 171 102 42 179 100 30 185 107 28 199 105 13 201 103 3 200 101 0 199 100 3 200 100 10 204 91 4 196 81 0 186 88 0 192 86 0 191 94 0 198 108 0 204 110 0 206 118 3 223 119 0 230 119 0 223 150 3 231 181 26 231 179 39 209 178 78 203 4 0 22 250 231 253 255 255 251 255 255 251 255 255 255 252 253 254 3 0 20 231 95 233 246 26 242 204 0 219 162 0 213 90 0 173 102 12 200 104 2 204 103 0 201 108 0 199 101 11 182 86 19 157 67 22 130 69 33 120 86 44 123 89 40 115 102 44 122 111 58 133 119 76 138 117 85 130 45 22 54 81 61 92 90 71 105 95 78 108 115 99 122 119 106 121 30 21 33 87 78 91 88 78 93 96 83 103 95 76 108 116 92 136 84 56 89 50 27 63 109 89 132 113 88 145 109 74 150 114 58 159 118 43 172 107 20 177 107 11 194 106 8 204 99 4 204 103 11 207 102 12 206 80 0 186 84 0 195 85 0 200 92 0 181 96 0 190 100 0 204 110 2 221 115 0 223 123 0 215 170 21 238 183 9 227 189 18 217 185 62 201 3 0 11 255 255 255 252 255 249 255 250 252 255 250 254 5 0 24 224 89 245 208 33 238 167 0 213 111 0 183 90 0 184 97 7 201 100 6 200 102 5 185 87 2 152 71 4 119 84 40 122 98 69 125 107 86 128 103 77 119 81 47 95 109 69 106 100 62 100 98 70 103 100 83 102 38 28 38 0 0 4 1 0 8 0 0 7 0 0 6 1 0 3 1 0 4 2 0 8 0 0 4 0 0 5 0 0 6 0 0 11 4 0 0 5 0 4 0 0 4 0 0 8 0 0 12 121 88 136 115 71 137 52 0 84 105 35 154 107 23 174 108 16 192 104 9 199 99 6 203 99 8 209 101 8 212 78 0 189 88 0 178 87 0 183 90 5 192 91 2 199 101 7 209 107 5 207 125 2 209 165 7 230 181 0 220 180 1 199 185 59 189 7 0 6 255 239 255 255 251 254 255 253 254 4 0 25 196 86 244 133 15 215 92 0 186 84 0 181 86 0 186 102 13 203 86 3 175 64 0 125 85 38 120 104 65 123 122 85 135 120 84 128 128 98 133 100 74 111 29 4 46 54 33 44 84 62 79 3 0 1 0 0 5 0 0 4 121 110 129 163 138 173 159 126 168 153 120 162 161 129 172 151 118 166 151 120 166 152 126 166 155 137 166 151 128 159 155 126 162 148 119 160 155 128 165 153 131 164 159 133 166 152 124 159 3 0 10 0 0 7 0 0 8 135 99 149 139 88 170 116 46 166 115 36 192 105 22 200 100 13 200 102 7 200 105 1 197 98 9 199 88 3 191 84 1 186 82 1 182 88 1 184 84 0 179 107 2 199 110 0 193 158 7 222 187 2 223 186 1 202 184 47 190 4 0 11 250 248 255 253 255 255 0 0 39 147 64 218 97 12 200 79 0 199 80 0 198 87 5 192 89 11 176 64 0 125 84 40 119 119 90 133 88 60 95 82 50 92 117 78 126 114 82 124 82 62 93 69 58 83 4 0 1 1 0 3 152 132 157 162 152 172 163 155 174 167 146 175 157 119 162 156 111 159 158 114 165 151 109 163 155 111 172 155 109 173 151 114 171 154 124 171 154 118 165 157 112 164 154 115 173 149 114 168 152 119 167 153 119 167 155 114 164 157 120 165 149 121 154 157 137 158 1 0 3 0 0 10 135 98 161 108 60 152 90 33 152 102 29 172 111 16 182 112 3 183 96 10 211 99 6 210 94 0 198 88 0 180 85 0 168 90 0 172 89 0 178 104 10 197 107 3 193 133 0 202 157 0 207 167 6 207 148 68 186 0 0 23 249 255 255 0 0 52 138 68 208 106 22 192 78 0 188 80 0 202 87 13 194 49 0 118 75 21 107 120 79 134 120 89 129 119 95 131 65 42 80 25 1 44 20 0 37 17 9 28 0 1 4 152 123 161 163 131 173 175 140 185 169 143 183 171 149 183 169 137 174 170 123 167 170 119 166 170 123 167 168 125 171 168 122 176 165 120 178 163 125 181 155 122 171 163 126 177 166 121 178 169 120 175 168 129 176 164 132 175 165 131 176 157 111 165 157 105 163 157 109 161 158 121 166 154 127 164 163 143 174 0 0 8 0 0 13 48 17 70 102 48 135 104 23 150 108 7 162 95 12 205 98 3 208 104 0 208 88 0 181 87 0 169 89 0 167 86 0 170 82 0 173 88 4 180 101 1 196 108 0 202 108 0 199 107 21 184 0 0 39 253 246 255 0 0 38 131 73 182 111 16 177 92 0 189 79 0 195 79 7 176 37 0 92 88 37 108 122 76 129 122 87 132 113 92 128 96 85 110 85 78 100 68 62 81 0 0 7 150 145 149 170 135 184 168 130 183 171 130 185 171 137 187 168 138 185 167 132 178 170 125 174 173 128 175 171 132 173 164 128 169 169 129 173 167 125 172 169 133 179 160 129 175 168 133 182 166 121 177 171 124 168 172 136 177 176 147 183 175 144 184 169 126 176 170 119 178 169 115 180 161 113 176 155 117 170 155 124 164 149 129 152 134 117 130 4 0 2 166 134 177 140 86 165 103 34 140 91 18 169 103 19 193 102 4 200 106 5 208 95 3 193 90 8 181 86 5 171 85 4 171 83 0 169 92 11 192 92 9 204 95 9 218 95 7 202 108 42 174 0 0 14 253 255 255 0 0 25 115 17 179 84 0 181 87 0 195 66 0 154 32 0 85 90 45 117 119 82 132 115 86 124 102 83 110 82 72 87 20 18 21 0 0 1 154 140 160 173 147 180 169 146 184 172 144 183 174 145 186 167 139 184 166 140 190 168 137 191 173 136 193 167 129 185 167 134 186 176 143 191 174 136 179 175 134 177 177 139 181 173 138 183 170 132 182 173 131 183 171 128 186 173 136 187 171 139 184 168 139 180 175 141 188 171 136 188 167 132 186 172 137 189 166 130 176 167 131 172 169 133 169 167 137 168 175 153 181 0 0 10 117 92 133 100 72 117 84 29 124 83 24 140 101 27 183 104 19 205 96 13 206 92 19 197 85 16 179 83 4 166 89 2 170 79 0 169 86 7 193 81 0 203 99 0 213 105 22 184 0 0 22 255 255 235 1 0 16 107 29 174 97 0 199 91 0 198 86 11 173 21 0 81 65 44 101 98 83 117 82 63 90 53 29 58 52 31 49 30 19 26 4 0 4 170 144 177 185 142 200 168 167 178 0 0 6 0 0 6 0 0 11 168 151 192 167 144 193 163 132 188 169 137 196 165 133 192 171 136 190 182 142 187 175 132 172 176 136 175 171 133 176 173 138 184 173 134 181 165 127 195 167 131 191 169 136 186 165 137 180 170 146 182 168 152 185 168 156 186 165 151 182 173 148 183 173 137 181 173 131 183 170 129 185 167 134 183 130 109 145 0 0 7 68 63 71 83 48 100 70 35 104 64 18 123 96 21 176 110 13 201 104 4 194 90 0 176 87 1 170 84 0 164 77 0 161 82 0 179 84 0 193 101 0 210 107 15 187 0 0 27 254 255 247 252 246 255 0 0 40 109 19 195 100 0 202 104 17 197 27 0 90 14 10 52 70 69 91 112 93 125 120 84 126 106 74 110 98 78 103 30 12 39 185 157 196 180 138 190 0 6 4 0 4 0 4 0 2 1 0 3 2 0 13 187 163 199 189 161 200 200 166 213 200 165 214 202 163 211 206 166 203 211 170 202 203 166 199 192 157 196 181 150 190 185 156 192 178 147 203 168 136 187 176 148 187 171 151 176 2 0 5 0 0 4 0 0 7 168 161 183 165 146 186 168 136 191 172 129 193 165 118 184 176 132 189 168 139 177 167 153 173 0 0 3 154 126 171 143 120 165 68 33 101 65 0 109 161 39 211 162 22 216 134 3 198 97 0 170 90 0 177 69 0 163 70 2 169 79 0 186 91 0 195 107 13 182 0 0 25 248 242 255 252 253 255 0 0 14 113 54 164 106 7 193 103 0 192 73 8 138 0 0 36 0 0 21 38 7 60 116 79 130 105 74 114 0 0 12 172 152 189 183 154 192 186 152 185 0 0 6 1 0 0 3 0 0 5 0 0 3 0 1 217 192 213 224 200 216 238 210 232 239 208 240 238 207 239 235 205 230 237 208 227 240 213 236 225 199 231 225 204 233 216 200 222 206 180 213 192 166 198 180 160 183 3 0 1 2 0 0 5 5 0 1 0 0 0 0 12 170 146 192 162 132 191 168 131 194 171 128 186 175 130 179 173 136 176 155 131 161 0 0 10 51 27 72 111 93 128 113 84 131 60 0 79 83 0 105 179 24 204 179 17 217 151 4 211 89 0 173 68 0 169 65 18 173 63 0 176 85 0 192 111 19 186 0 0 24 251 237 255 252 255 254 255 255 252 0 0 19 112 40 169 109 0 184 126 10 192 111 16 162 22 0 60 0 0 24 4 0 16 55 36 58 0 0 6 183 156 193 190 160 195 206 171 201 200 180 205 6 0 3 3 0 0 3 0 0 235 214 236 240 223 236 240 226 228 4 0 0 237 222 239 235 217 242 237 223 243 241 229 245 234 218 241 238 219 246 0 0 6 240 226 236 235 214 236 227 203 227 218 197 219 3 0 1 3 0 1 2 0 0 3 0 0 1 0 3 181 152 188 172 140 185 172 139 188 167 130 181 174 134 186 173 136 181 165 140 175 0 0 10 66 48 77 37 16 44 70 44 81 54 9 76 34 0 61 157 33 183 171 11 199 165 6 211 117 0 193 67 0 162 64 15 170 64 0 180 84 0 198 99 18 185 0 0 21 255 246 255 255 255 252 255 255 249 253 255 255 0 0 28 138 24 194 170 8 238 167 11 233 148 44 197 62 18 89 14 3 21 2 0 0 189 168 181 191 160 188 201 164 204 211 172 213 220 188 225 221 195 221 236 215 234 237 218 240 237 219 244 235 225 235 237 236 233 1 3 0 231 229 241 232 228 251 0 0 15 228 228 244 233 224 247 237 222 250 4 0 5 241 224 228 237 218 242 236 212 241 236 207 241 224 202 230 0 0 7 0 0 7 2 0 0 189 165 179 189 159 176 189 158 181 173 144 178 169 140 189 168 134 192 167 136 188 171 150 186 155 142 163 3 0 0 136 113 132 153 130 161 82 64 113 9 0 55 149 64 188 168 24 196 162 7 202 114 0 178 74 1 158 71 5 169 66 0 178 81 0 200 105 29 197 0 0 25 247 255 255 255 251 254 255 247 243 252 255 255 249 255 255 4 0 2 193 107 185 173 46 214 112 0 219 94 12 214 108 58 169 6 0 6 193 167 187 197 172 213 208 179 223 220 185 215 239 208 229 240 212 234 240 216 238 237 217 240 234 217 243 234 221 247 237 228 251 238 229 252 0 0 11 0 0 10 237 229 251 0 0 8 0 0 10 0 0 10 238 225 252 238 225 252 238 225 251 237 220 246 234 215 242 235 214 243 234 208 240 221 191 226 206 174 211 202 166 207 192 154 196 185 147 189 187 149 191 183 145 188 174 136 179 172 135 180 174 138 182 167 131 175 150 159 146 1 0 4 153 123 170 70 46 96 12 0 38 162 70 191 174 24 222 138 0 219 81 0 182 66 16 164 72 15 158 86 0 171 94 2 190 93 36 172 0 0 21 250 255 255 254 253 250 255 250 250 254 253 255 249 252 255 255 241 252 11 0 0 2 0 23 112 37 176 106 47 179 0 0 31 191 153 195 200 169 203 216 193 235 219 195 231 241 213 235 240 215 235 238 216 236 235 215 238 236 218 243 237 224 250 240 230 255 239 231 255 236 229 253 240 233 255 238 231 253 235 227 249 238 226 250 240 227 254 241 228 255 234 220 251 239 225 255 238 225 251 237 222 250 237 218 245 236 215 244 236 210 242 233 204 238 225 193 230 221 187 225 209 171 211 204 166 208 189 151 193 188 150 193 177 139 182 171 135 179 171 135 179 166 130 174 151 140 143 6 0 9 83 48 102 13 0 51 37 0 88 141 55 203 121 15 193 91 0 172 72 5 161 70 7 164 71 0 170 87 0 188 89 16 183 0 0 49 248 242 255 255 255 251 255 255 251 254 251 252 255 250 255 255 250 255 255 248 246 255 246 245 255 243 255 0 0 11 0 0 15 189 145 196 206 164 213 216 187 231 229 209 247 240 218 246 239 215 231 235 219 241 237 224 245 239 227 249 239 230 253 236 229 253 234 228 253 236 232 255 240 236 255 234 228 253 237 230 254 238 230 255 238 226 255 234 220 251 240 224 255 236 220 255 236 219 255 239 223 252 239 223 252 239 221 250 236 215 244 233 211 242 238 209 243 239 208 242 233 201 237 225 191 229 223 186 226 201 165 206 182 146 187 182 146 188 173 137 181 172 136 180 158 121 166 160 125 155 151 119 155 22 0 40 15 0 59 84 11 156 103 11 194 105 13 196 84 9 163 78 5 148 87 0 171 85 0 188 90 0 192 95 45 171 0 0 31 252 255 255 255 248 242 255 255 251 255 255 255 253 253 253 255 253 254 253 255 252 254 255 254 251 255 247 4 3 0 206 183 191 208 171 198 212 181 219 234 214 252 230 216 249 233 214 241 240 211 237 239 231 252 238 231 253 236 233 255 238 234 255 239 235 255 237 236 255 236 235 255 240 236 255 240 236 255 237 230 254 240 230 255 238 226 255 233 219 251 238 223 255 236 220 255 237 219 255 237 223 254 239 223 252 240 223 253 237 217 248 233 211 242 237 211 243 238 210 243 235 204 238 239 205 239 239 206 242 221 186 224 202 167 206 186 152 192 187 151 193 172 136 180 164 128 172 155 105 161 150 114 156 0 0 15 73 32 109 111 30 176 107 0 193 115 0 199 121 0 186 119 0 172 133 6 195 128 16 205 100 21 171 0 0 32 252 251 255 254 255 255 255 246 248 255 248 248 255 255 254 254 255 255 253 255 255 251 255 255 251 255 255 0 0 9 210 198 210 220 196 212 230 201 220 237 216 238 229 216 242 234 222 252 233 214 246 244 216 251 236 233 255 239 235 255 239 237 255 238 237 255 238 237 255 236 235 255 238 237 255 245 243 255 246 242 255 239 232 254 239 231 255 238 226 255 238 224 255 235 221 255 240 224 255 231 216 255 238 222 255 237 221 253 239 223 255 241 221 252 237 216 245 237 213 243 237 211 242 237 209 238 236 206 237 234 203 235 236 205 237 219 186 222 205 170 209 182 148 188 173 140 182 165 133 175 160 108 172 154 125 163 147 135 159 0 0 20 120 39 159 154 15 206 163 0 216 162 0 207 170 4 208 162 37 201 161 80 197 0 0 21 255 234 255 253 246 248 252 255 253 255 252 253 255 251 251 253 247 248 254 255 255 249 255 255 248 255 255 0 0 11 201 184 220 212 188 234 220 194 234 239 218 240 237 216 229 239 221 240 238 224 255 235 221 253 241 226 255 240 233 255 240 235 255 237 232 252 237 232 252 239 236 254 239 236 253 239 236 253 243 239 254 251 245 255 237 229 248 238 230 252 239 228 253 241 228 255 234 220 253 236 224 255 237 223 255 238 223 255 237 221 254 238 222 254 240 223 253 239 220 247 237 215 242 238 215 240 239 213 239 235 209 235 240 212 240 236 206 237 240 209 243 219 187 224 201 170 208 185 152 194 167 135 177 166 124 176 153 128 163 152 140 164 147 113 162 4 0 21 181 58 197 184 36 200 170 24 191 166 46 188 4 0 22 3 0 6 255 238 246 255 248 249 255 246 254 255 253 255 253 255 255 255 255 252 255 246 252 254 248 255 249 252 255 0 0 9 206 194 210 214 188 226 223 196 249 228 209 254 235 217 242 242 219 234 244 220 242 239 220 252 238 231 255 238 241 254 241 231 251 249 239 255 249 239 255 245 236 254 242 232 249 240 232 247 244 235 248 251 242 255 254 245 255 247 238 251 238 229 247 253 243 255 235 226 249 238 229 255 238 230 255 233 223 254 238 221 255 236 222 255 238 222 255 239 222 252 241 222 249 239 219 244 236 216 239 237 216 238 237 213 235 239 212 235 236 208 236 236 206 237 234 203 237 217 185 222 201 170 208 171 138 180 170 134 175 165 139 172 152 129 167 147 104 164 11 0 22 174 102 174 8 0 5 3 0 7 2 0 15 251 236 255 255 251 252 255 255 247 252 253 248 255 250 255 251 243 250 252 255 255 254 255 253 255 248 254 252 244 255 251 251 255 0 0 3 219 203 212 223 198 219 233 207 240 230 214 246 236 220 243 238 220 239 240 221 247 237 223 254 239 236 253 248 255 255 251 236 255 255 239 255 255 240 255 252 237 254 255 241 254 255 242 254 254 241 252 255 243 254 254 241 252 254 242 254 253 242 255 241 232 250 239 231 253 238 229 252 232 226 252 238 231 255 236 219 255 238 223 255 238 222 254 239 222 252 243 226 252 243 224 248 239 219 240 239 218 237 241 220 239 238 216 236 237 213 235 239 211 240 235 207 240 229 199 234 207 176 214 190 159 197 172 137 176 170 141 179 152 123 167 155 114 170 150 104 158 3 0 3 255 255 249 253 255 249 252 255 254 250 255 254 253 255 255 253 255 255 253 255 255 253 252 255 255 248 255 253 255 255 254 255 255 249 250 251 254 251 255 0 0 6 215 203 217 221 202 217 229 202 219 241 211 230 240 217 236 236 220 243 236 226 253 235 229 255 239 232 255 251 245 255 253 248 252 255 236 255 255 237 255 255 237 254 255 237 252 255 239 252 255 239 252 255 241 250 255 241 252 254 240 252 255 242 255 255 243 255 250 239 255 241 233 255 238 227 252 236 226 253 237 227 255 236 219 255 239 223 255 237 221 253 235 219 247 238 222 245 239 222 242 238 220 239 237 219 236 236 217 233 240 219 237 239 217 237 237 211 237 237 209 238 233 203 238 221 190 228 200 169 207 185 153 190 164 136 175 164 135 179 158 127 167 150 124 150 2 0 0 254 255 252 252 255 251 253 255 255 253 255 255 251 255 255 251 255 255 254 255 255 255 255 254 254 253 255 254 250 255 253 255 255 253 255 255 255 255 254 1 0 1 220 198 226 226 201 236 239 211 239 243 210 228 245 212 231 238 216 247 234 224 255 232 232 255 239 239 255 252 243 255 255 243 255 252 234 253 254 236 255 255 238 255 255 240 254 255 238 251 254 237 250 255 238 251 255 239 253 255 240 255 255 241 255 254 238 255 249 234 255 241 228 255 237 223 254 236 222 254 238 224 255 237 221 254 239 223 255 239 223 252 235 220 248 237 221 244 237 222 240 237 221 236 239 222 236 238 221 235 238 219 235 239 217 237 239 215 239 236 208 237 234 206 239 229 199 234 208 177 215 195 167 196 169 143 181 167 138 182 154 124 159 155 126 146 12 0 0 253 242 251 255 244 255 255 243 255 255 246 255 254 253 255 254 255 255 255 255 251 255 255 249 254 255 255 255 248 255 250 251 254 252 255 253 1 0 0 222 200 220 215 187 230 219 190 240 232 207 242 242 213 232 243 209 232 242 211 251 234 217 255 233 227 255 240 235 255 248 238 255 255 237 255 255 243 255 254 242 255 253 240 255 255 239 254 255 240 255 255 240 254 255 239 254 254 236 255 252 235 255 251 233 255 247 231 255 244 227 255 239 223 255 237 219 254 238 220 255 238 221 255 238 222 254 240 224 253 239 223 251 236 221 245 236 222 242 236 221 238 237 223 236 239 225 237 240 223 237 237 218 233 239 218 237 241 217 241 235 210 237 235 207 240 235 205 240 217 187 222 203 184 199 182 156 189 167 134 184 164 122 174 157 112 149 152 118 141 6 0 2 254 251 255 254 253 255 255 251 255 255 250 254 255 250 254 255 253 252 255 255 252 255 255 254 255 250 255 255 255 255 255 255 254 1 0 0 216 192 221 222 191 237 222 195 242 237 216 245 240 217 236 239 212 235 241 213 252 236 214 255 236 222 255 238 229 255 242 230 252 250 233 255 252 243 255 251 242 255 252 240 255 253 241 255 255 240 255 254 239 255 249 233 255 246 228 253 244 227 253 242 225 255 240 221 255 238 220 255 237 217 255 237 217 255 239 216 255 240 217 255 239 223 251 239 223 251 238 223 247 236 223 244 236 221 239 236 223 238 238 224 237 239 225 237 240 223 237 238 219 235 238 217 236 239 218 240 235 210 237 237 209 238 235 207 240 222 192 227 203 181 201 188 159 193 164 124 179 158 109 174 151 102 159 154 122 153 2 0 0 253 255 252 251 255 255 254 255 254 255 251 252 255 246 252 255 250 255 254 255 255 255 255 254 255 248 255 254 250 249 255 255 252 0 0 3 219 206 232 222 198 234 236 210 242 236 213 232 240 223 236 237 220 240 239 223 251 238 222 255 236 222 255 238 224 255 236 220 252 242 223 255 238 229 252 243 234 255 248 239 255 250 238 255 247 235 255 243 228 252 238 225 251 238 222 251 237 221 253 237 221 254 236 219 255 236 219 255 238 218 255 238 218 255 239 218 254 239 216 254 241 226 250 239 223 246 237 221 243 236 222 242 236 224 240 237 224 239 238 224 237 238 224 236 239 222 236 240 221 237 238 217 236 238 217 239 238 212 238 237 209 238 234 206 239 224 196 229 208 177 217 181 149 191 165 131 179 149 109 169 153 113 172 151 123 158 2 0 0 255 255 248 252 255 254 253 255 255 255 255 254 255 251 252 255 253 255 253 255 255 254 255 255 255 247 255 255 253 252 255 255 251 0 0 3 222 214 235 223 204 231 239 212 235 242 217 232 240 223 237 237 227 247 238 229 252 238 227 252 238 226 255 239 223 255 236 218 253 237 217 254 235 225 252 237 227 254 241 228 255 242 229 255 240 227 253 239 223 252 236 222 253 236 222 254 236 222 255 236 222 255 236 222 255 238 223 255 239 223 255 240 221 255 240 220 251 239 219 250 241 225 247 237 223 243 237 222 240 237 222 240 237 224 239 238 224 237 238 224 237 237 223 235 238 221 235 239 221 238 239 218 237 238 217 239 240 214 240 239 211 240 236 206 237 224 196 229 205 170 224 190 158 201 171 142 178 152 123 166 151 121 168 149 124 159 5 0 4 255 251 251 255 255 255 253 255 255 254 255 255 255 255 254 255 255 252 255 255 255 254 255 255 253 250 255 255 255 254 255 255 248 0 0 0 222 211 230 225 199 231 236 205 233 241 214 237 236 220 243 237 227 255 238 226 255 238 225 252 239 223 252 237 223 255 236 220 255 237 217 255 239 225 255 237 223 255 236 220 252 236 220 252 238 222 254 239 223 255 239 223 255 238 223 255 236 224 255 236 224 255 236 224 255 238 224 255 238 224 255 237 224 250 239 223 246 238 222 244 239 224 242 236 221 239 236 221 238 238 225 240 238 224 237 238 224 237 238 224 237 237 223 235 239 222 236 238 220 237 239 218 237 239 218 240 238 212 238 239 211 240 237 209 238 224 194 225 205 174 220 186 160 198 167 141 174 159 124 162 154 115 156 151 120 154 0 0 4 252 253 254 255 255 255 255 251 255 255 253 255 255 255 255 255 255 251 255 255 251 255 255 254 250 255 255 250 255 251 255 255 247 2 0 0 237 217 240 235 203 240 237 205 241 237 213 243 230 216 248 237 225 255 236 220 255 238 217 253 239 219 250 235 221 252 239 225 255 237 223 255 238 220 255 238 220 255 238 220 255 239 220 254 239 220 254 238 222 254 238 222 255 236 222 255 234 222 255 236 223 255 236 225 255 236 224 254 236 225 250 236 224 246 236 222 242 235 223 239 237 222 239 235 220 237 237 224 239 239 226 241 238 224 237 237 223 236 238 224 237 238 224 236 240 223 237 237 219 236 239 218 237 239 218 240 235 209 235 237 209 238 237 209 238 220 190 221 201 177 207 182 164 193 168 142 175 159 112 156 159 103 148 153 117 147 1 1 8 250 255 255 253 255 255 255 253 254 255 248 255 255 253 255 255 255 252 255 255 247 255 253 248 252 255 252 254 255 255 254 255 255 0 0 3 220 203 223 224 198 229 237 207 242 236 210 243 236 219 245 231 223 242 239 231 250 239 227 251 239 223 251 239 223 252 239 226 253 234 226 251 237 223 255 236 222 255 236 222 255 236 222 255 236 222 255 236 222 254 237 223 255 238 224 255 238 224 255 236 222 253 240 224 255 236 219 249 235 216 243 238 219 245 237 217 242 237 215 242 240 221 237 237 218 233 239 222 236 240 223 237 236 219 233 238 221 235 241 224 238 238 220 237 240 219 238 238 214 238 235 210 237 236 210 241 237 208 242 235 206 240 225 197 232 217 189 224 192 157 206 171 133 183 167 128 176 154 114 159 151 117 155 152 126 152 3 0 1 254 252 254 254 255 255 254 255 255 254 255 255 255 255 255 255 253 255 255 253 255 255 255 255 255 255 254 252 255 253 252 255 254 254 251 255 0 0 4 223 199 228 225 196 230 236 210 242 234 217 243 236 224 246 240 228 250 233 220 246 242 224 253 237 220 250 238 225 252 241 231 255 238 224 255 237 223 255 237 223 254 238 224 255 240 224 253 239 226 253 238 225 251 237 224 250 238 225 251 237 221 249 240 223 249 238 220 245 237 218 242 238 218 241 239 218 240 237 216 238 240 218 238 239 217 237 239 218 237 239 218 237 239 218 237 239 218 237 239 218 237 237 216 238 240 216 240 238 210 239 235 207 240 236 205 239 235 205 240 227 198 234 216 185 223 205 174 214 180 145 194 173 138 186 166 129 174 162 126 168 148 117 151 153 132 154 1 0 1 255 253 255 255 255 255 254 255 255 255 255 255 255 255 255 255 253 255 255 253 255 255 255 255 254 255 253 255 255 255 254 255 255 250 249 254 0 0 5 220 201 225 224 200 230 236 212 242 234 215 241 235 217 242 235 216 243 238 216 247 236 211 246 240 218 251 239 222 252 235 222 249 239 222 248 239 222 248 239 223 246 239 223 246 240 224 246 240 224 246 238 222 244 236 220 242 236 220 242 236 220 242 236 219 239 238 218 239 238 217 236 238 217 235 240 218 235 237 215 232 237 213 237 239 215 239 238 214 238 237 216 238 239 218 240 238 217 239 235 215 238 237 214 239 234 210 239 234 208 239 236 207 241 226 197 233 227 196 234 217 186 226 204 173 213 187 156 196 174 139 187 166 130 176 155 122 164 149 119 154 153 128 155 1 0 3 255 248 255 255 253 255 255 255 255 255 255 255 255 255 255 255 253 255 255 253 255 255 253 255 255 255 255 255 253 254 255 255 254 253 255 253 254 255 255 254 250 255 0 0 6 219 200 224 225 203 231 227 205 233 233 211 239 237 211 243 235 206 242 233 204 240 236 209 246 231 212 244 237 221 250 237 217 242 238 218 243 237 218 240 236 217 239 238 218 239 238 218 239 237 217 238 237 217 238 238 218 239 239 219 240 237 217 238 240 218 238 239 216 235 236 213 232 239 216 234 237 210 228 233 212 239 235 213 240 236 216 241 236 216 241 236 216 241 235 215 240 234 214 239 235 213 241 227 203 233 223 197 230 225 199 232 215 188 225 216 189 226 199 173 211 187 161 199 173 147 185 169 134 180 165 132 174 154 125 161 149 127 154 150 135 153 2 0 2 253 248 252 255 253 255 255 255 254 255 253 255 255 253 255 255 253 255 255 253 255 255 255 255 255 255 255 255 250 254 255 253 254 255 255 255 248 251 250 254 255 255 0 0 4 207 195 213 215 196 220 217 195 222 224 198 229 226 195 229 226 191 230 229 195 235 223 194 230 237 215 248 231 215 243 233 209 238 237 213 242 238 213 240 236 211 238 236 213 238 236 213 238 236 213 238 237 214 239 236 213 238 236 212 241 234 210 239 237 212 239 235 209 235 231 203 231 235 206 232 232 203 229 225 199 231 224 200 230 226 202 232 225 203 231 219 197 225 218 196 224 219 198 227 217 194 225 219 193 226 205 180 215 204 177 214 201 174 211 201 175 213 181 155 193 174 148 186 169 146 184 170 134 178 156 127 163 148 124 154 152 137 155 2 0 5 252 248 253 255 255 255 255 254 253 255 253 254 255 251 255 255 251 255 255 253 255 255 253 255 255 255 255 255 255 255 255 246 252 255 251 254 255 255 255 254 255 255 253 255 255 253 252 255 0 0 5 203 188 206 200 180 203 213 185 214 220 189 223 221 186 224 218 183 222 217 188 224 215 193 224 218 200 229 220 192 227 225 197 232 227 198 232 223 194 228 222 193 227 220 191 225 218 189 223 219 191 226 218 190 225 217 190 227 217 190 227 220 191 227 218 189 225 217 187 222 219 189 224 218 187 221 221 187 227 217 186 224 219 188 226 217 188 224 208 179 215 205 176 212 206 177 215 202 171 211 201 170 210 193 160 202 189 156 198 182 150 193 182 150 193 172 143 184 168 139 180 165 137 176 153 124 160 152 126 158 155 139 161 0 0 4 253 251 254 255 255 255 254 255 253 255 255 254 255 251 254 255 251 255 255 251 255 255 253 255 255 255 255 255 255 255 255 255 255 255 248 254 255 251 254 252 252 252 253 255 255 253 255 255 253 255 255 254 251 255 0 0 3 193 175 194 201 178 203 207 177 208 201 170 202 204 173 207 201 172 206 205 183 214 209 190 217 210 183 220 215 188 225 216 188 223 212 184 219 212 184 219 210 182 217 206 179 216 206 179 216 209 183 221 204 178 218 205 178 219 206 179 220 206 179 220 206 177 218 204 175 216 203 174 215 204 166 209 202 164 207 203 165 208 201 165 209 196 160 204 192 156 200 189 153 197 185 149 193 183 146 191 183 146 191 179 142 187 172 135 180 171 135 179 169 137 179 165 132 174 157 126 166 157 133 162 149 129 154 0 0 4 254 251 255 255 255 255 252 255 253 255 255 254 255 253 254 255 251 254 255 251 255 255 253 255 255 255 255 255 255 255 255 255 255 255 255 255 255 251 254 255 252 253 255 255 255 254 255 255 250 255 252 254 255 255 252 251 255 255 250 255 1 0 3 4 0 5 188 167 189 185 162 187 183 159 188 191 169 197 185 166 192 190 171 198 197 174 205 201 179 210 201 178 209 199 175 205 202 178 208 201 178 209 199 177 208 200 178 211 197 175 209 188 167 203 188 165 203 186 163 201 187 161 201 188 162 202 182 156 194 180 154 192 184 150 190 184 153 191 184 153 191 184 153 191 184 155 191 181 152 188 175 146 184 172 141 181 174 143 181 171 140 178 169 140 176 172 143 179 169 141 176 165 139 172 157 133 163 153 131 159 2 0 5 0 0 4 255 250 255 254 255 255 253 255 254 255 255 254 253 255 252 255 252 253 255 253 254 255 253 255 255 255 255 254 255 255 254 255 255 255 255 255 255 253 255 255 255 254 255 255 254 255 255 255 255 255 255 254 255 255 254 255 255 254 255 255 255 253 255 255 250 255 255 246 255 1 0 1 1 0 3 1 0 4 0 0 6 172 154 179 171 153 178 184 165 189 184 165 189 184 165 187 184 165 187 184 165 187 184 165 187 184 165 189 183 165 190 179 162 188 172 157 185 169 151 180 168 151 181 170 153 183 171 151 182 170 150 181 169 149 180 171 152 178 171 152 178 171 152 179 171 152 179 170 153 179 170 153 179 170 153 179 171 152 179 171 152 179 170 152 177 168 150 175 166 150 172 0 0 7 0 0 6 0 0 4 0 0 4 255 246 255 255 248 255 255 253 255 255 255 255 255 255 254 255 255 254 255 255 254 255 253 254 255 253 254 255 255 255 254 255 255 254 255 255 254 255 255 255 255 255 255 251 255 255 255 254 255 255 254 255 255 255 255 253 255 255 255 255 254 255 255 255 255 255 255 255 255 254 254 254 255 253 255 255 251 255 255 250 255 254 248 255 254 244 255 0 0 7 1 0 8 2 0 1 2 0 1 2 0 1 2 0 0 2 0 0 2 0 1 2 0 1 1 0 3 3 0 6 0 0 6 0 0 7 0 0 8 0 0 8 0 0 8 0 0 7 0 0 7 0 0 7 0 0 7 0 0 7 0 0 7 0 0 7 0 0 7 0 0 7 0 0 7 0 0 8 0 0 6 0 0 6 0 0 4 254 249 255 254 253 255 254 255 255 254 255 255 254 251 255 255 253 255 254 255 255 255 255 255 255 255 254 255 255 254 255 253 254 255 253 254 255 255 255 255 255 255 254 255 255 253 255 255 254 255 255 255 255 255 255 250 255 