P3 67 57 255
255 255 255 255 255 255 255 255 255 255 255 255 255 255 255 255 255 255 255 255 255 255 255 255 255 255 255 255 255 255 255 255 255 255 255 255 255 255 255 255 255 255 255 255 255 255 255 255 255 255 255 255 255 255 255 255 255 255 255 255 255 255 255 255 255 255 255 255 255 255 255 255 255 255 255 255 255 255 255 255 255 255 255 255 255 255 255 255 255 255 255 255 255 255 255 255 255 255 255 255 255 255 255 255 255 255 255 255 255 255 255 255 255 255 255 255 255 255 255 255 255 255 255 255 255 255 255 255 253 254 254 254 255 255 255 255 255 255 255 255 255 255 255 255 255 255 255 255 255 255 255 255 255 255 255 255 255 255 255 255 255 255 255 255 255 255 255 255 255 255 255 255 255 255 255 255 255 255 255 255 255 255 255 255 255 255 255 255 255 255 255 255 255 255 255 255 255 255 255 255 255 255 255 255 255 255 255 255 255 255 255 255 255 255 255 255 255 255 255 255 255 255 255 255 255 255 255 255 255 255 255 255 255 255 255 255 255 255 255 255 255 255 255 255 255 255 255 255 255 255 255 255 255 255 255 255 255 255 255 255 255 255 255 255 255 255 255 255 255 255 255 255 255 255 255 255 255 255 255 255 255 255 255 255 255 255 255 255 255 255 255 255 255 255 255 255 255 255 255 255 255 255 255 255 255 255 255 255 255 255 255 255 255 255 255 255 255 255 255 255 255 255 255 255 255 255 255 255 254 255 255 255 255 254 254 255 255 255 255 255 255 255 255 255 255 255 255 255 255 255 255 255 255 255 255 255 255 255 255 255 255 255 255 255 255 255 255 255 255 255 255 255 255 255 255 255 255 255 255 255 255 255 255 255 255 255 255 255 255 255 255 255 255 255 255 255 255 255 255 255 255 255 255 255 255 255 255 255 255 255 255 255 255 255 255 255 255 255 255 255 255 255 255 255 255 255 255 255 255 255 255 255 255 255 255 255 255 255 255 255 255 255 255 255 255 255 255 255 255 255 255 255 255 255 255 255 255 255 255 255 255 255 255 255 255 255 255 255 255 255 255 255 255 255 255 255 255 255 255 255 255 255 255 255 255 255 255 255 255 255 255 255 255 255 255 255 255 255 255 255 255 255 255 255 255 255 255 255 255 255 255 255 255 255 255 255 255 255 255 255 255 255 255 255 255 255 255 255 255 255 255 255 255 255 255 255 255 255 255 255 255 255 255 255 255 255 255 255 255 255 255 255 255 255 255 255 255 255 255 255 255 255 255 255 255 255 255 255 255 255 255 255 255 255 255 255 255 255 255 255 255 255 255 255 255 255 255 255 255 255 255 255 255 255 255 255 255 255 255 255 255 255 255 255 255 255 255 255 255 255 255 255 255 255 255 255 255 255 255 255 255 255 255 255 255 255 255 255 255 255 255 255 255 255 255 255 255 255 255 255 255 255 255 255 255 255 255 255 255 255 255 255 255 255 255 255 255 255 255 255 255 255 255 255 255 255 255 255 255 255 255 255 255 255 255 255 255 255 255 255 255 255 255 255 255 255 255 255 255 255 255 255 255 255 255 255 255 255 255 255 255 255 255 255 255 255 255 255 255 255 255 255 255 255 255 255 255 255 255 255 255 255 255 255 255 253 254 255 255 255 254 255 255 255 255 253 255 254 255 255 253 255 255 255 255 255 255 255 255 255 255 255 255 255 255 255 255 255 255 255 255 255 255 255 255 255 255 255 255 255 255 255 255 255 255 255 255 255 255 255 255 255 255 255 255 255 255 255 255 255 255 255 255 255 255 255 255 255 255 255 255 255 255 255 255 255 255 255 255 255 255 255 255 255 255 255 255 255 255 255 255 255 255 255 255 255 255 255 255 255 255 255 255 255 255 255 255 255 255 255 255 255 255 255 255 255 255 255 255 255 255 255 255 255 255 255 255 255 255 255 255 255 255 255 255 255 255 255 255 255 255 255 255 255 255 255 255 255 255 255 255 255 255 255 255 255 255 255 255 255 255 255 255 255 255 255 255 255 255 255 255 255 255 255 255 255 255 255 255 255 255 255 255 255 255 255 255 255 255 255 255 255 255 255 255 255 255 255 254 255 255 255 253 255 255 255 255 255 253 255 255 255 255 255 255 255 255 255 255 255 255 255 255 255 255 255 255 255 255 255 255 255 255 255 255 255 255 255 255 255 255 255 255 255 255 255 255 255 255 255 255 255 255 255 255 255 255 255 255 255 255 255 255 255 255 255 255 255 255 255 255 255 255 255 255 255 255 255 255 255 255 255 255 255 255 255 255 255 255 255 255 255 255 255 255 255 255 255 255 255 255 255 255 255 255 255 255 255 255 255 255 255 255 255 255 255 255 255 255 255 255 255 255 255 255 255 255 255 255 255 255 255 255 255 255 255 255 255 255 255 255 255 255 255 255 255 255 255 255 255 255 255 255 255 255 255 255 255 255 255 255 255 255 255 255 255 255 255 255 255 255 255 255 255 255 255 255 255 255 255 255 255 255 255 255 255 255 255 255 255 255 255 255 255 255 255 255 255 254 254 254 255 255 255 255 255 253 254 254 254 255 255 255 255 255 255 255 254 255 255 255 255 255 255 255 255 255 255 255 255 255 255 255 255 255 255 255 255 255 255 255 255 255 255 255 255 255 255 255 255 255 255 255 255 255 255 255 255 255 255 255 255 255 255 255 255 255 255 255 255 255 255 255 255 255 255 255 255 255 255 255 255 255 255 255 255 255 255 255 255 255 255 255 255 255 255 255 255 255 255 255 255 255 255 255 255 255 255 255 255 255 255 255 255 255 255 255 255 255 255 255 255 255 255 255 255 255 255 255 255 255 255 255 255 255 255 255 255 255 255 255 255 255 255 255 255 255 255 255 255 255 255 255 255 255 255 255 255 255 255 255 255 255 255 255 255 255 255 255 255 255 255 255 255 255 255 255 255 255 255 255 255 255 255 255 255 255 255 255 255 255 255 255 255 255 255 255 255 255 255 255 255 0 2 1 0 0 0 255 255 255 255 255 255 255 255 255 255 255 255 255 255 255 255 255 255 255 255 255 255 255 255 255 255 255 255 255 255 255 255 255 255 255 255 255 255 255 255 255 255 255 255 255 255 255 255 255 255 255 255 255 255 255 255 255 255 255 255 255 255 255 255 255 255 255 255 255 255 255 255 255 255 255 255 255 255 255 255 255 255 255 255 255 255 255 255 255 255 255 255 255 255 255 255 255 255 255 255 255 255 255 255 255 255 255 255 255 255 255 255 255 255 255 255 255 255 255 255 255 255 255 255 255 255 255 255 255 255 255 255 255 255 255 255 255 255 255 255 255 255 255 255 255 255 255 255 255 255 255 255 255 255 255 255 255 255 255 255 255 255 255 255 255 255 255 255 255 255 255 255 255 255 255 255 255 255 255 255 255 255 255 255 255 255 255 255 255 255 255 253 0 0 0 255 85 85 188 0 0 0 0 2 255 255 255 255 255 253 255 255 255 255 255 255 255 255 255 255 255 255 255 255 255 255 255 255 255 255 255 255 255 255 255 255 255 255 255 255 255 255 255 255 255 255 255 255 255 255 255 255 255 255 255 255 255 255 255 255 255 255 255 255 255 255 255 255 255 255 255 255 255 255 255 255 255 255 255 255 255 255 255 255 255 255 255 255 255 255 255 255 255 255 255 255 255 255 255 255 254 254 252 255 255 255 253 255 254 254 255 255 255 255 255 255 255 255 255 255 255 255 255 255 255 255 255 255 255 255 255 255 255 255 255 255 255 255 255 255 254 255 255 255 255 255 255 255 255 255 255 254 254 254 255 255 255 255 255 255 255 255 255 255 255 255 255 255 255 255 255 255 255 255 255 255 255 255 255 255 255 255 255 255 255 255 255 255 255 255 0 0 2 255 85 85 205 1 2 154 0 0 0 0 0 255 255 255 255 255 255 255 255 255 255 255 255 255 255 255 255 255 255 255 255 255 255 255 255 254 255 255 255 255 255 255 255 255 255 255 255 255 255 255 255 255 255 0 0 0 0 0 0 255 255 255 255 255 255 255 255 255 255 255 255 255 255 255 255 255 255 255 255 255 255 255 255 255 255 255 255 255 255 255 255 255 255 255 255 255 255 255 255 255 255 254 254 252 255 255 255 255 255 255 255 255 255 255 255 255 255 255 255 255 255 255 255 255 255 255 255 255 255 255 255 255 255 255 255 255 255 255 255 255 255 255 255 255 255 255 255 255 255 254 254 254 255 255 255 254 254 254 254 254 254 255 254 255 255 255 255 255 255 255 255 255 255 254 254 254 255 255 255 255 254 255 255 255 253 255 255 255 255 255 255 255 255 255 0 0 2 255 85 85 238 0 0 188 0 0 154 0 0 1 1 1 254 255 255 255 255 255 255 255 255 255 255 255 253 255 254 254 255 255 254 254 254 255 255 255 254 254 254 255 255 255 0 0 0 0 0 2 0 0 0 0 0 0 255 67 67 0 0 0 255 255 255 254 255 255 255 255 255 255 255 255 255 255 255 255 255 255 255 255 255 255 255 255 255 255 255 255 255 255 255 255 255 255 255 255 255 255 255 255 255 255 255 255 255 253 255 254 255 255 255 254 254 254 255 255 255 255 255 255 255 255 253 255 255 255 255 255 255 255 255 255 253 255 254 255 255 253 254 255 255 255 255 255 254 255 255 255 255 255 255 255 255 254 255 255 255 255 255 255 255 253 255 255 255 255 255 255 255 255 253 255 255 253 255 255 255 254 254 254 254 255 255 254 254 254 254 255 255 255 255 255 255 255 255 0 0 0 255 85 85 222 0 0 169 1 0 154 0 0 0 0 2 255 254 255 255 254 255 255 255 255 255 255 255 1 1 1 1 0 0 1 1 1 0 0 0 0 0 0 0 0 0 255 68 67 255 68 67 255 68 69 255 68 67 222 0 0 0 0 0 255 255 255 255 255 255 255 255 255 255 255 255 255 255 255 255 255 255 255 255 255 255 255 255 255 255 255 255 255 255 255 255 255 255 255 255 255 255 255 255 255 255 255 255 255 255 255 255 255 255 255 255 254 255 0 0 0 0 0 0 0 0 0 0 0 0 255 255 253 255 255 253 255 254 255 255 255 253 255 254 255 255 255 255 255 254 255 255 255 255 254 254 254 255 255 253 0 0 0 0 0 0 0 1 0 0 1 0 0 0 0 255 255 253 255 255 255 255 255 253 255 253 254 255 255 255 255 255 255 254 255 255 254 254 254 0 0 0 255 85 86 188 0 1 155 0 0 154 0 0 0 0 0 253 255 254 254 255 255 0 2 1 1 0 0 255 101 101 254 102 101 255 85 85 255 67 67 255 68 67 255 67 67 236 0 0 239 1 1 236 1 0 238 0 0 170 1 0 0 0 0 255 255 255 254 254 254 255 255 255 255 255 255 255 255 255 255 255 255 255 255 255 255 255 255 255 255 255 255 255 255 255 255 255 255 255 255 255 255 255 255 255 255 255 255 255 255 255 255 255 255 253 254 254 255 0 0 0 255 220 222 255 221 219 253 203 168 0 0 2 0 0 2 253 255 250 255 255 255 255 255 255 255 255 255 254 254 255 255 255 255 255 255 255 255 255 255 1 1 3 255 239 223 255 237 223 255 238 222 255 238 222 1 0 0 0 0 0 0 0 0 254 255 253 255 255 255 255 255 253 255 255 255 1 1 1 239 1 1 238 0 0 154 0 0 154 0 0 154 2 1 1 0 0 255 254 255 1 0 0 255 102 104 255 103 105 239 1 1 239 0 0 238 0 0 238 0 2 238 0 0 238 0 2 238 0 2 221 0 1 239 0 0 238 0 0 1 0 0 255 255 255 255 254 255 255 255 255 255 255 255 255 255 255 255 255 255 255 255 255 255 255 255 255 255 255 255 255 255 255 255 255 255 255 255 255 255 255 255 255 255 255 255 255 255 255 255 255 255 253 255 255 255 255 255 253 254 254 254 0 0 0 255 221 220 255 221 220 255 221 220 255 204 167 1 1 1 0 0 0 255 255 255 255 255 255 255 255 255 255 255 255 255 254 255 255 255 255 255 255 255 0 0 0 255 238 220 255 239 223 255 170 137 255 238 222 255 238 222 254 204 169 0 0 2 0 0 0 255 255 255 255 255 255 0 0 0 238 0 0 188 0 1 154 0 0 153 0 1 154 0 0 0 0 0 255 255 255 0 1 0 255 69 68 238 0 0 238 0 0 188 0 0 170 0 0 171 0 0 171 17 19 189 17 15 187 33 33 204 0 1 238 0 0 206 0 2 0 1 0 255 255 255 254 255 255 255 255 255 255 255 255 255 255 255 255 255 255 255 255 255 255 255 255 255 255 255 255 255 255 255 255 255 255 255 255 255 255 255 255 255 255 255 255 255 255 254 255 255 255 255 254 255 255 255 255 255 255 255 255 255 255 255 0 0 0 255 154 102 255 154 102 255 221 220 255 221 220 254 204 169 0 1 0 0 0 0 0 1 0 0 0 0 0 0 0 1 1 0 0 0 0 0 0 0 0 0 2 0 0 0 255 154 102 255 153 102 255 238 222 254 221 204 254 204 171 254 204 169 0 0 0 255 255 255 0 0 0 238 0 0 188 0 0 154 0 0 0 0 0 0 1 0 1 0 0 1 1 1 154 0 0 154 2 0 154 0 0 154 0 0 154 0 0 155 0 0 171 17 17 255 102 100 255 102 102 255 68 69 238 0 0 223 0 0 170 0 0 0 0 0 255 255 255 255 255 255 255 255 255 255 255 255 255 255 255 255 255 255 255 255 255 255 255 255 255 255 255 255 255 255 255 255 255 255 255 255 255 255 255 255 255 255 255 255 255 254 254 254 255 255 255 255 254 255 255 255 255 255 255 255 255 255 255 255 255 255 1 0 0 255 154 102 255 154 102 0 0 0 255 255 255 255 255 255 255 255 255 254 255 239 254 255 239 255 238 222 255 238 222 255 238 222 255 238 222 255 238 222 1 0 0 255 238 222 255 154 102 255 154 102 254 221 204 255 220 204 254 204 169 1 1 1 254 254 254 1 0 0 238 0 0 188 0 0 0 0 0 255 66 66 239 1 1 155 0 0 154 0 0 0 0 0 154 0 0 154 0 0 154 0 0 0 0 0 0 0 0 255 102 102 255 68 67 238 0 0 238 0 0 238 0 0 154 0 0 0 0 0 254 254 254 255 255 255 255 254 255 255 255 255 255 255 255 255 255 255 255 255 255 255 255 255 255 255 255 255 255 255 255 255 255 255 255 255 255 255 255 255 255 255 255 255 255 255 255 255 255 255 255 255 255 255 255 255 255 254 255 255 255 255 255 255 255 255 255 255 255 255 255 255 0 0 2 0 0 0 254 255 255 255 255 255 255 238 220 255 238 222 255 238 222 255 238 222 255 238 222 255 238 222 0 0 0 0 1 0 0 0 2 0 0 0 0 0 0 0 0 0 135 85 50 255 186 153 255 238 222 255 238 222 254 204 169 0 0 0 0 0 0 0 0 0 188 0 0 0 0 0 238 0 0 222 0 0 154 0 0 154 0 0 0 0 0 0 0 0 0 0 2 0 0 0 238 0 0 239 0 0 238 0 0 238 0 0 238 0 0 238 0 0 154 0 0 153 0 0 0 0 0 255 254 255 255 255 255 255 255 255 255 255 255 255 255 255 255 255 255 255 255 255 255 255 255 255 255 255 255 255 255 255 255 255 255 255 255 255 255 255 255 255 255 255 255 255 255 255 255 255 255 255 255 255 255 255 255 255 255 255 255 255 255 255 255 255 255 255 255 255 0 0 0 0 0 0 0 0 0 255 238 238 255 238 222 255 238 222 254 237 221 255 239 223 255 238 222 0 0 0 0 0 0 220 204 168 220 204 170 221 204 152 223 187 155 187 169 119 170 152 104 1 0 0 0 0 0 255 238 222 255 238 222 254 221 204 255 222 221 0 0 0 0 0 0 0 0 0 0 0 0 18 0 1 154 0 2 103 0 1 103 0 1 0 1 0 155 1 1 203 1 1 204 0 3 222 0 0 221 0 0 238 0 0 222 0 0 204 0 0 154 0 0 154 0 0 84 0 0 0 0 0 255 255 255 255 255 255 255 255 255 255 255 255 255 255 255 255 255 255 255 255 255 255 255 255 255 255 255 255 255 255 255 255 255 255 255 255 255 255 255 255 255 255 255 255 255 255 255 255 255 254 255 254 255 255 255 255 255 255 255 255 255 255 255 255 255 255 0 0 0 221 205 171 221 203 153 1 0 0 254 238 222 255 238 222 254 237 221 255 238 222 255 237 223 1 0 0 236 220 186 237 221 187 219 203 169 221 187 152 221 186 154 220 187 134 205 187 139 170 152 102 171 153 103 170 136 99 0 0 2 254 238 222 255 238 222 255 238 222 255 221 220 255 222 220 0 0 0 0 0 0 0 0 0 1 1 1 0 0 2 104 0 1 1 1 1 154 0 0 153 1 0 154 0 0 154 0 0 153 0 2 155 0 0 154 0 0 155 0 2 154 0 0 66 1 0 0 2 1 255 255 253 255 255 255 254 255 255 254 254 254 255 255 255 255 254 255 255 255 255 255 255 255 255 255 255 255 255 255 255 255 255 255 255 255 255 255 255 255 255 255 255 255 255 255 255 255 255 255 255 255 255 255 255 255 255 255 255 255 255 255 255 255 255 255 0 0 0 220 204 170 219 186 135 221 187 150 171 154 102 1 1 1 255 237 223 255 239 223 255 238 222 0 0 0 237 221 188 237 221 187 220 204 170 221 187 152 222 202 152 221 188 137 220 185 153 221 203 153 205 187 137 170 152 102 168 152 101 170 136 99 0 2 1 255 239 223 255 222 221 255 237 222 255 238 222 255 204 187 255 187 156 0 0 0 152 0 1 156 0 1 0 0 2 0 0 0 0 0 0 155 0 0 154 0 0 153 0 1 154 0 2 154 0 0 154 0 0 152 0 0 18 0 0 0 0 0 254 254 252 255 255 255 255 255 255 255 253 254 255 255 255 255 254 255 255 255 255 255 255 255 255 255 255 255 255 255 255 255 255 255 255 255 255 255 255 255 255 255 255 255 255 255 255 255 255 255 255 255 255 255 255 255 255 255 255 255 255 255 255 255 254 255 255 255 253 0 0 0 221 187 152 220 187 136 204 186 138 170 152 102 0 0 0 255 171 137 255 236 221 1 1 1 237 221 187 237 221 187 222 204 168 221 186 154 219 187 136 222 188 153 220 186 138 222 186 136 219 185 137 220 187 136 186 170 119 173 153 103 170 152 102 172 152 102 0 0 2 255 238 222 255 239 223 255 237 223 255 238 222 255 204 187 254 186 151 1 1 1 0 1 0 153 0 0 154 0 0 1 0 0 0 1 0 0 0 2 0 0 0 0 0 0 2 1 0 0 1 0 0 0 2 0 0 0 255 255 255 254 255 255 255 255 255 255 255 253 255 255 255 255 255 253 254 255 255 255 255 255 255 255 255 255 255 255 255 255 255 255 255 255 255 255 255 255 255 255 255 255 255 255 255 255 255 255 255 255 255 255 255 255 255 255 255 255 255 255 255 255 255 255 255 255 255 0 0 0 203 187 153 204 186 136 202 186 150 170 152 102 170 152 102 1 0 2 254 172 135 255 238 223 0 0 2 237 221 185 222 204 154 220 187 152 221 188 135 220 187 136 219 187 138 204 186 136 203 187 138 204 170 133 204 186 136 187 152 120 186 152 104 171 153 103 170 152 102 170 152 102 0 0 0 255 237 222 254 236 222 255 238 222 255 238 222 255 204 185 252 186 152 1 1 0 221 1 1 170 0 0 154 0 0 1 0 0 255 255 253 254 255 255 255 254 255 255 255 255 255 255 253 254 255 253 255 255 255 255 255 255 254 254 254 255 255 255 254 255 255 255 255 253 255 255 255 255 255 255 255 255 255 255 255 255 255 255 255 255 255 255 255 255 255 255 255 255 255 255 255 255 255 255 255 255 255 255 255 255 255 255 255 255 255 255 255 255 255 255 255 255 253 255 252 255 255 255 0 0 0 0 0 0 170 152 102 172 152 102 170 152 102 170 152 102 0 0 0 255 171 137 0 0 0 222 204 154 221 205 171 221 187 152 220 186 138 187 169 119 170 152 102 170 152 102 170 152 102 170 152 102 187 153 118 170 152 102 169 153 102 172 152 102 170 152 102 170 153 101 170 152 102 17 17 19 255 238 222 255 238 222 255 238 222 254 237 221 255 238 222 255 203 187 253 187 153 1 0 0 238 0 0 188 0 0 170 0 0 0 0 0 255 255 255 255 255 255 255 255 253 255 255 255 255 255 255 255 255 255 255 255 255 255 255 255 255 255 255 255 255 255 255 255 255 255 255 253 255 255 255 255 255 255 255 255 255 255 255 255 255 255 255 255 255 255 255 255 255 255 255 255 255 255 255 255 255 255 255 255 255 255 255 255 255 255 255 255 255 255 255 255 255 255 254 255 0 0 0 255 255 255 255 255 255 0 0 0 170 152 102 170 152 102 170 152 102 0 0 0 255 171 137 0 0 0 224 204 154 221 187 152 204 186 136 187 153 118 187 153 118 0 0 0 1 1 1 0 0 0 0 0 0 0 0 0 0 0 0 0 0 0 169 152 100 170 152 102 171 153 103 169 151 101 169 153 102 0 0 0 255 238 222 255 237 222 255 238 222 255 238 222 255 204 187 255 186 153 0 0 0 222 0 0 189 1 0 238 0 0 0 0 0 255 255 255 255 255 253 255 255 255 255 255 255 255 255 255 255 255 255 255 255 255 255 255 255 254 255 255 255 255 255 255 255 255 254 255 255 255 254 255 255 255 255 255 255 255 255 255 255 255 255 255 255 255 255 255 255 255 255 255 255 0 0 0 0 0 0 255 255 255 255 255 253 255 255 255 255 255 255 255 255 255 255 255 255 0 0 0 255 255 255 255 255 255 0 0 0 0 0 0 170 152 102 170 152 102 0 0 0 0 0 0 221 203 153 221 203 155 222 204 154 0 0 0 0 0 0 0 0 0 204 221 237 204 221 237 205 238 255 205 238 255 205 238 255 205 238 255 205 238 255 0 0 0 0 0 0 0 0 0 170 153 101 170 152 104 0 0 0 254 221 204 255 237 222 255 238 222 255 239 221 255 238 222 255 204 187 255 186 153 0 0 0 222 0 0 188 0 0 238 0 0 0 1 0 255 255 255 255 255 255 255 255 255 255 255 255 255 255 255 255 255 255 255 255 255 255 255 255 255 255 255 255 255 255 255 255 255 255 255 255 255 255 255 255 255 255 255 255 255 255 255 255 255 255 255 255 255 255 1 1 1 0 0 2 255 205 188 0 0 2 0 0 0 255 255 255 255 255 255 255 255 255 255 255 255 0 0 0 206 239 255 239 255 255 0 0 0 255 255 255 0 0 0 0 1 0 254 204 169 0 0 2 223 205 169 0 0 0 0 0 0 0 0 0 222 220 221 255 255 255 255 255 255 255 255 255 255 255 255 254 255 255 255 254 255 222 239 255 205 238 255 205 238 255 205 238 255 206 237 255 1 1 1 0 0 0 0 0 0 253 222 204 255 237 222 255 238 222 255 238 222 255 238 222 255 203 189 255 186 153 0 1 0 238 0 0 170 0 0 238 0 0 0 0 2 255 255 255 255 255 255 255 255 255 254 254 254 255 255 255 255 255 255 255 255 255 255 255 255 255 255 255 255 255 255 255 255 255 255 255 255 255 255 255 255 255 255 255 255 255 255 255 255 255 255 253 254 255 255 0 0 0 254 221 204 255 204 187 255 238 236 255 238 238 1 0 0 255 255 255 0 0 0 0 0 0 0 1 0 205 238 253 205 238 253 0 1 0 0 0 0 1 1 0 254 204 169 254 221 204 1 1 0 0 0 0 0 0 0 0 0 0 0 0 0 255 255 255 255 255 255 255 255 255 254 254 254 255 255 255 255 254 255 254 255 255 255 255 255 255 255 255 255 255 253 205 238 255 205 238 255 205 238 255 204 240 254 35 17 15 255 222 187 254 238 222 255 238 222 255 238 222 255 238 222 255 238 222 255 203 189 254 185 152 0 0 0 223 0 0 223 0 0 238 0 0 0 0 0 255 255 253 254 254 254 255 255 253 255 255 255 255 255 255 255 255 255 255 255 255 255 255 255 255 255 255 255 255 255 255 255 255 255 255 255 255 255 255 255 255 255 255 255 255 255 255 255 255 255 255 0 0 0 255 186 189 255 119 83 255 119 87 255 187 188 253 237 238 1 1 1 1 0 2 0 0 0 1 0 0 0 2 0 2 0 3 16 17 3 255 186 153 255 205 170 255 204 187 255 238 223 0 0 0 1 1 1 255 255 255 0 0 0 1 1 1 255 255 255 255 255 255 255 254 255 255 255 255 255 255 255 255 255 255 255 254 255 255 255 255 255 255 255 255 255 255 255 255 253 205 238 255 205 238 255 0 0 2 255 154 103 254 221 204 255 238 223 255 237 223 255 237 223 255 237 222 255 238 222 255 205 186 253 187 153 0 0 2 255 32 33 236 0 0 238 0 0 0 0 0 255 254 255 255 255 255 254 254 254 255 255 255 255 255 255 255 255 255 255 255 255 255 255 255 255 255 255 255 255 255 255 255 255 255 255 255 255 255 255 255 255 255 255 255 255 255 255 255 0 0 0 255 154 136 255 118 84 255 120 88 255 119 83 255 120 84 255 136 119 254 221 202 0 0 0 188 135 101 221 173 137 1 0 0 0 0 0 255 154 100 254 170 136 255 204 167 254 223 221 253 237 221 1 1 1 1 0 0 1 1 1 2 0 1 1 0 0 255 255 255 254 254 252 254 254 254 255 255 255 255 255 255 255 255 255 254 255 255 254 254 254 255 255 255 255 255 255 202 237 255 206 239 255 204 237 254 1 0 0 255 154 102 255 220 206 250 237 220 254 238 222 255 239 223 255 238 222 255 238 223 255 238 222 255 186 155 1 0 0 239 1 1 255 68 67 238 0 0 237 0 1 1 1 0 255 254 255 255 255 255 255 255 255 255 255 255 255 255 255 255 255 255 255 255 255 255 255 255 255 255 255 255 255 255 255 255 255 255 255 255 255 255 255 255 255 255 255 255 255 0 0 0 255 154 136 255 120 86 255 119 83 255 120 88 255 119 85 254 120 85 255 154 136 255 188 189 0 1 0 236 169 152 253 187 153 239 203 189 1 1 1 255 154 102 255 153 120 254 185 152 255 221 220 255 152 101 0 2 1 0 0 2 0 0 0 255 255 255 255 255 255 255 255 255 255 255 255 255 255 255 255 255 255 254 255 255 255 255 255 255 255 253 255 254 255 222 238 254 206 237 255 203 239 255 1 0 0 255 154 102 255 220 206 254 221 204 255 204 190 255 238 222 254 238 222 255 238 222 254 238 222 255 237 222 255 204 187 255 187 154 0 0 0 254 86 85 222 0 0 236 1 0 0 0 0 254 255 255 255 255 255 255 255 255 255 255 255 255 255 255 255 255 255 255 255 255 255 255 255 255 255 255 255 255 255 255 255 255 255 255 255 255 255 255 255 255 255 255 255 255 0 0 0 255 153 136 255 118 85 254 120 85 255 118 82 255 119 83 255 119 83 255 118 84 254 168 169 255 119 85 0 0 0 238 169 153 254 204 171 255 221 220 0 0 2 255 154 102 255 187 152 255 237 222 255 238 222 0 0 0 0 0 0 255 255 255 254 254 254 255 255 255 254 254 254 255 255 255 255 255 255 254 254 254 255 255 255 255 255 255 254 255 255 205 238 255 205 238 255 187 221 255 0 0 0 255 154 102 255 204 187 255 220 186 255 187 152 254 221 204 254 237 221 254 237 219 254 238 223 255 237 222 255 238 222 255 204 187 255 186 153 0 1 0 255 32 36 238 34 35 238 0 0 0 0 0 0 0 0 255 255 255 255 254 255 255 255 255 255 255 255 255 255 255 255 255 255 255 255 255 255 255 255 255 255 255 255 255 255 255 255 255 255 255 255 255 255 255 0 0 0 255 169 172 255 119 85 187 86 68 221 102 68 255 119 85 221 85 69 255 119 85 255 118 84 255 119 85 255 169 170 255 119 85 0 0 0 255 186 153 255 203 187 255 238 222 0 0 0 255 186 153 255 186 153 255 238 222 255 154 102 17 17 17 255 255 255 255 254 255 255 255 255 254 255 255 255 255 253 255 255 255 255 255 255 255 255 255 239 238 255 205 238 255 205 238 255 205 238 255 0 0 2 255 154 102 254 185 152 254 221 204 255 186 153 255 171 137 255 238 222 255 237 223 255 238 222 255 238 222 255 238 222 255 238 222 255 204 187 255 187 154 0 0 0 238 0 0 239 51 50 237 0 0 0 0 0 255 153 104 0 0 0 255 255 255 255 255 255 255 255 255 255 255 255 255 255 255 255 255 255 255 255 255 255 255 255 255 255 255 255 255 255 255 255 255 255 255 255 0 0 0 255 154 136 255 118 85 0 0 0 205 85 68 255 119 85 51 17 16 221 85 69 255 119 85 255 119 85 255 119 85 254 187 170 1 1 1 255 186 153 255 186 153 254 221 206 255 238 222 0 0 0 254 185 152 255 186 153 255 238 222 255 154 102 0 0 2 255 255 255 255 255 255 255 255 255 221 238 254 205 238 255 205 238 255 205 238 253 205 238 255 205 238 255 205 238 255 0 0 0 255 154 102 255 186 153 255 204 187 255 172 138 255 154 102 255 238 222 255 238 222 255 238 222 255 238 222 255 238 222 255 238 222 255 238 220 255 204 187 255 186 153 0 0 0 238 0 0 222 0 0 238 0 0 0 0 0 255 154 102 0 0 0 255 255 255 255 254 255 255 255 255 255 255 255 255 255 255 254 254 254 255 255 255 255 255 255 255 255 255 255 255 255 255 255 255 255 255 255 1 1 1 255 152 120 255 118 84 0 0 0 170 69 51 255 119 83 2 0 1 68 17 16 255 118 85 255 119 85 255 118 85 255 118 84 221 51 34 0 0 0 255 186 153 254 204 169 255 221 222 255 238 224 0 0 0 255 185 153 255 221 186 255 237 222 255 154 102 0 0 0 0 0 0 0 0 0 204 222 236 205 238 255 205 238 253 205 236 254 0 0 0 0 1 0 0 0 0 255 152 119 255 186 153 254 187 170 255 154 102 255 154 102 253 222 204 254 237 221 255 238 222 255 239 223 255 238 222 255 237 222 255 238 222 255 238 222 254 205 188 255 186 153 1 1 1 238 0 0 238 0 0 236 0 0 0 0 0 255 154 102 255 185 153 0 0 0 254 254 252 255 255 255 255 255 255 255 255 255 255 255 255 255 255 255 255 255 255 255 255 255 255 255 255 255 255 255 255 255 255 0 0 0 254 135 101 255 119 85 0 0 0 153 67 50 255 137 120 32 1 0 18 0 0 68 17 16 255 118 85 255 120 88 255 119 85 255 119 85 0 0 0 254 154 122 255 186 153 255 221 186 254 237 221 2 0 1 0 0 0 255 187 152 255 237 223 255 237 222 255 238 222 255 154 102 255 155 103 0 0 2 1 1 1 0 0 2 1 1 0 255 153 102 255 154 102 255 154 102 255 171 137 255 152 104 255 154 102 255 172 138 255 238 222 255 237 222 255 238 222 254 238 222 255 238 222 255 237 222 254 238 222 255 239 223 255 238 222 255 204 187 255 185 153 1 0 0 236 0 2 189 1 0 238 0 0 0 1 0 255 154 102 255 186 153 0 0 2 255 255 255 255 255 255 254 254 252 255 255 255 254 254 252 255 255 255 255 255 255 255 254 255 255 255 255 255 255 255 255 255 255 0 0 0 255 119 87 255 119 87 0 0 0 152 66 49 255 138 120 52 18 17 0 0 0 34 17 0 255 121 86 255 119 103 255 118 84 255 120 86 18 0 0 240 136 101 255 155 101 254 204 169 255 221 221 255 239 223 0 0 0 254 204 169 255 221 219 255 237 222 255 237 222 255 238 222 254 238 222 255 153 102 255 151 103 255 153 102 255 152 101 255 154 105 255 154 102 254 154 102 253 153 119 254 171 137 255 238 222 254 237 221 255 238 224 255 238 220 255 238 222 255 238 222 255 238 222 255 238 222 255 238 222 254 237 221 255 237 222 255 204 187 255 186 153 0 0 0 239 0 0 189 0 0 238 0 0 0 0 2 255 154 102 255 186 153 253 187 153 0 1 0 254 254 254 255 255 255 255 255 253 255 255 255 255 255 253 255 255 255 255 255 255 255 255 255 255 255 255 255 255 255 0 0 0 255 119 83 255 119 85 17 0 0 120 69 52 254 168 169 99 50 33 0 0 0 68 16 18 102 51 48 255 154 121 255 120 88 255 119 83 238 68 35 18 0 0 255 154 102 254 186 151 252 221 203 255 238 222 253 205 169 254 220 185 255 221 222 255 238 220 255 238 222 255 238 222 255 238 222 254 237 221 255 239 221 254 239 220 255 239 221 254 237 221 255 238 222 255 238 222 255 238 223 255 238 222 255 236 219 255 239 223 254 237 219 255 237 223 255 238 222 255 238 222 255 238 222 254 237 219 255 237 223 255 238 222 255 238 222 254 203 186 255 186 153 0 0 0 188 0 1 170 2 1 237 0 0 0 0 0 255 154 102 255 186 153 255 185 153 0 0 0 255 255 255 255 255 253 255 255 255 255 255 253 255 255 255 255 255 253 254 254 252 255 255 255 255 255 255 255 255 255 0 0 0 255 119 85 255 119 85 187 85 70 153 119 117 255 170 150 239 102 84 0 1 0 0 0 0 1 0 0 255 154 136 255 118 84 255 120 86 238 68 33 0 0 2 255 154 102 255 186 153 255 222 205 254 237 221 255 237 222 255 237 223 255 237 222 254 238 223 255 238 222 255 238 222 254 237 221 255 238 222 255 237 223 255 238 222 255 237 223 255 239 223 255 239 223 254 238 222 255 238 220 254 237 221 255 239 223 254 237 221 255 238 224 255 238 222 255 239 223 255 238 222 255 238 220 255 238 222 255 238 222 255 238 222 255 238 222 255 204 187 255 187 154 0 0 0 188 0 0 171 0 0 188 0 0 1 0 0 254 154 102 253 187 152 253 187 153 255 154 102 0 0 0 255 255 255 255 255 255 255 255 255 0 0 0 0 1 0 255 255 253 255 255 255 255 255 255 255 255 255 0 0 0 255 119 83 255 119 85 255 119 103 255 169 154 255 119 85 254 120 85 102 34 35 99 68 66 204 136 137 255 186 189 255 119 85 255 119 85 221 51 34 0 0 0 255 155 103 255 186 153 255 221 186 255 238 222 254 237 221 255 238 222 255 237 223 255 238 222 255 238 222 255 238 222 255 238 222 255 238 222 255 238 222 254 237 221 254 238 222 255 238 222 255 238 222 255 238 222 255 237 222 254 238 222 255 238 223 255 238 222 255 237 222 255 237 223 255 237 223 255 238 220 255 238 222 255 238 222 255 238 222 255 238 222 255 238 222 255 204 187 255 186 153 0 0 0 188 0 0 170 0 0 155 0 0 0 0 0 254 154 102 255 186 153 255 186 153 255 154 102 0 0 0 255 255 255 255 255 255 0 0 0 255 154 102 255 153 102 0 0 0 0 0 0 255 255 255 255 255 255 255 255 255 0 0 0 255 119 85 255 119 85 255 119 85 255 119 85 255 119 85 255 119 85 254 187 170 255 186 170 255 153 120 255 119 83 238 68 51 221 51 34 18 0 0 255 154 102 255 186 153 254 222 184 255 238 220 255 238 222 255 238 222 255 238 222 255 238 222 255 237 223 255 238 222 255 238 222 254 237 221 255 238 222 255 238 222 255 238 222 255 238 222 255 238 222 255 239 223 255 238 222 255 238 222 255 238 222 255 238 222 255 238 222 255 238 222 255 238 222 255 238 222 255 237 220 255 238 222 255 238 222 255 238 222 255 238 222 254 204 169 0 0 0 188 0 0 170 0 0 154 0 0 155 0 0 0 0 2 255 154 100 255 186 153 255 186 153 255 154 102 0 1 0 255 255 255 255 255 255 0 0 0 255 154 100 17 17 17 255 154 102 0 0 0 255 255 255 0 0 0 255 255 255 255 255 255 0 0 0 255 101 86 255 118 85 255 119 85 255 119 85 255 119 85 255 119 85 255 119 87 255 102 86 238 68 51 221 51 34 0 0 0 255 154 102 254 154 102 255 185 153 254 204 169 254 221 204 255 238 222 255 238 222 255 237 223 254 237 221 255 237 222 255 238 222 254 237 221 255 239 223 255 237 223 255 237 223 255 238 220 255 238 222 255 237 222 255 238 222 255 238 222 255 238 222 255 238 238 255 238 222 255 238 222 255 238 222 255 238 222 255 238 222 255 237 223 255 238 222 255 238 222 254 221 204 255 221 186 254 204 169 0 0 2 188 0 0 169 1 0 153 0 0 0 0 0 255 154 102 255 186 153 255 186 153 255 186 153 255 170 119 255 154 102 0 1 0 0 0 0 0 0 0 0 0 0 16 17 1 255 154 102 0 0 0 0 0 0 0 1 0 255 255 255 255 255 255 255 255 253 0 0 0 255 119 83 255 118 84 220 67 33 222 68 34 221 68 36 238 68 33 238 68 51 238 68 51 0 0 0 255 155 103 255 153 102 254 154 102 255 186 153 255 186 153 255 204 185 254 237 221 255 239 223 254 238 222 255 239 223 255 238 222 255 238 220 255 238 222 255 238 222 254 238 222 255 238 222 254 238 222 255 238 222 255 238 222 254 238 222 255 238 224 254 255 239 255 238 222 255 238 222 255 238 222 255 238 222 255 238 222 255 238 222 255 238 222 255 238 220 254 221 204 255 203 187 253 188 170 254 187 170 0 0 0 188 0 0 154 0 0 153 0 0 0 0 0 255 221 220 255 186 153 255 187 152 255 186 153 255 169 119 255 153 104 1 1 1 255 154 102 255 154 102 255 155 103 255 154 102 35 17 17 34 16 16 255 154 102 0 0 0 255 255 255 255 255 255 255 255 255 255 255 253 0 0 2 1 1 1 0 0 0 0 0 0 0 0 0 0 0 0 1 0 0 1 1 0 255 154 102 254 154 102 255 154 102 255 186 153 255 186 153 255 186 155 255 203 189 255 238 222 254 236 222 255 238 222 255 238 222 255 238 222 255 237 223 255 238 222 255 238 222 254 237 221 254 238 222 254 237 219 254 238 222 254 237 221 255 238 222 254 238 238 255 255 255 255 238 222 255 238 222 255 238 222 255 238 222 255 238 222 255 237 223 255 237 223 254 221 204 255 184 152 255 186 153 255 187 152 0 0 0 171 2 0 170 0 1 154 0 0 155 1 1 0 0 0 255 222 221 255 186 155 255 186 153 255 186 153 254 153 101 255 152 99 0 0 0 0 0 0 0 0 0 0 0 0 0 0 2 0 1 0 0 1 0 0 0 0 255 254 255 255 254 255 255 255 255 255 255 253 254 254 255 255 254 255 255 254 255 1 0 0 0 0 0 255 155 103 255 154 102 255 156 101 255 154 102 255 154 100 255 153 100 254 154 104 255 185 153 255 186 153 255 186 153 253 205 167 255 220 204 255 239 223 253 238 219 255 238 222 255 237 223 255 237 222 254 238 222 255 238 222 255 237 223 255 237 220 255 237 223 255 237 222 255 237 222 255 239 223 255 253 254 255 255 255 254 236 222 255 238 220 255 238 222 255 238 222 254 237 221 254 237 221 255 221 219 255 204 167 255 187 154 254 185 152 255 186 155 0 0 0 154 0 0 155 1 1 153 0 2 0 0 0 255 222 223 255 220 188 254 185 152 255 186 153 255 170 119 255 154 102 255 153 104 0 2 1 254 255 255 254 254 252 255 255 253 255 255 253 255 254 255 255 254 255 254 254 254 255 255 255 255 255 255 255 255 255 254 254 254 255 255 255 254 255 255 254 255 255 255 255 253 255 255 255 0 0 2 1 1 1 254 153 101 254 155 100 255 153 105 255 170 121 255 186 153 254 185 152 255 186 153 255 185 153 255 186 153 254 204 169 254 221 204 255 221 207 254 237 221 255 238 222 254 238 222 255 237 222 255 239 223 255 236 221 254 239 220 255 238 220 254 238 222 253 237 221 254 220 221 255 255 255 254 254 254 255 238 222 255 237 223 255 237 220 255 238 222 255 239 223 255 238 224 254 221 206 255 187 154 254 185 152 255 186 153 0 0 0 154 0 0 154 0 0 153 0 1 1 0 0 255 222 221 253 220 203 255 187 152 254 185 152 255 186 153 255 170 121 255 154 102 0 0 0 255 255 255 255 255 255 255 255 255 255 255 255 254 254 255 254 255 255 254 255 255 255 255 255 255 253 254 255 255 255 255 255 255 255 255 255 254 254 254 255 255 253 255 254 255 255 254 255 255 255 255 254 254 252 255 255 255 1 1 0 255 154 102 254 154 104 255 171 135 255 185 155 255 186 153 255 186 153 253 187 153 255 186 153 253 187 153 254 204 169 255 204 187 255 204 187 254 221 204 255 221 222 255 237 223 254 236 222 255 238 224 255 237 222 255 237 223 255 238 222 255 239 223 0 0 0 254 254 254 255 239 221 255 238 222 255 239 223 255 237 223 255 238 222 255 238 222 254 221 204 254 204 167 255 186 153 255 187 154 255 186 153 1 0 0 155 1 1 154 0 0 154 0 0 0 1 0 254 220 221 255 203 187 252 186 152 255 187 152 253 187 155 254 153 101 255 154 102 0 0 2 255 255 255 255 255 255 255 255 255 255 255 253 254 255 255 255 254 255 255 253 254 254 254 254 255 255 253 255 254 255 255 255 255 255 255 255 255 255 255 255 255 255 254 255 255 255 255 255 255 255 255 255 255 255 255 255 255 255 255 255 0 1 0 2 0 1 255 154 102 254 154 102 255 186 153 255 187 152 254 185 152 255 186 153 255 186 153 255 186 153 255 186 155 255 186 153 254 187 170 252 204 168 255 204 187 255 220 188 254 221 202 253 221 206 254 221 204 254 221 204 254 221 204 0 0 0 255 255 255 255 238 222 255 237 223 255 238 222 255 237 222 254 238 222 255 238 220 255 220 188 255 186 153 255 187 154 254 185 152 1 1 1 152 0 0 154 0 0 0 0 0 0 2 1 255 221 220 255 222 205 254 204 169 254 185 152 255 186 153 255 170 119 255 154 102 0 0 0 255 255 253 255 255 255 254 255 255 255 255 255 255 255 255 254 254 254 255 255 255 255 255 255 255 255 255 255 254 255 255 255 255 255 255 255 255 255 255 255 255 255 255 255 255 255 255 255 255 255 255 255 255 255 255 255 255 255 255 255 255 255 255 254 254 254 255 255 255 0 0 0 0 0 0 255 154 102 255 153 102 253 187 153 255 186 153 255 185 153 254 187 170 254 187 170 254 187 170 254 187 170 254 187 170 253 186 169 253 188 170 254 204 169 254 204 169 255 203 169 254 204 169 254 187 170 0 0 0 255 254 255 255 238 222 255 238 222 255 238 222 255 238 222 255 238 222 254 221 204 253 188 170 255 186 153 255 186 153 255 186 153 0 0 0 154 0 0 0 1 0 0 0 0 255 255 255 255 221 220 255 221 186 255 186 153 255 186 153 255 187 154 255 154 102 255 154 102 0 0 0 255 255 255 254 255 255 255 255 255 254 255 255 254 255 255 255 255 255 255 255 255 255 255 255 255 255 255 255 255 255 255 255 255 255 255 255 255 255 255 255 255 255 255 255 255 255 255 255 255 255 255 255 255 255 255 255 255 255 255 255 255 255 255 255 255 255 255 255 255 255 255 255 255 255 255 0 0 0 1 0 0 255 154 102 255 153 104 255 186 153 255 186 153 255 186 153 254 187 170 254 187 170 255 186 170 254 187 170 254 187 170 254 187 170 254 187 170 254 187 170 255 186 153 255 185 155 0 0 0 255 255 253 255 238 222 255 238 222 255 239 223 255 238 222 253 222 220 254 204 169 255 186 153 255 186 153 255 186 153 0 0 0 154 0 0 0 0 0 255 186 153 1 0 0 255 255 253 254 221 204 255 204 187 255 186 153 255 186 153 255 171 137 255 154 102 0 0 0 255 255 255 255 255 255 255 255 255 255 255 255 255 255 255 255 255 255 255 255 255 255 255 255 255 255 255 255 255 255 255 255 255 255 255 255 255 255 255 255 255 255 255 255 255 255 255 255 255 255 255 255 255 255 255 255 255 255 255 255 255 255 255 255 255 255 255 255 255 255 255 255 255 255 255 255 255 255 255 255 255 255 255 255 0 0 0 0 0 0 255 155 103 255 154 102 255 154 102 255 154 102 255 154 102 255 154 102 255 171 117 255 186 153 254 187 168 254 187 170 254 187 170 255 189 136 254 153 101 0 0 2 255 238 220 253 222 220 255 239 223 255 238 222 255 237 223 255 221 205 254 185 152 255 185 153 255 186 153 0 0 0 155 1 1 1 0 0 255 154 102 0 0 2 255 255 255 254 221 204 254 221 204 254 187 170 255 186 153 255 185 153 254 154 120 255 153 102 0 0 0 255 255 255 255 255 255 255 255 255 255 255 255 255 255 255 255 255 255 255 255 255 255 255 255 255 255 255 255 255 255 255 255 255 255 255 255 255 255 255 255 255 255 255 255 255 255 255 255 255 255 255 255 255 255 255 255 255 255 255 255 255 255 255 255 255 255 255 255 255 255 255 255 255 255 255 255 255 255 255 255 255 255 255 255 255 255 255 255 255 255 0 0 0 1 0 2 2 0 1 1 0 0 0 0 0 254 153 101 254 153 101 255 152 104 255 154 102 255 155 99 255 154 100 255 153 104 255 154 102 0 0 0 1 1 3 0 0 0 1 1 0 0 0 2 255 222 203 253 205 169 255 186 155 253 187 153 255 187 152 0 0 0 0 0 2 253 153 103 255 153 102 0 0 0 255 255 255 254 221 204 255 205 186 255 184 152 254 188 154 255 171 137 255 153 105 0 0 0 255 255 255 255 255 255 255 255 255 255 255 255 255 255 255 255 255 255 255 255 255 255 255 255 255 255 255 255 255 255 255 255 255 255 255 255 255 255 255 255 255 255 255 255 255 255 255 255 255 255 255 255 255 255 255 255 255 255 255 255 255 255 255 255 255 255 255 255 255 255 255 255 255 255 255 255 255 255 255 255 255 255 255 255 255 255 255 255 255 255 255 255 253 2 0 1 101 68 14 85 51 16 85 51 16 67 53 18 0 1 3 0 0 2 0 0 0 0 1 0 0 0 2 0 0 2 1 1 1 0 0 0 0 1 0 137 100 32 101 68 17 85 51 14 86 52 15 0 0 0 255 185 155 255 186 153 255 186 155 0 0 2 0 0 0 1 0 0 1 0 0 0 2 1 0 0 0 1 0 0 0 0 0 255 203 189 254 188 156 255 187 154 254 153 101 0 1 0 255 254 255 255 254 255 255 255 255 255 255 255 255 255 255 255 255 255 255 255 255 255 255 255 255 255 255 255 255 255 255 255 255 255 255 255 255 255 255 255 255 255 255 255 255 255 255 255 255 255 255 255 255 255 255 255 255 255 255 255 255 255 255 255 255 255 255 255 255 255 255 255 254 254 254 255 255 255 255 255 255 255 255 255 255 255 255 254 254 252 255 255 255 255 255 255 0 0 0 120 85 21 86 50 16 85 51 16 86 50 16 84 50 15 85 51 16 0 0 0 255 254 255 255 255 253 255 255 253 255 255 255 0 0 0 0 0 0 117 85 34 85 50 18 85 51 16 85 50 20 86 52 15 0 1 0 0 0 2 1 1 0 255 255 253 255 255 255 254 255 255 253 254 255 1 0 0 85 52 0 83 50 15 67 51 17 0 0 0 254 185 152 255 170 119 255 155 101 1 1 3 254 255 255 255 255 255 255 255 255 255 255 255 255 255 255 255 255 255 255 255 255 255 255 255 255 255 255 255 255 255 255 255 255 255 255 255 255 255 255 255 255 255 255 255 255 255 255 255 255 255 255 255 255 255 255 255 255 255 255 255 255 255 255 255 255 255 255 255 255 255 255 255 255 255 255 255 255 255 255 255 255 255 255 255 255 255 255 255 255 255 255 255 255 254 255 255 0 0 0 118 85 32 85 49 13 85 50 18 85 51 16 85 50 18 0 0 2 255 255 255 254 255 255 254 255 255 252 255 255 255 255 255 255 255 255 0 0 0 120 84 34 84 50 15 85 67 17 84 51 16 86 50 16 86 50 16 86 50 14 0 0 2 255 254 255 255 254 255 254 254 252 255 255 255 0 2 1 84 49 17 68 50 0 66 33 18 67 51 17 1 0 0 255 154 102 0 0 2 254 255 255 255 255 255 255 255 253 255 255 255 255 255 255 255 255 255 255 255 255 255 255 255 255 255 255 255 255 255 255 255 255 255 255 255 255 255 255 255 255 255 255 255 255 255 255 255 255 255 255 255 255 255 255 255 255 255 255 255 255 255 255 255 255 255 255 255 255 255 255 255 255 255 255 255 255 255 255 255 255 255 255 255 255 255 255 255 255 255 255 255 255 255 255 253 255 255 255 1 0 2 0 0 2 50 34 0 85 51 16 86 50 16 0 0 0 255 254 255 255 254 255 255 255 255 255 255 255 255 254 255 255 255 255 255 255 255 0 0 0 118 85 34 86 52 17 85 50 18 85 51 16 85 67 17 0 0 0 0 0 0 255 255 255 255 255 255 255 255 255 255 255 255 255 255 255 1 0 0 67 51 15 67 51 17 67 51 17 67 51 17 0 0 0 1 1 1 255 255 255 255 255 255 255 255 255 255 255 255 255 255 255 255 255 255 255 255 255 255 255 255 255 255 255 255 255 255 255 255 255 255 255 255 255 255 255 255 255 255 255 255 255 255 255 255 255 255 255 255 255 255 255 255 255 255 255 255 255 255 255 255 255 255 255 255 255 255 255 255 255 255 255 255 255 255 255 255 255 255 255 255 255 255 255 255 255 255 255 255 255 255 255 255 255 255 255 255 255 255 255 255 255 0 0 0 0 0 0 0 0 0 0 0 0 255 255 255 255 255 255 255 255 255 255 255 255 255 255 255 255 255 255 255 255 255 254 255 255 0 0 0 0 0 0 0 0 0 0 0 0 0 0 0 0 0 0 254 254 254 255 255 255 255 255 255 255 255 255 255 255 253 255 255 255 255 255 255 255 255 255 0 0 0 0 0 0 0 0 0 0 0 0 254 254 254 255 255 255 255 255 255 255 255 255 255 255 255 255 255 255 255 255 255 255 255 255 255 255 255 255 255 255 255 255 255 255 255 255 255 255 255 255 255 255 255 255 255 255 255 255 255 255 255 255 255 255 255 255 255 255 255 255 255 255 255 255 255 255 255 255 255 255 255 255 255 255 255 255 255 255 255 255 255 255 255 255 255 255 255 255 255 255 255 255 255 255 255 255 255 255 255 255 255 255 255 255 255 255 255 255 255 255 255 255 255 255 255 255 255 255 255 255 255 255 255 255 255 255 255 255 255 255 255 255 255 255 255 255 255 255 255 255 255 255 255 255 255 255 255 255 255 255 255 255 255 255 255 255 255 255 255 255 255 255 255 255 255 255 255 255 255 255 255 255 255 255 255 255 255 255 255 255 255 255 255 255 255 255 255 255 255 255 255 255 255 255 255 255 255 255 255 255 255 255 255 255 255 255 255 255 255 255 255 255 255 255 255 255 255 255 255 255 255 255 255 255 255 255 255 255 255 255 255 255 255 255 255 255 255 255 255 255 255 255 255 255 255 255 255 255 255 255 255 255 