P3 67 57 255
255 255 255 255 255 255 255 255 255 255 255 255 255 255 255 255 255 255 255 255 255 255 255 255 255 255 255 255 255 255 255 255 255 255 255 255 255 255 255 255 255 255 255 255 255 255 255 255 255 255 255 255 255 255 255 255 255 255 255 255 255 255 255 255 255 255 255 255 255 255 255 255 255 255 255 255 255 255 255 255 255 255 255 255 255 255 255 255 255 255 255 255 255 255 255 255 255 255 255 255 255 255 255 255 255 255 255 255 255 255 255 255 255 255 255 255 255 255 255 255 255 255 255 255 255 255 253 254 255 254 254 254 255 255 255 255 255 255 255 255 255 255 255 255 255 255 255 255 255 255 255 255 255 255 255 255 255 255 255 255 255 255 255 255 255 255 255 255 255 255 255 255 255 255 255 255 255 255 255 255 255 255 255 255 255 255 255 255 255 255 255 255 255 255 255 255 255 255 255 255 255 255 255 255 255 255 255 255 255 255 255 255 255 255 255 255 255 255 255 255 255 255 255 255 255 255 255 255 255 255 255 255 255 255 255 255 255 255 255 255 255 255 255 255 255 255 255 255 255 255 255 255 255 255 255 255 255 255 255 255 255 255 255 255 255 255 255 255 255 255 255 255 255 255 255 255 255 255 255 255 255 255 255 255 255 255 255 255 255 255 255 255 255 255 255 255 255 255 255 255 255 255 255 255 255 255 255 255 255 255 255 255 255 255 255 255 255 255 255 255 255 255 255 255 255 255 255 254 255 254 255 255 255 255 254 254 255 255 255 255 255 255 255 255 255 255 255 255 255 255 255 255 255 255 255 255 255 255 255 255 255 255 255 255 255 255 255 255 255 255 255 255 255 255 255 255 255 255 255 255 255 255 255 255 255 255 255 255 255 255 255 255 255 255 255 255 255 255 255 255 255 255 255 255 255 255 255 255 255 255 255 255 255 255 255 255 255 255 255 255 255 255 255 255 255 255 255 255 255 255 255 255 255 255 255 255 255 255 255 255 255 255 255 255 255 255 255 255 255 255 255 255 255 255 255 255 255 255 255 255 255 255 255 255 255 255 255 255 255 255 255 255 255 255 255 255 255 255 255 255 255 255 255 255 255 255 255 255 255 255 255 255 255 255 255 255 255 255 255 255 255 255 255 255 255 255 255 255 255 255 255 255 255 255 255 255 255 255 255 255 255 255 255 255 255 255 255 255 255 255 255 255 255 255 255 255 255 255 255 255 255 255 255 255 255 255 255 255 255 255 255 255 255 255 255 255 255 255 255 255 255 255 255 255 255 255 255 255 255 255 255 255 255 255 255 255 255 255 255 255 255 255 255 255 255 255 255 255 255 255 255 255 255 255 255 255 255 255 255 255 255 255 255 255 255 255 255 255 255 255 255 255 255 255 255 255 255 255 255 255 255 255 255 255 255 255 255 255 255 255 255 255 255 255 255 255 255 255 255 255 255 255 255 255 255 255 255 255 255 255 255 255 255 255 255 255 255 255 255 255 255 255 255 255 255 255 255 255 255 255 255 255 255 255 255 255 255 255 255 255 255 255 255 255 255 255 255 255 255 255 255 255 255 255 255 255 255 255 255 255 255 255 255 255 255 255 255 255 255 255 255 255 255 255 255 255 255 255 255 255 255 255 255 253 254 255 255 254 254 254 255 254 255 255 255 255 253 255 253 254 255 255 255 255 255 255 255 255 255 255 255 255 255 255 255 255 255 255 255 255 255 255 255 255 255 255 255 255 255 255 255 255 255 255 255 255 255 255 255 255 255 255 255 255 255 255 255 255 255 255 255 255 255 255 255 255 255 255 255 255 255 255 255 255 255 255 255 255 255 255 255 255 255 255 255 255 255 255 255 255 255 255 255 255 255 255 255 255 255 255 255 255 255 255 255 255 255 255 255 255 255 255 255 255 255 255 255 255 255 255 255 255 255 255 255 255 255 255 255 255 255 255 255 255 255 255 255 255 255 255 255 255 255 255 255 255 255 255 255 255 255 255 255 255 255 255 255 255 255 255 255 255 255 255 255 255 255 255 255 255 255 255 255 255 255 255 255 255 255 255 255 255 255 255 255 255 255 255 255 255 255 255 255 255 255 255 255 254 255 254 253 254 255 255 255 255 253 254 255 255 255 255 255 255 255 255 255 255 255 255 255 255 255 255 255 255 255 255 255 255 255 255 255 255 255 255 255 255 255 255 255 255 255 255 255 255 255 255 255 255 255 255 255 255 255 255 255 255 255 255 255 255 255 255 255 255 255 255 255 255 255 255 255 255 255 255 255 255 255 255 255 255 255 255 255 255 255 255 255 255 255 255 255 255 255 255 255 255 255 255 255 255 255 255 255 255 255 255 255 255 255 255 255 255 255 255 255 255 255 255 255 255 255 255 255 255 255 255 255 255 255 255 255 255 255 255 255 255 255 255 255 255 255 255 255 255 255 255 255 255 255 255 255 255 255 255 255 255 255 255 255 255 255 255 255 255 255 255 255 255 255 255 255 255 255 255 255 255 255 255 255 255 255 255 255 255 255 255 255 255 255 255 255 255 255 255 255 255 254 254 254 255 255 255 253 254 255 254 254 254 255 255 255 255 255 255 254 255 254 255 255 255 255 255 255 255 255 255 255 255 255 255 255 255 255 255 255 255 255 255 255 255 255 255 255 255 255 255 255 255 255 255 255 255 255 255 255 255 255 255 255 255 255 255 255 255 255 255 255 255 255 255 255 255 255 255 255 255 255 255 255 255 255 255 255 255 255 255 255 255 255 255 255 255 255 255 255 255 255 255 255 255 255 255 255 255 255 255 255 255 255 255 255 255 255 255 255 255 255 255 255 255 255 255 255 255 255 255 255 255 255 255 255 255 255 255 255 255 255 255 255 255 255 255 255 255 255 255 255 255 255 255 255 255 255 255 255 255 255 255 255 255 255 255 255 255 255 255 255 255 255 255 255 255 255 255 255 255 255 255 255 255 255 255 255 255 255 255 255 255 255 255 255 255 255 255 255 255 255 255 255 255 2 0 2 0 0 0 255 255 255 255 255 255 255 255 255 255 255 255 255 255 255 255 255 255 255 255 255 255 255 255 255 255 255 255 255 255 255 255 255 255 255 255 255 255 255 255 255 255 255 255 255 255 255 255 255 255 255 255 255 255 255 255 255 255 255 255 255 255 255 255 255 255 255 255 255 255 255 255 255 255 255 255 255 255 255 255 255 255 255 255 255 255 255 255 255 255 255 255 255 255 255 255 255 255 255 255 255 255 255 255 255 255 255 255 255 255 255 255 255 255 255 255 255 255 255 255 255 255 255 255 255 255 255 255 255 255 255 255 255 255 255 255 255 255 255 255 255 255 255 255 255 255 255 255 255 255 255 255 255 255 255 255 255 255 255 255 255 255 255 255 255 255 255 255 255 255 255 255 255 255 255 255 255 255 255 255 255 255 255 255 255 255 255 255 255 253 254 255 0 0 0 85 255 170 0 188 94 2 1 0 255 255 255 253 254 255 255 255 255 255 255 255 255 255 255 255 255 255 255 255 255 255 255 255 255 255 255 255 255 255 255 255 255 255 255 255 255 255 255 255 255 255 255 255 255 255 255 255 255 255 255 255 255 255 255 255 255 255 255 255 255 255 255 255 255 255 255 255 255 255 255 255 255 255 255 255 255 255 255 255 255 255 255 255 255 255 255 255 255 255 255 255 255 255 255 255 252 253 254 255 255 255 255 253 255 255 254 254 255 255 255 255 255 255 255 255 255 255 255 255 255 255 255 255 255 255 255 255 255 255 255 255 255 255 255 254 255 254 255 255 255 255 255 255 255 255 255 254 254 254 255 255 255 255 255 255 255 255 255 255 255 255 255 255 255 255 255 255 255 255 255 255 255 255 255 255 255 255 255 255 255 255 255 255 255 255 2 1 0 85 255 170 0 205 101 0 154 77 0 0 0 255 255 255 255 255 255 255 255 255 255 255 255 255 255 255 255 255 255 255 255 255 255 255 255 255 254 254 255 255 255 255 255 255 255 255 255 255 255 255 255 255 255 0 0 0 0 0 0 255 255 255 255 255 255 255 255 255 255 255 255 255 255 255 255 255 255 255 255 255 255 255 255 255 255 255 255 255 255 255 255 255 255 255 255 255 255 255 255 255 255 252 253 254 255 255 255 255 255 255 255 255 255 255 255 255 255 255 255 255 255 255 255 255 255 255 255 255 255 255 255 255 255 255 255 255 255 255 255 255 255 255 255 255 255 255 255 255 255 254 254 254 255 255 255 254 254 254 254 254 254 254 255 254 255 255 255 255 255 255 255 255 255 254 254 254 255 255 255 254 255 254 253 254 255 255 255 255 255 255 255 255 255 255 2 1 0 85 255 170 0 238 119 0 188 94 0 154 77 1 1 1 255 254 254 255 255 255 255 255 255 255 255 255 255 253 255 255 254 254 254 254 254 255 255 255 254 254 254 255 255 255 0 0 0 2 1 0 0 0 0 0 0 0 67 255 161 0 0 0 255 255 255 255 254 254 255 255 255 255 255 255 255 255 255 255 255 255 255 255 255 255 255 255 255 255 255 255 255 255 255 255 255 255 255 255 255 255 255 255 255 255 255 255 255 255 253 255 255 255 255 254 254 254 255 255 255 255 255 255 253 254 255 255 255 255 255 255 255 255 255 255 255 253 255 253 254 255 255 254 254 255 255 255 255 254 254 255 255 255 255 255 255 255 254 254 255 255 255 253 254 255 255 255 255 255 255 255 253 254 255 253 254 255 255 255 255 254 254 254 255 254 254 254 254 254 255 254 254 255 255 255 255 255 255 0 0 0 85 255 170 0 222 111 0 169 85 0 154 77 2 1 0 254 255 254 254 255 254 255 255 255 255 255 255 1 1 1 0 1 0 1 1 1 0 0 0 0 0 0 0 0 0 67 255 161 67 255 161 67 255 160 67 255 161 0 222 111 0 0 0 255 255 255 255 255 255 255 255 255 255 255 255 255 255 255 255 255 255 255 255 255 255 255 255 255 255 255 255 255 255 255 255 255 255 255 255 255 255 255 255 255 255 255 255 255 255 255 255 255 255 255 254 255 254 0 0 0 0 0 0 0 0 0 0 0 0 253 254 255 253 254 255 254 255 254 253 254 255 254 255 254 255 255 255 254 255 254 255 255 255 254 254 254 253 254 255 0 0 0 0 0 0 0 0 1 0 0 1 0 0 0 253 254 255 255 255 255 253 254 255 253 255 253 255 255 255 255 255 255 255 254 254 254 254 254 0 0 0 85 255 169 0 188 93 0 155 77 0 154 77 0 0 0 255 253 255 255 254 254 2 0 2 0 1 0 101 255 178 100 254 178 85 255 170 67 255 161 67 255 161 67 255 161 0 236 118 0 239 120 0 236 119 0 238 119 0 170 85 0 0 0 255 255 255 254 254 254 255 255 255 255 255 255 255 255 255 255 255 255 255 255 255 255 255 255 255 255 255 255 255 255 255 255 255 255 255 255 255 255 255 255 255 255 255 255 255 255 255 255 253 254 255 255 254 254 0 0 0 220 255 235 219 255 239 168 253 245 2 1 0 2 1 0 250 250 255 255 255 255 255 255 255 255 255 255 255 254 254 255 255 255 255 255 255 255 255 255 3 2 1 223 255 255 223 255 253 222 255 254 222 255 254 0 1 0 0 0 0 0 0 0 253 253 255 255 255 255 253 254 255 255 255 255 1 1 1 0 239 120 0 238 119 0 154 77 0 154 77 0 154 78 0 1 0 254 255 254 0 1 0 101 255 176 103 255 177 0 239 120 0 239 119 0 238 119 0 238 116 0 238 119 0 238 116 0 238 116 0 221 109 0 239 119 0 238 119 0 1 0 255 255 255 254 255 254 255 255 255 255 255 255 255 255 255 255 255 255 255 255 255 255 255 255 255 255 255 255 255 255 255 255 255 255 255 255 255 255 255 255 255 255 255 255 255 255 255 255 253 254 255 255 255 255 253 254 255 254 254 254 0 0 0 220 255 238 220 255 238 220 255 238 167 255 247 1 1 1 0 0 0 255 255 255 255 255 255 255 255 255 255 255 255 254 255 254 255 255 255 255 255 255 0 0 0 220 254 255 223 255 255 137 255 229 222 255 254 222 255 254 169 254 246 2 1 0 0 0 0 255 255 255 255 255 255 0 0 0 0 238 119 0 188 93 0 154 77 0 153 75 0 154 77 0 0 0 255 255 255 0 0 1 67 255 162 0 238 119 0 238 119 0 188 94 0 170 85 0 171 85 16 171 91 14 189 103 32 187 110 0 204 100 0 238 119 0 206 101 0 0 1 255 255 255 255 254 254 255 255 255 255 255 255 255 255 255 255 255 255 255 255 255 255 255 255 255 255 255 255 255 255 255 255 255 255 255 255 255 255 255 255 255 255 255 255 255 254 255 254 255 255 255 255 254 254 255 255 255 255 255 255 255 255 255 0 0 0 101 255 230 101 255 230 220 255 238 220 255 238 169 254 246 0 0 1 0 0 0 0 0 1 0 0 0 0 0 0 0 0 1 0 0 0 0 0 0 2 1 0 0 0 0 101 255 230 101 255 229 222 255 254 204 254 246 171 254 245 169 254 246 0 0 0 255 255 255 0 0 0 0 238 119 0 188 94 0 154 77 0 0 0 0 0 1 0 1 0 1 1 1 0 154 77 0 154 78 0 154 77 0 154 77 0 154 77 0 155 77 16 171 94 99 255 179 101 255 178 67 255 160 0 238 119 0 223 111 0 170 85 0 0 0 255 255 255 255 255 255 255 255 255 255 255 255 255 255 255 255 255 255 255 255 255 255 255 255 255 255 255 255 255 255 255 255 255 255 255 255 255 255 255 255 255 255 255 255 255 254 254 254 255 255 255 254 255 254 255 255 255 255 255 255 255 255 255 255 255 255 0 1 0 101 255 230 101 255 230 0 0 0 255 255 255 255 255 255 255 255 255 239 246 255 239 246 255 222 255 254 222 255 254 222 255 254 222 255 254 222 255 254 0 1 0 222 255 254 101 255 230 101 255 230 204 254 246 204 255 245 169 254 246 1 1 1 254 254 254 0 1 0 0 238 119 0 188 94 0 0 0 65 255 160 0 239 120 0 155 77 0 154 77 0 0 0 0 154 77 0 154 77 0 154 77 0 0 0 0 0 0 101 255 178 67 255 161 0 238 119 0 238 119 0 238 119 0 154 77 0 0 0 254 254 254 255 255 255 254 255 254 255 255 255 255 255 255 255 255 255 255 255 255 255 255 255 255 255 255 255 255 255 255 255 255 255 255 255 255 255 255 255 255 255 255 255 255 255 255 255 255 255 255 255 255 255 255 255 255 255 254 254 255 255 255 255 255 255 255 255 255 255 255 255 2 1 0 0 0 0 255 254 254 255 255 255 220 254 255 222 255 254 222 255 254 222 255 254 222 255 254 222 255 254 0 0 0 0 0 1 2 1 0 0 0 0 0 0 0 0 0 0 49 135 127 153 255 237 222 255 254 222 255 254 169 254 246 0 0 0 0 0 0 0 0 0 0 188 94 0 0 0 0 238 119 0 222 111 0 154 77 0 154 77 0 0 0 0 0 0 2 1 0 0 0 0 0 238 119 0 239 119 0 238 119 0 238 119 0 238 119 0 238 119 0 154 77 0 153 76 0 0 0 254 255 254 255 255 255 255 255 255 255 255 255 255 255 255 255 255 255 255 255 255 255 255 255 255 255 255 255 255 255 255 255 255 255 255 255 255 255 255 255 255 255 255 255 255 255 255 255 255 255 255 255 255 255 255 255 255 255 255 255 255 255 255 255 255 255 255 255 255 0 0 0 0 0 0 0 0 0 238 255 246 222 255 254 222 255 254 221 254 253 223 255 255 222 255 254 0 0 0 0 0 0 168 210 220 170 211 220 152 203 221 155 223 221 119 171 187 104 155 170 0 1 0 0 0 0 222 255 254 222 255 254 204 254 246 221 255 239 0 0 0 0 0 0 0 0 0 0 0 0 0 18 7 0 154 74 0 103 50 0 103 50 0 0 1 0 155 78 0 203 102 0 204 99 0 222 111 0 221 110 0 238 119 0 222 111 0 204 102 0 154 77 0 154 77 0 84 42 0 0 0 255 255 255 255 255 255 255 255 255 255 255 255 255 255 255 255 255 255 255 255 255 255 255 255 255 255 255 255 255 255 255 255 255 255 255 255 255 255 255 255 255 255 255 255 255 255 255 255 254 255 254 255 254 254 255 255 255 255 255 255 255 255 255 255 255 255 0 0 0 171 212 221 153 205 221 0 1 0 222 254 254 222 255 254 221 254 253 222 255 254 223 255 253 0 1 0 186 227 236 187 228 237 169 210 219 152 220 221 154 221 219 134 209 220 139 190 205 102 154 170 103 155 171 99 168 170 2 1 0 222 254 254 222 255 254 222 255 254 220 255 238 220 255 239 0 0 0 0 0 0 0 0 0 1 1 1 2 1 0 0 104 50 1 1 1 0 154 77 0 153 77 0 154 77 0 154 77 0 153 74 0 155 77 0 154 77 0 155 75 0 154 77 0 66 34 2 0 2 253 254 255 255 255 255 255 254 254 254 254 254 255 255 255 254 255 254 255 255 255 255 255 255 255 255 255 255 255 255 255 255 255 255 255 255 255 255 255 255 255 255 255 255 255 255 255 255 255 255 255 255 255 255 255 255 255 255 255 255 255 255 255 255 255 255 0 0 0 170 211 220 135 209 219 150 219 221 102 153 171 1 1 1 223 255 253 223 255 255 222 255 254 0 0 0 188 228 237 187 228 237 170 211 220 152 220 221 152 206 222 137 211 221 153 220 218 153 205 221 137 189 205 102 154 170 101 150 168 99 168 170 2 0 2 223 255 255 221 255 239 222 255 253 222 255 254 187 255 238 156 255 236 0 0 0 0 152 74 0 156 77 2 1 0 0 0 0 0 0 0 0 155 77 0 154 77 0 153 75 0 154 74 0 154 77 0 154 77 0 152 76 0 18 9 0 0 0 252 253 254 255 255 255 255 255 255 253 255 253 255 255 255 254 255 254 255 255 255 255 255 255 255 255 255 255 255 255 255 255 255 255 255 255 255 255 255 255 255 255 255 255 255 255 255 255 255 255 255 255 255 255 255 255 255 255 255 255 255 255 255 254 255 254 253 254 255 0 0 0 152 220 221 136 211 220 138 189 204 102 154 170 0 0 0 137 255 229 221 255 253 1 1 1 187 228 237 187 228 237 168 213 222 154 221 219 136 209 219 153 221 222 138 213 220 136 215 222 137 212 219 136 211 220 119 168 186 103 157 173 102 154 170 102 156 172 2 1 0 222 255 254 223 255 255 223 255 253 222 255 254 187 255 238 151 254 237 1 1 1 0 0 1 0 153 76 0 154 77 0 1 0 0 0 1 2 1 0 0 0 0 0 0 0 0 2 2 0 0 1 2 1 0 0 0 0 255 255 255 255 254 254 255 255 255 253 254 255 255 255 255 253 254 255 255 254 254 255 255 255 255 255 255 255 255 255 255 255 255 255 255 255 255 255 255 255 255 255 255 255 255 255 255 255 255 255 255 255 255 255 255 255 255 255 255 255 255 255 255 255 255 255 255 255 255 0 0 0 153 194 203 136 188 204 150 192 202 102 154 170 102 154 170 2 2 0 135 254 231 223 255 254 2 1 0 185 227 237 154 206 222 152 219 220 135 211 221 136 211 220 138 210 219 136 188 204 138 186 203 133 202 204 136 188 204 120 187 185 104 179 186 103 155 171 102 154 170 102 154 170 0 0 0 222 255 253 222 254 252 222 255 254 222 255 254 185 255 239 152 252 235 0 0 1 0 221 111 0 170 85 0 154 77 0 1 0 253 254 255 255 254 254 254 255 254 255 255 255 253 254 255 253 253 255 255 255 255 255 255 255 254 254 254 255 255 255 255 254 254 253 254 255 255 255 255 255 255 255 255 255 255 255 255 255 255 255 255 255 255 255 255 255 255 255 255 255 255 255 255 255 255 255 255 255 255 255 255 255 255 255 255 255 255 255 255 255 255 255 255 255 252 252 255 255 255 255 0 0 0 0 0 0 102 154 170 102 156 172 102 154 170 102 154 170 0 0 0 137 255 229 0 0 0 154 206 222 171 212 221 152 220 221 138 213 220 119 171 187 102 154 170 102 154 170 102 154 170 102 154 170 118 186 187 102 154 170 102 151 169 102 156 172 102 154 170 101 152 170 102 154 170 19 18 17 222 255 254 222 255 254 222 255 254 221 254 253 222 255 254 187 255 237 153 253 237 0 1 0 0 238 119 0 188 94 0 170 85 0 0 0 255 255 255 255 255 255 253 254 255 255 255 255 255 255 255 255 255 255 255 255 255 255 255 255 255 255 255 255 255 255 255 255 255 253 254 255 255 255 255 255 255 255 255 255 255 255 255 255 255 255 255 255 255 255 255 255 255 255 255 255 255 255 255 255 255 255 255 255 255 255 255 255 255 255 255 255 255 255 255 255 255 254 255 254 0 0 0 255 255 255 255 255 255 0 0 0 102 154 170 102 154 170 102 154 170 0 0 0 137 255 229 0 0 0 154 208 224 152 220 221 136 188 204 118 186 187 118 186 187 0 0 0 1 1 1 0 0 0 0 0 0 0 0 0 0 0 0 0 0 0 100 151 169 102 154 170 103 155 171 101 153 169 102 151 169 0 0 0 222 255 254 222 255 253 222 255 254 222 255 254 187 255 238 153 255 237 0 0 0 0 222 111 0 189 95 0 238 119 0 0 0 255 255 255 253 254 255 255 255 255 255 255 255 255 255 255 255 255 255 255 255 255 255 255 255 255 254 254 255 255 255 255 255 255 255 254 254 254 255 254 255 255 255 255 255 255 255 255 255 255 255 255 255 255 255 255 255 255 255 255 255 0 0 0 0 0 0 255 255 255 253 254 255 255 255 255 255 255 255 255 255 255 255 255 255 0 0 0 255 255 255 255 255 255 0 0 0 0 0 0 102 154 170 102 154 170 0 0 0 0 0 0 153 205 221 155 206 221 154 206 222 0 0 0 0 0 0 0 0 0 237 204 204 237 204 204 255 205 213 255 205 213 255 205 213 255 205 213 255 205 213 0 0 0 0 0 0 0 0 0 101 152 170 104 155 170 0 0 0 204 254 246 222 255 253 222 255 254 221 254 255 222 255 254 187 255 238 153 255 237 0 0 0 0 222 111 0 188 94 0 238 119 0 0 1 255 255 255 255 255 255 255 255 255 255 255 255 255 255 255 255 255 255 255 255 255 255 255 255 255 255 255 255 255 255 255 255 255 255 255 255 255 255 255 255 255 255 255 255 255 255 255 255 255 255 255 255 255 255 1 1 1 2 1 0 188 255 238 2 1 0 0 0 0 255 255 255 255 255 255 255 255 255 255 255 255 0 0 0 255 206 214 255 239 247 0 0 0 255 255 255 0 0 0 0 0 1 169 254 246 2 1 0 169 214 223 0 0 0 0 0 0 0 0 0 220 222 220 255 255 255 255 255 255 255 255 255 255 255 255 255 254 254 254 255 254 255 222 222 255 205 213 255 205 213 255 205 213 255 206 212 1 1 1 0 0 0 0 0 0 204 253 246 222 255 253 222 255 254 222 255 254 222 255 254 189 255 236 153 255 237 0 0 1 0 238 119 0 170 85 0 238 119 2 1 0 255 255 255 255 255 255 255 255 255 254 254 254 255 255 255 255 255 255 255 255 255 255 255 255 255 255 255 255 255 255 255 255 255 255 255 255 255 255 255 255 255 255 255 255 255 255 255 255 253 254 255 255 254 254 0 0 0 204 254 246 187 255 238 236 255 247 238 255 246 0 1 0 255 255 255 0 0 0 0 0 0 0 0 1 253 205 214 253 205 214 0 0 1 0 0 0 0 0 1 169 254 246 204 254 246 0 0 1 0 0 0 0 0 0 0 0 0 0 0 0 255 255 255 255 255 255 255 255 255 254 254 254 255 255 255 254 255 254 255 254 254 255 255 255 255 255 255 253 254 255 255 205 213 255 205 213 255 205 213 254 204 215 14 35 26 187 254 255 222 254 254 222 255 254 222 255 254 222 255 254 222 255 254 189 255 236 152 254 236 0 0 0 0 223 111 0 223 111 0 238 119 0 0 0 253 254 255 254 254 254 253 254 255 255 255 255 255 255 255 255 255 255 255 255 255 255 255 255 255 255 255 255 255 255 255 255 255 255 255 255 255 255 255 255 255 255 255 255 255 255 255 255 255 255 255 0 0 0 186 255 217 83 255 204 87 255 203 187 255 220 237 253 244 1 1 1 2 2 0 0 0 0 0 1 0 1 0 2 2 3 0 2 9 17 153 255 237 170 255 247 187 255 238 223 255 254 0 0 0 1 1 1 255 255 255 0 0 0 1 1 1 255 255 255 255 255 255 254 255 254 255 255 255 255 255 255 255 255 255 254 255 254 255 255 255 255 255 255 255 255 255 253 254 255 255 205 213 255 205 213 2 1 0 103 255 229 204 254 246 223 255 254 223 255 253 223 255 253 222 255 253 222 255 254 186 255 239 153 253 237 2 1 0 31 255 142 0 236 118 0 238 119 0 0 0 254 255 254 255 255 255 254 254 254 255 255 255 255 255 255 255 255 255 255 255 255 255 255 255 255 255 255 255 255 255 255 255 255 255 255 255 255 255 255 255 255 255 255 255 255 255 255 255 0 0 0 136 255 213 83 255 203 87 255 203 83 255 204 83 255 205 119 255 204 202 254 247 0 0 0 101 188 178 137 221 215 0 1 0 0 0 0 99 255 231 136 254 229 167 255 247 221 254 239 221 253 253 1 1 1 0 1 0 1 1 1 0 2 0 0 1 0 255 255 255 252 253 254 254 254 254 255 255 255 255 255 255 255 255 255 255 254 254 254 254 254 255 255 255 255 255 255 255 202 210 255 206 214 254 204 212 0 1 0 101 255 230 206 255 244 220 248 250 222 254 254 223 255 255 222 255 254 223 255 254 222 255 254 155 255 236 0 1 0 0 239 120 67 255 161 0 238 119 0 237 117 0 0 1 254 255 254 255 255 255 255 255 255 255 255 255 255 255 255 255 255 255 255 255 255 255 255 255 255 255 255 255 255 255 255 255 255 255 255 255 255 255 255 255 255 255 255 255 255 0 0 0 136 255 213 85 255 204 83 255 204 87 255 203 85 255 204 84 254 204 136 255 213 188 255 220 0 0 1 152 236 211 153 253 237 189 239 228 1 1 1 101 255 230 119 255 220 152 254 236 220 255 238 101 255 229 2 0 2 2 1 0 0 0 0 255 255 255 255 255 255 255 255 255 255 255 255 255 255 255 255 255 255 255 254 254 255 255 255 253 254 255 254 255 254 254 222 222 255 206 212 255 203 212 0 1 0 101 255 230 206 255 244 204 254 246 190 255 236 222 255 254 222 254 254 222 255 254 222 254 254 222 255 253 187 255 238 154 255 237 0 0 0 84 254 170 0 222 111 0 236 119 0 0 0 255 254 254 255 255 255 255 255 255 255 255 255 255 255 255 255 255 255 255 255 255 255 255 255 255 255 255 255 255 255 255 255 255 255 255 255 255 255 255 255 255 255 255 255 255 0 0 0 136 255 212 85 255 203 84 254 204 81 255 204 83 255 204 83 255 204 83 255 203 168 254 210 85 255 204 0 0 0 153 238 211 171 254 245 220 255 238 2 1 0 101 255 230 152 255 238 222 255 253 222 255 254 0 0 0 0 0 0 255 255 255 254 254 254 255 255 255 254 254 254 255 255 255 255 255 255 254 254 254 255 255 255 255 255 255 255 254 254 255 205 213 255 205 213 255 187 187 0 0 0 101 255 230 187 255 238 186 255 254 152 255 238 204 254 246 221 254 253 219 253 254 223 254 253 222 255 253 222 255 254 187 255 238 153 255 237 0 0 1 31 255 139 33 238 134 0 238 119 0 0 0 0 0 0 255 255 255 254 255 254 255 255 255 255 255 255 255 255 255 255 255 255 255 255 255 255 255 255 255 255 255 255 255 255 255 255 255 255 255 255 255 255 255 0 0 0 169 255 209 85 255 204 68 187 145 67 221 178 85 255 204 69 221 161 85 255 204 83 255 203 85 255 204 169 255 211 85 255 204 0 0 0 153 255 237 187 255 237 222 255 254 0 0 0 153 255 237 153 255 237 222 255 254 101 255 230 17 17 17 255 255 255 254 255 254 255 255 255 255 254 254 253 254 255 255 255 255 255 255 255 255 255 255 255 247 238 255 205 213 255 205 213 255 205 213 2 1 0 101 255 230 152 254 236 204 254 246 153 255 237 137 255 229 222 255 254 223 255 253 222 255 254 222 255 254 222 255 254 222 255 254 187 255 238 154 255 237 0 0 0 0 238 119 49 239 145 0 237 118 0 0 0 103 255 228 0 0 0 255 255 255 255 255 255 255 255 255 255 255 255 255 255 255 255 255 255 255 255 255 255 255 255 255 255 255 255 255 255 255 255 255 255 255 255 0 0 0 136 255 213 85 255 203 0 0 0 67 205 153 85 255 204 16 51 34 69 221 161 85 255 204 85 255 204 85 255 204 170 254 229 1 1 1 153 255 237 153 255 237 206 254 245 222 255 254 0 0 0 152 254 236 153 255 237 222 255 254 101 255 230 2 1 0 255 255 255 255 255 255 255 255 255 254 221 221 255 205 213 255 205 213 253 205 214 255 205 213 255 205 213 255 205 213 0 0 0 101 255 230 153 255 237 187 255 238 138 255 230 101 255 230 222 255 254 222 255 254 222 255 254 222 255 254 222 255 254 222 255 254 220 254 255 187 255 238 153 255 237 0 0 0 0 238 119 0 222 111 0 238 119 0 0 0 101 255 230 0 0 0 255 255 255 254 255 254 255 255 255 255 255 255 255 255 255 254 254 254 255 255 255 255 255 255 255 255 255 255 255 255 255 255 255 255 255 255 1 1 1 119 255 219 83 255 203 0 0 0 50 170 128 83 255 204 0 2 0 15 68 42 85 255 203 85 255 204 85 255 203 83 255 203 33 221 144 0 0 0 153 255 237 169 254 246 221 255 237 224 255 253 0 0 0 153 255 236 186 254 255 222 255 253 101 255 230 0 0 0 0 0 0 0 0 0 236 204 206 255 205 213 253 205 214 254 205 211 0 0 0 0 0 1 0 0 0 119 255 219 153 255 237 170 254 229 101 255 230 101 255 230 204 253 246 221 254 253 222 255 254 223 255 255 222 255 254 222 255 253 222 255 254 222 255 254 188 254 238 153 255 237 1 1 1 0 238 119 0 238 119 0 236 118 0 0 0 101 255 230 153 255 236 0 0 0 252 253 254 255 255 255 255 255 255 255 255 255 255 255 255 255 255 255 255 255 255 255 255 255 255 255 255 255 255 255 255 255 255 0 0 0 100 254 211 85 255 204 0 0 0 49 153 118 119 255 204 0 32 17 0 18 9 15 68 42 85 255 203 87 255 203 85 255 204 85 255 204 0 0 0 122 254 220 153 255 237 186 254 255 221 254 253 0 2 0 0 0 0 152 255 238 223 255 253 222 255 253 222 255 254 101 255 230 103 255 231 2 1 0 1 1 1 2 1 0 0 0 1 101 255 229 101 255 230 101 255 230 137 255 229 103 255 227 101 255 230 138 255 230 222 255 254 222 255 253 222 255 254 222 254 254 222 255 254 222 255 253 222 254 254 223 255 255 222 255 254 187 255 238 153 255 236 0 1 0 0 236 115 0 189 95 0 238 119 0 0 1 101 255 230 153 255 237 2 1 0 255 255 255 255 255 255 252 253 254 255 255 255 252 253 254 255 255 255 255 255 255 254 255 254 255 255 255 255 255 255 255 255 255 0 0 0 87 255 203 87 255 203 0 0 0 48 152 117 119 255 205 17 52 35 0 0 0 0 34 34 85 255 205 103 255 195 83 255 203 85 255 204 0 18 9 100 240 205 101 255 232 169 254 246 221 255 238 223 255 255 0 0 0 169 254 246 219 255 239 222 255 253 222 255 253 222 255 254 222 254 254 101 255 229 103 255 227 101 255 229 101 255 229 105 255 229 101 255 230 102 254 230 119 253 219 137 254 229 222 255 254 221 254 253 224 255 253 220 254 255 222 255 254 222 255 254 222 255 254 222 255 254 222 255 254 221 254 253 222 255 253 187 255 238 153 255 237 0 0 0 0 239 119 0 189 94 0 238 119 2 1 0 101 255 230 153 255 237 153 253 237 0 0 1 254 254 254 255 255 255 253 254 255 255 255 255 253 254 255 255 255 255 255 255 255 255 255 255 255 255 255 255 255 255 0 0 0 83 255 204 85 255 204 0 17 8 52 120 103 168 254 210 33 99 83 0 0 0 15 68 40 48 102 78 121 255 221 87 255 203 83 255 204 34 238 169 0 18 9 101 255 230 151 254 237 203 252 245 222 255 254 169 253 247 185 253 254 221 255 237 220 254 255 222 255 254 222 255 254 222 255 254 221 254 253 221 254 255 220 252 254 221 254 255 221 254 253 222 255 254 222 255 254 223 255 254 222 255 254 219 255 254 223 255 255 219 253 254 223 255 253 222 255 254 222 255 254 222 255 254 219 253 254 223 255 253 222 255 254 222 255 254 186 254 237 153 255 237 0 0 0 0 188 93 0 170 86 0 237 118 0 0 0 101 255 230 153 255 237 153 255 236 0 0 0 255 255 255 253 254 255 255 255 255 253 254 255 255 255 255 253 254 255 252 253 254 255 255 255 255 255 255 255 255 255 0 0 0 85 255 204 85 255 204 69 187 143 117 153 137 150 255 222 83 239 179 0 0 1 0 0 0 0 1 0 136 255 213 83 255 203 85 255 204 32 238 170 2 1 0 101 255 230 153 255 237 205 255 247 221 254 253 222 255 253 223 255 253 222 255 253 223 254 253 222 255 254 222 255 254 221 254 253 222 255 254 223 255 253 222 255 254 223 255 253 223 255 255 223 255 255 222 254 254 220 254 255 221 254 253 223 255 255 221 254 253 224 255 253 222 255 254 223 255 255 222 255 254 220 254 255 222 255 254 222 255 254 222 255 254 222 255 254 187 255 238 154 255 237 0 0 0 0 188 94 0 171 85 0 188 94 0 1 0 102 254 230 152 253 237 153 253 237 101 255 230 0 0 0 255 255 255 255 255 255 255 255 255 0 0 0 0 0 1 253 254 255 255 255 255 255 255 255 255 255 255 0 0 0 83 255 204 85 255 204 103 255 195 154 255 219 85 255 204 84 254 204 34 102 67 66 99 84 136 204 169 186 255 217 85 255 204 85 255 204 33 221 144 0 0 0 103 255 231 153 255 237 186 254 255 222 255 254 221 254 253 222 255 254 223 255 253 222 255 254 222 255 254 222 255 254 222 255 254 222 255 254 222 255 254 221 254 253 222 254 254 222 255 254 222 255 254 222 255 254 222 255 253 222 254 254 223 255 254 222 255 254 222 255 253 223 255 253 223 255 253 220 254 255 222 255 254 222 255 254 222 255 254 222 255 254 222 255 254 187 255 238 153 255 237 0 0 0 0 188 94 0 170 85 0 155 77 0 0 0 102 254 230 153 255 237 153 255 237 101 255 230 0 0 0 255 255 255 255 255 255 0 0 0 101 255 230 101 255 229 0 0 0 0 0 0 255 255 255 255 255 255 255 255 255 0 0 0 85 255 204 85 255 204 85 255 204 85 255 204 85 255 204 85 255 204 170 254 229 170 255 228 119 255 220 83 255 204 50 238 161 33 221 144 0 18 9 101 255 230 153 255 237 184 251 254 220 254 255 222 255 254 222 255 254 222 255 254 222 255 254 223 255 253 222 255 254 222 255 254 221 254 253 222 255 254 222 255 254 222 255 254 222 255 254 222 255 254 223 255 255 222 255 254 222 255 254 222 255 254 222 255 254 222 255 254 222 255 254 222 255 254 222 255 254 220 255 254 222 255 254 222 255 254 222 255 254 222 255 254 169 254 246 0 0 0 0 188 94 0 170 85 0 154 77 0 155 77 2 1 0 99 255 231 153 255 237 153 255 237 101 255 230 0 0 1 255 255 255 255 255 255 0 0 0 99 255 231 17 17 17 101 255 230 0 0 0 255 255 255 0 0 0 255 255 255 255 255 255 0 0 0 85 255 185 85 255 203 85 255 204 85 255 204 85 255 204 85 255 204 87 255 203 85 255 186 50 238 161 33 221 144 0 0 0 101 255 230 102 254 230 153 255 236 169 254 246 204 254 246 222 255 254 222 255 254 223 255 253 221 254 253 222 255 253 222 255 254 221 254 253 223 255 255 223 255 253 223 255 253 220 254 255 222 255 254 222 255 253 222 255 254 222 255 254 222 255 254 238 255 246 222 255 254 222 255 254 222 255 254 222 255 254 222 255 254 223 255 253 222 255 254 222 255 254 204 254 246 186 254 255 169 254 246 2 1 0 0 188 94 0 169 85 0 153 76 0 0 0 101 255 230 153 255 237 153 255 237 153 255 237 119 255 238 101 255 230 0 0 1 0 0 0 0 0 0 0 0 0 0 8 17 101 255 230 0 0 0 0 0 0 0 0 1 255 255 255 255 255 255 253 254 255 0 0 0 83 255 204 83 255 203 32 220 160 33 222 161 35 221 160 32 238 170 50 238 161 50 238 161 0 0 0 103 255 231 101 255 229 102 254 230 153 255 237 153 255 237 185 255 239 221 254 253 223 255 255 222 254 254 223 255 255 222 255 254 220 254 255 222 255 254 222 255 254 222 254 254 222 255 254 222 254 254 222 255 254 222 255 254 222 254 254 224 255 253 239 246 255 222 255 254 222 255 254 222 255 254 222 255 254 222 255 254 222 255 254 222 255 254 220 254 255 204 254 246 187 255 237 170 253 229 170 254 229 0 0 0 0 188 94 0 154 77 0 153 76 0 0 0 220 255 238 153 255 237 152 255 238 153 255 237 119 255 236 103 255 228 1 1 1 101 255 230 101 255 230 103 255 231 101 255 230 17 35 26 16 34 25 101 255 230 0 0 0 255 255 255 255 255 255 255 255 255 253 254 255 2 1 0 1 1 1 0 0 0 0 0 0 0 0 0 0 0 0 0 1 0 0 0 1 101 255 230 102 254 230 101 255 230 153 255 237 153 255 237 155 255 236 189 255 236 222 255 254 222 254 252 222 255 254 222 255 254 222 255 254 223 255 253 222 255 254 222 255 254 221 254 253 222 254 254 219 253 254 222 254 254 221 254 253 222 255 254 238 254 246 255 255 255 222 255 254 222 255 254 222 255 254 222 255 254 222 255 254 223 255 253 223 255 253 204 254 246 152 255 235 153 255 237 152 255 238 0 0 0 0 171 87 0 170 84 0 154 77 0 155 78 0 0 0 221 255 239 155 255 236 153 255 237 153 255 237 100 254 229 99 255 230 0 0 0 0 0 0 0 0 0 0 0 0 2 1 0 0 0 1 0 0 1 0 0 0 254 255 254 254 255 254 255 255 255 253 254 255 255 254 254 254 255 254 254 255 254 0 1 0 0 0 0 103 255 231 101 255 230 101 255 233 101 255 230 99 255 231 99 255 230 104 254 228 153 255 236 153 255 237 153 255 237 167 253 248 204 255 245 223 255 255 219 251 253 222 255 254 223 255 253 222 255 253 222 254 254 222 255 254 223 255 253 220 255 254 223 255 253 222 255 253 222 255 253 223 255 255 253 255 253 255 255 255 222 254 252 220 254 255 222 255 254 222 255 254 221 254 253 221 254 253 219 255 239 167 255 247 154 255 237 152 254 236 155 255 236 0 0 0 0 154 77 0 155 78 0 153 74 0 0 0 222 255 237 188 255 253 152 254 236 153 255 237 119 255 238 101 255 230 103 255 228 2 0 2 255 254 254 252 253 254 253 254 255 253 254 255 254 255 254 254 255 254 254 254 254 255 255 255 255 255 255 255 255 255 254 254 254 255 255 255 255 254 254 255 254 254 253 254 255 255 255 255 2 1 0 1 1 1 100 254 229 100 254 232 105 255 227 121 255 237 153 255 237 152 254 236 153 255 237 153 255 236 153 255 237 169 254 246 204 254 246 207 255 245 221 254 253 222 255 254 222 254 254 222 255 253 223 255 255 221 255 253 220 252 254 220 254 255 222 254 254 221 253 253 220 254 236 255 255 255 254 254 254 222 255 254 223 255 253 220 255 254 222 255 254 223 255 255 224 255 253 206 254 245 154 255 237 152 254 236 153 255 237 0 0 0 0 154 77 0 154 77 0 153 75 0 1 0 221 255 239 203 253 245 152 255 238 152 254 236 153 255 237 121 255 237 101 255 230 0 0 0 255 255 255 255 255 255 255 255 255 255 255 255 255 254 254 255 254 254 255 254 254 255 255 255 253 255 253 255 255 255 255 255 255 255 255 255 254 254 254 253 254 255 254 255 254 254 255 254 255 255 255 252 253 254 255 255 255 0 0 1 101 255 230 104 254 228 135 255 231 155 255 235 153 255 237 153 255 237 153 253 237 153 255 237 153 253 237 169 254 246 187 255 238 187 255 238 204 254 246 221 255 237 223 255 253 222 254 252 224 255 253 222 255 253 223 255 253 222 255 254 223 255 255 0 0 0 254 254 254 221 254 255 222 255 254 223 255 255 223 255 253 222 255 254 222 255 254 204 254 246 167 254 247 153 255 237 154 255 237 153 255 237 0 1 0 0 155 78 0 154 77 0 154 77 0 0 1 220 254 236 187 255 237 152 252 235 152 255 238 155 253 236 100 254 229 101 255 230 2 1 0 255 255 255 255 255 255 255 255 255 253 254 255 255 254 254 254 255 254 253 255 253 254 254 254 253 254 255 254 255 254 255 255 255 255 255 255 255 255 255 255 255 255 255 254 254 255 255 255 255 255 255 255 255 255 255 255 255 255 255 255 0 0 1 0 2 0 101 255 230 102 254 230 153 255 237 152 255 238 152 254 236 153 255 237 153 255 237 153 255 237 155 255 236 153 255 237 170 254 229 168 252 246 187 255 238 188 255 253 202 254 247 206 253 244 204 254 246 204 254 246 204 254 246 0 0 0 255 255 255 222 255 254 223 255 253 222 255 254 222 255 253 222 254 254 220 254 255 188 255 253 153 255 237 154 255 237 152 254 236 1 1 1 0 152 76 0 154 77 0 0 0 2 0 2 220 255 238 205 255 247 169 254 246 152 254 236 153 255 237 119 255 238 101 255 230 0 0 0 253 254 255 255 255 255 255 254 254 255 255 255 255 255 255 254 254 254 255 255 255 255 255 255 255 255 255 254 255 254 255 255 255 255 255 255 255 255 255 255 255 255 255 255 255 255 255 255 255 255 255 255 255 255 255 255 255 255 255 255 255 255 255 254 254 254 255 255 255 0 0 0 0 0 0 101 255 230 101 255 229 153 253 237 153 255 237 153 255 236 170 254 229 170 254 229 170 254 229 170 254 229 170 254 229 169 253 228 170 253 229 169 254 246 169 254 246 169 255 245 169 254 246 170 254 229 0 0 0 254 255 254 222 255 254 222 255 254 222 255 254 222 255 254 222 255 254 204 254 246 170 253 229 153 255 237 153 255 237 153 255 237 0 0 0 0 154 77 0 0 1 0 0 0 255 255 255 220 255 238 186 254 255 153 255 237 153 255 237 154 255 237 101 255 230 101 255 230 0 0 0 255 255 255 255 254 254 255 255 255 255 254 254 255 254 254 255 255 255 255 255 255 255 255 255 255 255 255 255 255 255 255 255 255 255 255 255 255 255 255 255 255 255 255 255 255 255 255 255 255 255 255 255 255 255 255 255 255 255 255 255 255 255 255 255 255 255 255 255 255 255 255 255 255 255 255 0 0 0 0 1 0 101 255 230 103 255 228 153 255 237 153 255 237 153 255 237 170 254 229 170 254 229 170 255 228 170 254 229 170 254 229 170 254 229 170 254 229 170 254 229 153 255 237 155 255 235 0 0 0 253 254 255 222 255 254 222 255 254 223 255 255 222 255 254 220 253 238 169 254 246 153 255 237 153 255 237 153 255 237 0 0 0 0 154 77 0 0 0 153 255 237 0 1 0 253 254 255 204 254 246 187 255 238 153 255 237 153 255 237 137 255 229 101 255 230 0 0 0 255 255 255 255 255 255 255 255 255 255 255 255 255 255 255 255 255 255 255 255 255 255 255 255 255 255 255 255 255 255 255 255 255 255 255 255 255 255 255 255 255 255 255 255 255 255 255 255 255 255 255 255 255 255 255 255 255 255 255 255 255 255 255 255 255 255 255 255 255 255 255 255 255 255 255 255 255 255 255 255 255 255 255 255 0 0 0 0 0 0 103 255 231 101 255 230 101 255 230 101 255 230 101 255 230 101 255 230 117 255 240 153 255 237 168 254 230 170 254 229 170 254 229 136 255 248 100 254 229 2 1 0 220 254 255 220 253 238 223 255 255 222 255 254 223 255 253 205 255 246 152 254 236 153 255 236 153 255 237 0 0 0 0 155 78 0 1 0 101 255 230 2 1 0 255 255 255 204 254 246 204 254 246 170 254 229 153 255 237 153 255 236 120 254 220 101 255 229 0 0 0 255 255 255 255 255 255 255 255 255 255 255 255 255 255 255 255 255 255 255 255 255 255 255 255 255 255 255 255 255 255 255 255 255 255 255 255 255 255 255 255 255 255 255 255 255 255 255 255 255 255 255 255 255 255 255 255 255 255 255 255 255 255 255 255 255 255 255 255 255 255 255 255 255 255 255 255 255 255 255 255 255 255 255 255 255 255 255 255 255 255 0 0 0 2 2 0 0 2 0 0 1 0 0 0 0 100 254 229 100 254 229 103 255 227 101 255 230 99 255 233 99 255 231 103 255 228 101 255 230 0 0 0 3 2 1 0 0 0 0 0 1 2 1 0 203 255 248 169 253 247 155 255 236 153 253 237 152 255 238 0 0 0 2 1 0 103 253 227 101 255 229 0 0 0 255 255 255 204 254 246 186 255 239 152 255 235 154 254 237 137 255 229 105 255 227 0 0 0 255 255 255 255 255 255 255 255 255 255 255 255 255 255 255 255 255 255 255 255 255 255 255 255 255 255 255 255 255 255 255 255 255 255 255 255 255 255 255 255 255 255 255 255 255 255 255 255 255 255 255 255 255 255 255 255 255 255 255 255 255 255 255 255 255 255 255 255 255 255 255 255 255 255 255 255 255 255 255 255 255 255 255 255 255 255 255 255 255 255 253 254 255 0 2 0 13 90 101 15 84 85 15 84 85 17 56 67 3 0 0 2 1 0 0 0 0 0 0 1 2 1 0 2 1 0 1 1 1 0 0 0 0 0 1 31 121 137 16 91 101 13 83 85 14 84 86 0 0 0 155 255 235 153 255 237 155 255 236 2 1 0 0 0 0 0 1 0 0 1 0 2 0 2 0 0 0 0 1 0 0 0 0 189 255 236 156 254 237 154 255 237 100 254 229 0 0 1 254 255 254 254 255 254 255 255 255 255 255 255 255 255 255 255 255 255 255 255 255 255 255 255 255 255 255 255 255 255 255 255 255 255 255 255 255 255 255 255 255 255 255 255 255 255 255 255 255 255 255 255 255 255 255 255 255 255 255 255 255 255 255 255 255 255 255 255 255 255 255 255 254 254 254 255 255 255 255 255 255 255 255 255 255 255 255 252 253 254 255 255 255 255 255 255 0 0 0 20 105 120 15 86 84 15 84 85 15 86 84 14 83 84 15 84 85 0 0 0 254 255 254 253 254 255 253 254 255 255 255 255 0 0 0 0 0 0 34 107 117 17 85 83 15 84 85 19 85 82 14 84 86 0 0 1 2 1 0 0 0 1 253 254 255 255 255 255 255 254 254 255 253 253 0 1 0 0 75 85 14 82 83 16 58 67 0 0 0 152 254 236 119 255 238 101 255 232 3 2 1 255 254 254 255 255 255 255 255 255 255 255 255 255 255 255 255 255 255 255 255 255 255 255 255 255 255 255 255 255 255 255 255 255 255 255 255 255 255 255 255 255 255 255 255 255 255 255 255 255 255 255 255 255 255 255 255 255 255 255 255 255 255 255 255 255 255 255 255 255 255 255 255 255 255 255 255 255 255 255 255 255 255 255 255 255 255 255 255 255 255 255 255 255 255 254 254 0 0 0 32 107 118 12 85 85 17 85 83 15 84 85 17 85 83 2 1 0 255 255 255 255 254 254 255 254 254 255 252 253 255 255 255 255 255 255 0 0 0 34 113 120 14 83 84 16 69 85 15 83 84 15 86 84 15 86 84 13 86 86 2 1 0 254 255 254 254 255 254 252 253 254 255 255 255 2 0 2 16 84 82 0 52 68 17 66 57 16 58 67 0 1 0 101 255 230 2 1 0 255 254 254 255 255 255 253 254 255 255 255 255 255 255 255 255 255 255 255 255 255 255 255 255 255 255 255 255 255 255 255 255 255 255 255 255 255 255 255 255 255 255 255 255 255 255 255 255 255 255 255 255 255 255 255 255 255 255 255 255 255 255 255 255 255 255 255 255 255 255 255 255 255 255 255 255 255 255 255 255 255 255 255 255 255 255 255 255 255 255 255 255 255 253 254 255 255 255 255 2 2 0 2 1 0 0 40 50 15 84 85 15 86 84 0 0 0 254 255 254 254 255 254 255 255 255 255 255 255 254 255 254 255 255 255 255 255 255 0 0 0 34 108 118 16 85 86 17 85 83 15 84 85 16 69 85 0 0 0 0 0 0 255 255 255 255 255 255 255 255 255 255 255 255 255 255 255 0 1 0 14 57 67 16 58 67 16 58 67 16 58 67 0 0 0 1 1 1 255 255 255 255 255 255 255 255 255 255 255 255 255 255 255 255 255 255 255 255 255 255 255 255 255 255 255 255 255 255 255 255 255 255 255 255 255 255 255 255 255 255 255 255 255 255 255 255 255 255 255 255 255 255 255 255 255 255 255 255 255 255 255 255 255 255 255 255 255 255 255 255 255 255 255 255 255 255 255 255 255 255 255 255 255 255 255 255 255 255 255 255 255 255 255 255 255 255 255 255 255 255 255 255 255 0 0 0 0 0 0 0 0 0 0 0 0 255 255 255 255 255 255 255 255 255 255 255 255 255 255 255 255 255 255 255 255 255 255 254 254 0 0 0 0 0 0 0 0 0 0 0 0 0 0 0 0 0 0 254 254 254 255 255 255 255 255 255 255 255 255 253 254 255 255 255 255 255 255 255 255 255 255 0 0 0 0 0 0 0 0 0 0 0 0 254 254 254 255 255 255 255 255 255 255 255 255 255 255 255 255 255 255 255 255 255 255 255 255 255 255 255 255 255 255 255 255 255 255 255 255 255 255 255 255 255 255 255 255 255 255 255 255 255 255 255 255 255 255 255 255 255 255 255 255 255 255 255 255 255 255 255 255 255 255 255 255 255 255 255 255 255 255 255 255 255 255 255 255 255 255 255 255 255 255 255 255 255 255 255 255 255 255 255 255 255 255 255 255 255 255 255 255 255 255 255 255 255 255 255 255 255 255 255 255 255 255 255 255 255 255 255 255 255 255 255 255 255 255 255 255 255 255 255 255 255 255 255 255 255 255 255 255 255 255 255 255 255 255 255 255 255 255 255 255 255 255 255 255 255 255 255 255 255 255 255 255 255 255 255 255 255 255 255 255 255 255 255 255 255 255 255 255 255 255 255 255 255 255 255 255 255 255 255 255 255 255 255 255 255 255 255 255 255 255 255 255 255 255 255 255 255 255 255 255 255 255 255 255 255 255 255 255 255 255 255 255 255 255 255 255 255 255 255 255 255 255 255 255 255 255 255 255 255 255 255 255 