P3 72 48 255
255 255 255 255 255 255 255 255 255 255 255 255 255 255 255 255 255 255 255 255 255 255 255 255 255 255 255 255 255 255 255 255 255 255 255 255 255 255 255 255 255 255 255 255 255 255 255 255 255 255 255 255 255 255 255 255 255 255 255 255 255 255 255 255 255 255 255 255 255 255 255 255 254 254 254 255 255 255 255 255 255 255 255 255 255 255 255 255 255 255 255 255 255 255 255 255 255 255 255 255 255 255 255 255 255 255 255 253 255 255 255 255 255 255 255 254 255 255 255 253 255 255 255 255 255 255 255 255 255 255 255 255 255 255 255 255 255 255 255 255 255 255 255 255 255 255 255 255 255 255 255 255 255 255 255 255 255 255 255 255 255 255 255 255 255 255 255 255 255 255 255 255 255 255 255 255 255 255 255 255 255 255 255 255 255 255 255 255 255 255 255 255 255 255 255 255 255 255 255 255 255 255 255 255 255 255 255 255 255 255 255 255 255 255 255 255 255 255 255 255 255 255 255 255 255 255 255 255 255 255 255 255 255 255 255 255 255 255 255 255 255 255 255 255 255 255 255 255 255 255 255 255 255 255 255 255 255 255 255 255 255 255 255 255 255 255 255 255 255 255 255 255 255 255 255 255 255 255 255 255 255 255 255 255 255 255 255 255 254 254 254 255 255 255 255 255 255 255 255 255 255 255 255 255 255 255 255 255 255 255 255 255 255 255 255 255 255 255 255 255 255 255 255 253 255 255 255 253 255 254 255 255 253 255 255 255 255 255 255 255 255 255 255 255 255 255 255 255 255 255 255 255 255 255 255 255 255 255 255 255 255 255 255 255 255 255 255 255 255 255 255 255 255 255 255 255 255 255 255 255 255 255 255 255 255 255 255 255 255 255 255 255 255 255 255 255 255 255 255 255 255 255 255 255 255 255 255 255 255 255 255 255 255 255 255 255 255 255 255 255 255 255 255 255 255 255 255 255 255 255 255 255 255 255 255 255 255 255 255 255 255 255 255 255 255 255 255 255 255 255 255 255 255 255 255 255 255 255 255 255 255 255 255 255 255 255 255 255 255 255 255 255 255 255 255 255 255 255 255 255 255 255 255 255 255 255 255 255 255 255 255 255 255 255 255 255 255 255 255 255 255 255 255 255 255 255 255 254 254 254 255 255 255 254 254 254 255 255 255 254 254 254 255 255 255 255 255 255 255 255 255 255 255 255 255 255 255 255 255 255 255 254 255 255 255 255 254 254 254 0 0 0 0 0 0 0 0 0 0 0 0 0 0 0 0 0 0 0 0 0 0 0 0 0 0 0 0 0 0 0 0 0 255 255 255 255 255 255 255 255 255 255 255 255 255 255 255 254 254 254 255 255 255 254 254 254 255 255 255 254 254 254 255 255 255 255 255 255 255 255 255 255 255 255 255 255 255 255 255 255 255 255 255 255 255 255 255 255 255 255 255 255 255 255 255 255 255 255 255 255 255 255 255 255 255 255 255 255 255 255 255 255 255 255 255 255 255 255 255 255 255 255 255 255 255 255 255 255 255 255 255 255 255 255 255 255 255 255 255 255 255 255 255 255 255 255 255 255 255 255 255 255 255 255 255 255 255 255 255 255 255 255 255 255 255 255 255 255 255 255 255 255 255 254 254 254 255 255 255 254 254 254 255 255 255 255 255 255 255 255 255 255 255 255 255 255 255 255 255 253 255 255 255 255 255 253 255 255 255 0 0 0 0 0 0 255 255 255 254 254 254 254 254 254 254 254 254 254 254 254 254 254 254 254 254 254 254 254 254 254 254 254 254 254 254 255 255 255 0 0 0 0 0 0 0 0 0 255 255 255 255 255 255 255 255 255 255 255 255 254 254 254 255 255 255 255 255 255 255 255 255 255 255 255 255 255 255 255 255 255 255 255 255 255 255 255 255 255 255 255 255 255 255 255 255 255 255 255 255 255 255 255 255 255 255 255 255 255 255 255 255 255 255 255 255 255 255 255 255 255 255 255 255 255 255 255 255 255 255 255 255 255 255 255 255 255 255 255 255 255 255 255 255 255 255 255 255 255 255 255 255 255 255 255 255 255 255 255 255 255 255 255 255 255 255 255 255 255 255 255 255 255 255 255 255 255 255 255 255 255 255 255 255 255 255 255 255 255 255 255 255 255 255 255 255 255 255 255 255 255 255 255 255 255 255 255 253 255 254 255 255 255 1 0 0 255 255 253 255 255 253 255 255 255 255 255 255 255 255 255 255 255 255 255 255 255 255 255 255 255 255 255 255 255 255 255 255 255 255 255 255 254 254 254 255 255 255 255 255 255 255 255 255 0 0 0 0 0 0 254 254 254 255 255 255 255 255 255 255 255 255 255 255 255 255 255 255 255 255 255 255 255 255 255 255 255 255 255 255 255 255 255 255 255 255 255 255 255 255 255 255 255 255 255 255 255 255 255 255 255 255 255 255 255 255 255 255 255 255 255 255 255 255 255 255 255 255 255 255 255 255 255 255 255 255 255 255 255 255 255 255 255 255 255 255 255 255 255 255 255 255 255 255 255 255 255 255 255 255 255 255 255 255 255 255 255 255 255 255 255 255 255 255 255 255 255 255 255 255 255 255 255 255 255 255 255 255 255 255 255 255 255 255 255 253 253 253 255 255 255 255 255 255 254 254 254 255 255 253 0 0 2 1 2 4 0 0 2 254 255 255 253 253 251 255 255 255 255 255 255 255 255 255 255 255 255 255 255 255 255 255 255 255 255 255 255 255 255 255 255 255 255 255 255 255 255 255 255 255 255 254 254 254 255 255 255 255 255 255 254 254 254 254 254 254 0 0 0 255 255 255 254 254 254 255 255 255 255 255 255 255 255 255 255 255 255 255 255 255 255 255 255 255 255 255 255 255 255 255 255 255 255 255 255 255 255 255 255 255 255 255 255 255 255 255 255 255 255 255 255 255 255 255 255 255 255 255 255 255 255 255 255 255 255 255 255 255 255 255 255 255 255 255 255 255 255 255 255 255 255 255 255 255 255 255 255 255 255 255 255 255 255 255 255 255 255 255 255 255 255 255 255 255 255 255 255 255 255 255 255 255 255 255 255 255 255 255 255 254 254 254 255 255 255 255 255 255 255 255 255 255 255 255 255 255 255 255 255 255 255 255 255 0 0 2 67 222 0 86 217 0 156 255 68 0 0 0 254 254 252 255 255 255 254 254 254 255 255 255 255 255 255 255 255 255 255 255 255 255 255 255 255 255 255 255 255 255 255 255 255 255 255 255 255 255 255 255 255 255 255 255 255 255 255 255 255 255 255 255 255 255 255 255 255 0 0 0 254 254 254 255 255 255 255 255 255 255 255 255 255 255 255 255 255 255 255 255 255 255 255 255 255 255 255 255 255 255 255 255 255 255 255 255 255 255 255 255 255 255 255 255 255 255 255 255 255 255 255 255 255 255 255 255 255 255 255 255 255 255 255 255 255 255 255 255 255 255 255 255 255 255 255 255 255 255 255 255 255 255 255 255 255 255 255 255 255 255 255 255 255 255 255 255 255 255 255 255 255 255 255 255 255 255 255 255 255 255 255 255 255 255 255 255 255 255 255 255 254 254 254 255 255 255 255 255 255 255 255 255 254 254 254 254 254 254 0 0 0 51 221 1 86 220 3 115 238 34 171 254 86 169 255 84 0 0 0 255 255 255 255 255 255 255 255 255 255 255 255 255 255 255 255 255 255 255 255 255 255 255 255 255 255 255 255 255 255 254 254 254 255 255 255 254 254 254 254 254 254 255 255 255 255 255 255 255 255 255 255 255 255 255 255 255 0 0 0 255 255 255 254 254 254 255 255 255 255 255 255 255 255 255 255 255 255 255 255 255 255 255 255 255 255 255 255 255 255 255 255 255 255 255 255 255 255 255 255 255 255 255 255 255 255 255 255 255 255 255 255 255 255 255 255 255 255 255 255 255 255 255 255 255 255 255 255 255 255 255 255 255 255 255 255 255 255 255 255 255 255 255 255 255 255 255 255 255 255 255 255 255 255 255 255 254 255 253 255 255 255 255 255 255 255 255 255 255 255 255 255 255 255 255 255 255 255 255 255 254 255 255 255 255 255 255 255 253 254 254 254 0 0 0 35 204 1 35 204 1 98 239 0 156 254 69 169 255 84 169 255 86 169 255 86 0 0 0 255 254 255 255 255 255 255 255 255 255 255 255 255 255 255 255 255 255 254 255 255 255 255 255 255 255 255 255 255 255 255 255 255 255 255 255 255 255 255 255 255 255 255 255 255 255 255 255 255 255 255 254 254 254 255 255 255 0 0 0 255 255 255 254 254 254 255 255 255 255 255 255 255 255 255 255 255 255 255 255 255 255 255 255 255 255 255 255 255 255 255 255 255 255 255 255 255 255 255 255 255 255 255 255 255 255 255 255 255 255 255 255 255 255 255 255 255 255 255 255 255 255 255 255 255 255 255 255 255 255 255 255 255 255 255 255 255 255 255 255 255 255 255 255 255 255 255 255 254 255 255 255 255 255 254 255 253 255 252 255 254 255 254 254 252 254 255 255 255 254 255 255 254 255 254 255 255 255 255 253 253 255 254 255 255 255 0 0 0 35 204 1 34 203 0 48 207 19 114 238 18 129 239 18 142 255 49 170 255 85 168 254 83 0 0 0 255 255 255 254 255 253 255 255 255 255 255 253 255 255 255 255 255 253 255 255 255 255 255 255 255 255 255 255 255 255 255 255 255 255 255 255 255 255 255 255 255 255 255 255 255 255 255 255 255 255 255 255 255 255 255 255 255 255 255 255 0 0 0 255 255 255 255 255 255 255 255 255 255 255 255 255 255 255 255 255 255 255 255 255 255 255 255 255 255 255 255 255 255 255 255 255 255 255 255 255 255 255 255 255 255 255 255 255 255 255 255 255 255 255 255 255 255 255 255 255 255 255 255 255 255 255 255 255 255 255 255 255 254 254 255 254 254 252 254 254 255 255 255 255 253 253 253 254 254 255 255 255 255 255 255 255 255 255 255 254 255 255 255 255 255 254 254 254 255 255 255 254 255 255 255 254 255 255 255 255 254 254 254 0 0 0 34 202 1 46 205 16 51 207 19 66 223 20 96 237 18 114 238 17 132 238 18 142 254 48 176 255 97 170 255 85 0 0 0 255 255 255 254 254 255 254 255 255 255 255 253 255 254 255 255 255 253 255 255 253 255 255 255 255 255 255 255 255 255 255 255 255 255 255 255 255 255 255 255 255 255 255 255 255 255 255 255 255 255 255 254 254 254 254 254 254 0 0 0 255 255 255 255 255 255 255 255 255 255 255 255 255 255 255 255 255 255 255 255 255 255 255 255 255 255 255 255 255 255 255 255 255 255 255 255 255 255 255 255 255 255 255 255 255 255 255 255 255 255 255 255 255 255 255 255 255 255 255 255 255 255 255 254 254 254 255 255 255 255 255 253 255 255 255 255 255 253 255 255 255 255 255 255 255 255 255 254 255 255 255 253 254 255 255 255 255 254 255 253 253 255 254 254 254 255 255 255 255 255 253 254 254 254 255 255 255 2 0 1 35 204 1 48 207 18 48 207 18 48 207 16 64 213 36 79 226 32 92 226 35 124 239 32 132 237 20 161 253 80 174 255 98 185 255 102 1 0 0 254 254 252 255 255 253 255 254 255 254 255 255 254 254 254 254 254 255 253 253 253 255 255 255 255 255 255 255 255 255 255 255 255 254 254 254 255 255 255 255 255 255 255 255 255 255 255 255 254 254 254 255 255 255 255 255 255 1 1 1 254 254 254 255 255 255 255 255 255 255 255 255 255 255 255 255 255 255 255 255 255 255 255 255 255 255 255 255 255 255 255 255 255 255 255 255 255 255 255 255 255 255 255 255 255 255 255 255 255 255 255 255 255 255 255 255 255 255 255 255 255 255 255 255 255 255 255 255 255 255 255 253 255 255 255 254 254 254 255 255 255 255 255 253 255 255 255 254 252 253 255 255 255 254 255 253 255 255 251 255 255 255 252 254 253 254 255 255 0 2 1 0 0 2 94 221 16 80 221 18 64 222 15 47 209 35 34 210 37 47 210 33 64 213 35 62 226 35 107 240 35 121 239 33 144 255 50 175 255 94 192 254 117 204 255 154 0 0 2 255 255 255 255 255 255 255 255 255 255 255 255 255 255 253 255 255 255 255 255 255 255 255 255 255 255 255 255 255 255 255 255 255 255 255 255 254 254 254 255 255 255 255 255 255 254 254 254 255 255 255 255 255 255 0 0 0 255 255 255 255 255 255 254 254 254 255 255 255 255 255 255 255 255 255 255 255 255 255 255 255 255 255 255 255 255 255 255 255 255 255 255 255 255 255 255 255 255 255 255 255 255 255 255 255 255 255 255 255 255 255 255 255 255 255 255 255 254 254 254 255 255 255 255 255 253 254 254 254 254 254 254 255 255 255 255 255 255 255 255 255 255 255 253 255 255 255 255 255 251 255 255 253 254 254 255 255 253 254 3 1 4 1 1 0 159 254 64 127 239 33 117 239 18 80 222 14 38 212 37 34 196 32 34 196 33 55 214 52 65 214 52 77 228 51 94 225 33 122 240 34 134 254 32 175 253 81 176 254 93 205 255 144 220 254 167 1 1 1 255 255 255 255 255 255 255 255 253 255 255 255 254 255 253 255 255 255 255 255 255 255 255 255 255 255 255 254 254 254 255 255 255 255 255 255 255 255 255 255 255 255 255 255 255 255 255 255 255 255 255 255 255 255 1 1 1 255 255 255 255 255 255 255 255 255 255 255 255 255 255 255 255 255 255 255 255 255 255 255 255 255 255 255 255 255 255 255 255 255 255 255 255 255 255 255 255 255 255 255 255 255 255 255 255 255 255 255 255 255 255 254 254 254 255 255 255 255 255 255 255 255 255 255 255 255 255 255 255 255 255 255 255 255 255 255 255 253 255 255 255 254 254 252 255 255 255 0 0 2 0 0 0 0 1 3 173 255 93 160 254 80 145 255 34 114 238 17 91 225 30 49 211 37 33 195 32 50 172 51 51 187 51 50 215 51 65 214 52 78 229 54 90 229 50 119 241 52 121 238 35 153 255 50 176 254 82 192 254 117 220 255 161 229 253 167 1 1 1 255 255 255 251 255 254 255 255 255 254 254 254 255 255 255 255 255 255 255 255 255 255 255 255 255 255 255 255 255 255 255 255 255 255 255 255 255 255 255 255 255 255 255 255 255 254 254 254 255 255 255 0 0 0 255 255 255 255 255 255 255 255 255 255 255 255 255 255 255 255 255 255 255 255 255 255 255 255 255 255 255 255 255 255 255 255 255 255 255 255 255 255 255 255 255 255 255 255 255 255 255 255 255 255 255 255 255 255 255 255 255 255 255 255 255 255 255 255 255 255 254 254 254 254 254 254 254 254 254 255 255 255 255 255 255 0 1 0 1 1 1 2 0 1 169 255 84 175 255 94 161 254 85 130 240 19 114 238 17 122 240 34 93 227 34 48 211 34 33 181 33 51 173 52 53 161 49 53 173 50 51 201 50 51 213 49 77 228 51 91 228 50 120 241 52 132 241 51 122 240 34 151 255 48 175 255 96 206 255 129 222 255 177 239 255 188 1 1 0 0 0 2 254 254 254 254 255 255 255 255 255 255 255 255 255 255 255 255 255 255 255 255 255 255 255 255 255 255 255 255 255 255 255 255 255 254 254 254 255 255 255 255 255 255 255 255 255 0 0 0 255 255 255 255 255 255 255 255 255 255 255 255 255 255 255 255 255 255 255 255 255 255 255 255 255 255 255 255 255 255 254 255 255 255 255 255 255 255 255 255 255 255 255 255 255 255 255 255 255 255 255 255 255 255 255 255 255 254 254 254 255 255 255 255 255 255 255 254 255 255 255 255 0 0 0 2 2 2 0 0 0 169 255 84 169 255 84 175 255 96 176 254 80 147 255 32 114 238 17 107 239 32 93 227 34 64 225 35 31 196 32 51 173 52 51 160 51 52 147 53 51 160 51 68 180 68 68 204 68 69 219 68 93 229 69 105 229 69 120 241 48 119 241 52 120 241 52 122 240 34 152 255 49 176 254 80 205 254 145 235 255 177 238 255 187 253 254 222 1 0 0 255 255 255 255 255 255 255 255 255 255 255 255 254 254 254 255 255 255 255 255 255 255 255 255 255 255 255 255 255 255 255 255 255 255 255 255 255 255 255 255 255 255 255 255 255 0 0 0 254 254 254 255 255 255 255 255 255 255 255 255 255 255 255 255 255 255 255 255 255 255 255 255 255 255 255 254 254 254 255 255 255 255 255 255 255 255 255 255 255 255 255 255 255 255 255 255 254 255 255 255 255 255 255 255 255 255 255 255 255 255 255 0 0 0 0 0 0 169 255 84 171 254 84 168 254 83 177 254 96 161 255 81 147 255 32 113 237 16 91 226 35 79 226 34 48 211 34 34 196 33 52 200 50 51 160 53 51 145 49 49 133 48 68 141 68 69 155 68 68 180 70 68 204 68 67 217 66 94 228 69 106 244 70 119 243 69 118 241 49 119 241 52 119 241 52 121 240 34 135 255 35 179 255 94 209 254 161 236 254 192 238 254 205 255 255 255 0 0 0 1 1 1 255 255 255 255 255 255 255 255 255 255 255 255 255 255 255 255 255 253 255 255 255 255 255 255 255 255 255 255 255 255 255 255 255 255 255 255 255 255 255 0 0 0 255 255 255 255 255 255 255 255 255 255 255 255 255 255 255 255 255 255 255 255 255 255 255 255 255 255 255 255 255 255 255 255 255 255 255 255 255 255 253 255 255 255 255 255 255 255 255 255 254 254 252 254 254 252 255 255 255 0 1 0 0 2 0 171 254 86 167 255 83 169 255 84 176 254 80 160 255 65 132 239 19 81 220 13 77 227 34 49 212 35 35 197 34 35 197 36 51 189 52 51 160 53 51 146 52 50 135 50 52 134 50 69 131 68 70 144 67 70 155 70 67 179 67 68 204 68 80 231 68 90 229 66 120 244 70 133 243 68 131 244 68 117 242 50 132 241 51 133 254 51 137 254 36 165 255 79 194 254 106 222 255 176 241 253 191 255 254 223 253 254 255 255 255 255 1 1 1 255 253 254 254 254 254 255 255 253 255 255 255 255 254 255 255 255 255 255 255 255 255 255 255 255 255 255 255 255 255 254 254 254 255 255 255 0 0 0 255 255 255 255 255 255 255 255 255 255 255 255 255 255 255 255 255 255 255 255 255 255 255 255 255 255 255 255 254 255 254 254 252 255 255 255 255 253 254 255 255 255 253 253 253 255 255 255 254 255 255 255 254 255 1 1 1 172 255 87 169 255 86 169 255 84 153 254 52 144 255 48 129 239 16 80 222 16 47 212 32 34 196 33 35 196 32 50 187 48 50 172 51 48 160 52 50 145 51 50 132 48 69 142 69 67 141 66 67 132 68 67 129 66 70 144 69 67 168 66 69 192 68 68 218 67 93 228 64 107 246 69 130 242 70 131 241 66 141 255 65 143 255 65 143 255 49 162 255 52 171 255 92 179 253 94 195 255 119 228 254 183 238 255 193 238 255 203 255 255 240 255 255 255 255 255 253 1 1 3 254 254 252 255 255 255 255 255 255 254 254 254 255 255 255 255 255 255 255 255 255 255 255 255 255 255 255 255 255 255 254 254 254 0 0 0 255 255 255 255 255 255 255 255 255 255 255 255 255 255 255 255 255 255 255 255 255 255 255 255 255 255 255 254 254 254 255 255 253 255 255 255 254 254 255 254 254 254 255 255 253 254 254 254 255 255 253 0 1 0 168 254 83 168 254 85 155 255 69 138 253 36 129 241 17 96 236 15 76 225 35 35 196 32 33 181 35 33 167 36 49 175 52 53 161 50 53 161 52 52 147 55 70 144 69 70 143 70 69 143 66 71 143 69 68 130 65 70 142 69 69 155 68 69 181 69 68 205 66 93 228 66 105 230 68 127 241 67 143 255 65 141 255 69 170 255 71 180 255 92 191 254 103 192 254 117 188 255 116 214 255 146 230 254 180 255 255 221 255 253 238 255 255 245 253 254 238 255 255 255 254 254 255 255 255 255 0 0 0 255 255 255 255 255 255 255 255 253 255 255 255 255 255 255 254 254 254 255 255 255 255 255 255 255 255 255 255 255 255 0 0 0 255 255 255 255 255 255 255 255 255 255 255 255 255 255 255 255 255 255 255 255 255 255 255 255 255 255 255 254 254 254 255 255 255 255 255 255 255 254 255 254 254 252 254 254 254 254 254 252 0 0 0 171 254 84 169 255 84 137 255 33 70 169 0 0 2 0 1 0 0 18 128 15 33 181 31 33 167 32 51 161 49 49 162 48 50 159 50 49 161 51 68 154 67 67 155 68 69 141 67 68 142 65 69 143 68 69 143 66 69 153 67 66 156 69 71 167 70 66 193 64 80 219 68 94 230 70 118 242 68 131 255 69 153 251 68 178 254 93 193 254 117 192 254 119 191 253 118 204 254 131 228 255 169 229 254 189 255 255 242 254 254 254 254 254 254 254 255 253 253 255 254 255 255 255 255 255 255 254 254 254 1 1 1 255 255 255 255 255 255 255 255 255 255 255 255 255 255 255 255 255 255 255 255 255 255 255 255 255 255 255 254 254 254 1 1 1 255 255 255 255 255 255 255 255 255 255 255 255 255 255 255 255 255 255 255 255 255 255 255 255 255 255 255 255 255 255 255 255 255 255 255 255 254 254 254 255 254 255 254 254 254 1 1 3 169 255 84 168 254 83 136 238 15 69 152 2 0 2 1 255 253 2 0 0 0 0 0 0 33 92 34 51 160 51 49 161 51 51 160 51 67 167 68 72 168 70 69 155 66 68 154 67 69 155 68 67 155 69 68 154 65 73 167 70 65 170 69 71 167 69 66 192 66 70 204 71 93 229 67 104 229 67 131 244 66 155 253 68 181 255 95 192 254 117 192 254 117 191 253 118 206 255 130 234 254 183 242 254 190 252 255 225 255 253 254 255 255 255 255 253 254 255 255 255 255 255 255 255 255 255 255 254 239 254 254 254 255 253 254 0 2 1 255 255 255 255 255 255 255 255 255 254 254 254 255 255 255 255 255 255 255 255 255 255 255 255 255 255 255 0 0 0 255 255 255 255 255 255 255 255 255 255 255 255 255 255 255 255 255 255 255 255 255 255 255 255 255 255 255 255 255 255 255 255 255 254 254 252 255 255 255 254 254 255 255 255 255 0 0 0 169 255 84 153 255 50 101 238 2 1 0 0 0 0 0 255 255 1 0 0 0 0 0 0 2 2 2 51 160 51 52 160 49 67 169 70 68 169 67 68 168 69 68 168 69 68 170 71 68 168 69 67 169 69 68 168 72 67 167 68 71 179 68 65 194 68 68 205 66 93 230 65 93 229 69 105 230 68 143 255 65 182 254 94 192 254 117 193 254 117 192 254 117 205 255 132 220 255 169 242 253 195 243 255 193 254 255 243 254 254 254 255 255 255 253 255 252 255 255 253 254 254 254 255 255 255 255 254 241 255 254 223 255 255 255 1 1 1 255 255 253 255 254 255 255 255 255 255 255 255 255 255 255 255 255 255 255 255 255 255 255 255 0 0 0 255 255 255 255 255 255 255 255 255 255 255 255 255 255 255 255 255 255 255 255 255 255 255 255 255 255 255 255 255 255 255 255 255 255 255 255 255 255 253 254 254 254 254 254 255 0 0 0 169 255 84 169 255 84 119 238 0 98 223 17 0 0 0 255 255 1 255 255 1 255 254 1 255 255 1 2 0 1 68 168 69 67 169 70 66 168 68 68 168 69 68 168 69 68 168 69 67 167 68 69 169 70 68 168 69 67 179 67 71 191 68 68 204 68 69 217 67 80 230 71 53 120 51 0 0 0 0 0 2 0 0 0 0 1 0 91 145 51 191 255 117 192 254 119 204 255 137 229 255 181 243 255 193 243 255 193 254 255 241 255 255 253 255 255 255 255 253 254 255 255 255 255 255 255 255 255 255 254 255 239 239 255 192 238 254 205 254 255 237 0 0 0 254 254 254 254 255 255 255 255 255 255 255 255 255 255 255 255 255 255 255 255 255 0 0 0 254 254 254 255 255 255 255 255 255 255 255 255 255 255 255 255 255 255 255 255 255 255 255 255 255 255 255 255 255 255 254 254 254 255 255 255 255 255 255 255 255 253 255 255 255 1 1 1 169 255 84 154 254 70 114 238 17 49 222 18 0 0 0 0 0 0 255 255 0 1 1 1 1 1 1 3 0 0 68 169 67 67 169 69 69 169 70 70 180 68 69 181 69 70 180 68 69 181 69 68 180 68 67 193 68 68 204 68 66 219 66 81 230 68 80 231 68 53 120 51 2 2 2 1 0 0 255 255 1 254 255 1 0 0 0 0 0 0 92 146 52 192 255 115 202 255 137 229 255 181 228 254 180 243 255 193 243 255 219 255 255 255 255 255 255 255 255 253 255 255 255 255 255 253 255 254 255 237 253 204 205 254 145 222 255 174 239 254 189 2 2 2 254 255 255 255 255 253 255 255 255 254 254 254 255 255 255 255 255 255 255 255 255 0 0 0 255 255 255 255 255 255 255 255 255 255 255 255 255 255 255 255 255 255 255 255 255 255 255 255 255 255 255 255 255 255 255 255 255 255 255 255 253 253 253 255 254 255 0 1 0 169 255 86 168 255 84 151 254 49 80 222 16 16 206 18 18 113 19 0 0 0 255 255 2 0 0 0 1 0 0 51 92 52 68 180 70 68 180 68 67 193 68 68 192 68 67 203 67 67 204 65 69 206 67 69 203 68 66 219 67 79 230 67 80 231 66 93 229 67 105 230 68 0 0 0 0 0 2 0 0 0 255 253 0 255 254 1 3 1 2 0 0 0 0 1 0 192 254 117 203 253 138 230 255 169 230 254 180 243 255 193 243 255 193 254 254 216 255 253 241 255 254 255 252 255 238 254 255 239 238 254 205 203 255 144 193 254 117 207 253 144 230 255 167 1 0 2 255 255 253 255 255 255 255 255 255 255 255 255 255 255 255 255 255 255 0 0 0 255 255 255 255 255 255 255 255 255 255 255 255 255 255 255 255 255 255 255 255 255 255 255 255 255 255 255 255 255 255 255 255 255 255 255 255 254 254 254 255 255 255 255 255 253 1 0 0 170 255 102 168 254 85 135 255 36 67 224 21 19 191 17 33 195 34 35 78 33 1 0 0 0 0 2 50 93 50 68 180 68 67 193 68 72 191 71 0 0 0 68 206 67 70 204 69 68 204 68 70 218 68 68 218 67 80 231 68 95 230 68 107 232 68 118 242 70 119 243 69 1 1 3 255 254 1 255 255 1 255 254 3 254 255 3 254 255 3 253 254 0 4 0 5 192 255 115 204 255 130 220 255 169 229 255 179 245 255 194 243 255 191 244 254 193 240 254 201 241 255 201 238 255 203 243 255 191 195 252 137 183 253 94 174 255 96 192 254 117 220 255 171 234 255 183 1 1 3 255 255 255 255 255 255 255 255 255 255 255 255 255 255 255 0 0 0 255 255 255 255 255 255 255 255 255 255 255 255 255 255 255 255 255 255 255 255 255 255 255 255 255 255 255 255 255 255 255 255 255 255 255 255 255 254 255 254 254 254 255 255 255 0 0 0 185 254 101 170 255 83 138 255 37 50 207 16 17 191 16 33 181 31 53 160 54 52 162 50 53 159 49 67 179 67 67 192 64 69 203 70 67 203 67 0 0 2 68 204 68 0 0 2 68 218 67 69 217 67 1 1 1 94 229 67 119 241 68 118 242 68 132 242 65 130 243 67 2 0 1 0 1 0 1 1 1 255 255 0 255 255 1 3 0 0 1 1 1 1 3 0 192 254 119 192 254 117 205 255 142 230 254 168 227 255 190 244 254 193 242 253 193 230 255 182 231 255 181 220 255 169 205 255 130 173 255 93 161 255 79 178 254 94 172 255 98 220 255 151 237 253 190 1 1 0 255 255 255 255 255 255 255 255 255 255 255 255 0 0 0 255 255 255 255 255 255 255 255 255 255 255 255 255 255 255 255 255 255 255 255 255 255 255 255 255 255 255 255 255 255 255 255 255 255 255 255 255 255 255 255 255 255 254 255 255 255 255 251 0 0 0 206 255 123 169 254 101 135 236 34 33 206 18 20 194 17 34 181 38 48 162 49 51 158 52 67 193 70 69 203 68 69 203 68 69 205 69 68 204 70 68 205 66 0 0 2 1 0 0 66 219 66 69 219 68 2 0 1 117 244 69 130 245 66 131 244 68 130 244 70 131 244 68 63 132 49 0 0 0 0 0 0 255 255 1 255 253 0 0 0 2 0 0 0 91 144 52 192 254 117 193 255 120 192 254 127 206 255 138 220 255 169 229 255 182 242 254 192 226 255 182 218 255 150 203 254 136 187 255 105 159 255 65 153 255 49 179 255 92 177 255 94 201 255 135 220 255 168 1 0 2 255 255 253 255 255 255 255 255 255 255 255 255 0 0 0 255 255 255 255 255 255 255 255 255 255 255 255 255 255 255 255 255 255 255 255 255 255 255 255 255 255 255 255 255 255 255 255 255 255 255 255 254 254 254 255 255 255 255 255 255 254 254 255 1 0 0 204 255 154 188 254 102 137 255 49 31 208 14 17 189 17 34 181 31 52 161 54 51 175 51 51 199 49 67 205 68 69 204 65 68 204 68 69 203 68 69 205 71 68 204 68 67 205 68 1 1 3 1 1 1 119 243 69 131 241 68 130 243 67 130 243 65 131 243 70 131 244 68 129 243 69 65 133 50 2 2 4 1 1 3 0 0 2 0 0 0 93 147 51 194 255 118 192 254 119 192 253 116 193 255 120 189 255 117 194 255 131 203 253 138 205 255 138 206 255 137 205 255 132 188 254 118 189 255 105 144 255 65 120 240 31 167 255 95 171 255 97 188 254 118 221 255 170 0 0 0 255 255 255 255 255 255 255 255 255 0 0 0 255 255 255 255 255 255 255 255 255 255 255 255 255 255 255 255 255 255 255 255 255 255 255 255 255 255 255 255 255 255 255 255 255 255 255 255 255 255 255 255 255 255 255 255 255 254 254 254 255 255 255 0 0 0 222 254 153 187 255 118 154 254 68 48 207 18 19 193 18 32 182 35 34 151 34 50 186 50 51 201 54 67 203 67 67 205 70 68 204 68 67 205 68 68 204 68 68 204 68 70 218 68 93 229 67 105 244 67 119 243 69 129 243 67 130 243 67 131 243 70 129 242 66 131 241 68 129 243 67 130 254 68 143 255 67 143 255 69 154 254 68 180 255 94 190 252 117 191 253 116 193 255 118 191 255 117 191 253 116 192 254 117 191 253 116 192 254 117 192 254 117 192 254 119 206 254 142 226 255 191 230 255 193 180 255 94 138 239 49 167 255 93 175 255 96 185 255 102 219 255 153 0 0 0 255 255 255 255 255 255 254 254 254 0 0 0 255 255 255 255 255 255 255 255 255 255 255 255 255 255 255 255 255 255 255 255 255 255 255 255 255 255 255 255 255 255 255 255 255 255 255 255 255 255 255 255 255 255 255 255 255 255 255 255 255 255 253 1 0 0 220 255 169 188 254 118 154 254 68 66 223 18 17 191 16 32 180 32 35 166 34 51 187 51 52 202 53 67 205 68 68 204 68 67 205 68 68 204 68 69 205 71 67 205 66 65 218 66 93 229 69 119 243 69 119 243 69 129 243 67 130 242 69 130 243 65 130 243 67 130 243 63 130 242 69 130 243 65 129 255 70 143 255 67 143 255 69 154 254 70 181 255 95 191 254 103 190 254 118 192 254 117 192 255 115 192 254 117 193 254 117 190 252 115 192 254 117 193 255 132 240 255 214 254 255 255 254 254 254 238 255 221 152 240 78 160 255 65 174 255 96 186 255 104 204 255 154 0 0 0 255 255 255 255 255 255 0 0 0 255 255 255 255 255 255 255 255 255 255 255 255 254 254 254 255 255 255 255 255 255 255 255 255 255 255 255 255 255 255 255 255 255 255 255 255 255 255 255 255 255 255 255 255 255 255 255 253 255 255 255 255 255 253 0 0 2 220 255 169 202 255 137 152 254 84 85 221 0 31 206 13 18 192 17 34 168 35 33 179 32 52 200 52 53 201 53 67 205 68 68 204 68 69 203 68 68 204 68 67 205 66 69 203 68 92 228 66 119 243 69 119 243 69 129 243 67 130 243 65 132 242 67 130 243 65 130 243 67 130 243 65 131 244 68 131 244 68 130 254 68 143 255 69 145 255 66 154 252 67 172 255 87 180 254 105 181 253 107 191 253 118 193 255 118 193 254 117 192 254 117 180 254 107 195 253 117 240 255 212 255 254 255 254 254 254 254 255 240 175 255 94 162 254 67 160 255 67 169 255 84 187 255 118 0 0 0 255 255 255 255 255 255 0 0 0 255 255 255 255 255 255 255 255 255 255 255 255 255 255 255 255 255 255 255 255 255 255 255 255 255 255 255 255 255 255 255 255 255 255 255 255 255 255 255 255 255 255 255 254 255 255 255 255 255 255 255 254 254 255 0 0 2 222 254 187 205 255 138 171 254 86 106 230 32 49 205 18 17 191 16 34 182 36 33 181 31 52 202 53 49 202 50 49 202 50 71 203 68 69 205 69 68 205 66 68 204 68 67 203 67 69 231 70 105 243 69 120 242 69 119 241 68 130 243 65 130 244 68 129 241 68 130 245 66 129 242 66 130 243 67 130 243 67 131 243 70 130 255 67 143 255 67 143 255 67 142 254 68 156 254 69 169 255 66 172 254 84 169 255 84 169 255 86 156 254 69 154 254 67 152 254 82 194 255 123 253 255 239 254 254 252 207 255 177 144 238 64 162 255 61 161 255 81 171 254 84 186 255 100 0 0 0 255 255 255 255 255 255 0 0 0 255 255 255 255 255 255 255 255 255 255 255 255 255 255 255 255 255 255 255 255 255 255 255 255 255 255 255 255 255 255 255 255 255 255 255 255 255 255 255 255 255 255 255 255 255 255 255 255 255 255 255 254 254 254 255 255 255 0 0 0 219 255 168 188 254 102 154 254 68 65 221 0 33 206 16 20 193 16 33 166 38 32 180 32 53 202 50 51 199 49 50 200 49 69 205 69 68 204 72 70 205 67 67 205 68 67 217 66 94 229 67 118 245 70 120 244 70 117 244 69 117 244 67 130 243 67 133 243 68 131 244 68 131 241 68 132 245 69 132 245 69 131 244 68 129 255 68 145 255 72 144 255 65 141 255 69 143 255 69 140 255 66 143 255 65 145 255 68 143 255 65 144 255 68 145 255 82 132 240 76 123 241 93 121 224 107 124 240 77 128 240 34 161 255 68 170 253 83 167 255 81 1 1 3 255 255 255 252 254 253 0 0 0 255 255 255 255 255 255 255 255 255 255 255 255 254 254 254 255 255 255 255 255 255 255 255 255 255 255 255 255 255 255 255 255 255 255 255 255 255 255 255 255 255 255 255 255 255 254 254 255 255 255 255 255 255 255 255 255 255 255 255 255 0 1 0 255 255 240 219 255 154 155 255 69 87 238 1 35 204 1 35 191 20 19 194 13 34 180 33 31 196 32 53 203 52 54 202 52 51 201 50 69 203 68 68 204 68 69 206 67 66 204 67 64 219 66 90 229 66 105 242 68 121 243 74 119 242 73 117 244 69 117 244 69 130 240 65 120 244 70 132 242 67 128 242 68 131 244 64 132 242 69 132 243 61 130 254 72 130 254 68 142 254 64 143 255 69 143 255 65 139 244 64 131 244 68 128 243 64 106 240 49 92 229 53 79 227 53 64 213 35 108 240 33 128 238 19 174 254 79 170 255 92 171 254 86 0 0 0 255 255 255 255 255 255 0 0 0 253 253 253 255 255 255 255 255 255 255 255 255 255 255 255 255 255 255 255 255 255 255 255 255 255 255 255 255 255 255 255 255 255 255 255 255 255 255 255 255 255 255 255 255 255 254 254 254 255 255 255 255 255 255 255 255 255 255 255 253 254 254 254 0 0 0 253 254 238 189 255 119 115 239 19 68 220 0 47 208 18 16 192 21 16 193 17 32 182 31 34 196 33 48 203 50 50 200 49 50 200 51 52 200 52 67 204 65 70 204 71 68 217 65 70 218 68 91 230 67 105 241 69 103 244 67 119 243 69 121 243 72 119 243 69 120 242 69 119 243 69 122 242 67 120 242 69 119 243 67 130 242 72 129 244 65 130 242 69 131 244 68 130 243 67 128 242 66 120 242 71 119 243 69 91 228 52 77 228 55 65 214 50 46 211 33 91 225 32 114 239 15 144 255 48 169 255 84 171 253 83 1 1 1 255 255 255 255 255 255 1 0 0 255 255 255 255 255 255 255 255 255 255 255 255 255 255 255 253 253 253 255 255 255 255 255 255 255 255 255 255 255 255 255 255 255 255 255 255 255 255 255 255 255 255 255 255 255 255 255 255 255 255 255 255 255 255 255 255 255 255 255 255 255 253 254 254 254 254 1 0 0 255 255 255 255 254 223 185 254 99 101 238 0 50 218 0 31 209 13 18 192 19 19 191 19 33 198 36 36 195 32 33 195 32 52 200 50 49 202 50 52 202 51 50 200 49 68 204 68 68 218 67 67 218 65 80 231 68 92 228 66 105 243 69 102 243 68 108 242 69 119 243 69 119 243 69 116 242 70 117 244 69 121 243 70 119 243 67 117 243 71 119 243 69 117 243 71 119 243 71 93 228 50 90 229 48 79 227 53 63 214 51 51 213 49 34 211 35 79 226 36 97 239 17 146 255 35 175 255 82 171 254 84 170 255 87 0 0 0 255 253 254 254 254 254 1 1 1 255 255 255 255 255 255 255 255 255 255 255 255 255 255 255 255 255 255 255 255 255 255 255 255 255 255 255 255 255 255 255 255 255 255 255 255 255 255 255 255 255 255 255 255 255 255 255 255 255 255 255 255 255 255 255 255 255 254 254 254 255 255 255 254 255 255 255 255 255 1 0 0 255 255 255 254 255 223 170 255 102 101 238 0 52 222 2 31 206 15 17 208 16 18 190 16 33 195 34 32 197 33 33 195 32 51 201 54 50 200 49 52 202 53 48 201 49 51 201 50 53 213 51 68 216 66 80 219 66 79 231 68 94 230 68 93 229 67 94 230 68 105 230 68 108 230 70 105 230 68 107 229 68 91 228 50 93 228 50 89 228 49 93 228 48 76 229 51 77 228 51 77 228 51 65 214 52 49 210 36 48 211 34 79 226 36 96 238 16 129 239 18 161 255 81 169 255 84 169 255 86 1 1 1 255 255 255 254 254 254 255 255 255 0 0 0 255 255 255 255 255 255 255 255 255 255 255 255 255 255 255 255 255 255 255 255 255 255 255 255 255 255 255 255 255 255 255 255 255 255 255 255 255 255 255 255 255 255 255 255 255 255 255 255 255 255 255 255 255 255 255 255 255 255 255 255 255 255 255 255 255 255 255 255 255 255 255 255 0 0 0 255 255 253 238 255 223 170 255 102 114 238 17 85 221 0 36 203 1 33 206 16 18 192 17 18 192 17 35 197 34 34 196 33 34 196 33 33 195 31 52 200 50 49 202 50 51 201 50 53 215 52 52 214 51 65 214 52 65 214 52 65 214 52 65 228 51 77 228 51 77 228 51 77 228 51 79 228 51 79 228 51 76 229 51 77 228 51 76 228 55 77 228 51 77 228 51 64 225 35 64 213 35 64 225 35 92 228 34 113 237 16 147 253 31 162 254 81 169 255 84 169 255 86 0 0 0 253 253 253 255 255 255 255 255 255 255 255 255 1 0 0 254 254 254 255 255 255 255 255 255 255 255 255 255 254 255 254 254 254 255 255 255 255 255 255 255 255 255 255 255 255 255 255 255 255 255 255 255 255 255 255 255 255 255 255 255 255 255 255 255 255 255 255 255 255 255 255 255 255 255 255 255 255 255 255 255 255 255 255 255 255 255 255 255 255 255 1 1 1 254 254 252 255 254 224 187 255 114 136 238 33 101 238 0 70 222 0 32 207 16 33 208 19 13 192 13 16 192 19 34 196 33 34 196 35 35 197 34 32 197 33 34 196 33 51 201 50 52 214 51 52 214 53 53 215 52 53 215 52 64 213 51 66 212 53 63 214 51 64 215 52 66 215 53 76 227 50 64 224 36 64 225 35 64 224 36 63 224 34 64 225 33 80 227 33 94 225 35 94 239 16 129 239 16 160 255 65 175 255 96 168 254 83 169 255 86 0 0 0 255 255 255 255 255 255 255 255 255 254 254 255 255 255 255 0 0 0 255 255 255 254 255 255 255 255 255 0 0 0 1 0 0 0 0 0 255 255 255 255 255 255 255 255 255 255 255 255 255 255 255 255 255 255 255 255 255 255 255 255 255 255 255 255 255 255 255 255 255 255 255 255 255 255 255 255 255 255 255 255 255 255 255 255 255 255 255 255 255 255 254 254 254 255 255 255 0 0 0 254 255 255 254 255 239 204 254 157 169 253 67 136 238 17 101 238 0 67 221 0 50 206 18 34 209 18 17 191 18 17 208 16 34 196 35 33 195 32 34 196 33 32 197 33 34 196 33 36 213 37 33 210 31 34 211 33 35 212 34 48 211 34 48 211 34 48 211 34 49 212 35 60 213 34 63 212 34 80 225 36 77 227 32 94 225 33 78 238 16 96 238 16 113 239 17 147 255 32 177 254 80 169 255 84 168 255 84 171 254 86 0 0 0 255 255 253 255 255 255 255 255 253 255 255 255 255 255 255 255 255 255 255 255 255 0 0 0 254 254 254 0 0 0 101 221 1 204 255 137 204 255 154 0 0 0 255 255 255 255 255 255 255 255 255 255 255 255 255 255 255 255 255 255 255 255 255 255 255 255 255 255 255 255 255 255 255 255 255 255 255 255 255 255 255 255 255 255 255 255 255 255 255 255 255 255 255 255 255 255 255 255 255 255 255 255 0 0 0 0 0 0 254 253 222 220 255 169 204 255 136 171 254 84 135 238 35 99 238 0 84 220 0 64 221 16 47 208 18 31 208 16 34 208 15 31 208 16 32 205 15 15 209 16 48 211 34 49 210 32 49 212 35 49 212 33 48 211 34 48 210 36 48 207 18 50 223 17 65 222 17 80 222 16 80 222 16 96 237 18 114 238 17 132 238 18 146 255 50 176 255 78 168 255 84 167 255 83 169 255 82 0 0 0 0 0 0 255 255 255 255 255 255 254 255 253 255 254 255 254 255 255 255 255 255 255 255 253 253 255 254 1 1 1 1 1 1 36 169 0 100 222 35 255 255 240 253 254 240 154 236 50 0 0 0 255 255 255 255 255 255 255 255 255 255 255 255 255 255 255 255 255 255 255 255 255 255 255 255 255 255 255 255 255 255 255 255 255 255 255 255 255 255 255 255 255 255 255 255 255 255 255 255 254 254 254 254 254 254 254 254 254 254 254 254 254 254 254 1 1 1 0 0 0 221 255 170 219 255 153 205 254 136 172 255 87 138 255 37 118 239 0 120 239 1 116 238 17 96 220 18 82 221 16 64 223 17 66 221 19 66 224 17 65 204 17 49 222 16 65 222 17 66 223 18 66 224 17 83 220 16 95 222 19 96 238 16 116 237 18 113 237 16 130 240 17 137 255 18 152 255 50 155 255 68 169 255 84 171 254 88 1 1 1 0 0 0 255 255 255 255 255 255 255 255 255 255 255 255 254 254 254 254 255 255 255 255 255 255 255 255 254 255 255 255 255 255 254 254 254 0 0 0 2 153 0 71 204 0 167 238 98 172 255 118 118 236 0 0 0 0 255 255 255 255 255 255 255 255 255 255 255 255 255 255 255 255 255 255 255 255 255 255 255 255 255 255 255 255 255 255 255 255 255 255 255 255 255 255 255 255 255 255 255 255 255 255 255 255 255 255 253 255 255 255 255 255 255 255 255 255 255 255 255 254 254 254 253 253 253 1 1 3 1 0 5 0 2 1 218 255 149 200 255 138 191 253 120 169 255 86 152 255 49 136 238 17 114 238 17 120 237 0 117 237 2 102 236 0 102 239 1 102 239 1 100 239 0 101 238 0 119 238 0 119 239 1 117 239 18 136 239 34 136 238 32 154 238 52 155 255 71 155 255 71 169 255 86 0 0 0 0 0 0 0 0 0 255 255 253 255 255 255 254 254 252 254 254 252 255 255 255 255 255 255 255 255 255 255 255 255 255 255 255 255 255 255 255 254 255 255 255 255 255 255 255 1 1 1 0 152 0 14 170 1 51 202 0 85 221 0 69 220 3 1 1 1 255 255 255 255 255 255 255 255 255 255 255 255 255 255 255 255 255 255 255 255 255 255 255 255 255 255 255 255 255 255 255 255 255 255 255 255 255 255 255 255 255 255 255 255 255 255 255 255 255 255 255 255 255 255 254 254 254 254 254 255 255 255 253 254 254 254 255 255 255 254 254 252 255 255 253 255 252 253 1 1 3 3 0 0 0 2 1 1 1 1 0 0 0 1 0 5 170 254 68 154 255 71 152 255 52 153 255 49 152 255 49 152 255 54 154 255 69 154 254 68 169 255 68 170 255 85 168 254 83 0 0 0 0 0 4 0 0 2 1 1 1 0 0 0 0 0 0 255 255 255 254 254 252 255 255 253 254 255 255 255 255 255 255 255 255 254 254 255 255 255 255 255 255 255 255 255 255 255 255 253 254 254 254 254 254 254 254 255 255 254 254 254 255 255 255 255 255 255 1 1 1 1 154 1 0 153 1 18 170 0 0 0 0 255 255 255 255 255 255 255 255 255 255 255 255 255 255 255 255 255 255 255 255 255 255 255 255 255 255 255 255 255 255 255 255 255 255 255 255 255 255 255 255 255 255 255 255 255 255 255 255 255 255 255 255 255 255 255 255 255 255 255 255 255 255 255 255 255 255 253 255 252 255 255 255 255 255 255 255 255 255 255 255 253 255 255 255 255 255 255 254 254 254 255 255 253 255 255 255 254 254 254 0 0 0 1 1 1 0 0 0 1 1 1 1 0 0 1 1 0 0 0 0 0 0 2 0 0 0 0 0 0 0 0 0 255 255 255 255 255 255 254 254 254 255 255 255 255 255 255 254 254 254 255 255 255 255 255 255 255 255 253 255 253 254 254 254 254 255 255 255 255 255 255 255 255 255 255 255 255 255 255 255 254 255 255 255 255 255 255 255 255 255 255 255 255 255 255 255 255 253 255 255 255 255 255 255 1 0 0 0 0 0 0 0 0 253 254 255 255 255 255 255 255 255 255 255 255 255 255 255 255 255 255 255 255 255 255 255 255 255 255 255 255 255 255 