P3 72 48 255
255 255 255 255 255 255 255 255 255 255 255 255 255 255 255 255 255 255 255 255 255 255 255 255 255 255 255 255 255 255 255 255 255 255 255 255 255 255 255 255 255 255 255 255 255 255 255 255 255 255 255 255 255 255 255 255 255 255 255 255 255 255 255 255 255 255 255 255 255 255 255 255 254 254 254 255 255 255 255 255 255 255 255 255 255 255 255 255 255 255 255 255 255 255 255 255 255 255 255 255 255 255 255 255 255 253 254 255 255 255 255 255 255 255 254 255 254 253 254 255 255 255 255 255 255 255 255 255 255 255 255 255 255 255 255 255 255 255 255 255 255 255 255 255 255 255 255 255 255 255 255 255 255 255 255 255 255 255 255 255 255 255 255 255 255 255 255 255 255 255 255 255 255 255 255 255 255 255 255 255 255 255 255 255 255 255 255 255 255 255 255 255 255 255 255 255 255 255 255 255 255 255 255 255 255 255 255 255 255 255 255 255 255 255 255 255 255 255 255 255 255 255 255 255 255 255 255 255 255 255 255 255 255 255 255 255 255 255 255 255 255 255 255 255 255 255 255 255 255 255 255 255 255 255 255 255 255 255 255 255 255 255 255 255 255 255 255 255 255 255 255 255 255 255 255 255 255 255 255 255 255 255 255 255 255 255 255 255 254 254 254 255 255 255 255 255 255 255 255 255 255 255 255 255 255 255 255 255 255 255 255 255 255 255 255 255 255 255 255 255 255 253 254 255 255 255 255 255 253 255 253 254 255 255 255 255 255 255 255 255 255 255 255 255 255 255 255 255 255 255 255 255 255 255 255 255 255 255 255 255 255 255 255 255 255 255 255 255 255 255 255 255 255 255 255 255 255 255 255 255 255 255 255 255 255 255 255 255 255 255 255 255 255 255 255 255 255 255 255 255 255 255 255 255 255 255 255 255 255 255 255 255 255 255 255 255 255 255 255 255 255 255 255 255 255 255 255 255 255 255 255 255 255 255 255 255 255 255 255 255 255 255 255 255 255 255 255 255 255 255 255 255 255 255 255 255 255 255 255 255 255 255 255 255 255 255 255 255 255 255 255 255 255 255 255 255 255 255 255 255 255 255 255 255 255 255 255 255 255 255 255 255 255 255 255 255 255 255 255 255 255 255 255 255 255 255 255 254 254 254 255 255 255 254 254 254 255 255 255 254 254 254 255 255 255 255 255 255 255 255 255 255 255 255 255 255 255 255 255 255 254 255 254 255 255 255 254 254 254 0 0 0 0 0 0 0 0 0 0 0 0 0 0 0 0 0 0 0 0 0 0 0 0 0 0 0 0 0 0 0 0 0 255 255 255 255 255 255 255 255 255 255 255 255 255 255 255 254 254 254 255 255 255 254 254 254 255 255 255 254 254 254 255 255 255 255 255 255 255 255 255 255 255 255 255 255 255 255 255 255 255 255 255 255 255 255 255 255 255 255 255 255 255 255 255 255 255 255 255 255 255 255 255 255 255 255 255 255 255 255 255 255 255 255 255 255 255 255 255 255 255 255 255 255 255 255 255 255 255 255 255 255 255 255 255 255 255 255 255 255 255 255 255 255 255 255 255 255 255 255 255 255 255 255 255 255 255 255 255 255 255 255 255 255 255 255 255 255 255 255 255 255 255 254 254 254 255 255 255 254 254 254 255 255 255 255 255 255 255 255 255 255 255 255 255 255 255 253 254 255 255 255 255 253 254 255 255 255 255 0 0 0 0 0 0 255 255 255 254 254 254 254 254 254 254 254 254 254 254 254 254 254 254 254 254 254 254 254 254 254 254 254 254 254 254 255 255 255 0 0 0 0 0 0 0 0 0 255 255 255 255 255 255 255 255 255 255 255 255 254 254 254 255 255 255 255 255 255 255 255 255 255 255 255 255 255 255 255 255 255 255 255 255 255 255 255 255 255 255 255 255 255 255 255 255 255 255 255 255 255 255 255 255 255 255 255 255 255 255 255 255 255 255 255 255 255 255 255 255 255 255 255 255 255 255 255 255 255 255 255 255 255 255 255 255 255 255 255 255 255 255 255 255 255 255 255 255 255 255 255 255 255 255 255 255 255 255 255 255 255 255 255 255 255 255 255 255 255 255 255 255 255 255 255 255 255 255 255 255 255 255 255 255 255 255 255 255 255 255 255 255 255 255 255 255 255 255 255 255 255 255 255 255 255 255 255 255 253 255 255 255 255 0 1 0 253 254 255 253 254 255 255 255 255 255 255 255 255 255 255 255 255 255 255 255 255 255 255 255 255 255 255 255 255 255 255 255 255 255 255 255 254 254 254 255 255 255 255 255 255 255 255 255 0 0 0 0 0 0 254 254 254 255 255 255 255 255 255 255 255 255 255 255 255 255 255 255 255 255 255 255 255 255 255 255 255 255 255 255 255 255 255 255 255 255 255 255 255 255 255 255 255 255 255 255 255 255 255 255 255 255 255 255 255 255 255 255 255 255 255 255 255 255 255 255 255 255 255 255 255 255 255 255 255 255 255 255 255 255 255 255 255 255 255 255 255 255 255 255 255 255 255 255 255 255 255 255 255 255 255 255 255 255 255 255 255 255 255 255 255 255 255 255 255 255 255 255 255 255 255 255 255 255 255 255 255 255 255 255 255 255 255 255 255 253 253 253 255 255 255 255 255 255 254 254 254 253 254 255 2 1 0 4 1 0 2 1 0 255 254 254 251 252 253 255 255 255 255 255 255 255 255 255 255 255 255 255 255 255 255 255 255 255 255 255 255 255 255 255 255 255 255 255 255 255 255 255 255 255 255 254 254 254 255 255 255 255 255 255 254 254 254 254 254 254 0 0 0 255 255 255 254 254 254 255 255 255 255 255 255 255 255 255 255 255 255 255 255 255 255 255 255 255 255 255 255 255 255 255 255 255 255 255 255 255 255 255 255 255 255 255 255 255 255 255 255 255 255 255 255 255 255 255 255 255 255 255 255 255 255 255 255 255 255 255 255 255 255 255 255 255 255 255 255 255 255 255 255 255 255 255 255 255 255 255 255 255 255 255 255 255 255 255 255 255 255 255 255 255 255 255 255 255 255 255 255 255 255 255 255 255 255 255 255 255 255 255 255 254 254 254 255 255 255 255 255 255 255 255 255 255 255 255 255 255 255 255 255 255 255 255 255 2 1 0 44 0 222 22 0 217 73 67 255 0 0 0 252 253 254 255 255 255 254 254 254 255 255 255 255 255 255 255 255 255 255 255 255 255 255 255 255 255 255 255 255 255 255 255 255 255 255 255 255 255 255 255 255 255 255 255 255 255 255 255 255 255 255 255 255 255 255 255 255 0 0 0 254 254 254 255 255 255 255 255 255 255 255 255 255 255 255 255 255 255 255 255 255 255 255 255 255 255 255 255 255 255 255 255 255 255 255 255 255 255 255 255 255 255 255 255 255 255 255 255 255 255 255 255 255 255 255 255 255 255 255 255 255 255 255 255 255 255 255 255 255 255 255 255 255 255 255 255 255 255 255 255 255 255 255 255 255 255 255 255 255 255 255 255 255 255 255 255 255 255 255 255 255 255 255 255 255 255 255 255 255 255 255 255 255 255 255 255 255 255 255 255 254 254 254 255 255 255 255 255 255 255 255 255 254 254 254 254 254 254 0 0 0 61 0 221 28 2 220 55 33 238 86 87 254 84 83 255 0 0 0 255 255 255 255 255 255 255 255 255 255 255 255 255 255 255 255 255 255 255 255 255 255 255 255 255 255 255 255 255 255 254 254 254 255 255 255 254 254 254 254 254 254 255 255 255 255 255 255 255 255 255 255 255 255 255 255 255 0 0 0 255 255 255 254 254 254 255 255 255 255 255 255 255 255 255 255 255 255 255 255 255 255 255 255 255 255 255 255 255 255 255 255 255 255 255 255 255 255 255 255 255 255 255 255 255 255 255 255 255 255 255 255 255 255 255 255 255 255 255 255 255 255 255 255 255 255 255 255 255 255 255 255 255 255 255 255 255 255 255 255 255 255 255 255 255 255 255 255 255 255 255 255 255 255 255 255 253 253 255 255 255 255 255 255 255 255 255 255 255 255 255 255 255 255 255 255 255 255 255 255 255 254 254 255 255 255 253 254 255 254 254 254 0 0 0 68 0 204 68 0 204 21 0 239 74 68 254 84 83 255 87 85 255 87 85 255 0 0 0 254 255 254 255 255 255 255 255 255 255 255 255 255 255 255 255 255 255 255 254 254 255 255 255 255 255 255 255 255 255 255 255 255 255 255 255 255 255 255 255 255 255 255 255 255 255 255 255 255 255 255 254 254 254 255 255 255 0 0 0 255 255 255 254 254 254 255 255 255 255 255 255 255 255 255 255 255 255 255 255 255 255 255 255 255 255 255 255 255 255 255 255 255 255 255 255 255 255 255 255 255 255 255 255 255 255 255 255 255 255 255 255 255 255 255 255 255 255 255 255 255 255 255 255 255 255 255 255 255 255 255 255 255 255 255 255 255 255 255 255 255 255 255 255 255 255 255 254 255 254 255 255 255 254 255 254 252 252 255 254 255 254 252 253 254 255 254 254 254 255 254 254 255 254 255 254 254 253 254 255 255 253 255 255 255 255 0 0 0 68 0 204 67 0 203 83 18 207 31 17 238 17 18 239 59 48 255 85 85 255 83 82 254 0 0 0 255 255 255 253 253 255 255 255 255 253 254 255 255 255 255 253 254 255 255 255 255 255 255 255 255 255 255 255 255 255 255 255 255 255 255 255 255 255 255 255 255 255 255 255 255 255 255 255 255 255 255 255 255 255 255 255 255 255 255 255 0 0 0 255 255 255 255 255 255 255 255 255 255 255 255 255 255 255 255 255 255 255 255 255 255 255 255 255 255 255 255 255 255 255 255 255 255 255 255 255 255 255 255 255 255 255 255 255 255 255 255 255 255 255 255 255 255 255 255 255 255 255 255 255 255 255 255 255 255 255 255 255 255 254 254 252 253 254 255 254 254 255 255 255 253 253 253 255 254 254 255 255 255 255 255 255 255 255 255 255 254 254 255 255 255 254 254 254 255 255 255 255 254 254 254 255 254 255 255 255 254 254 254 0 0 0 68 0 202 80 15 205 81 18 207 75 19 223 49 17 237 30 16 238 17 21 238 56 47 254 97 97 255 85 85 255 0 0 0 255 255 255 255 254 254 255 254 254 253 254 255 254 255 254 253 254 255 253 254 255 255 255 255 255 255 255 255 255 255 255 255 255 255 255 255 255 255 255 255 255 255 255 255 255 255 255 255 255 255 255 254 254 254 254 254 254 0 0 0 255 255 255 255 255 255 255 255 255 255 255 255 255 255 255 255 255 255 255 255 255 255 255 255 255 255 255 255 255 255 255 255 255 255 255 255 255 255 255 255 255 255 255 255 255 255 255 255 255 255 255 255 255 255 255 255 255 255 255 255 255 255 255 254 254 254 255 255 255 253 254 255 255 255 255 253 254 255 255 255 255 255 255 255 255 255 255 255 254 254 253 255 253 255 255 255 254 255 254 255 254 253 254 254 254 255 255 255 253 254 255 254 254 254 255 255 255 0 2 0 68 0 204 82 17 207 82 17 207 79 15 207 96 35 213 81 31 226 73 34 226 43 31 239 19 23 237 85 79 253 100 97 255 101 108 255 0 1 0 252 253 254 253 254 255 254 255 254 255 254 254 254 254 254 255 254 254 253 253 253 255 255 255 255 255 255 255 255 255 255 255 255 254 254 254 255 255 255 255 255 255 255 255 255 255 255 255 254 254 254 255 255 255 255 255 255 1 1 1 254 254 254 255 255 255 255 255 255 255 255 255 255 255 255 255 255 255 255 255 255 255 255 255 255 255 255 255 255 255 255 255 255 255 255 255 255 255 255 255 255 255 255 255 255 255 255 255 255 255 255 255 255 255 255 255 255 255 255 255 255 255 255 255 255 255 255 255 255 253 254 255 255 255 255 254 254 254 255 255 255 253 254 255 255 255 255 252 254 252 255 255 255 253 253 255 251 253 255 255 255 255 254 252 254 255 254 254 2 0 2 2 1 0 40 15 221 57 17 221 69 14 222 110 34 209 125 33 210 107 32 210 95 34 213 103 34 226 65 34 240 47 32 239 58 49 255 93 94 255 116 123 254 154 154 255 2 1 0 255 255 255 255 255 255 255 255 255 255 255 255 253 254 255 255 255 255 255 255 255 255 255 255 255 255 255 255 255 255 255 255 255 255 255 255 254 254 254 255 255 255 255 255 255 254 254 254 255 255 255 255 255 255 0 0 0 255 255 255 255 255 255 254 254 254 255 255 255 255 255 255 255 255 255 255 255 255 255 255 255 255 255 255 255 255 255 255 255 255 255 255 255 255 255 255 255 255 255 255 255 255 255 255 255 255 255 255 255 255 255 255 255 255 255 255 255 254 254 254 255 255 255 253 254 255 254 254 254 254 254 254 255 255 255 255 255 255 255 255 255 253 254 255 255 255 255 251 253 255 253 254 255 255 254 254 253 255 253 3 4 0 0 0 1 64 64 254 41 32 239 29 17 239 51 13 222 123 36 212 112 31 196 113 32 196 130 51 214 120 51 214 113 50 228 67 32 225 48 33 240 41 31 254 81 89 253 92 95 254 144 149 255 167 176 254 1 1 1 255 255 255 255 255 255 253 254 255 255 255 255 253 253 255 255 255 255 255 255 255 255 255 255 255 255 255 254 254 254 255 255 255 255 255 255 255 255 255 255 255 255 255 255 255 255 255 255 255 255 255 255 255 255 1 1 1 255 255 255 255 255 255 255 255 255 255 255 255 255 255 255 255 255 255 255 255 255 255 255 255 255 255 255 255 255 255 255 255 255 255 255 255 255 255 255 255 255 255 255 255 255 255 255 255 255 255 255 255 255 255 254 254 254 255 255 255 255 255 255 255 255 255 255 255 255 255 255 255 255 255 255 255 255 255 253 254 255 255 255 255 252 253 254 255 255 255 2 1 0 0 0 0 3 0 0 93 93 255 86 80 254 33 34 255 30 16 238 66 29 225 112 36 211 112 31 195 112 49 172 119 50 187 133 49 215 120 51 214 117 53 229 99 49 229 79 51 241 50 34 238 49 50 255 82 90 254 116 123 254 161 173 255 167 186 253 1 1 1 255 255 255 255 251 254 255 255 255 254 254 254 255 255 255 255 255 255 255 255 255 255 255 255 255 255 255 255 255 255 255 255 255 255 255 255 255 255 255 255 255 255 255 255 255 254 254 254 255 255 255 0 0 0 255 255 255 255 255 255 255 255 255 255 255 255 255 255 255 255 255 255 255 255 255 255 255 255 255 255 255 255 255 255 255 255 255 255 255 255 255 255 255 255 255 255 255 255 255 255 255 255 255 255 255 255 255 255 255 255 255 255 255 255 255 255 255 255 255 255 254 254 254 254 254 254 254 254 254 255 255 255 255 255 255 0 0 1 1 1 1 0 2 0 84 83 255 93 94 255 93 84 254 18 19 240 30 16 238 48 33 240 71 33 227 108 33 211 107 32 181 113 50 173 101 48 161 108 49 173 124 49 201 129 48 213 113 50 228 97 49 228 78 51 241 64 50 241 48 33 240 48 47 255 96 95 255 129 143 255 177 183 255 188 205 255 0 0 1 2 1 0 254 254 254 255 254 254 255 255 255 255 255 255 255 255 255 255 255 255 255 255 255 255 255 255 255 255 255 255 255 255 255 255 255 254 254 254 255 255 255 255 255 255 255 255 255 0 0 0 255 255 255 255 255 255 255 255 255 255 255 255 255 255 255 255 255 255 255 255 255 255 255 255 255 255 255 255 255 255 255 254 254 255 255 255 255 255 255 255 255 255 255 255 255 255 255 255 255 255 255 255 255 255 255 255 255 254 254 254 255 255 255 255 255 255 254 255 254 255 255 255 0 0 0 2 2 2 0 0 0 84 83 255 84 83 255 96 95 255 80 89 254 31 35 255 30 16 238 60 31 239 71 33 227 100 34 225 114 30 196 113 50 173 105 50 160 100 51 147 105 50 160 124 68 180 136 68 204 142 67 219 124 69 229 113 69 229 72 47 241 79 51 241 78 51 241 48 33 240 48 48 255 80 89 254 145 150 254 177 196 255 187 204 255 222 237 254 0 1 0 255 255 255 255 255 255 255 255 255 255 255 255 254 254 254 255 255 255 255 255 255 255 255 255 255 255 255 255 255 255 255 255 255 255 255 255 255 255 255 255 255 255 255 255 255 0 0 0 254 254 254 255 255 255 255 255 255 255 255 255 255 255 255 255 255 255 255 255 255 255 255 255 255 255 255 254 254 254 255 255 255 255 255 255 255 255 255 255 255 255 255 255 255 255 255 255 255 254 254 255 255 255 255 255 255 255 255 255 255 255 255 0 0 0 0 0 0 84 83 255 84 86 254 83 82 254 96 97 254 87 81 255 31 35 255 29 15 237 74 34 226 84 33 226 108 33 211 113 32 196 123 49 200 107 50 160 94 48 145 89 47 133 104 68 141 110 68 155 126 68 180 136 68 204 140 65 217 123 68 228 121 70 244 105 69 243 75 48 241 79 51 241 79 51 241 49 33 240 44 34 255 93 98 255 161 162 254 192 205 254 205 213 254 255 255 255 0 0 0 1 1 1 255 255 255 255 255 255 255 255 255 255 255 255 255 255 255 253 254 255 255 255 255 255 255 255 255 255 255 255 255 255 255 255 255 255 255 255 255 255 255 0 0 0 255 255 255 255 255 255 255 255 255 255 255 255 255 255 255 255 255 255 255 255 255 255 255 255 255 255 255 255 255 255 255 255 255 255 255 255 253 254 255 255 255 255 255 255 255 255 255 255 252 253 254 252 253 254 255 255 255 0 0 1 1 0 2 86 87 254 84 83 255 84 83 255 80 89 254 65 65 255 18 21 239 48 12 220 87 33 227 109 34 212 114 33 197 116 34 197 121 50 189 107 50 160 99 50 146 92 49 135 89 50 134 98 68 131 102 67 144 112 70 155 123 67 179 136 68 204 137 67 231 123 65 229 106 70 244 90 67 243 93 68 244 78 49 242 64 50 241 70 50 254 43 35 254 80 79 255 106 119 254 176 182 255 191 210 253 223 240 255 255 253 253 255 255 255 1 1 1 253 255 253 254 254 254 253 254 255 255 255 255 254 255 254 255 255 255 255 255 255 255 255 255 255 255 255 255 255 255 254 254 254 255 255 255 0 0 0 255 255 255 255 255 255 255 255 255 255 255 255 255 255 255 255 255 255 255 255 255 255 255 255 255 255 255 254 255 254 252 253 254 255 255 255 253 255 253 255 255 255 253 253 253 255 255 255 255 254 254 254 255 254 1 1 1 87 88 255 87 85 255 84 83 255 51 51 254 55 47 255 15 17 239 55 15 222 106 31 212 113 32 196 110 31 196 115 47 187 112 49 172 107 47 160 98 49 145 87 47 132 105 69 142 102 66 141 100 67 132 96 66 129 105 69 144 116 66 168 128 68 192 141 66 218 117 64 228 119 68 246 95 70 242 88 65 241 83 65 255 81 65 255 57 48 255 51 60 255 94 91 255 93 99 253 119 127 255 183 192 254 193 207 255 203 212 255 240 247 255 255 255 255 253 254 255 3 2 1 252 253 254 255 255 255 255 255 255 254 254 254 255 255 255 255 255 255 255 255 255 255 255 255 255 255 255 255 255 255 254 254 254 0 0 0 255 255 255 255 255 255 255 255 255 255 255 255 255 255 255 255 255 255 255 255 255 255 255 255 255 255 255 254 254 254 253 254 255 255 255 255 255 254 254 254 254 254 253 254 255 254 254 254 253 254 255 0 0 1 83 82 254 86 84 254 76 69 255 42 35 253 16 16 241 44 14 236 88 34 225 110 31 196 109 32 181 102 32 167 115 48 175 102 49 161 105 51 161 102 51 147 105 69 144 106 70 143 101 66 143 104 69 143 94 65 130 104 69 142 110 68 155 125 68 181 133 65 205 120 66 228 112 68 230 93 67 241 81 65 255 89 69 255 71 78 255 91 98 255 102 115 254 116 123 254 115 118 255 146 159 255 180 193 254 221 238 255 238 248 255 245 250 255 238 245 254 255 255 255 255 254 254 255 255 255 0 0 0 255 255 255 255 255 255 253 254 255 255 255 255 255 255 255 254 254 254 255 255 255 255 255 255 255 255 255 255 255 255 0 0 0 255 255 255 255 255 255 255 255 255 255 255 255 255 255 255 255 255 255 255 255 255 255 255 255 255 255 255 254 254 254 255 255 255 255 255 255 254 255 254 252 253 254 254 254 254 252 253 254 0 0 0 84 86 254 84 83 255 39 32 255 14 0 169 1 0 2 0 1 0 68 14 128 104 30 181 98 31 167 103 48 161 104 47 162 104 50 159 106 48 161 109 66 154 111 67 155 102 67 141 100 65 142 104 68 143 101 66 143 108 67 153 114 66 156 117 70 167 126 63 193 131 67 219 125 70 230 104 68 242 99 69 255 74 67 251 92 97 254 116 124 254 118 124 254 117 123 253 131 142 254 169 185 255 189 196 254 242 248 255 254 254 254 254 254 254 253 253 255 255 253 255 255 255 255 255 255 255 254 254 254 1 1 1 255 255 255 255 255 255 255 255 255 255 255 255 255 255 255 255 255 255 255 255 255 255 255 255 255 255 255 254 254 254 1 1 1 255 255 255 255 255 255 255 255 255 255 255 255 255 255 255 255 255 255 255 255 255 255 255 255 255 255 255 255 255 255 255 255 255 255 255 255 254 254 254 254 255 254 254 254 254 3 2 1 84 83 255 83 82 254 14 24 238 9 1 152 2 0 2 1 130 255 0 0 0 0 0 0 63 33 92 105 50 160 106 48 161 105 50 160 118 67 167 117 70 168 107 66 155 109 66 154 110 68 155 113 67 155 106 65 154 115 70 167 121 65 170 116 69 167 129 66 192 137 70 204 122 67 229 111 67 229 90 66 244 73 67 253 95 100 255 116 123 254 116 123 254 117 123 253 130 143 255 183 198 254 190 210 254 225 237 255 253 255 253 255 255 255 253 255 253 255 255 255 255 255 255 255 255 255 239 248 255 254 254 254 253 255 253 2 0 2 255 255 255 255 255 255 255 255 255 254 254 254 255 255 255 255 255 255 255 255 255 255 255 255 255 255 255 0 0 0 255 255 255 255 255 255 255 255 255 255 255 255 255 255 255 255 255 255 255 255 255 255 255 255 255 255 255 255 255 255 255 255 255 252 253 254 255 255 255 255 254 254 255 255 255 0 0 0 84 83 255 49 50 255 20 1 238 0 1 0 0 0 0 0 127 255 0 0 0 0 0 0 2 2 2 105 50 160 101 48 160 121 66 169 117 66 169 119 68 168 119 68 168 122 68 170 119 68 168 119 66 169 122 68 168 118 67 167 120 68 179 132 64 194 133 65 205 119 64 230 124 69 229 112 68 230 81 65 255 94 102 254 116 123 254 116 124 254 116 123 254 132 143 255 169 176 255 195 213 253 193 212 255 243 248 255 254 254 254 255 255 255 252 252 255 253 254 255 254 254 254 255 255 255 241 249 255 223 240 255 255 255 255 1 1 1 253 254 255 254 255 254 255 255 255 255 255 255 255 255 255 255 255 255 255 255 255 255 255 255 0 0 0 255 255 255 255 255 255 255 255 255 255 255 255 255 255 255 255 255 255 255 255 255 255 255 255 255 255 255 255 255 255 255 255 255 255 255 255 253 254 255 254 254 254 255 254 254 0 0 0 84 83 255 84 83 255 0 0 238 39 16 223 0 0 0 0 127 255 0 127 255 0 128 255 0 127 255 0 2 0 119 68 168 121 66 169 118 66 168 119 68 168 119 68 168 119 68 168 118 67 167 120 68 169 119 68 168 123 67 179 126 67 191 136 68 204 140 67 217 141 70 230 83 51 120 0 0 0 2 1 0 0 0 0 0 0 1 58 50 145 117 122 255 118 124 254 137 144 255 181 191 255 193 212 255 193 212 255 241 247 255 253 254 255 255 255 255 253 255 253 255 255 255 255 255 255 255 255 255 239 246 255 192 207 255 205 213 254 237 245 255 0 0 0 254 254 254 255 254 254 255 255 255 255 255 255 255 255 255 255 255 255 255 255 255 0 0 0 254 254 254 255 255 255 255 255 255 255 255 255 255 255 255 255 255 255 255 255 255 255 255 255 255 255 255 255 255 255 254 254 254 255 255 255 255 255 255 253 254 255 255 255 255 1 1 1 84 83 255 78 70 254 30 16 238 88 17 222 0 0 0 0 0 0 0 127 255 1 1 1 1 1 1 0 3 1 117 66 169 119 66 169 120 68 169 122 68 180 125 68 181 122 68 180 125 68 181 124 68 180 131 67 193 136 68 204 142 65 219 136 68 230 137 67 231 83 51 120 2 2 2 0 1 0 0 127 255 0 127 255 0 0 0 0 0 0 59 51 146 115 122 255 137 142 255 181 191 255 180 190 254 193 212 255 219 225 255 255 255 255 255 255 255 253 254 255 255 255 255 253 254 255 254 255 254 204 212 253 145 150 254 174 181 255 189 206 254 2 2 2 255 254 254 253 254 255 255 255 255 254 254 254 255 255 255 255 255 255 255 255 255 0 0 0 255 255 255 255 255 255 255 255 255 255 255 255 255 255 255 255 255 255 255 255 255 255 255 255 255 255 255 255 255 255 255 255 255 255 255 255 253 253 253 254 255 254 0 0 1 87 85 255 85 83 255 49 48 254 55 15 222 113 15 206 66 17 113 0 0 0 1 128 255 0 0 0 0 1 0 72 51 92 126 68 180 124 68 180 131 67 193 130 68 192 135 67 203 132 64 204 134 66 206 134 67 203 143 65 219 136 66 230 134 65 231 122 67 229 112 68 230 0 0 0 2 1 0 0 0 0 0 129 255 0 128 255 1 3 1 0 0 0 0 0 1 116 123 254 138 145 253 169 186 255 180 193 254 193 212 255 193 212 255 216 235 254 241 250 255 254 255 254 238 243 255 239 246 255 205 213 254 144 147 255 116 124 254 144 152 253 167 185 255 2 2 0 253 254 255 255 255 255 255 255 255 255 255 255 255 255 255 255 255 255 0 0 0 255 255 255 255 255 255 255 255 255 255 255 255 255 255 255 255 255 255 255 255 255 255 255 255 255 255 255 255 255 255 255 255 255 255 255 255 254 254 254 255 255 255 253 254 255 0 1 0 110 101 255 86 84 254 46 35 255 76 20 224 102 16 191 114 32 195 53 33 78 0 1 0 2 1 0 71 50 93 124 68 180 131 67 193 130 71 191 0 0 0 135 66 206 135 68 204 136 68 204 141 68 218 141 66 218 137 67 231 122 68 230 111 68 232 107 70 242 105 69 243 3 2 1 0 128 255 0 127 255 2 129 255 2 127 255 2 127 255 0 126 254 3 5 0 115 122 255 130 141 255 169 176 255 179 190 255 194 214 255 191 211 255 193 213 254 201 213 254 201 214 255 203 212 255 191 211 255 137 137 252 93 103 253 97 95 255 116 123 254 171 178 255 183 198 255 3 2 1 255 255 255 255 255 255 255 255 255 255 255 255 255 255 255 0 0 0 255 255 255 255 255 255 255 255 255 255 255 255 255 255 255 255 255 255 255 255 255 255 255 255 255 255 255 255 255 255 255 255 255 255 255 255 254 255 254 254 254 254 255 255 255 0 0 0 100 108 254 83 84 255 44 36 255 77 15 207 102 15 191 104 30 181 107 52 160 104 50 162 100 49 159 123 67 179 125 64 192 136 69 203 135 67 203 2 1 0 136 68 204 2 1 0 141 66 218 140 67 217 1 1 1 121 67 229 103 67 241 104 68 242 86 64 242 92 67 243 0 2 0 0 0 1 1 1 1 0 127 255 0 127 255 0 3 1 1 1 1 0 0 3 118 124 254 116 123 254 142 148 255 168 187 254 190 194 255 193 213 254 193 212 253 182 193 255 181 194 255 169 176 255 130 142 255 93 93 255 85 79 255 94 98 254 102 97 255 151 167 255 190 205 253 0 0 1 255 255 255 255 255 255 255 255 255 255 255 255 0 0 0 255 255 255 255 255 255 255 255 255 255 255 255 255 255 255 255 255 255 255 255 255 255 255 255 255 255 255 255 255 255 255 255 255 255 255 255 255 255 255 255 255 255 255 254 254 251 253 255 0 0 0 123 140 255 109 100 254 33 33 236 96 17 206 102 16 194 111 33 181 105 47 162 105 50 158 133 67 193 134 67 203 134 67 203 137 69 205 138 68 204 133 65 205 2 1 0 0 1 0 142 65 219 142 67 219 0 2 0 108 68 244 91 65 245 93 68 244 96 70 244 93 68 244 76 48 132 0 0 0 0 0 0 0 127 255 0 129 255 2 1 0 0 0 0 58 51 144 116 123 254 119 125 255 127 128 254 138 147 255 169 176 255 182 192 255 192 211 254 182 189 255 150 165 255 136 143 254 105 112 255 66 65 255 48 50 255 91 97 255 93 96 255 135 141 255 168 176 255 2 2 0 253 254 255 255 255 255 255 255 255 255 255 255 0 0 0 255 255 255 255 255 255 255 255 255 255 255 255 255 255 255 255 255 255 255 255 255 255 255 255 255 255 255 255 255 255 255 255 255 255 255 255 254 254 254 255 255 255 255 255 255 255 254 254 0 1 0 154 154 255 102 112 254 63 48 255 94 13 208 103 16 189 103 30 181 108 51 161 113 50 175 122 48 199 137 67 205 130 64 204 136 68 204 134 67 203 139 69 205 136 68 204 137 67 205 3 2 1 1 1 1 105 69 243 91 67 241 92 67 243 89 65 243 95 69 243 93 68 244 95 69 243 76 49 133 4 3 2 3 2 1 2 1 0 0 0 0 56 50 147 117 125 255 118 124 254 115 123 253 119 125 255 117 120 255 131 132 255 138 145 253 138 146 255 137 147 255 132 143 255 118 120 254 105 114 255 80 65 255 46 30 240 103 95 255 101 97 255 118 120 254 170 178 255 0 0 0 255 255 255 255 255 255 255 255 255 0 0 0 255 255 255 255 255 255 255 255 255 255 255 255 255 255 255 255 255 255 255 255 255 255 255 255 255 255 255 255 255 255 255 255 255 255 255 255 255 255 255 255 255 255 255 255 255 254 254 254 255 255 255 0 0 0 153 171 254 117 118 255 75 68 254 82 17 207 104 17 193 110 31 182 92 33 151 118 49 186 129 50 201 135 67 203 138 67 205 136 68 204 137 67 205 136 68 204 136 68 204 141 68 218 122 67 229 117 66 244 105 69 243 92 67 243 92 67 243 95 69 243 91 66 242 91 67 241 92 67 243 98 68 254 84 67 255 87 69 255 75 68 254 93 99 255 116 122 252 115 122 253 117 124 255 117 122 255 115 122 253 116 123 254 115 122 253 116 123 254 116 123 254 118 124 254 142 150 254 191 194 255 193 199 255 93 99 255 55 48 239 100 93 255 96 95 255 101 108 255 153 168 255 0 0 0 255 255 255 255 255 255 254 254 254 0 0 0 255 255 255 255 255 255 255 255 255 255 255 255 255 255 255 255 255 255 255 255 255 255 255 255 255 255 255 255 255 255 255 255 255 255 255 255 255 255 255 255 255 255 255 255 255 255 255 255 253 254 255 0 1 0 169 176 255 118 120 254 75 68 254 72 17 223 102 15 191 106 31 180 99 33 166 119 50 187 127 51 202 137 67 205 136 68 204 137 67 205 136 68 204 139 69 205 134 65 205 142 64 218 124 69 229 105 69 243 105 69 243 92 67 243 94 68 242 89 65 243 92 67 243 85 62 243 94 68 242 89 65 243 103 69 255 84 67 255 87 69 255 78 70 254 95 100 255 102 115 254 118 122 254 116 123 254 115 122 255 116 123 254 116 124 254 114 121 252 116 123 254 132 132 255 214 219 255 255 254 254 254 254 254 221 221 255 85 78 240 65 65 255 97 95 255 103 110 255 154 154 255 0 0 0 255 255 255 255 255 255 0 0 0 255 255 255 255 255 255 255 255 255 255 255 255 254 254 254 255 255 255 255 255 255 255 255 255 255 255 255 255 255 255 255 255 255 255 255 255 255 255 255 255 255 255 255 255 255 253 254 255 255 255 255 253 254 255 2 1 0 169 176 255 137 142 255 100 84 254 25 0 221 91 12 206 103 16 192 101 33 168 104 31 179 126 51 200 127 52 201 137 67 205 136 68 204 134 67 203 136 68 204 134 65 205 134 67 203 121 66 228 105 69 243 105 69 243 92 67 243 89 65 243 89 66 242 89 65 243 92 67 243 89 65 243 93 68 244 93 68 244 98 68 254 87 69 255 81 65 255 72 66 252 87 88 255 104 105 254 107 108 253 117 123 253 117 124 255 116 124 254 116 123 254 107 106 254 117 127 253 212 218 255 254 255 254 254 254 254 240 246 255 93 94 255 66 68 254 68 67 255 84 83 255 117 118 255 0 0 0 255 255 255 255 255 255 0 0 0 255 255 255 255 255 255 255 255 255 255 255 255 255 255 255 255 255 255 255 255 255 255 255 255 255 255 255 255 255 255 255 255 255 255 255 255 255 255 255 255 255 255 254 255 254 255 255 255 255 255 255 255 254 254 2 1 0 187 188 254 138 146 255 86 87 254 57 31 230 80 17 205 102 15 191 110 33 182 104 30 181 127 51 202 126 48 202 126 48 202 132 67 203 137 69 205 133 65 205 136 68 204 135 67 203 150 69 231 120 69 243 104 68 242 103 67 241 89 65 243 93 68 244 93 67 241 91 65 245 91 66 242 92 67 243 92 67 243 95 69 243 98 67 255 84 67 255 84 67 255 86 68 254 74 68 254 65 74 255 84 87 254 84 83 255 87 85 255 74 68 254 73 66 254 98 82 254 123 128 255 239 245 255 252 253 254 186 177 255 70 64 238 60 65 255 87 81 255 84 86 254 99 108 255 0 0 0 255 255 255 255 255 255 0 0 0 255 255 255 255 255 255 255 255 255 255 255 255 255 255 255 255 255 255 255 255 255 255 255 255 255 255 255 255 255 255 255 255 255 255 255 255 255 255 255 255 255 255 255 255 255 255 255 255 255 255 255 254 254 254 255 255 255 0 0 0 168 175 255 102 112 254 75 68 254 45 0 221 94 15 206 100 15 193 104 32 166 106 31 180 123 49 202 122 48 199 123 48 200 137 69 205 140 68 204 133 67 205 137 67 205 140 65 217 121 67 229 109 69 245 106 70 244 108 68 244 105 66 244 92 67 243 90 67 243 93 68 244 91 67 241 94 69 245 94 69 245 93 68 244 100 67 255 90 71 255 80 65 255 89 69 255 87 69 255 86 65 255 81 65 255 84 67 255 81 65 255 85 67 255 105 81 255 101 76 240 136 93 241 151 107 224 111 76 240 42 33 240 68 67 255 83 85 253 81 81 255 3 2 1 255 255 255 254 252 254 0 0 0 255 255 255 255 255 255 255 255 255 255 255 255 254 254 254 255 255 255 255 255 255 255 255 255 255 255 255 255 255 255 255 255 255 255 255 255 255 255 255 255 255 255 255 255 255 255 254 254 255 255 255 255 255 255 255 255 255 255 255 255 0 0 1 240 247 255 154 168 255 76 69 255 33 0 238 68 0 204 90 19 191 97 12 194 105 32 180 114 30 196 126 51 203 125 51 202 124 49 201 134 67 203 136 68 204 134 66 206 136 66 204 143 63 219 123 65 229 118 68 242 111 73 243 111 72 242 108 68 244 108 68 244 87 64 240 106 70 244 89 66 242 94 68 242 86 64 244 92 68 242 81 60 243 105 72 254 98 68 254 80 64 254 87 69 255 81 65 255 79 64 244 93 68 244 89 63 243 87 48 240 101 52 229 114 52 227 95 34 213 61 32 240 19 18 238 78 86 254 95 91 255 86 87 254 0 0 0 255 255 255 255 255 255 0 0 0 253 253 253 255 255 255 255 255 255 255 255 255 255 255 255 255 255 255 255 255 255 255 255 255 255 255 255 255 255 255 255 255 255 255 255 255 255 255 255 255 255 255 255 255 255 254 254 254 255 255 255 255 255 255 255 255 255 253 254 255 254 254 254 0 0 0 238 245 254 119 121 255 32 18 239 41 0 220 83 17 208 108 15 192 105 15 193 105 30 182 113 32 196 127 47 203 123 48 200 126 49 200 126 51 200 132 64 204 137 70 204 138 65 217 141 68 218 124 66 230 118 69 241 119 66 244 105 69 243 108 71 243 105 69 243 104 68 242 105 69 243 99 66 242 104 68 242 103 67 243 99 72 242 90 64 244 94 68 242 93 68 244 92 67 243 91 66 242 107 70 242 105 69 243 100 51 228 119 54 228 117 49 214 108 32 211 69 31 225 28 14 239 55 47 255 84 83 255 83 86 253 1 1 1 255 255 255 255 255 255 0 1 0 255 255 255 255 255 255 255 255 255 255 255 255 255 255 255 253 253 253 255 255 255 255 255 255 255 255 255 255 255 255 255 255 255 255 255 255 255 255 255 255 255 255 255 255 255 255 255 255 255 255 255 255 255 255 255 255 255 255 255 255 253 255 253 254 254 254 0 1 0 255 255 255 223 240 255 98 107 254 17 0 238 59 0 218 93 12 209 105 17 192 105 18 191 118 32 198 109 31 195 112 31 195 123 49 200 126 48 202 125 50 202 123 48 200 136 68 204 141 66 218 139 64 218 137 67 231 121 66 228 120 69 243 121 67 243 116 68 242 105 69 243 105 69 243 110 70 242 108 68 244 105 69 243 103 67 243 111 71 243 105 69 243 111 71 243 108 71 243 96 49 228 96 47 229 114 52 227 120 50 214 129 48 213 123 33 211 87 35 226 47 16 239 34 36 255 81 88 255 84 86 254 88 87 255 0 0 0 253 255 253 254 254 254 1 1 1 255 255 255 255 255 255 255 255 255 255 255 255 255 255 255 255 255 255 255 255 255 255 255 255 255 255 255 255 255 255 255 255 255 255 255 255 255 255 255 255 255 255 255 255 255 255 255 255 255 255 255 255 255 255 255 255 255 254 254 254 255 255 255 255 254 254 255 255 255 0 1 0 255 255 255 223 238 255 110 101 255 17 0 238 62 1 222 94 14 206 110 15 208 101 15 190 114 32 195 115 31 197 112 31 195 129 50 201 123 48 200 127 51 202 125 47 201 124 49 201 130 50 213 139 66 216 128 65 219 138 67 231 123 68 230 122 67 229 123 68 230 112 68 230 111 70 230 112 68 230 109 67 229 97 49 228 96 49 228 98 48 228 92 47 228 114 50 229 113 50 228 113 50 228 120 51 214 109 35 210 108 33 211 87 35 226 46 15 238 17 18 239 87 81 255 84 83 255 87 85 255 1 1 1 255 255 255 254 254 254 255 255 255 0 0 0 255 255 255 255 255 255 255 255 255 255 255 255 255 255 255 255 255 255 255 255 255 255 255 255 255 255 255 255 255 255 255 255 255 255 255 255 255 255 255 255 255 255 255 255 255 255 255 255 255 255 255 255 255 255 255 255 255 255 255 255 255 255 255 255 255 255 255 255 255 255 255 255 0 0 0 253 254 255 224 223 255 110 101 255 30 16 238 25 0 221 66 0 203 94 15 206 103 16 192 103 16 192 114 33 197 113 32 196 113 32 196 111 30 195 123 49 200 126 48 202 124 49 201 132 51 215 131 50 214 120 51 214 120 51 214 120 51 214 125 50 228 113 50 228 113 50 228 113 50 228 111 50 228 111 50 228 114 50 229 113 50 228 120 54 228 113 50 228 113 50 228 100 34 225 95 34 213 100 34 225 73 33 228 29 15 237 30 35 253 86 80 254 84 83 255 87 85 255 0 0 0 253 253 253 255 255 255 255 255 255 255 255 255 0 1 0 254 254 254 255 255 255 255 255 255 255 255 255 254 255 254 254 254 254 255 255 255 255 255 255 255 255 255 255 255 255 255 255 255 255 255 255 255 255 255 255 255 255 255 255 255 255 255 255 255 255 255 255 255 255 255 255 255 255 255 255 255 255 255 255 255 255 255 255 255 255 255 255 255 255 255 1 1 1 252 253 254 224 240 255 113 116 255 32 33 238 17 0 238 41 0 222 95 15 207 99 18 208 102 12 192 107 15 192 113 32 196 115 33 196 114 33 197 115 31 197 113 32 196 124 49 201 131 50 214 133 51 214 132 51 215 132 51 215 119 50 213 119 52 212 120 50 214 121 51 215 121 52 215 112 49 227 102 35 224 100 34 225 102 35 224 99 33 224 97 32 225 82 32 227 70 34 225 49 15 239 15 17 239 65 65 255 96 95 255 83 82 254 87 85 255 0 0 0 255 255 255 255 255 255 255 255 255 255 254 254 255 255 255 0 0 0 255 255 255 255 254 254 255 255 255 0 0 0 0 1 0 0 0 0 255 255 255 255 255 255 255 255 255 255 255 255 255 255 255 255 255 255 255 255 255 255 255 255 255 255 255 255 255 255 255 255 255 255 255 255 255 255 255 255 255 255 255 255 255 255 255 255 255 255 255 255 255 255 254 254 254 255 255 255 0 0 0 255 254 254 239 246 255 158 157 254 67 76 253 16 25 238 17 0 238 43 0 221 80 17 206 97 17 209 104 16 191 110 15 208 115 33 196 112 31 195 113 32 196 115 31 197 113 32 196 125 35 213 118 30 210 120 32 211 121 33 212 108 33 211 108 33 211 108 33 211 109 34 212 97 33 213 94 33 212 86 35 225 84 31 227 67 32 225 65 15 238 46 15 238 31 16 239 31 35 255 80 90 254 84 83 255 85 83 255 86 87 254 0 0 0 253 254 255 255 255 255 253 254 255 255 255 255 255 255 255 255 255 255 255 255 255 0 0 0 254 254 254 0 0 0 10 0 221 137 144 255 154 154 255 0 0 0 255 255 255 255 255 255 255 255 255 255 255 255 255 255 255 255 255 255 255 255 255 255 255 255 255 255 255 255 255 255 255 255 255 255 255 255 255 255 255 255 255 255 255 255 255 255 255 255 255 255 255 255 255 255 255 255 255 255 255 255 0 0 0 0 0 0 222 239 254 169 176 255 136 144 255 84 86 254 36 34 238 19 0 238 25 0 220 70 15 221 83 17 208 97 15 208 92 14 208 97 15 208 93 14 205 112 14 209 108 33 211 103 31 210 109 34 212 106 32 212 108 33 211 111 35 210 82 17 207 87 16 223 71 16 222 55 15 222 55 15 222 49 17 237 30 16 238 17 21 238 56 49 255 77 87 255 85 83 255 84 83 255 81 82 255 0 0 0 0 0 0 255 255 255 255 255 255 253 253 255 254 255 254 255 254 254 255 255 255 253 254 255 255 253 255 1 1 1 1 1 1 48 0 169 63 34 222 240 247 255 240 246 254 49 60 236 0 0 0 255 255 255 255 255 255 255 255 255 255 255 255 255 255 255 255 255 255 255 255 255 255 255 255 255 255 255 255 255 255 255 255 255 255 255 255 255 255 255 255 255 255 255 255 255 255 255 255 254 254 254 254 254 254 254 254 254 254 254 254 254 254 254 1 1 1 0 0 0 170 178 255 153 168 255 136 146 254 87 88 255 44 36 255 1 0 239 0 0 239 28 16 238 41 17 220 52 15 221 72 16 223 73 18 221 71 16 224 62 16 204 86 15 222 71 16 222 72 17 223 71 16 224 50 15 220 44 18 222 46 15 238 29 17 237 29 15 237 16 18 240 17 18 255 50 49 255 74 67 255 84 83 255 88 88 254 1 1 1 0 0 0 255 255 255 255 255 255 255 255 255 255 255 255 254 254 254 255 254 254 255 255 255 255 255 255 255 254 254 255 255 255 254 254 254 0 0 0 74 0 153 31 0 204 98 98 238 132 117 255 0 0 236 0 0 0 255 255 255 255 255 255 255 255 255 255 255 255 255 255 255 255 255 255 255 255 255 255 255 255 255 255 255 255 255 255 255 255 255 255 255 255 255 255 255 255 255 255 255 255 255 255 255 255 253 254 255 255 255 255 255 255 255 255 255 255 255 255 255 254 254 254 253 253 253 3 2 1 5 3 0 2 0 2 149 165 255 138 141 255 119 124 253 87 85 255 48 48 255 16 25 238 30 16 238 0 1 237 4 1 237 16 0 236 18 0 239 18 0 239 19 0 239 17 0 238 0 0 238 2 0 239 29 17 239 34 33 239 31 33 238 51 60 238 79 71 255 79 71 255 87 85 255 0 0 0 0 0 0 0 0 0 253 254 255 255 255 255 252 253 254 252 253 254 255 255 255 255 255 255 255 255 255 255 255 255 255 255 255 255 255 255 254 255 254 255 255 255 255 255 255 1 1 1 76 0 152 72 0 170 49 0 202 25 0 221 45 2 220 1 1 1 255 255 255 255 255 255 255 255 255 255 255 255 255 255 255 255 255 255 255 255 255 255 255 255 255 255 255 255 255 255 255 255 255 255 255 255 255 255 255 255 255 255 255 255 255 255 255 255 255 255 255 255 255 255 254 254 254 255 254 254 253 254 255 254 254 254 255 255 255 252 253 254 253 254 255 252 255 252 3 2 1 0 3 1 2 0 2 1 1 1 0 0 0 5 3 0 68 77 254 80 71 255 53 51 255 48 50 255 48 48 255 56 53 255 77 69 255 75 68 254 67 75 255 85 85 255 83 82 254 0 0 0 4 2 0 2 1 0 1 1 1 0 0 0 0 0 0 255 255 255 252 253 254 253 254 255 255 254 254 255 255 255 255 255 255 255 254 254 255 255 255 255 255 255 255 255 255 253 254 255 254 254 254 254 254 254 255 254 254 254 254 254 255 255 255 255 255 255 1 1 1 77 0 154 77 0 153 67 0 170 0 0 0 255 255 255 255 255 255 255 255 255 255 255 255 255 255 255 255 255 255 255 255 255 255 255 255 255 255 255 255 255 255 255 255 255 255 255 255 255 255 255 255 255 255 255 255 255 255 255 255 255 255 255 255 255 255 255 255 255 255 255 255 255 255 255 255 255 255 252 252 255 255 255 255 255 255 255 255 255 255 253 254 255 255 255 255 255 255 255 254 254 254 253 254 255 255 255 255 254 254 254 0 0 0 1 1 1 0 0 0 1 1 1 0 1 0 0 0 1 0 0 0 2 1 0 0 0 0 0 0 0 0 0 0 255 255 255 255 255 255 254 254 254 255 255 255 255 255 255 254 254 254 255 255 255 255 255 255 253 254 255 253 255 253 254 254 254 255 255 255 255 255 255 255 255 255 255 255 255 255 255 255 255 254 254 255 255 255 255 255 255 255 255 255 255 255 255 253 254 255 255 255 255 255 255 255 0 1 0 0 0 0 0 0 0 255 253 253 255 255 255 255 255 255 255 255 255 255 255 255 255 255 255 255 255 255 255 255 255 255 255 255 255 255 255 